<svg xmlns="http://www.w3.org/2000/svg" xmlns:xlink="http://www.w3.org/1999/xlink" width="1024" zoomAndPan="magnify" viewBox="0 0 768 576" height="768" preserveAspectRatio="xMidYMid meet" version="1.0"><defs><clipPath id="da1f86a48c"><path d="M 196.070312 66 L 591 66 L 591 518.101562 L 196.070312 518.101562 Z M 196.070312 66 " clip-rule="nonzero"/></clipPath><clipPath id="dc32c96c3e"><path d="M 152.570312 151 L 600 151 L 600 439 L 152.570312 439 Z M 152.570312 151 " clip-rule="nonzero"/></clipPath><clipPath id="32c81259d2"><path d="M 207.195312 57.652344 L 590 57.652344 L 590 518 L 207.195312 518 Z M 207.195312 57.652344 " clip-rule="nonzero"/></clipPath><clipPath id="a9f5f55af2"><path d="M 198.09375 63 L 604.070312 63 L 604.070312 517.933594 L 198.09375 517.933594 Z M 198.09375 63 " clip-rule="nonzero"/></clipPath></defs><g clip-path="url(#da1f86a48c)"><path fill="#d2e2eb" d="M 387.511719 501.863281 C 274.371094 464.792969 196.660156 405.351562 196.660156 286.289062 C 196.660156 167.230469 268.453125 70.714844 387.511719 70.714844 C 431.320312 70.714844 470.074219 77.863281 501.578125 92.820312 C 503.425781 78.109375 515.996094 66.695312 531.191406 66.695312 C 547.65625 66.695312 561.054688 80.089844 561.054688 96.554688 C 561.054688 108.046875 554.523438 118.039062 544.980469 123.023438 C 572.671875 150.871094 588.398438 190.316406 588.398438 242.503906 C 588.398438 361.566406 626.324219 580.109375 387.511719 501.863281 " fill-opacity="1" fill-rule="nonzero"/></g><path fill="#f9d291" d="M 570.195312 177.835938 L 544.027344 177.835938 L 544.027344 151.671875 L 570.195312 151.671875 Z M 579.457031 254.117188 L 527.148438 254.117188 C 531.453125 250.371094 539.285156 247.332031 544.644531 247.332031 C 548.253906 247.332031 549.8125 248.714844 549.136719 250.761719 C 555.292969 247.101562 563.320312 244.484375 569.242188 244.484375 C 573.136719 244.484375 575.34375 245.621094 575.761719 247.441406 C 576.378906 247.378906 576.980469 247.332031 577.542969 247.332031 C 582.902344 247.332031 583.761719 250.371094 579.457031 254.117188 Z M 544.953125 280.65625 C 544.371094 281.71875 543.609375 282.847656 542.921875 282.984375 C 541.570312 283.253906 541.570312 283.253906 541.570312 283.253906 C 541.570312 283.253906 546.222656 288.921875 541.910156 293.234375 C 537.589844 297.550781 518.371094 309.691406 518.371094 309.691406 C 518.371094 309.691406 498.3125 302.070312 504.167969 290.644531 C 504.167969 290.644531 515.671875 267.066406 518.101562 266.800781 C 520.53125 266.53125 532.128906 266.800781 534.285156 268.957031 C 535.890625 270.5625 541.5 275.136719 544.292969 277.394531 C 545.265625 278.179688 545.546875 279.550781 544.953125 280.65625 Z M 485.445312 261.222656 C 488.207031 261.222656 489.394531 262.28125 488.878906 263.84375 C 493.589844 261.046875 499.726562 259.050781 504.25 259.050781 C 507.230469 259.050781 508.921875 259.914062 509.238281 261.304688 C 509.707031 261.253906 510.164062 261.222656 510.601562 261.222656 C 514.699219 261.222656 515.355469 263.546875 512.0625 266.410156 L 472.070312 266.410156 C 475.359375 263.546875 481.351562 261.222656 485.445312 261.222656 Z M 588.398438 242.503906 C 588.398438 239.890625 588.347656 237.316406 588.269531 234.765625 L 368.941406 234.765625 L 273.054688 337.8125 L 531.246094 337.8125 L 588.648438 261.109375 C 588.496094 254.695312 588.398438 248.476562 588.398438 242.503906 " fill-opacity="1" fill-rule="nonzero"/><g clip-path="url(#dc32c96c3e)"><path fill="#4a7296" d="M 573.429688 151.671875 L 573.429688 177.835938 L 599.597656 177.835938 L 599.597656 151.671875 Z M 527.132812 316.09375 C 527.132812 316.09375 453.132812 396.492188 414.59375 386.582031 C 399.644531 382.734375 355.601562 325.164062 355.601562 325.164062 C 344.28125 343.242188 334.058594 377.054688 331.085938 398.175781 L 342.371094 418.632812 C 344.34375 422.207031 342.238281 426.640625 338.226562 427.421875 C 309.902344 432.96875 285.742188 447.132812 255.484375 430.757812 C 224.257812 401.492188 210.917969 368.730469 205.777344 352.03125 L 209.828125 330.378906 C 209.828125 330.378906 188.539062 346.53125 176.792969 345.066406 C 165.046875 343.59375 152.578125 334.046875 152.570312 318.636719 C 152.5625 303.226562 229.648438 203.382812 250.9375 193.84375 C 255.6875 191.714844 262.339844 190.097656 270.0625 189.003906 L 288.21875 158.421875 C 308.429688 172.15625 324.71875 175.0625 324.71875 175.0625 L 325.085938 183.433594 C 325.085938 183.433594 327.859375 196.253906 327.859375 196.253906 C 331.570312 197.351562 356.085938 204.914062 358.886719 206.324219 C 382.210938 218.066406 437.394531 334.417969 437.394531 334.417969 L 498.6875 290.535156 C 524.382812 288.898438 527.132812 316.09375 527.132812 316.09375 " fill-opacity="1" fill-rule="nonzero"/></g><g clip-path="url(#32c81259d2)"><path fill="#f89345" d="M 531.191406 103.390625 C 534.621094 103.390625 537.410156 100.597656 537.410156 97.171875 L 537.410156 95.367188 C 537.410156 94.804688 536.960938 94.355469 536.398438 94.355469 C 535.84375 94.355469 535.386719 94.804688 535.386719 95.367188 L 535.386719 97.171875 C 535.386719 99.484375 533.507812 101.367188 531.191406 101.367188 C 528.878906 101.367188 527 99.484375 527 97.171875 L 527 95.367188 C 527 94.804688 526.542969 94.355469 525.988281 94.355469 C 525.425781 94.355469 524.976562 94.804688 524.976562 95.367188 L 524.976562 97.171875 C 524.976562 100.597656 527.765625 103.390625 531.191406 103.390625 Z M 503.355469 96.554688 C 503.355469 111.929688 515.820312 124.386719 531.191406 124.386719 C 546.566406 124.386719 559.03125 111.929688 559.03125 96.554688 C 559.03125 81.179688 546.566406 68.71875 531.191406 68.71875 C 515.820312 68.71875 503.355469 81.179688 503.355469 96.554688 Z M 498.964844 96.554688 C 498.964844 78.753906 513.394531 64.328125 531.191406 64.328125 C 548.992188 64.328125 563.421875 78.753906 563.421875 96.554688 C 563.421875 114.351562 548.992188 128.78125 531.191406 128.78125 C 513.394531 128.78125 498.964844 114.351562 498.964844 96.554688 Z M 498.621094 128.238281 L 492.339844 128.238281 L 492.339844 134.519531 L 498.621094 134.519531 Z M 498.621094 57.65625 L 492.339844 57.65625 L 492.339844 63.9375 L 498.621094 63.9375 Z M 569.703125 57.65625 L 563.421875 57.65625 L 563.421875 63.9375 L 569.703125 63.9375 Z M 569.703125 129.167969 L 563.421875 129.167969 L 563.421875 135.453125 L 569.703125 135.453125 Z M 514.621094 177.835938 L 540.789062 177.835938 L 540.789062 151.671875 L 514.621094 151.671875 Z M 430.1875 149.632812 L 440.3125 146.761719 L 442.265625 142.152344 L 445.011719 139.40625 L 439.625 134.023438 L 436.882812 136.765625 L 433.621094 138.148438 C 433.792969 137.585938 433.867188 137.003906 433.742188 136.394531 C 433.226562 133.890625 430.8125 132.890625 430.714844 132.851562 C 430.53125 132.777344 430.339844 132.738281 430.140625 132.738281 C 429.519531 132.738281 428.972656 133.109375 428.738281 133.683594 C 428.421875 134.453125 428.789062 135.339844 429.546875 135.652344 C 429.558594 135.65625 430.585938 136.121094 430.769531 137.003906 C 430.816406 137.285156 430.316406 138.167969 430.015625 138.695312 C 429.328125 139.914062 428.472656 141.421875 428.628906 143.195312 C 428.746094 144.535156 429.128906 145.8125 429.738281 146.890625 L 429.878906 147.140625 L 429.398438 148.84375 L 427.984375 150.257812 L 429.085938 149.945312 L 428.769531 151.054688 Z M 433.136719 188.882812 L 432.304688 188.046875 L 432.230469 188.953125 Z M 434.789062 191.789062 L 428.914062 192.273438 L 429.394531 186.394531 L 436.535156 179.257812 L 436.472656 179.195312 L 439.050781 176.621094 L 444.566406 182.132812 L 441.988281 184.707031 L 441.929688 184.648438 Z M 432.8125 165.027344 L 432.21875 164.363281 L 432.21875 165.6875 Z M 435.335938 168.976562 L 435.335938 166.753906 L 429.183594 173.660156 L 429.183594 156.386719 L 435.335938 163.300781 L 435.335938 158.035156 L 438.371094 158.035156 L 438.371094 163.300781 L 444.519531 156.386719 L 444.519531 173.660156 L 438.371094 166.753906 L 438.371094 172.011719 L 435.335938 172.011719 Z M 435.265625 116.605469 L 439.554688 117.378906 L 433.234375 110.074219 L 432.175781 119.671875 Z M 436.285156 119.871094 L 428.21875 127.878906 L 430.984375 102.828125 L 447.46875 121.894531 Z M 410.394531 163.347656 L 414.523438 167.542969 L 418.28125 163.84375 L 414.15625 159.648438 Z M 406.75 164.933594 L 407.230469 164.457031 L 407.25 164.441406 C 406.703125 163.707031 406.765625 162.667969 407.433594 162.007812 L 412.859375 156.664062 C 413.210938 156.320312 413.675781 156.132812 414.167969 156.132812 C 414.671875 156.132812 415.144531 156.328125 415.496094 156.6875 L 421.265625 162.550781 C 421.617188 162.90625 421.808594 163.375 421.804688 163.871094 C 421.800781 164.371094 421.601562 164.835938 421.246094 165.1875 L 415.816406 170.527344 C 415.464844 170.875 415.003906 171.0625 414.507812 171.0625 C 414.09375 171.0625 413.703125 170.921875 413.382812 170.671875 L 413.363281 170.6875 L 412.882812 171.167969 C 412.324219 171.710938 411.589844 172.011719 410.808594 172.011719 C 410.011719 172.011719 409.265625 171.699219 408.703125 171.132812 L 406.714844 169.113281 C 405.574219 167.949219 405.585938 166.078125 406.75 164.933594 Z M 408.695312 189.09375 L 418.972656 189.09375 L 418.972656 180.175781 L 408.695312 180.175781 Z M 405.660156 177.140625 L 422.007812 177.140625 L 422.007812 192.128906 L 405.660156 192.128906 Z M 406.710938 149.640625 L 416.992188 146.726562 L 418.96875 142.050781 L 421.753906 139.269531 L 418.308594 135.832031 L 416.304688 133.824219 L 413.523438 136.601562 L 408.851562 138.585938 L 405.929688 148.863281 L 404.535156 150.261719 L 405.621094 149.949219 L 405.3125 151.042969 Z M 405.859375 126.511719 L 413.09375 119.324219 L 423.128906 121.140625 L 408.339844 104.035156 Z M 374.824219 118.527344 C 375.277344 115.96875 375.554688 113.382812 375.601562 110.796875 C 375.648438 107.589844 375.371094 104.371094 374.609375 101.261719 C 373.894531 98.148438 372.691406 95.148438 371.085938 92.390625 C 370.328125 91.09375 369.464844 89.859375 368.519531 88.6875 C 372.894531 97.964844 375.046875 108.273438 374.824219 118.527344 Z M 316.292969 133.199219 C 316.261719 130.859375 316.066406 128.523438 315.722656 126.207031 C 314.832031 130.285156 317.160156 134.902344 315.371094 138.722656 C 313.007812 143.765625 305.519531 143.710938 301.714844 147.773438 C 301.527344 147.972656 301.371094 148.1875 301.207031 148.398438 C 302.089844 147.476562 303.125 146.703125 304.257812 146.117188 C 305.8125 145.300781 307.476562 144.832031 309.0625 144.277344 C 310.636719 143.726562 312.179688 143.074219 313.4375 142.074219 C 314.722656 141.105469 315.574219 139.726562 315.925781 138.144531 C 316.304688 136.566406 316.285156 134.878906 316.292969 133.199219 Z M 274.683594 193.191406 C 274.746094 195.523438 275.796875 199.894531 281.089844 206.324219 C 289.410156 216.417969 287.089844 228.710938 281.089844 232.566406 C 280.792969 232.757812 280.515625 232.917969 280.234375 233.078125 C 284.304688 232.78125 288.160156 230.355469 289.941406 226.71875 C 291 224.648438 291.464844 222.277344 291.183594 219.976562 C 290.910156 217.667969 289.972656 215.464844 288.726562 213.472656 C 286.257812 209.425781 282.507812 206.300781 279.410156 202.546875 C 277.863281 200.671875 276.476562 198.605469 275.5625 196.320312 C 275.160156 195.320312 274.863281 194.265625 274.683594 193.191406 Z M 263.957031 232.761719 C 263.429688 232.691406 262.890625 232.625 262.3125 232.566406 C 251.851562 231.464844 250.941406 244.03125 238.28125 245.683594 C 237.167969 245.824219 235.980469 245.898438 234.75 245.9375 C 236.097656 246.882812 237.519531 247.710938 239.042969 248.253906 C 240.855469 248.898438 242.792969 249.242188 244.675781 249.011719 C 246.570312 248.816406 248.3125 247.960938 249.730469 246.683594 C 252.660156 244.164062 254.246094 240.378906 256.996094 237.363281 C 258.898438 235.28125 261.324219 233.707031 263.957031 232.761719 Z M 231.765625 188.742188 C 233.929688 187.328125 235.816406 185.613281 236.988281 183.144531 C 240.328125 176.101562 237.476562 174.960938 244.875 164.773438 C 242.433594 167.132812 240.039062 169.519531 238.175781 172.304688 C 236.957031 174.074219 236.007812 176.011719 235.425781 178.070312 C 234.847656 180.132812 234.574219 182.335938 233.859375 184.46875 C 233.355469 185.984375 232.644531 187.417969 231.765625 188.742188 Z M 266.035156 113.011719 C 266.933594 107.789062 267.816406 102.109375 268.757812 95.910156 C 268.269531 97.324219 267.753906 98.734375 267.222656 100.128906 C 266.085938 103.023438 265.078125 105.992188 265.253906 109.046875 C 265.3125 110.394531 265.585938 111.730469 266.035156 113.011719 Z M 377.3125 159.792969 C 377.597656 161.792969 377.546875 163.851562 377.261719 165.859375 C 376.9375 167.855469 376.382812 169.769531 375.988281 171.683594 C 375.171875 175.5 375.617188 179.480469 376.066406 183.40625 C 376.078125 183.511719 376.003906 183.605469 375.898438 183.617188 C 375.796875 183.628906 375.699219 183.558594 375.683594 183.460938 C 375.359375 181.503906 375.03125 179.539062 374.875 177.539062 C 374.730469 175.550781 374.785156 173.511719 375.148438 171.527344 C 375.488281 169.542969 376.042969 167.636719 376.324219 165.714844 C 376.574219 163.796875 376.605469 161.851562 376.3125 159.925781 C 375.820312 156.050781 374.492188 152.308594 373.390625 148.492188 C 372.839844 146.582031 372.320312 144.648438 372.007812 142.664062 C 371.816406 141.394531 371.707031 140.113281 371.695312 138.828125 C 371.371094 140.8125 371.175781 142.804688 371.261719 144.816406 C 371.511719 150.59375 374.054688 156.125 374.015625 161.902344 C 373.984375 166.390625 372.398438 170.734375 372.242188 175.21875 C 372.078125 180.046875 373.585938 184.859375 373.027344 189.660156 C 372.324219 195.75 368.402344 200.996094 366.925781 206.953125 C 366.492188 208.6875 366.285156 210.441406 366.214844 212.207031 C 363.542969 209.445312 361.070312 207.421875 358.886719 206.324219 C 356.085938 204.914062 331.570312 197.351562 327.859375 196.253906 C 327.859375 196.253906 325.085938 183.433594 325.085938 183.433594 L 324.71875 175.0625 C 324.71875 175.0625 324.640625 175.050781 324.507812 175.023438 C 324.527344 174.472656 324.535156 174.011719 324.523438 173.683594 C 338.226562 176.71875 351.902344 175.539062 358.082031 168.710938 C 366.734375 159.140625 364.113281 99.851562 364.113281 99.851562 C 363.894531 98.898438 363.625 97.988281 363.328125 97.097656 C 363.355469 97.480469 363.359375 97.867188 363.328125 98.257812 C 363.222656 99.519531 362.8125 100.761719 362.089844 101.789062 C 362.015625 101.890625 361.875 101.914062 361.769531 101.839844 C 361.679688 101.777344 361.648438 101.660156 361.691406 101.558594 C 362.164062 100.488281 362.417969 99.347656 362.429688 98.207031 C 362.4375 97.074219 362.234375 95.941406 361.773438 94.917969 C 361.347656 93.949219 360.710938 93.082031 359.929688 92.355469 C 358.117188 91.5 355.84375 91.484375 353.515625 91.894531 C 353.859375 91.933594 354.207031 91.988281 354.546875 92.0625 C 355.96875 92.414062 357.371094 93.117188 358.351562 94.265625 C 359.324219 95.378906 359.925781 96.875 359.761719 98.34375 C 359.75 98.449219 359.65625 98.523438 359.550781 98.511719 C 359.457031 98.503906 359.382812 98.425781 359.375 98.335938 C 359.285156 96.996094 358.640625 95.761719 357.722656 94.84375 C 356.808594 93.925781 355.605469 93.316406 354.316406 93.046875 C 353.039062 92.730469 351.6875 92.742188 350.351562 92.925781 C 349.824219 92.996094 349.300781 93.097656 348.773438 93.21875 C 347.542969 93.667969 346.378906 94.164062 345.359375 94.636719 C 344.226562 92.605469 341.847656 91.5625 339.5 91.597656 C 339.511719 91.601562 339.519531 91.605469 339.53125 91.609375 C 340.238281 91.917969 340.90625 92.324219 341.472656 92.855469 C 342.035156 93.371094 342.523438 93.984375 342.839844 94.675781 C 342.894531 94.792969 342.84375 94.933594 342.722656 94.984375 C 342.632812 95.027344 342.527344 95 342.460938 94.929688 C 341.96875 94.414062 341.464844 93.945312 340.902344 93.546875 C 340.339844 93.152344 339.757812 92.800781 339.128906 92.535156 C 338.554688 92.277344 337.953125 92.097656 337.339844 91.957031 C 336.425781 92.253906 335.578125 92.703125 334.808594 93.273438 C 334.976562 93.246094 335.136719 93.214844 335.308594 93.203125 C 335.90625 93.152344 336.511719 93.210938 337.105469 93.332031 C 337.695312 93.464844 338.269531 93.667969 338.796875 93.964844 C 339.320312 94.253906 339.816406 94.609375 340.210938 95.0625 C 340.292969 95.15625 340.285156 95.308594 340.1875 95.390625 C 340.117188 95.453125 340.011719 95.464844 339.933594 95.425781 C 339.421875 95.191406 338.929688 94.960938 338.421875 94.777344 C 337.914062 94.597656 337.40625 94.433594 336.882812 94.320312 C 336.363281 94.191406 335.832031 94.117188 335.296875 94.054688 C 334.851562 94.007812 334.398438 93.996094 333.9375 93.984375 C 332.792969 95.027344 331.847656 96.316406 331.136719 97.691406 C 330.742188 98.457031 330.414062 99.25 330.125 100.058594 C 330.089844 102.097656 330.359375 104.15625 330.601562 106.234375 C 330.84375 108.71875 331.078125 111.328125 330.421875 113.855469 C 330.097656 115.105469 329.605469 116.324219 328.878906 117.402344 C 328.140625 118.464844 327.160156 119.386719 325.988281 119.941406 C 325.894531 119.988281 325.78125 119.949219 325.734375 119.851562 C 325.6875 119.761719 325.722656 119.652344 325.808594 119.601562 C 327.917969 118.328125 329.097656 116.011719 329.59375 113.664062 C 330.101562 111.289062 329.894531 108.816406 329.597656 106.347656 C 329.488281 105.230469 329.347656 104.101562 329.257812 102.957031 C 328.988281 104.03125 328.761719 105.117188 328.535156 106.195312 C 330.332031 109.570312 327.039062 115.25 323.976562 117.539062 C 321.042969 119.734375 317.464844 121.636719 316.105469 124.984375 C 316.339844 126.003906 316.550781 127.03125 316.714844 128.070312 C 316.964844 129.761719 317.117188 131.46875 317.183594 133.179688 C 317.246094 134.878906 317.253906 136.621094 316.863281 138.359375 C 316.667969 139.226562 316.359375 140.085938 315.878906 140.867188 C 315.398438 141.644531 314.765625 142.316406 314.058594 142.871094 C 311.167969 145.082031 307.585938 145.457031 304.640625 146.878906 C 302.371094 147.945312 300.507812 149.851562 299.40625 152.144531 C 298.390625 155.972656 298.886719 160.523438 298 164.574219 C 298.011719 164.804688 298.035156 165.03125 298.042969 165.257812 C 298.085938 167.246094 297.777344 169.238281 297.183594 171.140625 C 296.546875 173.027344 295.628906 174.820312 294.429688 176.398438 C 293.226562 177.980469 291.777344 179.363281 290.121094 180.421875 C 290.03125 180.480469 289.910156 180.453125 289.851562 180.367188 C 289.800781 180.28125 289.816406 180.171875 289.890625 180.113281 C 291.363281 178.875 292.664062 177.464844 293.738281 175.902344 C 294.800781 174.332031 295.667969 172.632812 296.222656 170.832031 C 296.566406 169.800781 296.796875 168.738281 296.945312 167.660156 C 294.488281 172.640625 288.875 175.136719 284.035156 177.9375 C 281.003906 179.6875 277.945312 182.15625 276.226562 185.105469 C 277.117188 184.484375 278.082031 183.980469 279.070312 183.59375 C 281.226562 182.761719 283.476562 182.382812 285.699219 182.070312 C 285.824219 182.054688 285.941406 182.140625 285.957031 182.265625 C 285.972656 182.386719 285.894531 182.492188 285.785156 182.519531 C 283.609375 183.066406 281.417969 183.546875 279.410156 184.421875 C 277.859375 185.097656 276.390625 186.007812 275.265625 187.222656 C 275.089844 187.765625 274.96875 188.328125 274.898438 188.898438 C 274.90625 188.898438 274.914062 188.894531 274.921875 188.894531 C 275.046875 188.914062 275.125 189.027344 275.113281 189.152344 C 274.796875 191.496094 275.285156 193.886719 276.246094 196.035156 C 277.175781 198.210938 278.542969 200.171875 280.09375 201.96875 C 283.175781 205.59375 286.964844 208.734375 289.582031 212.941406 C 290.871094 215.03125 291.855469 217.375 292.125 219.871094 C 292.402344 222.359375 291.898438 224.933594 290.699219 227.117188 C 289.519531 229.3125 287.667969 231.144531 285.441406 232.242188 C 283.554688 233.175781 281.441406 233.621094 279.359375 233.535156 C 275.09375 235.589844 272.359375 234.023438 265.269531 232.949219 C 262.339844 233.929688 259.679688 235.667969 257.660156 237.960938 C 255.097656 240.855469 253.515625 244.679688 250.394531 247.441406 C 248.859375 248.8125 246.863281 249.769531 244.785156 249.953125 C 242.714844 250.175781 240.636719 249.808594 238.742188 249.054688 C 236.851562 248.3125 235.167969 247.203125 233.617188 245.96875 C 229.117188 246.011719 224.070312 245.472656 219.417969 244.761719 C 208.261719 243.046875 203.269531 229.253906 211.207031 221.234375 C 211.699219 220.742188 212.214844 220.296875 212.765625 219.902344 C 220.472656 214.398438 213.867188 206.6875 217.71875 198.980469 C 220.132812 194.152344 225.566406 192.347656 230.242188 189.679688 C 231.480469 188.019531 232.4375 186.167969 233.042969 184.207031 C 233.660156 182.15625 233.9375 179.984375 234.515625 177.816406 C 235.101562 175.648438 236.085938 173.589844 237.339844 171.738281 C 239.863281 168.03125 243.199219 165.070312 246.367188 162.078125 C 247.199219 161.296875 248.019531 160.503906 248.816406 159.695312 C 248.910156 159.578125 249 159.460938 249.097656 159.339844 C 258.25 148.203125 262.226562 134.761719 265.820312 114.246094 C 265.035156 112.648438 264.539062 110.898438 264.398438 109.101562 C 264.109375 105.835938 265.191406 102.691406 266.277344 99.769531 C 267.425781 96.851562 268.449219 93.914062 269.40625 90.933594 C 269.472656 90.734375 269.53125 90.535156 269.597656 90.332031 C 269.75 89.304688 269.90625 88.269531 270.066406 87.21875 C 275.613281 50.332031 320.945312 59.949219 320.945312 59.949219 C 335.746094 59.507812 348.363281 68.019531 360.300781 76.773438 C 363.425781 79.066406 365.761719 82.421875 367.242188 86.191406 C 367.253906 86.199219 367.273438 86.207031 367.289062 86.214844 C 367.339844 86.316406 367.386719 86.421875 367.4375 86.519531 C 367.941406 86.988281 368.433594 87.46875 368.898438 87.976562 C 369.996094 89.203125 370.976562 90.53125 371.851562 91.929688 C 373.585938 94.730469 374.820312 97.832031 375.59375 101.035156 C 376.320312 104.246094 376.609375 107.550781 376.457031 110.824219 C 376.308594 114.101562 375.738281 117.347656 374.84375 120.476562 C 374.828125 120.535156 374.785156 120.570312 374.730469 120.59375 C 374.570312 123.636719 374.207031 126.667969 373.617188 129.660156 C 373.167969 131.945312 372.597656 134.226562 372.128906 136.515625 C 372.1875 136.558594 372.230469 136.621094 372.226562 136.699219 C 372.140625 138.660156 372.347656 140.617188 372.738281 142.539062 C 373.097656 144.460938 373.648438 146.355469 374.246094 148.234375 C 375.417969 152 376.757812 155.785156 377.3125 159.792969 Z M 539.402344 295.382812 C 539.5 295.523438 539.667969 295.613281 539.859375 295.59375 C 539.960938 295.582031 541.585938 295.417969 543.148438 294.738281 C 543.984375 294.378906 544.792969 293.875 545.355469 293.179688 C 545.527344 292.957031 545.492188 292.644531 545.273438 292.46875 C 545.058594 292.292969 544.738281 292.328125 544.5625 292.546875 C 543.617188 293.730469 541.632812 294.257812 540.535156 294.46875 C 540.191406 294.757812 539.808594 295.0625 539.402344 295.382812 Z M 519.71875 238.375 C 519.441406 237.726562 518.683594 237.425781 518.035156 237.707031 C 517.386719 237.988281 517.089844 238.742188 517.367188 239.390625 L 517.707031 240.175781 L 518.652344 242.363281 C 518.933594 243.015625 519.6875 243.3125 520.339844 243.03125 C 520.988281 242.75 521.285156 241.996094 521.003906 241.347656 L 520.058594 239.15625 Z M 531.023438 339.5 L 545.261719 320.75 L 522.699219 320.75 C 518.550781 325.019531 511.746094 331.824219 503.347656 339.5 Z M 437.394531 334.417969 L 456.484375 320.75 L 430.738281 320.75 C 434.890625 329.148438 437.394531 334.417969 437.394531 334.417969 Z M 348.167969 339.5 L 366.976562 339.5 C 360.222656 331.207031 355.601562 325.164062 355.601562 325.164062 C 353.046875 329.25 350.542969 334.136719 348.167969 339.5 Z M 552.328125 432.671875 L 580.347656 432.671875 L 580.347656 431.660156 L 553.339844 431.660156 L 553.339844 428.925781 L 552.328125 428.925781 Z M 552.328125 426.601562 L 580.347656 426.601562 L 580.347656 425.589844 L 553.339844 425.589844 L 553.339844 422.855469 L 552.328125 422.855469 Z M 552.328125 420.53125 L 580.347656 420.53125 L 580.347656 419.519531 L 553.339844 419.519531 L 553.339844 416.785156 L 552.328125 416.785156 Z M 548.3125 403.566406 L 587.050781 403.566406 C 585.464844 415.457031 583.234375 426.933594 580.148438 437.730469 L 553.339844 437.730469 L 553.339844 434.996094 L 552.328125 434.996094 L 552.328125 438.742188 L 579.851562 438.742188 C 573.46875 460.597656 563.542969 479.613281 548.3125 493.578125 C 546.574219 495.171875 544.765625 496.691406 542.886719 498.148438 L 542.886719 403.566406 Z M 494.304688 426.5 L 534.015625 426.5 L 534.015625 416.785156 L 494.304688 416.785156 Z M 519.789062 457.65625 C 519.789062 454.546875 517.265625 452.03125 514.160156 452.03125 C 511.050781 452.03125 508.535156 454.546875 508.535156 457.65625 C 508.535156 460.761719 511.050781 463.285156 514.160156 463.285156 C 517.265625 463.285156 519.789062 460.761719 519.789062 457.65625 Z M 536.722656 403.566406 L 541.875 403.566406 L 541.875 498.933594 C 540.820312 499.726562 539.738281 500.492188 538.640625 501.242188 L 538.640625 410.617188 L 493.113281 410.617188 L 493.113281 411.628906 L 537.628906 411.628906 L 537.628906 499.230469 L 493.113281 499.230469 L 493.113281 500.242188 L 537.628906 500.242188 L 537.628906 501.9375 C 537.351562 502.121094 537.070312 502.289062 536.796875 502.472656 L 493.113281 502.472656 L 493.113281 503.484375 L 535.207031 503.484375 C 522.332031 511.40625 506.554688 516.492188 487.242188 517.949219 L 487.242188 403.566406 Z M 537.066406 346.917969 L 589.109375 277.375 C 589.289062 282.898438 589.480469 288.527344 589.667969 294.242188 L 575.769531 312.644531 L 566.789062 324.539062 L 549.890625 346.917969 L 537.066406 346.917969 " fill-opacity="1" fill-rule="nonzero"/></g><g clip-path="url(#a9f5f55af2)"><path fill="#393a3f" d="M 512.238281 63.429688 L 510.214844 63.429688 L 510.214844 64.441406 L 512.238281 64.441406 Z M 516.285156 63.429688 L 514.261719 63.429688 L 514.261719 64.441406 L 516.285156 64.441406 Z M 510.816406 128.664062 L 508.792969 128.664062 L 508.792969 129.675781 L 510.816406 129.675781 Z M 514.863281 128.664062 L 512.839844 128.664062 L 512.839844 129.675781 L 514.863281 129.675781 Z M 508.195312 63.429688 L 506.171875 63.429688 L 506.171875 64.441406 L 508.195312 64.441406 Z M 504.148438 63.429688 L 502.125 63.429688 L 502.125 64.441406 L 504.148438 64.441406 Z M 506.769531 128.664062 L 504.746094 128.664062 L 504.746094 129.675781 L 506.769531 129.675781 Z M 516.886719 129.675781 L 518.910156 129.675781 L 518.910156 128.664062 L 516.886719 128.664062 Z M 532.472656 63.429688 L 530.449219 63.429688 L 530.449219 64.441406 L 532.472656 64.441406 Z M 528.425781 63.429688 L 526.402344 63.429688 L 526.402344 64.441406 L 528.425781 64.441406 Z M 531.050781 128.664062 L 529.027344 128.664062 L 529.027344 129.675781 L 531.050781 129.675781 Z M 520.332031 63.429688 L 518.308594 63.429688 L 518.308594 64.441406 L 520.332031 64.441406 Z M 524.378906 63.429688 L 522.355469 63.429688 L 522.355469 64.441406 L 524.378906 64.441406 Z M 520.933594 129.675781 L 522.957031 129.675781 L 522.957031 128.664062 L 520.933594 128.664062 Z M 502.722656 128.664062 L 500.703125 128.664062 L 500.703125 129.675781 L 502.722656 129.675781 Z M 527.003906 128.664062 L 524.980469 128.664062 L 524.980469 129.675781 L 527.003906 129.675781 Z M 499.128906 115.066406 L 498.117188 115.066406 L 498.117188 117.089844 L 499.128906 117.089844 Z M 499.128906 111.019531 L 498.117188 111.019531 L 498.117188 113.042969 L 499.128906 113.042969 Z M 499.128906 106.972656 L 498.117188 106.972656 L 498.117188 108.996094 L 499.128906 108.996094 Z M 499.128906 98.878906 L 498.117188 98.878906 L 498.117188 100.902344 L 499.128906 100.902344 Z M 498.648438 129.167969 L 499.128906 129.167969 L 499.128906 127.207031 L 498.117188 127.207031 L 498.117188 129.675781 L 498.679688 129.675781 Z M 499.128906 123.160156 L 498.117188 123.160156 L 498.117188 125.183594 L 499.128906 125.183594 Z M 499.128906 119.113281 L 498.117188 119.113281 L 498.117188 121.136719 L 499.128906 121.136719 Z M 499.128906 86.742188 L 498.117188 86.742188 L 498.117188 88.765625 L 499.128906 88.765625 Z M 499.128906 74.601562 L 498.117188 74.601562 L 498.117188 76.625 L 499.128906 76.625 Z M 499.128906 70.554688 L 498.117188 70.554688 L 498.117188 72.578125 L 499.128906 72.578125 Z M 499.128906 66.507812 L 498.117188 66.507812 L 498.117188 68.53125 L 499.128906 68.53125 Z M 499.128906 94.832031 L 498.117188 94.832031 L 498.117188 96.855469 L 499.128906 96.855469 Z M 499.128906 78.648438 L 498.117188 78.648438 L 498.117188 80.671875 L 499.128906 80.671875 Z M 499.128906 90.789062 L 498.117188 90.789062 L 498.117188 92.8125 L 499.128906 92.8125 Z M 500.101562 64.441406 L 500.101562 63.429688 L 498.117188 63.429688 L 498.117188 64.484375 L 499.128906 64.484375 Z M 499.128906 82.695312 L 498.117188 82.695312 L 498.117188 84.71875 L 499.128906 84.71875 Z M 499.128906 102.925781 L 498.117188 102.925781 L 498.117188 104.949219 L 499.128906 104.949219 Z M 563.925781 91.660156 L 562.914062 91.660156 L 562.914062 93.683594 L 563.925781 93.683594 Z M 563.925781 95.707031 L 562.914062 95.707031 L 562.914062 97.730469 L 563.925781 97.730469 Z M 563.925781 87.613281 L 562.914062 87.613281 L 562.914062 89.636719 L 563.925781 89.636719 Z M 563.925781 75.476562 L 562.914062 75.476562 L 562.914062 77.5 L 563.925781 77.5 Z M 563.925781 99.753906 L 562.914062 99.753906 L 562.914062 101.777344 L 563.925781 101.777344 Z M 563.925781 71.429688 L 562.914062 71.429688 L 562.914062 73.453125 L 563.925781 73.453125 Z M 563.925781 83.566406 L 562.914062 83.566406 L 562.914062 85.589844 L 563.925781 85.589844 Z M 563.925781 79.519531 L 562.914062 79.519531 L 562.914062 81.542969 L 563.925781 81.542969 Z M 563.925781 119.984375 L 562.914062 119.984375 L 562.914062 122.007812 L 563.925781 122.007812 Z M 562.914062 126.054688 L 563.925781 126.054688 L 563.925781 124.03125 L 562.914062 124.03125 Z M 562.914062 65.359375 L 563.925781 65.359375 L 563.925781 63.429688 L 562.820312 63.429688 L 562.820312 64.441406 L 562.914062 64.441406 Z M 563.925781 107.847656 L 562.914062 107.847656 L 562.914062 109.871094 L 563.925781 109.871094 Z M 535.097656 128.664062 L 533.074219 128.664062 L 533.074219 129.675781 L 535.097656 129.675781 Z M 563.925781 103.800781 L 562.914062 103.800781 L 562.914062 105.824219 L 563.925781 105.824219 Z M 563.925781 115.9375 L 562.914062 115.9375 L 562.914062 117.960938 L 563.925781 117.960938 Z M 563.925781 111.894531 L 562.914062 111.894531 L 562.914062 113.917969 L 563.925781 113.917969 Z M 560.796875 63.429688 L 558.773438 63.429688 L 558.773438 64.441406 L 560.796875 64.441406 Z M 544.613281 63.429688 L 542.589844 63.429688 L 542.589844 64.441406 L 544.613281 64.441406 Z M 548.65625 63.429688 L 546.632812 63.429688 L 546.632812 64.441406 L 548.65625 64.441406 Z M 563.925781 67.382812 L 562.914062 67.382812 L 562.914062 69.40625 L 563.925781 69.40625 Z M 547.234375 128.664062 L 545.210938 128.664062 L 545.210938 129.675781 L 547.234375 129.675781 Z M 540.566406 63.429688 L 538.542969 63.429688 L 538.542969 64.441406 L 540.566406 64.441406 Z M 536.519531 63.429688 L 534.496094 63.429688 L 534.496094 64.441406 L 536.519531 64.441406 Z M 539.140625 128.664062 L 537.117188 128.664062 L 537.117188 129.675781 L 539.140625 129.675781 Z M 541.164062 129.675781 L 543.1875 129.675781 L 543.1875 128.664062 L 541.164062 128.664062 Z M 559.375 128.664062 L 557.351562 128.664062 L 557.351562 129.675781 L 559.375 129.675781 Z M 563.925781 128.078125 L 562.914062 128.078125 L 562.914062 128.664062 L 561.398438 128.664062 L 561.398438 129.675781 L 563.925781 129.675781 Z M 556.75 63.429688 L 554.726562 63.429688 L 554.726562 64.441406 L 556.75 64.441406 Z M 551.28125 128.664062 L 549.257812 128.664062 L 549.257812 129.675781 L 551.28125 129.675781 Z M 555.328125 128.664062 L 553.304688 128.664062 L 553.304688 129.675781 L 555.328125 129.675781 Z M 552.703125 63.429688 L 550.679688 63.429688 L 550.679688 64.441406 L 552.703125 64.441406 Z M 519.636719 96.554688 C 521.292969 96.554688 522.632812 95.214844 522.632812 93.5625 C 522.632812 93.003906 522.46875 92.496094 522.210938 92.046875 C 522.222656 92.117188 522.253906 92.183594 522.253906 92.253906 C 522.253906 92.972656 521.667969 93.5625 520.945312 93.5625 C 520.226562 93.5625 519.636719 92.972656 519.636719 92.253906 C 519.636719 91.535156 520.226562 90.945312 520.945312 90.945312 C 521.019531 90.945312 521.078125 90.976562 521.152344 90.988281 C 520.703125 90.726562 520.195312 90.566406 519.636719 90.566406 C 517.984375 90.566406 516.644531 91.90625 516.644531 93.5625 C 516.644531 95.214844 517.984375 96.554688 519.636719 96.554688 Z M 538.914062 93.5625 C 538.914062 95.214844 540.253906 96.554688 541.910156 96.554688 C 543.558594 96.554688 544.898438 95.214844 544.898438 93.5625 C 544.898438 93.003906 544.742188 92.496094 544.476562 92.046875 C 544.488281 92.117188 544.519531 92.183594 544.519531 92.253906 C 544.519531 92.972656 543.9375 93.5625 543.210938 93.5625 C 542.492188 93.5625 541.910156 92.972656 541.910156 92.253906 C 541.910156 91.535156 542.492188 90.945312 543.210938 90.945312 C 543.289062 90.945312 543.351562 90.976562 543.417969 90.988281 C 542.976562 90.726562 542.460938 90.566406 541.910156 90.566406 C 540.253906 90.566406 538.914062 91.90625 538.914062 93.5625 Z M 597.574219 153.695312 L 575.453125 153.695312 L 575.453125 175.8125 L 597.574219 175.8125 Z M 568.171875 153.695312 L 546.050781 153.695312 L 546.050781 175.8125 L 568.171875 175.8125 Z M 538.765625 153.695312 L 516.644531 153.695312 L 516.644531 175.8125 L 538.765625 175.8125 Z M 509.363281 153.695312 L 487.242188 153.695312 L 487.242188 175.8125 L 509.363281 175.8125 Z M 604.160156 148.957031 L 604.160156 180.550781 C 604.160156 182.589844 602.511719 184.238281 600.476562 184.238281 L 483.339844 184.238281 C 481.304688 184.238281 479.652344 182.589844 479.652344 180.550781 L 479.652344 148.957031 C 479.652344 146.917969 481.304688 145.273438 483.339844 145.273438 L 600.476562 145.273438 C 602.511719 145.273438 604.160156 146.917969 604.160156 148.957031 Z M 419.714844 163.855469 L 414.164062 158.222656 L 408.964844 163.339844 L 414.511719 168.972656 Z M 432.484375 107.660156 L 430.855469 122.40625 L 435.605469 117.695312 L 442.191406 118.882812 Z M 406.671875 191.117188 L 420.996094 191.117188 L 420.996094 178.152344 L 406.671875 178.152344 Z M 407.4375 168.402344 L 409.421875 170.425781 C 410.179688 171.1875 411.40625 171.195312 412.167969 170.445312 L 413.375 169.257812 L 413.90625 169.796875 C 414.070312 169.964844 414.292969 170.050781 414.507812 170.050781 C 414.726562 170.050781 414.945312 169.96875 415.109375 169.808594 L 420.535156 164.464844 C 420.871094 164.136719 420.875 163.59375 420.546875 163.257812 L 414.773438 157.394531 C 414.609375 157.226562 414.390625 157.140625 414.167969 157.140625 C 413.953125 157.140625 413.738281 157.222656 413.574219 157.386719 L 408.144531 162.726562 C 407.808594 163.058594 407.804688 163.59375 408.136719 163.929688 L 408.660156 164.472656 L 407.460938 165.65625 C 406.691406 166.410156 406.683594 167.636719 407.4375 168.402344 Z M 418.863281 140.726562 L 420.320312 139.269531 L 418.308594 137.261719 L 416.304688 135.253906 L 414.847656 136.710938 Z M 412.984375 143.242188 L 408 148.222656 L 416.246094 145.882812 L 418.1875 141.304688 L 414.269531 137.382812 L 409.691406 139.328125 L 407.347656 147.574219 L 412.332031 142.59375 Z M 407.179688 123.773438 L 412.753906 118.238281 L 420.492188 119.632812 L 409.089844 106.453125 Z M 429.535156 125.140625 L 435.945312 118.785156 L 444.828125 120.390625 L 431.738281 105.246094 Z M 443.507812 159.046875 L 438.1875 165.027344 L 443.507812 171 Z M 443.132812 182.132812 L 439.050781 178.050781 L 437.902344 179.195312 L 441.988281 183.277344 Z M 441.363281 183.78125 L 437.402344 179.820312 L 430.371094 186.851562 L 430.019531 191.164062 L 434.335938 190.808594 Z M 430.195312 159.046875 L 430.195312 171 L 435.519531 165.027344 Z M 440.171875 138.867188 L 442.144531 140.84375 L 443.582031 139.40625 L 439.625 135.453125 L 438.191406 136.886719 Z M 439.550781 139.484375 L 437.621094 137.550781 L 433.113281 139.464844 L 431.363281 145.636719 L 430.984375 146.96875 L 430.808594 147.582031 L 431.179688 147.207031 L 431.894531 146.496094 L 435.714844 142.675781 L 436.355469 143.320312 L 431.449219 148.222656 L 439.570312 145.921875 L 441.484375 141.410156 Z M 437.359375 160.058594 L 437.359375 159.046875 L 436.347656 159.046875 L 436.347656 160.058594 Z M 437.359375 164.03125 L 437.359375 162.042969 L 436.347656 162.042969 L 436.347656 164.03125 Z M 436.347656 169.988281 L 436.347656 171 L 437.359375 171 L 437.359375 169.988281 Z M 437.359375 168.003906 L 437.359375 166.019531 L 436.347656 166.019531 L 436.347656 168.003906 Z M 429.636719 143.105469 C 429.769531 144.621094 430.238281 145.714844 430.621094 146.394531 L 431.050781 144.878906 C 430.867188 144.371094 430.710938 143.753906 430.644531 143.019531 C 430.542969 141.875 431.167969 140.761719 431.777344 139.691406 C 432.386719 138.617188 432.960938 137.605469 432.75 136.597656 C 432.347656 134.628906 430.414062 133.824219 430.332031 133.789062 C 430.074219 133.683594 429.777344 133.808594 429.675781 134.066406 C 429.570312 134.320312 429.691406 134.617188 429.949219 134.726562 C 429.964844 134.734375 431.464844 135.371094 431.757812 136.804688 C 431.890625 137.4375 431.410156 138.289062 430.894531 139.195312 C 430.246094 140.34375 429.507812 141.648438 429.636719 143.105469 Z M 400.679688 195.78125 L 400.679688 103.652344 C 400.679688 101.414062 402.496094 99.589844 404.738281 99.589844 L 445.472656 99.589844 C 447.71875 99.589844 449.535156 101.414062 449.535156 103.652344 L 449.535156 195.78125 C 449.535156 198.027344 447.71875 199.84375 445.472656 199.84375 L 404.738281 199.84375 C 402.496094 199.84375 400.679688 198.027344 400.679688 195.78125 Z M 431.207031 161.703125 L 431.207031 168.34375 L 434.164062 165.027344 Z M 431.351562 187.300781 L 431.125 190.058594 L 433.882812 189.835938 L 434.703125 189.015625 L 432.167969 186.484375 Z M 407.683594 190.105469 L 419.984375 190.105469 L 419.984375 179.164062 L 407.683594 179.164062 Z M 519.707031 267.664062 C 519.59375 267.707031 519.511719 267.785156 519.429688 267.859375 C 519.355469 267.945312 519.289062 268.03125 519.25 268.152344 C 519.207031 268.265625 519.171875 268.382812 519.179688 268.550781 C 519.1875 268.695312 519.300781 268.816406 519.453125 268.824219 C 519.617188 268.835938 519.738281 268.800781 519.855469 268.753906 C 519.972656 268.714844 520.054688 268.644531 520.144531 268.574219 C 520.222656 268.496094 520.296875 268.410156 520.339844 268.296875 C 520.386719 268.1875 520.425781 268.066406 520.417969 267.90625 C 520.410156 267.730469 520.273438 267.589844 520.09375 267.582031 C 519.933594 267.574219 519.816406 267.617188 519.707031 267.664062 Z M 525.671875 268.558594 C 525.382812 268.753906 525.136719 269.003906 524.917969 269.273438 C 524.703125 269.546875 524.507812 269.839844 524.378906 270.164062 C 524.246094 270.480469 524.140625 270.816406 524.121094 271.171875 C 524.121094 271.230469 524.144531 271.292969 524.191406 271.332031 C 524.273438 271.410156 524.402344 271.40625 524.476562 271.324219 C 524.714844 271.082031 524.910156 270.84375 525.109375 270.605469 L 525.695312 269.914062 L 526.277344 269.21875 C 526.46875 268.980469 526.671875 268.746094 526.859375 268.476562 L 526.867188 268.46875 C 526.902344 268.410156 526.921875 268.339844 526.898438 268.269531 C 526.867188 268.140625 526.734375 268.058594 526.605469 268.09375 C 526.261719 268.1875 525.957031 268.355469 525.671875 268.558594 Z M 532.835938 278.828125 C 533.027344 278.882812 533.21875 278.894531 533.410156 278.902344 C 533.601562 278.902344 533.792969 278.894531 533.980469 278.847656 C 534.175781 278.800781 534.363281 278.75 534.558594 278.625 C 534.589844 278.605469 534.617188 278.578125 534.640625 278.542969 C 534.71875 278.417969 534.683594 278.25 534.558594 278.171875 C 534.363281 278.050781 534.175781 278 533.980469 277.949219 C 533.792969 277.902344 533.601562 277.894531 533.410156 277.894531 C 533.21875 277.902344 533.027344 277.914062 532.835938 277.96875 C 532.644531 278.023438 532.457031 278.082031 532.261719 278.207031 C 532.238281 278.222656 532.210938 278.246094 532.195312 278.273438 C 532.125 278.382812 532.15625 278.523438 532.261719 278.589844 C 532.457031 278.71875 532.644531 278.777344 532.835938 278.828125 Z M 533.238281 299.992188 C 533.917969 299.417969 534.492188 298.722656 534.976562 297.972656 C 535.476562 297.222656 535.855469 296.402344 536.148438 295.550781 C 536.148438 295.546875 536.148438 295.542969 536.152344 295.539062 C 536.347656 295.539062 536.550781 295.519531 536.746094 295.484375 C 537.125 295.417969 537.484375 295.269531 537.820312 295.078125 C 538.152344 294.878906 538.460938 294.632812 538.699219 294.316406 C 538.9375 294.011719 539.128906 293.65625 539.1875 293.261719 C 539.195312 293.207031 539.179688 293.144531 539.132812 293.101562 C 539.058594 293.015625 538.933594 293.011719 538.851562 293.085938 L 538.84375 293.09375 C 538.585938 293.328125 538.351562 293.53125 538.097656 293.710938 C 537.839844 293.886719 537.589844 294.058594 537.316406 294.203125 C 537.050781 294.359375 536.765625 294.488281 536.484375 294.625 C 536.453125 294.640625 536.414062 294.652344 536.382812 294.671875 C 536.527344 294.09375 536.640625 293.507812 536.679688 292.914062 C 536.746094 292.023438 536.710938 291.121094 536.515625 290.253906 C 536.492188 290.152344 536.40625 290.078125 536.300781 290.070312 C 536.175781 290.0625 536.0625 290.164062 536.058594 290.292969 C 536.011719 291.144531 535.9375 291.984375 535.792969 292.808594 C 535.640625 293.628906 535.453125 294.445312 535.1875 295.230469 C 534.933594 296.023438 534.601562 296.792969 534.238281 297.546875 C 533.863281 298.296875 533.425781 299.019531 532.949219 299.734375 C 532.902344 299.808594 532.90625 299.902344 532.960938 299.96875 C 533.03125 300.050781 533.15625 300.0625 533.238281 299.992188 Z M 541.703125 283.394531 C 541.761719 283.484375 541.875 283.523438 541.980469 283.484375 C 542.097656 283.4375 542.15625 283.304688 542.109375 283.1875 C 541.71875 282.164062 541.230469 281.1875 540.695312 280.230469 C 540.164062 279.273438 539.566406 278.363281 538.929688 277.472656 C 538.28125 276.589844 537.601562 275.730469 536.859375 274.933594 C 536.121094 274.125 535.34375 273.359375 534.5 272.664062 C 534.429688 272.609375 534.328125 272.605469 534.253906 272.660156 C 534.171875 272.726562 534.15625 272.847656 534.21875 272.933594 L 536.203125 275.480469 C 536.847656 276.339844 537.496094 277.1875 538.105469 278.0625 C 538.734375 278.925781 539.332031 279.816406 539.933594 280.699219 Z M 326.097656 388.480469 C 325.167969 386.921875 324.265625 385.347656 323.3125 383.796875 C 322.367188 382.25 321.410156 380.707031 320.398438 379.195312 C 320.347656 379.117188 320.238281 379.082031 320.152344 379.128906 C 320.054688 379.175781 320.015625 379.289062 320.0625 379.382812 C 320.859375 381.019531 321.714844 382.625 322.574219 384.226562 C 323.433594 385.824219 324.339844 387.398438 325.222656 388.984375 C 326.144531 390.546875 327.042969 392.125 327.984375 393.675781 C 328.929688 395.226562 329.882812 396.773438 330.890625 398.289062 C 330.953125 398.382812 331.078125 398.417969 331.183594 398.367188 C 331.296875 398.308594 331.34375 398.175781 331.289062 398.058594 C 330.484375 396.425781 329.628906 394.828125 328.761719 393.230469 C 327.894531 391.632812 326.984375 390.0625 326.097656 388.480469 Z M 446.976562 342.289062 C 447.023438 342.398438 447.140625 342.457031 447.257812 342.421875 C 447.378906 342.386719 447.445312 342.257812 447.40625 342.136719 C 446.753906 340.007812 445.453125 338.054688 443.710938 336.613281 C 441.980469 335.140625 439.816406 334.230469 437.585938 333.855469 C 437.460938 333.835938 437.324219 333.863281 437.210938 333.945312 C 436.992188 334.105469 436.945312 334.417969 437.109375 334.636719 L 437.113281 334.644531 C 438.730469 336.835938 440.117188 339.214844 441.140625 341.757812 C 442.199219 344.28125 442.921875 346.945312 443.351562 349.667969 C 443.367188 349.765625 443.453125 349.839844 443.554688 349.835938 C 443.660156 349.828125 443.742188 349.734375 443.734375 349.628906 C 443.574219 346.835938 442.949219 344.070312 441.96875 341.429688 C 441.109375 339.203125 440 337.066406 438.640625 335.097656 C 440.277344 335.519531 441.828125 336.257812 443.175781 337.28125 C 444.839844 338.5625 446.15625 340.3125 446.976562 342.289062 Z M 308.925781 187.519531 C 306.785156 186.636719 304.636719 185.765625 302.464844 184.953125 C 302.375 184.917969 302.269531 184.957031 302.222656 185.042969 C 302.175781 185.144531 302.214844 185.257812 302.3125 185.304688 C 304.382812 186.347656 306.480469 187.328125 308.582031 188.300781 C 310.683594 189.277344 312.808594 190.203125 314.921875 191.152344 L 321.3125 193.882812 C 323.453125 194.769531 325.59375 195.648438 327.765625 196.46875 C 327.875 196.507812 327.996094 196.460938 328.050781 196.355469 C 328.105469 196.238281 328.0625 196.105469 327.949219 196.046875 C 325.875 195.011719 323.773438 194.035156 321.671875 193.066406 L 315.324219 190.230469 C 313.191406 189.328125 311.066406 188.398438 308.925781 187.519531 Z M 354.375 124.191406 C 355.136719 123.75 355.863281 123.277344 356.609375 122.886719 C 357.359375 122.5 358.121094 122.171875 358.914062 122.011719 C 359.699219 121.839844 360.5 121.839844 361.257812 122.035156 C 362.019531 122.242188 362.730469 122.664062 363.335938 123.238281 C 363.410156 123.304688 363.527344 123.324219 363.617188 123.269531 C 363.726562 123.207031 363.761719 123.0625 363.695312 122.953125 C 363.222656 122.152344 362.4375 121.53125 361.539062 121.1875 C 360.628906 120.832031 359.617188 120.824219 358.699219 121.023438 C 357.777344 121.234375 356.917969 121.636719 356.171875 122.152344 C 355.421875 122.664062 354.75 123.25 354.136719 123.886719 C 354.078125 123.945312 354.0625 124.039062 354.105469 124.113281 C 354.160156 124.210938 354.277344 124.242188 354.375 124.191406 Z M 325.328125 122.667969 C 326.355469 122.035156 327.371094 121.417969 328.429688 120.90625 C 329.496094 120.40625 330.585938 119.984375 331.710938 119.773438 C 332.824219 119.542969 333.988281 119.53125 335.105469 119.726562 C 336.222656 119.925781 337.296875 120.375 338.21875 121.089844 C 338.300781 121.15625 338.425781 121.15625 338.511719 121.085938 C 338.605469 121 338.617188 120.855469 338.535156 120.761719 C 337.710938 119.796875 336.527344 119.164062 335.300781 118.851562 C 334.058594 118.53125 332.757812 118.53125 331.507812 118.78125 C 330.269531 119.042969 329.09375 119.519531 328.03125 120.15625 C 326.960938 120.78125 325.980469 121.527344 325.097656 122.359375 C 325.027344 122.417969 325.011719 122.523438 325.0625 122.601562 C 325.117188 122.691406 325.238281 122.722656 325.328125 122.667969 Z M 309.109375 165.949219 C 310.875 167.375 312.808594 168.558594 314.789062 169.609375 C 316.785156 170.636719 318.828125 171.546875 320.886719 172.394531 L 320.910156 172.402344 C 321.03125 172.453125 321.167969 172.410156 321.234375 172.300781 C 321.316406 172.179688 321.277344 172.011719 321.152344 171.9375 L 320.527344 171.542969 C 320.476562 171.507812 320.414062 171.503906 320.355469 171.519531 C 318.628906 170.625 316.902344 169.757812 315.230469 168.800781 C 313.300781 167.730469 311.441406 166.542969 309.738281 165.167969 C 308.019531 163.816406 306.507812 162.21875 305.25 160.441406 C 304 158.664062 303.054688 156.660156 302.574219 154.511719 C 302.554688 154.414062 302.464844 154.347656 302.367188 154.359375 C 302.261719 154.371094 302.183594 154.46875 302.195312 154.574219 C 302.445312 156.832031 303.324219 159 304.546875 160.914062 C 305.769531 162.839844 307.363281 164.5 309.109375 165.949219 Z M 337.363281 161.054688 C 337.886719 161.207031 338.425781 161.332031 338.972656 161.378906 C 339.519531 161.433594 340.070312 161.449219 340.613281 161.367188 C 340.699219 161.351562 340.78125 161.292969 340.804688 161.199219 C 340.84375 161.078125 340.773438 160.945312 340.644531 160.910156 C 340.136719 160.753906 339.628906 160.636719 339.132812 160.5 L 337.652344 160.085938 L 336.171875 159.640625 C 335.679688 159.484375 335.1875 159.316406 334.671875 159.167969 C 334.601562 159.148438 334.519531 159.167969 334.46875 159.226562 C 334.394531 159.308594 334.402344 159.433594 334.480469 159.503906 C 334.890625 159.878906 335.359375 160.167969 335.839844 160.429688 C 336.324219 160.695312 336.835938 160.890625 337.363281 161.054688 Z M 329.757812 151.777344 C 329.6875 151.71875 329.582031 151.714844 329.507812 151.78125 C 329.425781 151.851562 329.417969 151.972656 329.492188 152.054688 C 330.589844 153.285156 331.925781 154.304688 333.375 155.117188 C 334.828125 155.933594 336.429688 156.46875 338.058594 156.820312 C 339.699219 157.121094 341.382812 157.226562 343.039062 157.011719 C 343.457031 156.953125 343.871094 156.898438 344.273438 156.800781 C 344.679688 156.722656 345.09375 156.636719 345.503906 156.492188 C 346.28125 156.203125 347.183594 155.6875 347.445312 154.757812 C 347.476562 154.652344 347.425781 154.535156 347.324219 154.488281 C 347.210938 154.4375 347.070312 154.484375 347.019531 154.597656 L 347.015625 154.605469 C 346.714844 155.253906 346.011719 155.601562 345.28125 155.785156 C 344.546875 155.972656 343.734375 156.066406 342.957031 156.117188 C 341.382812 156.238281 339.796875 156.148438 338.25 155.828125 C 335.140625 155.265625 332.234375 153.816406 329.757812 151.777344 Z M 346.574219 148.601562 C 348.390625 148.625 350.363281 148.597656 352.109375 147.585938 C 352.96875 147.105469 353.71875 146.351562 354.140625 145.398438 C 354.566406 144.429688 354.558594 143.375 354.4375 142.429688 C 354.117188 140.5625 353.679688 138.785156 353.113281 137.003906 C 352.542969 135.238281 351.867188 133.511719 351.039062 131.855469 C 350.988281 131.753906 350.863281 131.703125 350.753906 131.742188 C 350.636719 131.785156 350.570312 131.914062 350.617188 132.035156 C 351.214844 133.765625 351.78125 135.5 352.253906 137.257812 C 352.726562 139.007812 353.167969 140.808594 353.4375 142.570312 C 353.566406 143.429688 353.574219 144.289062 353.269531 145.027344 C 352.96875 145.769531 352.363281 146.386719 351.660156 146.859375 C 350.226562 147.816406 348.363281 148.003906 346.554688 148.214844 C 346.457031 148.226562 346.382812 148.3125 346.382812 148.410156 C 346.382812 148.515625 346.464844 148.601562 346.574219 148.601562 Z M 225.644531 241.371094 C 225.539062 241.351562 225.441406 241.417969 225.421875 241.523438 L 222.796875 255.308594 L 220.261719 269.105469 L 215.199219 296.703125 L 211.460938 317.910156 C 210.414062 318.867188 209.402344 319.851562 208.398438 320.847656 C 207.300781 321.945312 206.230469 323.070312 205.148438 324.179688 C 204.101562 325.324219 203.03125 326.449219 202.003906 327.605469 C 200.96875 328.765625 199.945312 329.929688 198.964844 331.140625 C 198.910156 331.214844 198.910156 331.316406 198.972656 331.390625 C 199.042969 331.472656 199.167969 331.480469 199.246094 331.402344 C 200.402344 330.367188 201.519531 329.285156 202.621094 328.195312 C 203.726562 327.109375 204.792969 325.980469 205.882812 324.875 C 206.941406 323.742188 208.011719 322.621094 209.046875 321.464844 C 209.804688 320.621094 210.550781 319.765625 211.285156 318.898438 L 210.324219 324.339844 L 207.894531 338.15625 L 206.410156 346.917969 L 204.496094 346.917969 C 204.886719 348.296875 205.304688 349.648438 205.722656 351 L 205.550781 351.992188 C 205.53125 352.113281 205.617188 352.234375 205.738281 352.257812 C 205.859375 352.277344 205.980469 352.199219 206.003906 352.070312 L 208.621094 338.289062 L 211.148438 324.488281 L 216.191406 296.882812 L 221.042969 269.246094 L 223.464844 255.425781 L 225.800781 241.59375 C 225.816406 241.488281 225.75 241.390625 225.644531 241.371094 Z M 397.605469 374.757812 C 397.683594 374.6875 397.695312 374.5625 397.625 374.484375 L 380.125 353.792969 L 362.699219 333.046875 C 351.136719 319.167969 339.640625 305.234375 328.574219 290.972656 C 327.171875 289.199219 325.839844 287.386719 324.46875 285.59375 C 323.089844 283.808594 321.777344 281.976562 320.476562 280.140625 C 319.121094 278.332031 317.976562 276.417969 316.785156 274.523438 C 315.707031 272.609375 315.089844 270.457031 314.695312 268.277344 C 314.472656 267.191406 314.394531 266.070312 314.277344 264.964844 C 314.242188 263.851562 314.148438 262.738281 314.199219 261.617188 C 314.199219 259.382812 314.429688 257.148438 314.714844 254.929688 C 315.363281 250.492188 316.472656 246.121094 317.96875 241.882812 C 321 233.449219 325.558594 225.480469 331.761719 218.984375 C 334.867188 215.757812 338.425781 212.945312 342.355469 210.792969 C 346.28125 208.640625 350.597656 207.171875 355.042969 206.550781 C 355.164062 206.535156 355.253906 206.417969 355.238281 206.292969 C 355.222656 206.167969 355.109375 206.078125 354.980469 206.09375 C 350.472656 206.679688 346.078125 208.121094 342.074219 210.269531 C 338.058594 212.414062 334.414062 215.226562 331.230469 218.472656 C 324.910156 225.035156 320.277344 233.082031 317.183594 241.609375 C 315.660156 245.882812 314.523438 250.300781 313.847656 254.800781 C 313.546875 257.058594 313.304688 259.328125 313.296875 261.605469 C 313.246094 262.75 313.332031 263.886719 313.363281 265.027344 C 313.484375 266.167969 313.5625 267.308594 313.785156 268.4375 C 314.1875 270.691406 314.820312 272.945312 315.957031 274.984375 C 317.160156 276.914062 318.335938 278.882812 319.683594 280.691406 C 320.984375 282.550781 322.296875 284.394531 323.671875 286.1875 C 325.039062 287.988281 326.367188 289.820312 327.78125 291.585938 C 338.917969 305.824219 350.472656 319.722656 362.089844 333.558594 L 379.609375 354.234375 L 397.332031 374.738281 C 397.402344 374.816406 397.523438 374.824219 397.605469 374.757812 Z M 354.386719 131.253906 C 355.539062 131.253906 356.472656 130.324219 356.472656 129.167969 C 356.472656 128.019531 355.539062 127.085938 354.386719 127.085938 C 353.234375 127.085938 352.304688 128.019531 352.304688 129.167969 C 352.304688 130.324219 353.234375 131.253906 354.386719 131.253906 Z M 332.027344 129.167969 C 332.027344 128.019531 331.09375 127.085938 329.941406 127.085938 C 328.789062 127.085938 327.859375 128.019531 327.859375 129.167969 C 327.859375 130.324219 328.789062 131.253906 329.941406 131.253906 C 331.09375 131.253906 332.027344 130.324219 332.027344 129.167969 Z M 534.035156 268.769531 L 522.574219 240.960938 C 522.148438 239.882812 521.144531 239.21875 520.058594 239.15625 L 521.003906 241.347656 C 521.285156 241.996094 520.988281 242.75 520.339844 243.03125 C 519.6875 243.3125 518.933594 243.015625 518.652344 242.363281 L 517.707031 240.175781 C 517.011719 241.007812 516.804688 242.191406 517.300781 243.242188 L 528.148438 267.167969 C 530.71875 267.484375 533.003906 267.996094 534.035156 268.769531 Z M 544.90625 301.820312 L 545.816406 301.378906 C 545.5 300.71875 545.066406 300.039062 544.546875 299.347656 C 544.894531 299.261719 545.191406 298.964844 545.214844 298.546875 L 545.355469 295.734375 C 545.421875 294.34375 545.121094 292.960938 544.480469 291.726562 L 543.628906 290.070312 C 543.421875 291.140625 542.917969 292.222656 541.910156 293.234375 C 541.433594 293.710938 540.777344 294.273438 539.996094 294.90625 C 539.753906 295.105469 539.5 295.300781 539.238281 295.507812 C 541.980469 297.667969 543.945312 299.828125 544.90625 301.820312 Z M 508.347656 282.371094 C 508.515625 282.042969 508.691406 281.714844 508.863281 281.378906 C 502.066406 279.960938 494.738281 279.21875 487.222656 279.511719 C 466.417969 280.324219 465.757812 279.105469 460.613281 269.601562 C 458.988281 266.605469 456.96875 262.875 453.777344 258.152344 C 440.230469 238.101562 407.515625 248.960938 407.1875 249.074219 L 407.511719 250.03125 C 407.835938 249.921875 439.820312 239.300781 452.9375 258.71875 C 456.101562 263.402344 458.105469 267.109375 459.722656 270.082031 C 465.015625 279.859375 465.828125 281.359375 487.261719 280.523438 C 494.480469 280.238281 501.640625 280.972656 508.347656 282.371094 Z M 553.339844 434.996094 L 552.328125 434.996094 L 552.328125 438.742188 L 579.851562 438.742188 C 579.949219 438.402344 580.054688 438.066406 580.148438 437.730469 L 553.339844 437.730469 Z M 553.339844 428.925781 L 552.328125 428.925781 L 552.328125 432.671875 L 580.347656 432.671875 L 580.347656 431.660156 L 553.339844 431.660156 Z M 553.339844 422.855469 L 552.328125 422.855469 L 552.328125 426.601562 L 580.347656 426.601562 L 580.347656 425.589844 L 553.339844 425.589844 Z M 553.339844 416.785156 L 552.328125 416.785156 L 552.328125 420.53125 L 580.347656 420.53125 L 580.347656 419.519531 L 553.339844 419.519531 Z M 493.113281 502.472656 L 493.113281 503.484375 L 535.207031 503.484375 C 535.71875 503.167969 536.21875 502.839844 536.722656 502.515625 C 536.746094 502.5 536.769531 502.484375 536.796875 502.472656 Z M 534.015625 416.785156 L 494.304688 416.785156 L 494.304688 426.5 L 534.015625 426.5 Z M 508.535156 457.65625 C 508.535156 460.761719 511.050781 463.285156 514.160156 463.285156 C 517.265625 463.285156 519.789062 460.761719 519.789062 457.65625 C 519.789062 454.546875 517.265625 452.03125 514.160156 452.03125 C 511.050781 452.03125 508.535156 454.546875 508.535156 457.65625 Z M 493.113281 410.617188 L 493.113281 411.628906 L 537.628906 411.628906 L 537.628906 499.230469 L 493.113281 499.230469 L 493.113281 500.242188 L 537.628906 500.242188 L 537.628906 501.9375 C 537.96875 501.714844 538.300781 501.476562 538.640625 501.242188 L 538.640625 410.617188 Z M 433.550781 422.699219 C 411.601562 412.828125 338.15625 427.710938 338.15625 427.710938 C 338.0625 427.640625 337.960938 427.570312 337.867188 427.5 C 309.863281 433.058594 285.894531 446.886719 256.019531 431.03125 C 283.832031 457.15625 320.234375 477.09375 362.644531 493.113281 C 382.027344 491.652344 397.117188 490.289062 397.117188 490.289062 C 397.117188 490.289062 397.375 497.1875 398.433594 505.292969 C 422.429688 512.496094 443.460938 516.535156 461.910156 517.875 C 459.40625 493.71875 451.246094 430.65625 433.550781 422.699219 Z M 348.929688 337.8125 C 345.949219 344.339844 343.15625 351.652344 340.675781 359.125 L 383.609375 359.125 C 376.992188 351.679688 370.605469 343.992188 365.609375 337.8125 Z M 575.769531 312.644531 L 566.789062 324.539062 L 569.757812 346.917969 L 537.066406 346.917969 L 589.109375 277.375 C 588.933594 271.835938 588.769531 266.402344 588.648438 261.109375 L 531.246094 337.8125 L 505.183594 337.8125 C 497.910156 344.53125 489.320312 352.03125 480.171875 359.125 L 536.722656 359.125 L 536.722656 403.566406 L 541.875 403.566406 L 541.875 498.933594 C 542.214844 498.675781 542.550781 498.410156 542.886719 498.148438 L 542.886719 403.566406 L 548.3125 403.566406 L 548.3125 359.125 L 590.363281 359.125 C 590.46875 355.0625 590.539062 350.992188 590.578125 346.917969 L 580.953125 346.917969 Z M 383.292969 234.765625 C 380.9375 231.160156 378.617188 227.761719 376.363281 224.648438 L 587.742188 224.648438 C 587.988281 227.964844 588.160156 231.332031 588.269531 234.765625 L 383.292969 234.765625 " fill-opacity="1" fill-rule="nonzero"/></g></svg>