<svg xmlns="http://www.w3.org/2000/svg" xmlns:xlink="http://www.w3.org/1999/xlink" width="1024" zoomAndPan="magnify" viewBox="0 0 768 576" height="768" preserveAspectRatio="xMidYMid meet" version="1.0"><defs><clipPath id="6dced0ed57"><path d="M 234.097656 57.601562 L 574.257812 57.601562 L 574.257812 449.882812 L 234.097656 449.882812 Z M 234.097656 57.601562 " clip-rule="nonzero"/></clipPath><clipPath id="35fd81f5f0"><path d="M 256 102.15625 L 559 102.15625 L 559 503.851562 L 256 503.851562 Z M 256 102.15625 " clip-rule="nonzero"/></clipPath></defs><g clip-path="url(#6dced0ed57)"><path fill="#d2e2eb" d="M 358.753906 449.695312 C 521.355469 449.695312 560.816406 383.367188 573.011719 327.261719 C 585.207031 271.152344 523.390625 76.050781 451.414062 60.40625 C 379.441406 44.765625 269.316406 97.242188 243.644531 148.597656 C 220.363281 195.171875 230.777344 449.695312 358.753906 449.695312 " fill-opacity="1" fill-rule="nonzero"/></g><path fill="#f9d291" d="M 476.949219 126.117188 L 477.132812 130.480469 C 476.355469 129.605469 475.4375 128.855469 474.425781 128.25 C 473.878906 127.917969 473.296875 127.640625 472.703125 127.402344 C 471.96875 127.105469 471.203125 126.863281 470.421875 126.679688 C 469.015625 126.402344 467.558594 126.308594 466.132812 126.480469 C 465.617188 126.542969 465.105469 126.652344 464.605469 126.777344 C 463.777344 126.984375 462.980469 127.273438 462.230469 127.664062 L 462.933594 123.421875 C 462.933594 123.421875 458.800781 120.179688 458.105469 117.640625 C 457.402344 115.097656 455.4375 111.542969 455.371094 109 C 455.308594 106.460938 459.3125 109.699219 460.199219 111.351562 C 461.089844 113.003906 462.933594 115.800781 462.933594 115.800781 C 462.933594 115.800781 463.949219 105 464.203125 104.871094 L 466.738281 91.652344 C 466.949219 90.546875 468.476562 90.164062 469.042969 91.140625 C 469.085938 91.222656 469.128906 91.3125 469.15625 91.40625 C 469.414062 92.25 468.859375 101.789062 468.550781 106.746094 C 468.726562 106.828125 468.910156 106.90625 469.09375 106.992188 L 473.335938 92.328125 C 473.660156 91.230469 475.226562 90.917969 475.691406 91.921875 C 475.726562 92.003906 475.757812 92.09375 475.777344 92.195312 C 475.96875 93.144531 474.097656 104.769531 473.410156 108.980469 C 473.421875 108.988281 473.4375 108.992188 473.449219 109 L 478.746094 96.277344 C 479.183594 95.238281 480.757812 95.183594 481.105469 96.253906 C 481.132812 96.339844 481.152344 96.433594 481.164062 96.535156 C 481.238281 97.378906 478.898438 106 477.539062 110.898438 C 477.675781 110.964844 477.808594 111.023438 477.9375 111.089844 L 481.902344 101.734375 C 482.339844 100.695312 483.914062 100.644531 484.261719 101.71875 C 484.289062 101.808594 484.308594 101.902344 484.316406 102 C 484.382812 102.722656 482.679688 109.058594 481.324219 113.953125 C 481.195312 116.828125 480.507812 123.789062 476.949219 126.117188 Z M 381.675781 235.363281 C 384.683594 233.730469 387.664062 232.039062 390.609375 230.28125 C 390.65625 230.253906 390.683594 230.207031 390.691406 230.160156 L 391.003906 230 C 391.003906 230 395.023438 234.464844 396.800781 236.753906 C 397.253906 237.328125 400.546875 238.152344 405.21875 239.066406 C 408.914062 239.789062 413.460938 240.558594 418.152344 241.304688 C 431.015625 243.355469 444.914062 245.207031 444.914062 245.207031 C 444.914062 245.207031 450.730469 239.296875 456.714844 239.296875 C 462.695312 239.296875 465.800781 239.230469 465.523438 240.566406 C 465.246094 241.902344 456.882812 245.078125 456.882812 245.078125 L 479.980469 245.207031 C 479.980469 245.207031 467.019531 253.460938 457.875 253.589844 C 448.734375 253.714844 444.914062 253.589844 444.914062 253.589844 C 444.914062 253.589844 430.328125 253.589844 415.816406 253.589844 C 403.316406 253.589844 390.871094 253.589844 387.871094 253.589844 C 382.238281 253.589844 375.152344 242.800781 373.394531 239.972656 C 376.136719 238.410156 378.90625 236.894531 381.675781 235.363281 Z M 392.507812 130.78125 C 392.800781 130.535156 393.070312 130.265625 393.304688 129.964844 C 392.984375 130.445312 392.703125 131 392.570312 131.566406 C 392.554688 131.304688 392.53125 131.039062 392.507812 130.78125 Z M 418.347656 139.074219 L 418.335938 139.074219 C 417.96875 139.015625 417.628906 138.980469 417.292969 138.992188 C 416.960938 139.011719 416.636719 139.050781 416.320312 139.132812 C 416 139.203125 415.695312 139.324219 415.398438 139.460938 C 415.09375 139.605469 414.820312 139.792969 414.523438 140.007812 L 414.511719 140.015625 C 414.453125 140.054688 414.375 140.070312 414.300781 140.042969 C 414.183594 140.003906 414.125 139.871094 414.164062 139.753906 C 414.308594 139.351562 414.597656 139.011719 414.933594 138.742188 C 415.269531 138.46875 415.679688 138.292969 416.09375 138.191406 C 416.929688 138 417.886719 138.160156 418.507812 138.75 C 418.550781 138.789062 418.578125 138.851562 418.566406 138.917969 C 418.546875 139.023438 418.449219 139.09375 418.347656 139.074219 Z M 417.445312 134 L 417.4375 134.003906 C 417.128906 134.164062 416.832031 134.308594 416.558594 134.480469 C 416.292969 134.652344 416.023438 134.820312 415.78125 135.015625 C 415.527344 135.199219 415.296875 135.414062 415.0625 135.625 C 414.828125 135.84375 414.609375 136.082031 414.371094 136.332031 L 414.367188 136.339844 C 414.316406 136.394531 414.246094 136.421875 414.167969 136.410156 C 414.042969 136.394531 413.957031 136.28125 413.972656 136.152344 C 414.023438 135.765625 414.1875 135.40625 414.398438 135.082031 C 414.609375 134.75 414.886719 134.476562 415.203125 134.242188 C 415.515625 134.015625 415.863281 133.824219 416.242188 133.726562 C 416.613281 133.621094 417.003906 133.570312 417.382812 133.636719 C 417.441406 133.644531 417.496094 133.679688 417.523438 133.734375 C 417.574219 133.828125 417.539062 133.945312 417.445312 134 Z M 414.457031 142.273438 C 415.019531 143.097656 415.640625 143.941406 416.085938 144.941406 C 416.515625 145.933594 416.753906 147.117188 416.375 148.234375 C 416.011719 149.332031 414.972656 150.246094 413.796875 150.164062 C 413.714844 150.160156 413.644531 150.097656 413.628906 150.011719 C 413.613281 149.910156 413.679688 149.8125 413.78125 149.800781 L 413.789062 149.796875 C 414.710938 149.648438 415.394531 148.835938 415.589844 148.003906 C 415.785156 147.136719 415.589844 146.1875 415.203125 145.332031 C 414.820312 144.457031 414.238281 143.632812 413.726562 142.722656 C 413.21875 141.824219 412.746094 140.808594 412.714844 139.714844 C 412.710938 139.617188 412.785156 139.519531 412.886719 139.496094 C 413.003906 139.464844 413.121094 139.542969 413.152344 139.660156 C 413.398438 140.605469 413.894531 141.449219 414.457031 142.273438 Z M 412.804688 154.300781 C 412.875 154.378906 412.871094 154.5 412.796875 154.570312 C 412.292969 155.035156 411.574219 155.246094 410.882812 155.25 C 410.1875 155.261719 409.507812 155.070312 408.894531 154.75 C 408.296875 154.425781 407.769531 154 407.335938 153.515625 C 406.898438 153.039062 406.515625 152.527344 406.1875 151.984375 C 406.144531 151.90625 406.148438 151.808594 406.207031 151.730469 C 406.285156 151.632812 406.417969 151.617188 406.519531 151.695312 C 406.964844 152.046875 407.375 152.425781 407.785156 152.773438 C 407.832031 152.8125 407.878906 152.855469 407.925781 152.894531 C 408.273438 153.175781 408.621094 153.433594 408.980469 153.660156 C 409.105469 153.742188 409.226562 153.832031 409.351562 153.898438 C 410.328125 154.425781 411.496094 154.675781 412.59375 154.257812 L 412.601562 154.253906 C 412.671875 154.230469 412.75 154.246094 412.804688 154.300781 Z M 407.71875 133.164062 C 407.710938 133.265625 407.621094 133.339844 407.511719 133.332031 C 406.847656 133.28125 406.199219 133.292969 405.574219 133.402344 C 404.945312 133.519531 404.339844 133.695312 403.78125 133.976562 C 403.21875 134.25 402.703125 134.617188 402.230469 135.035156 C 401.761719 135.460938 401.355469 135.964844 400.988281 136.519531 C 400.9375 136.59375 400.839844 136.636719 400.746094 136.609375 C 400.628906 136.578125 400.554688 136.457031 400.585938 136.339844 C 400.765625 135.640625 401.136719 134.996094 401.613281 134.441406 C 402.085938 133.882812 402.691406 133.429688 403.359375 133.105469 C 404.03125 132.792969 404.757812 132.605469 405.492188 132.585938 C 406.222656 132.566406 406.953125 132.683594 407.609375 132.972656 C 407.679688 133.007812 407.726562 133.082031 407.71875 133.164062 Z M 402.410156 139.222656 C 402.410156 138.566406 402.941406 138.027344 403.605469 138.027344 C 404.261719 138.027344 404.800781 138.566406 404.800781 139.222656 C 404.800781 139.882812 404.261719 140.417969 403.605469 140.417969 C 402.941406 140.417969 402.410156 139.882812 402.410156 139.222656 Z M 418.453125 156.050781 C 421.359375 147.492188 418.800781 131.359375 418.523438 125.226562 C 418.46875 123.914062 418.226562 122.613281 417.824219 121.367188 C 417.078125 120.71875 416.15625 120.257812 415.21875 120.085938 C 416.355469 122.914062 415.273438 126.207031 413.433594 128.636719 C 412.878906 129.371094 412.222656 130.078125 411.371094 130.433594 C 410.519531 130.789062 409.429688 130.707031 408.808594 130.027344 C 408.792969 130.011719 408.785156 129.992188 408.769531 129.972656 C 408.476562 129.621094 408.371094 129.128906 408.453125 128.683594 C 407.636719 129.625 406.597656 130.371094 405.4375 130.820312 C 404.859375 131.039062 404.214844 131.191406 403.628906 130.988281 C 402.929688 130.746094 402.480469 130.03125 402.339844 129.304688 C 402.203125 128.578125 402.320312 127.828125 402.441406 127.09375 C 401.105469 129.515625 399.160156 131.601562 396.832031 133.089844 C 396.101562 133.558594 395.296875 133.980469 394.429688 133.980469 C 393.722656 133.976562 392.992188 133.601562 392.667969 133 C 392.730469 134.21875 392.753906 135.441406 392.738281 136.660156 C 392.066406 135.675781 391.332031 134.699219 390.273438 134.152344 C 389.121094 133.558594 387.480469 133.699219 386.792969 134.804688 C 386.269531 135.65625 386.464844 136.753906 386.746094 137.714844 C 387.230469 139.378906 387.949219 141.027344 389.171875 142.257812 C 389.992188 143.085938 391.082031 143.6875 392.21875 143.886719 C 391.746094 147.445312 390.949219 150.960938 389.828125 154.375 C 388.75 157.671875 387.3125 160.964844 384.835938 163.394531 C 384.652344 163.566406 384.453125 163.738281 384.242188 163.890625 C 384.027344 165.585938 383.816406 167.144531 383.648438 168.324219 C 383.464844 169.652344 383.335938 170.492188 383.335938 170.492188 L 387.714844 172.527344 L 398.601562 177.578125 C 400.949219 178.667969 403.5625 176.753906 403.246094 174.183594 C 403.242188 174.160156 403.242188 174.136719 403.238281 174.109375 C 403.082031 172.828125 403 171.433594 403.058594 170.003906 C 403.121094 168.585938 403.316406 167.136719 403.730469 165.726562 C 403.871094 165.242188 404.089844 164.886719 404.363281 164.617188 C 404.113281 164.617188 403.859375 164.621094 403.609375 164.609375 C 402.230469 164.539062 400.875 164.210938 399.585938 163.730469 C 398.316406 163.203125 397.105469 162.511719 396.050781 161.621094 C 394.996094 160.734375 394.089844 159.675781 393.441406 158.476562 C 393.394531 158.378906 393.414062 158.261719 393.5 158.195312 C 393.597656 158.117188 393.734375 158.136719 393.808594 158.234375 C 394.617188 159.265625 395.546875 160.179688 396.582031 160.953125 C 397.617188 161.722656 398.742188 162.367188 399.945312 162.828125 C 401.128906 163.328125 402.398438 163.632812 403.675781 163.789062 C 404.441406 163.886719 405.210938 163.90625 405.984375 163.875 C 409.015625 163.335938 414.210938 164.828125 417.757812 157.722656 C 418.019531 157.207031 418.246094 156.648438 418.453125 156.050781 Z M 462.234375 128.152344 C 463.527344 127.699219 464.863281 127.414062 466.210938 127.335938 C 466.882812 127.292969 467.554688 127.292969 468.226562 127.34375 C 468.28125 127.347656 468.339844 127.355469 468.394531 127.359375 C 469.011719 127.40625 469.621094 127.496094 470.226562 127.628906 C 471.550781 127.878906 472.824219 128.351562 474.027344 128.964844 C 475.15625 129.542969 476.203125 130.277344 477.160156 131.140625 L 479.496094 186.253906 L 456.425781 186.253906 C 453.015625 186.253906 450.109375 188.730469 449.570312 192.097656 L 448.835938 196.710938 L 444.613281 196.660156 L 454.355469 175.578125 L 462.152344 128.152344 C 462.183594 128.152344 462.210938 128.160156 462.234375 128.152344 Z M 434.074219 173.375 L 450.058594 175.109375 Z M 434.074219 173.375 " fill-opacity="1" fill-rule="nonzero"/><path fill="#f89345" d="M 505.527344 286.203125 C 503.230469 286.203125 501.363281 288.070312 501.363281 290.367188 C 501.363281 292.664062 503.230469 294.527344 505.527344 294.527344 C 507.824219 294.527344 509.691406 292.664062 509.691406 290.367188 C 509.691406 288.070312 507.824219 286.203125 505.527344 286.203125 Z M 505.527344 295.496094 C 502.699219 295.496094 500.394531 293.199219 500.394531 290.367188 C 500.394531 287.539062 502.699219 285.234375 505.527344 285.234375 C 508.359375 285.234375 510.660156 287.539062 510.660156 290.367188 C 510.660156 293.199219 508.359375 295.496094 505.527344 295.496094 Z M 493.484375 415.90625 L 512.945312 415.90625 C 513.453125 415.589844 513.941406 415.265625 514.441406 414.9375 L 493.484375 414.9375 Z M 489.222656 414.9375 L 476.308594 414.9375 L 476.308594 415.90625 L 489.222656 415.90625 Z M 513.761719 409.152344 L 476.308594 409.152344 L 476.308594 410.121094 L 513.761719 410.121094 Z M 504.203125 403.367188 L 476.308594 403.367188 L 476.308594 404.335938 L 504.203125 404.335938 Z M 493.097656 426.511719 L 476.308594 426.511719 L 476.308594 427.480469 L 490.953125 427.480469 C 491.679688 427.160156 492.386719 426.835938 493.097656 426.511719 Z M 496.195312 420.726562 L 476.308594 420.726562 L 476.308594 421.695312 L 496.195312 421.695312 Z M 504.714844 420.726562 L 501.617188 420.726562 L 501.617188 421.695312 L 502.929688 421.695312 C 503.53125 421.375 504.121094 421.050781 504.714844 420.726562 Z M 522.765625 409.152344 L 518.019531 409.152344 L 518.019531 410.121094 L 521.453125 410.121094 C 521.890625 409.796875 522.335938 409.476562 522.765625 409.152344 Z M 508.46875 404.335938 L 528.8125 404.335938 C 529.179688 404.027344 529.542969 403.710938 529.90625 403.402344 L 529.90625 403.367188 L 508.46875 403.367188 Z M 529.90625 375.628906 L 493.484375 375.628906 L 493.484375 376.597656 L 529.90625 376.597656 Z M 489.222656 375.628906 L 476.308594 375.628906 L 476.308594 376.597656 L 489.222656 376.597656 Z M 513.761719 369.84375 L 476.308594 369.84375 L 476.308594 370.8125 L 513.761719 370.8125 Z M 504.203125 364.058594 L 476.308594 364.058594 L 476.308594 365.023438 L 504.203125 365.023438 Z M 529.90625 387.199219 L 476.308594 387.199219 L 476.308594 388.167969 L 529.90625 388.167969 Z M 489.222656 393.957031 L 529.90625 393.957031 L 529.90625 392.988281 L 489.222656 392.988281 Z M 496.195312 381.414062 L 476.308594 381.414062 L 476.308594 382.382812 L 496.195312 382.382812 Z M 529.90625 381.414062 L 501.617188 381.414062 L 501.617188 382.382812 L 529.90625 382.382812 Z M 529.90625 369.84375 L 518.019531 369.84375 L 518.019531 370.8125 L 529.90625 370.8125 Z M 529.90625 364.058594 L 508.46875 364.058594 L 508.46875 365.023438 L 529.90625 365.023438 Z M 529.90625 352.488281 L 519.1875 352.488281 L 519.1875 353.457031 L 529.90625 353.457031 Z M 508.46875 347.671875 L 529.90625 347.671875 L 529.90625 346.703125 L 508.46875 346.703125 Z M 536.84375 338.398438 L 468.71875 338.398438 L 468.71875 435.699219 C 469.046875 435.601562 469.363281 435.496094 469.6875 435.394531 L 469.6875 339.367188 L 535.875 339.367188 L 535.875 397.921875 C 536.203125 397.601562 536.523438 397.277344 536.84375 396.953125 Z M 535.875 312.339844 L 518.753906 304.300781 L 492.488281 329.589844 L 535.875 329.589844 Z M 535.875 277.273438 L 469.6875 277.273438 L 469.6875 315.472656 L 488.367188 301.894531 L 488.597656 301.726562 L 509.859375 311.523438 L 518.566406 303.144531 L 535.875 311.269531 Z M 469.6875 329.589844 L 491.09375 329.589844 L 509.109375 312.246094 L 488.710938 302.84375 L 469.6875 316.667969 Z M 536.84375 330.558594 L 468.71875 330.558594 L 468.71875 276.304688 L 536.84375 276.304688 Z M 297.222656 130.605469 C 297.222656 132.902344 299.089844 134.769531 301.386719 134.769531 C 303.683594 134.769531 305.550781 132.902344 305.550781 130.605469 C 305.550781 128.3125 303.683594 126.441406 301.386719 126.441406 C 299.089844 126.441406 297.222656 128.3125 297.222656 130.605469 Z M 306.515625 130.605469 C 306.515625 133.4375 304.21875 135.738281 301.386719 135.738281 C 298.554688 135.738281 296.253906 133.4375 296.253906 130.605469 C 296.253906 127.773438 298.554688 125.472656 301.386719 125.472656 C 304.21875 125.472656 306.515625 127.773438 306.515625 130.605469 Z M 289.339844 256.148438 L 325.761719 256.148438 L 325.761719 255.179688 L 289.339844 255.179688 Z M 285.078125 255.179688 L 272.167969 255.179688 L 272.167969 256.148438 L 285.078125 256.148438 Z M 309.621094 249.394531 L 272.167969 249.394531 L 272.167969 250.363281 L 309.621094 250.363281 Z M 300.0625 243.605469 L 272.167969 243.605469 L 272.167969 244.574219 L 300.0625 244.574219 Z M 325.761719 266.753906 L 272.167969 266.753906 L 272.167969 267.722656 L 325.761719 267.722656 Z M 325.761719 272.539062 L 285.078125 272.539062 L 285.078125 273.507812 L 325.761719 273.507812 Z M 292.054688 260.96875 L 272.167969 260.96875 L 272.167969 261.9375 L 292.054688 261.9375 Z M 297.480469 261.9375 L 325.761719 261.9375 L 325.761719 260.96875 L 297.480469 260.96875 Z M 313.878906 250.363281 L 325.761719 250.363281 L 325.761719 249.394531 L 313.878906 249.394531 Z M 304.324219 244.574219 L 325.761719 244.574219 L 325.761719 243.605469 L 304.324219 243.605469 Z M 289.339844 216.839844 L 325.761719 216.839844 L 325.761719 215.871094 L 289.339844 215.871094 Z M 285.078125 215.871094 L 272.167969 215.871094 L 272.167969 216.839844 L 285.078125 216.839844 Z M 309.621094 210.085938 L 272.167969 210.085938 L 272.167969 211.054688 L 309.621094 211.054688 Z M 300.0625 204.296875 L 272.167969 204.296875 L 272.167969 205.265625 L 300.0625 205.265625 Z M 325.761719 227.445312 L 272.167969 227.445312 L 272.167969 228.414062 L 325.761719 228.414062 Z M 285.078125 234.199219 L 325.761719 234.199219 L 325.761719 233.230469 L 285.078125 233.230469 Z M 292.054688 221.65625 L 272.167969 221.65625 L 272.167969 222.625 L 292.054688 222.625 Z M 297.480469 222.625 L 325.761719 222.625 L 325.761719 221.65625 L 297.480469 221.65625 Z M 313.878906 211.054688 L 325.761719 211.054688 L 325.761719 210.085938 L 313.878906 210.085938 Z M 304.324219 205.265625 L 325.761719 205.265625 L 325.761719 204.296875 L 304.324219 204.296875 Z M 315.042969 193.695312 L 325.761719 193.695312 L 325.761719 192.726562 L 315.042969 192.726562 Z M 304.324219 187.90625 L 325.761719 187.90625 L 325.761719 186.9375 L 304.324219 186.9375 Z M 331.734375 179.609375 L 265.546875 179.609375 L 265.546875 284.789062 L 331.734375 284.789062 Z M 332.703125 285.757812 L 264.582031 285.757812 L 264.582031 178.640625 L 332.703125 178.640625 Z M 265.546875 169.828125 L 286.949219 169.828125 L 304.964844 152.488281 L 284.566406 143.085938 L 265.546875 156.910156 Z M 331.734375 169.828125 L 331.734375 152.578125 L 314.613281 144.542969 L 288.347656 169.828125 Z M 265.546875 120.652344 L 265.546875 155.710938 L 284.457031 141.96875 L 305.714844 151.765625 L 314.421875 143.386719 L 331.734375 151.507812 L 331.734375 117.511719 L 268.980469 117.511719 C 269.34375 117.1875 269.71875 116.867188 270.089844 116.542969 L 332.703125 116.542969 L 332.703125 170.796875 L 264.582031 170.796875 L 264.582031 121.578125 C 264.898438 121.269531 265.222656 120.960938 265.546875 120.652344 Z M 565.515625 105.648438 L 507.464844 105.648438 L 507.464844 164.863281 L 565.515625 164.863281 Z M 488.96875 221.234375 C 496.136719 219.167969 499.597656 210.226562 495.238281 210.226562 C 491.597656 210.226562 490.265625 212.40625 490.265625 212.40625 C 490.265625 212.40625 488.90625 210.226562 486.140625 210.226562 C 481.777344 210.226562 482.449219 219.167969 488.96875 221.234375 Z M 342.226562 494.269531 C 342.441406 495.335938 343.082031 495.453125 343.652344 494.527344 C 344.226562 493.605469 344.515625 491.988281 344.300781 490.917969 C 344.085938 489.855469 343.445312 489.738281 342.871094 490.664062 C 342.300781 491.585938 342.007812 493.203125 342.226562 494.269531 Z M 438.175781 493.699219 C 438.292969 495.128906 439.546875 496.285156 440.976562 496.285156 C 442.40625 496.285156 443.46875 495.128906 443.351562 493.699219 C 443.234375 492.269531 441.980469 491.109375 440.550781 491.109375 C 439.121094 491.109375 438.054688 492.269531 438.175781 493.699219 Z M 381.617188 172.480469 C 383.402344 173.484375 385.21875 174.425781 387.035156 175.363281 C 388.273438 176.003906 389.523438 176.625 390.769531 177.246094 C 391.351562 177.53125 391.9375 177.820312 392.519531 178.117188 C 394.355469 178.976562 396.253906 179.957031 398.382812 180.242188 C 399.445312 180.382812 400.535156 180.332031 401.570312 180.039062 C 402.59375 179.730469 403.574219 179.179688 404.25 178.347656 C 404.316406 178.261719 404.304688 178.148438 404.226562 178.085938 C 404.148438 178.023438 404.042969 178.03125 403.980469 178.097656 C 402.539062 179.464844 400.398438 179.78125 398.507812 179.4375 C 396.574219 179.082031 394.769531 178.167969 392.945312 177.246094 C 391.890625 176.742188 390.839844 176.230469 389.785156 175.722656 C 388.996094 175.347656 388.207031 174.96875 387.410156 174.597656 C 385.558594 173.734375 383.699219 172.882812 381.8125 172.085938 C 381.703125 172.039062 381.574219 172.09375 381.523438 172.203125 C 381.480469 172.308594 381.523438 172.425781 381.617188 172.480469 Z M 383.648438 168.324219 C 383.464844 169.652344 383.335938 170.492188 383.335938 170.492188 L 387.714844 172.527344 L 398.601562 177.578125 C 400.949219 178.667969 403.5625 176.753906 403.246094 174.183594 C 403.242188 174.160156 403.242188 174.136719 403.238281 174.109375 C 403.082031 172.828125 403 171.433594 403.058594 170.003906 L 434.074219 173.375 L 450.058594 175.109375 C 449.222656 177.050781 448.421875 179.007812 447.632812 180.96875 C 446.773438 183.113281 445.957031 185.277344 445.113281 187.425781 L 442.71875 193.9375 C 442.398438 194.832031 442.085938 195.726562 441.769531 196.625 C 441.324219 197.910156 440.882812 199.203125 440.464844 200.5 C 440.425781 200.617188 440.492188 200.738281 440.609375 200.773438 C 440.714844 200.808594 440.832031 200.757812 440.875 200.652344 C 441.457031 199.324219 442.007812 197.980469 442.558594 196.632812 C 442.878906 195.832031 443.199219 195.039062 443.523438 194.242188 L 446.023438 187.769531 C 446.8125 185.597656 447.628906 183.433594 448.402344 181.253906 C 449.117188 179.230469 449.820312 177.203125 450.484375 175.15625 L 454.355469 175.578125 L 444.613281 196.660156 L 442.730469 200.734375 L 421.71875 204.640625 C 421.464844 202.921875 421.097656 201.214844 420.636719 199.53125 C 420.085938 197.488281 419.367188 195.492188 418.5625 193.539062 C 417.722656 191.597656 416.785156 189.691406 415.710938 187.871094 C 414.632812 186.050781 413.445312 184.296875 412.113281 182.660156 C 412.039062 182.566406 411.902344 182.554688 411.808594 182.625 C 411.71875 182.699219 411.703125 182.824219 411.761719 182.917969 C 412.898438 184.675781 413.980469 186.457031 414.96875 188.292969 C 415.953125 190.125 416.878906 191.988281 417.671875 193.914062 C 418.347656 195.453125 418.925781 197.03125 419.460938 198.621094 C 419.589844 199 419.730469 199.378906 419.851562 199.761719 C 420.347656 201.296875 420.765625 202.855469 421.160156 204.425781 C 421.183594 204.527344 421.214844 204.628906 421.238281 204.730469 L 421.203125 204.738281 C 422.179688 212.945312 420.640625 226.074219 418.820312 237.328125 L 405.019531 237.328125 C 405.019531 237.925781 405.089844 238.503906 405.21875 239.066406 C 400.546875 238.152344 397.253906 237.328125 396.800781 236.753906 C 395.023438 234.464844 391.003906 230 391.003906 230 L 390.691406 230.160156 C 390.703125 230.117188 390.699219 230.066406 390.671875 230.027344 C 390.625 229.941406 390.511719 229.914062 390.425781 229.957031 C 387.421875 231.597656 384.363281 233.128906 381.328125 234.714844 C 378.433594 236.207031 375.539062 237.722656 372.695312 239.328125 C 370.351562 234.40625 368.273438 229.363281 366.539062 224.195312 C 365.652344 221.539062 364.816406 218.859375 364.089844 216.148438 C 363.359375 213.4375 362.671875 210.714844 362.109375 207.964844 C 362.082031 207.84375 361.96875 207.765625 361.847656 207.792969 C 361.730469 207.816406 361.65625 207.925781 361.679688 208.042969 C 362.148438 210.824219 362.6875 213.597656 363.367188 216.335938 C 364.046875 219.078125 364.800781 221.800781 365.683594 224.480469 C 367.4375 229.847656 369.554688 235.105469 372.078125 240.164062 L 372.296875 240.59375 L 372.710938 240.355469 C 372.9375 240.226562 373.164062 240.101562 373.394531 239.972656 C 375.152344 242.800781 382.238281 253.589844 387.871094 253.589844 C 390.871094 253.589844 403.316406 253.589844 415.816406 253.589844 C 415.160156 256.789062 414.71875 258.734375 414.71875 258.734375 L 400.257812 258.734375 C 400.257812 258.6875 400.261719 258.644531 400.261719 258.605469 C 400.261719 258.496094 400.171875 258.410156 400.066406 258.414062 C 399.996094 258.414062 399.933594 258.457031 399.902344 258.511719 C 399.863281 258.585938 399.835938 258.660156 399.804688 258.734375 L 382.148438 258.734375 C 382.113281 258.660156 382.054688 258.605469 381.96875 258.613281 C 381.898438 258.617188 381.835938 258.664062 381.8125 258.726562 C 381.8125 258.730469 381.808594 258.730469 381.808594 258.734375 L 374.121094 258.734375 C 374.121094 258.734375 353.792969 218.078125 357.351562 195.714844 C 360.441406 176.289062 378.863281 169.714844 383.648438 168.324219 " fill-opacity="1" fill-rule="nonzero"/><path fill="#4a7296" d="M 559.824219 113.097656 L 513.15625 113.097656 L 513.15625 149.273438 L 559.824219 149.273438 Z M 323.308594 397.757812 L 256.148438 397.757812 L 256.148438 456.972656 L 323.308594 456.972656 Z M 256.148438 329.972656 L 256.148438 389.191406 L 323.308594 389.191406 L 323.308594 329.972656 Z M 399.40625 259.828125 C 399.507812 259.457031 399.636719 259.089844 399.804688 258.734375 L 382.148438 258.734375 C 382.15625 258.75 382.175781 258.761719 382.175781 258.785156 C 382.214844 259.273438 382.195312 259.746094 382.171875 260.222656 C 382.148438 260.699219 382.078125 261.167969 382.015625 261.636719 C 381.941406 262.109375 381.855469 262.574219 381.734375 263.035156 C 381.65625 263.34375 381.5625 263.65625 381.460938 263.964844 C 381.878906 263.957031 382.300781 263.945312 382.714844 263.9375 L 390.960938 263.886719 L 399.203125 263.960938 C 399.265625 263.960938 399.324219 263.960938 399.390625 263.964844 C 399.25 263.523438 399.1875 263.070312 399.148438 262.609375 C 399.101562 262.144531 399.121094 261.675781 399.15625 261.210938 C 399.207031 260.746094 399.273438 260.285156 399.40625 259.828125 Z M 375.1875 391.167969 C 375.277344 391.226562 375.398438 391.207031 375.46875 391.128906 C 376.496094 389.957031 377.402344 388.6875 378.234375 387.363281 C 379.0625 386.042969 379.78125 384.65625 380.4375 383.238281 C 381.054688 381.804688 381.621094 380.347656 382.054688 378.851562 C 382.488281 377.351562 382.832031 375.832031 383.03125 374.289062 C 383.039062 374.183594 382.96875 374.09375 382.867188 374.078125 C 382.777344 374.066406 382.6875 374.125 382.667969 374.210938 C 382.238281 375.695312 381.792969 377.160156 381.273438 378.597656 C 380.753906 380.035156 380.207031 381.460938 379.554688 382.84375 C 378.941406 384.238281 378.234375 385.59375 377.496094 386.929688 C 376.757812 388.269531 375.949219 389.570312 375.117188 390.863281 C 375.054688 390.964844 375.085938 391.101562 375.1875 391.167969 Z M 383.183594 285.277344 C 383.199219 285.226562 383.191406 285.171875 383.167969 285.128906 C 383.035156 284.871094 382.859375 284.652344 382.679688 284.445312 C 382.507812 284.234375 382.304688 284.054688 382.097656 283.878906 C 381.886719 283.710938 381.675781 283.546875 381.4375 283.414062 C 381.199219 283.277344 380.957031 283.148438 380.675781 283.066406 C 380.546875 283.03125 380.414062 283.101562 380.382812 283.230469 C 380.363281 283.292969 380.375 283.355469 380.398438 283.40625 C 380.535156 283.667969 380.714844 283.875 380.894531 284.078125 C 381.074219 284.285156 381.28125 284.460938 381.488281 284.632812 C 381.707031 284.792969 381.921875 284.957031 382.167969 285.082031 C 382.40625 285.214844 382.652344 285.339844 382.933594 285.417969 C 383.039062 285.449219 383.15625 285.382812 383.183594 285.277344 Z M 358.082031 365.457031 C 356.472656 349.195312 346.417969 324.925781 353.078125 304.027344 C 359.742188 283.125 374.121094 258.734375 374.121094 258.734375 L 381.808594 258.734375 C 381.617188 259.179688 381.484375 259.636719 381.359375 260.09375 C 381.230469 260.550781 381.144531 261.019531 381.0625 261.484375 C 380.988281 261.953125 380.917969 262.421875 380.886719 262.894531 C 380.863281 263.253906 380.855469 263.613281 380.863281 263.976562 C 378.730469 264.015625 376.601562 264.058594 374.476562 264.148438 C 374.355469 264.15625 374.257812 264.257812 374.261719 264.378906 C 374.269531 264.492188 374.363281 264.582031 374.476562 264.589844 C 377.222656 264.703125 379.96875 264.753906 382.714844 264.796875 L 390.960938 264.851562 L 393.113281 264.832031 C 392.585938 266.449219 391.996094 268.039062 391.300781 269.582031 C 390.585938 271.164062 389.796875 272.714844 388.878906 274.1875 C 387.996094 275.679688 386.992188 277.097656 385.914062 278.460938 C 384.894531 279.757812 383.785156 280.984375 382.628906 282.171875 C 382.527344 282.085938 382.429688 281.992188 382.324219 281.898438 C 381.847656 281.503906 381.351562 281.117188 380.828125 280.785156 C 380.300781 280.441406 379.765625 280.128906 379.183594 279.882812 C 379.070312 279.832031 378.941406 279.886719 378.894531 280 C 378.855469 280.085938 378.878906 280.1875 378.941406 280.246094 C 379.390625 280.679688 379.855469 281.070312 380.316406 281.46875 L 381.707031 282.640625 L 383.109375 283.796875 C 383.585938 284.175781 384.050781 284.5625 384.558594 284.925781 C 384.644531 284.988281 384.761719 284.96875 384.820312 284.886719 C 384.867188 284.820312 384.867188 284.738281 384.828125 284.671875 C 384.488281 284.144531 384.089844 283.664062 383.671875 283.199219 C 383.449219 282.953125 383.21875 282.71875 382.980469 282.492188 C 384.28125 281.449219 385.476562 280.269531 386.574219 279.003906 C 387.738281 277.660156 388.769531 276.203125 389.707031 274.6875 C 390.605469 273.148438 391.417969 271.558594 392.058594 269.898438 C 392.691406 268.253906 393.195312 266.558594 393.511719 264.828125 L 399.203125 264.777344 C 401.953125 264.730469 404.699219 264.671875 407.449219 264.550781 C 407.546875 264.546875 407.625 264.460938 407.621094 264.359375 C 407.621094 264.265625 407.542969 264.1875 407.449219 264.183594 C 404.910156 264.070312 402.371094 264.019531 399.832031 263.972656 C 399.832031 263.96875 399.832031 263.96875 399.832031 263.96875 C 399.914062 263.511719 399.953125 263.066406 400.003906 262.617188 L 400.121094 261.292969 L 400.210938 259.960938 C 400.234375 259.558594 400.261719 259.152344 400.257812 258.734375 L 414.71875 258.734375 L 390.933594 349.746094 L 355.566406 485.097656 C 354.539062 485 353.507812 484.941406 352.476562 484.902344 C 351.332031 484.84375 350.183594 484.832031 349.039062 484.824219 C 347.886719 484.824219 346.742188 484.832031 345.59375 484.882812 C 344.449219 484.925781 343.300781 484.972656 342.15625 485.089844 C 342.035156 485.101562 341.945312 485.210938 341.953125 485.332031 C 341.964844 485.433594 342.054688 485.519531 342.15625 485.53125 C 343.300781 485.644531 344.449219 485.695312 345.59375 485.738281 C 346.742188 485.785156 347.886719 485.789062 349.039062 485.792969 C 350.183594 485.78125 351.332031 485.773438 352.476562 485.71875 C 353.46875 485.675781 354.464844 485.621094 355.453125 485.53125 L 354.828125 487.933594 L 342.109375 487.933594 C 342.109375 487.933594 337.015625 452.488281 345.046875 423.519531 C 353.074219 394.546875 359.691406 381.71875 358.082031 365.457031 " fill-opacity="1" fill-rule="nonzero"/><g clip-path="url(#35fd81f5f0)"><path fill="#393a3f" d="M 298.167969 437.285156 C 299.113281 436.355469 300.851562 435.730469 302.84375 435.730469 C 305.84375 435.730469 308.277344 437.140625 308.277344 438.882812 C 308.277344 440.625 305.84375 442.035156 302.84375 442.035156 C 299.875 442.035156 297.46875 440.652344 297.417969 438.933594 L 297.378906 438.9375 L 295.097656 418.878906 L 273.078125 416.09375 L 275.164062 434.378906 C 276.105469 433.449219 277.84375 432.820312 279.839844 432.820312 C 282.835938 432.820312 285.269531 434.230469 285.269531 435.976562 C 285.269531 437.714844 282.835938 439.128906 279.839844 439.128906 C 276.871094 439.128906 274.460938 437.742188 274.414062 436.023438 L 274.375 436.027344 L 271.976562 414.976562 L 295.972656 418.011719 Z M 557.273438 150.859375 L 511.566406 150.859375 L 511.566406 115.65625 L 557.273438 115.65625 Z M 558.242188 114.6875 L 510.597656 114.6875 L 510.597656 151.828125 L 558.242188 151.828125 Z M 256.148438 380.246094 L 256.148438 381.214844 L 305.019531 381.214844 C 305.242188 382.339844 306.234375 383.1875 307.421875 383.1875 C 308.613281 383.1875 309.601562 382.339844 309.828125 381.214844 L 323.308594 381.214844 L 323.308594 380.246094 L 309.828125 380.246094 C 309.601562 379.125 308.613281 378.28125 307.421875 378.28125 C 306.234375 378.28125 305.242188 379.125 305.019531 380.246094 Z M 403.605469 138.027344 C 402.941406 138.027344 402.410156 138.566406 402.410156 139.222656 C 402.410156 139.882812 402.941406 140.417969 403.605469 140.417969 C 404.261719 140.417969 404.800781 139.882812 404.800781 139.222656 C 404.800781 138.566406 404.261719 138.027344 403.605469 138.027344 Z M 477.617188 131.300781 C 477.675781 131.234375 477.679688 131.128906 477.628906 131.0625 C 477.472656 130.859375 477.300781 130.667969 477.132812 130.480469 C 476.355469 129.605469 475.4375 128.855469 474.425781 128.25 C 473.878906 127.917969 473.296875 127.640625 472.703125 127.402344 C 471.96875 127.105469 471.203125 126.863281 470.421875 126.679688 C 469.015625 126.402344 467.558594 126.308594 466.132812 126.480469 C 465.617188 126.542969 465.105469 126.652344 464.605469 126.777344 C 463.777344 126.984375 462.980469 127.273438 462.230469 127.664062 C 462.175781 127.695312 462.109375 127.722656 462.054688 127.75 C 461.949219 127.808594 461.910156 127.945312 461.96875 128.050781 C 462.007812 128.117188 462.082031 128.148438 462.152344 128.152344 C 462.183594 128.152344 462.210938 128.160156 462.234375 128.152344 C 463.527344 127.699219 464.863281 127.414062 466.210938 127.335938 C 466.882812 127.292969 467.554688 127.292969 468.226562 127.34375 C 468.28125 127.347656 468.339844 127.355469 468.394531 127.359375 C 469.011719 127.40625 469.621094 127.496094 470.226562 127.628906 C 471.550781 127.878906 472.824219 128.351562 474.027344 128.964844 C 475.15625 129.542969 476.203125 130.277344 477.160156 131.140625 C 477.226562 131.199219 477.289062 131.25 477.355469 131.308594 C 477.425781 131.378906 477.542969 131.375 477.617188 131.300781 Z M 356.082031 485.289062 C 356.074219 485.199219 356.003906 485.132812 355.917969 485.125 C 355.800781 485.113281 355.683594 485.105469 355.566406 485.097656 C 354.539062 485 353.507812 484.941406 352.476562 484.902344 C 351.332031 484.84375 350.183594 484.832031 349.039062 484.824219 C 347.886719 484.824219 346.742188 484.832031 345.59375 484.882812 C 344.449219 484.925781 343.300781 484.972656 342.15625 485.089844 C 342.035156 485.101562 341.945312 485.210938 341.953125 485.332031 C 341.964844 485.433594 342.054688 485.519531 342.15625 485.53125 C 343.300781 485.644531 344.449219 485.695312 345.59375 485.738281 C 346.742188 485.785156 347.886719 485.789062 349.039062 485.792969 C 350.183594 485.78125 351.332031 485.773438 352.476562 485.71875 C 353.46875 485.675781 354.464844 485.621094 355.453125 485.53125 C 355.609375 485.519531 355.761719 485.511719 355.917969 485.496094 C 356.019531 485.484375 356.09375 485.394531 356.082031 485.289062 Z M 375.117188 390.863281 C 375.054688 390.964844 375.085938 391.101562 375.1875 391.167969 C 375.277344 391.226562 375.398438 391.207031 375.46875 391.128906 C 376.496094 389.957031 377.402344 388.6875 378.234375 387.363281 C 379.0625 386.042969 379.78125 384.65625 380.4375 383.238281 C 381.054688 381.804688 381.621094 380.347656 382.054688 378.851562 C 382.488281 377.351562 382.832031 375.832031 383.03125 374.289062 C 383.039062 374.183594 382.96875 374.09375 382.867188 374.078125 C 382.777344 374.066406 382.6875 374.125 382.667969 374.210938 C 382.238281 375.695312 381.792969 377.160156 381.273438 378.597656 C 380.753906 380.035156 380.207031 381.460938 379.554688 382.84375 C 378.941406 384.238281 378.234375 385.59375 377.496094 386.929688 C 376.757812 388.269531 375.949219 389.570312 375.117188 390.863281 Z M 382.933594 285.417969 C 383.039062 285.449219 383.15625 285.382812 383.183594 285.277344 C 383.199219 285.226562 383.191406 285.171875 383.167969 285.128906 C 383.035156 284.871094 382.859375 284.652344 382.679688 284.445312 C 382.507812 284.234375 382.304688 284.054688 382.097656 283.878906 C 381.886719 283.710938 381.675781 283.546875 381.4375 283.414062 C 381.199219 283.277344 380.957031 283.148438 380.675781 283.066406 C 380.546875 283.03125 380.414062 283.101562 380.382812 283.230469 C 380.363281 283.292969 380.375 283.355469 380.398438 283.40625 C 380.535156 283.667969 380.714844 283.875 380.894531 284.078125 C 381.074219 284.285156 381.28125 284.460938 381.488281 284.632812 C 381.707031 284.792969 381.921875 284.957031 382.167969 285.082031 C 382.40625 285.214844 382.652344 285.339844 382.933594 285.417969 Z M 374.261719 264.378906 C 374.269531 264.492188 374.363281 264.582031 374.476562 264.589844 C 377.222656 264.703125 379.96875 264.753906 382.714844 264.796875 L 390.960938 264.851562 L 393.113281 264.832031 C 392.585938 266.449219 391.996094 268.039062 391.300781 269.582031 C 390.585938 271.164062 389.796875 272.714844 388.878906 274.1875 C 387.996094 275.679688 386.992188 277.097656 385.914062 278.460938 C 384.894531 279.757812 383.785156 280.984375 382.628906 282.171875 C 382.527344 282.085938 382.429688 281.992188 382.324219 281.898438 C 381.847656 281.503906 381.351562 281.117188 380.828125 280.785156 C 380.300781 280.441406 379.765625 280.128906 379.183594 279.882812 C 379.070312 279.832031 378.941406 279.886719 378.894531 280 C 378.855469 280.085938 378.878906 280.1875 378.941406 280.246094 C 379.390625 280.679688 379.855469 281.070312 380.316406 281.46875 L 381.707031 282.640625 L 383.109375 283.796875 C 383.585938 284.175781 384.050781 284.5625 384.558594 284.925781 C 384.644531 284.988281 384.761719 284.96875 384.820312 284.886719 C 384.867188 284.820312 384.867188 284.738281 384.828125 284.671875 C 384.488281 284.144531 384.089844 283.664062 383.671875 283.199219 C 383.449219 282.953125 383.21875 282.71875 382.980469 282.492188 C 384.28125 281.449219 385.476562 280.269531 386.574219 279.003906 C 387.738281 277.660156 388.769531 276.203125 389.707031 274.6875 C 390.605469 273.148438 391.417969 271.558594 392.058594 269.898438 C 392.691406 268.253906 393.195312 266.558594 393.511719 264.828125 L 399.203125 264.777344 C 401.953125 264.730469 404.699219 264.671875 407.449219 264.550781 C 407.546875 264.546875 407.625 264.460938 407.621094 264.359375 C 407.621094 264.265625 407.542969 264.1875 407.449219 264.183594 C 404.910156 264.070312 402.371094 264.019531 399.832031 263.972656 C 399.832031 263.96875 399.832031 263.96875 399.832031 263.96875 C 399.914062 263.511719 399.953125 263.066406 400.003906 262.617188 L 400.121094 261.292969 L 400.210938 259.960938 C 400.234375 259.558594 400.261719 259.152344 400.257812 258.734375 C 400.257812 258.6875 400.261719 258.644531 400.261719 258.605469 C 400.261719 258.496094 400.171875 258.410156 400.066406 258.414062 C 399.996094 258.414062 399.933594 258.457031 399.902344 258.511719 C 399.863281 258.585938 399.835938 258.660156 399.804688 258.734375 C 399.636719 259.089844 399.507812 259.457031 399.40625 259.828125 C 399.273438 260.285156 399.207031 260.746094 399.15625 261.210938 C 399.121094 261.675781 399.101562 262.144531 399.148438 262.609375 C 399.1875 263.070312 399.25 263.523438 399.390625 263.964844 C 399.324219 263.960938 399.265625 263.960938 399.203125 263.960938 L 390.960938 263.886719 L 382.714844 263.9375 C 382.300781 263.945312 381.878906 263.957031 381.460938 263.964844 C 381.5625 263.65625 381.65625 263.34375 381.734375 263.035156 C 381.855469 262.574219 381.941406 262.109375 382.015625 261.636719 C 382.078125 261.167969 382.148438 260.699219 382.171875 260.222656 C 382.195312 259.746094 382.214844 259.273438 382.175781 258.785156 C 382.175781 258.761719 382.15625 258.75 382.148438 258.734375 C 382.113281 258.660156 382.054688 258.605469 381.96875 258.613281 C 381.898438 258.617188 381.835938 258.664062 381.8125 258.726562 C 381.8125 258.730469 381.808594 258.730469 381.808594 258.734375 C 381.617188 259.179688 381.484375 259.636719 381.359375 260.09375 C 381.230469 260.550781 381.144531 261.019531 381.0625 261.484375 C 380.988281 261.953125 380.917969 262.421875 380.886719 262.894531 C 380.863281 263.253906 380.855469 263.613281 380.863281 263.976562 C 378.730469 264.015625 376.601562 264.058594 374.476562 264.148438 C 374.355469 264.15625 374.257812 264.257812 374.261719 264.378906 Z M 361.679688 208.042969 C 362.148438 210.824219 362.6875 213.597656 363.367188 216.335938 C 364.046875 219.078125 364.800781 221.800781 365.683594 224.480469 C 367.4375 229.847656 369.554688 235.105469 372.078125 240.164062 L 372.296875 240.59375 L 372.710938 240.355469 C 372.9375 240.226562 373.164062 240.101562 373.394531 239.972656 C 376.136719 238.410156 378.90625 236.894531 381.675781 235.363281 C 384.683594 233.730469 387.664062 232.039062 390.609375 230.28125 C 390.65625 230.253906 390.683594 230.207031 390.691406 230.160156 C 390.703125 230.117188 390.699219 230.066406 390.671875 230.027344 C 390.625 229.941406 390.511719 229.914062 390.425781 229.957031 C 387.421875 231.597656 384.363281 233.128906 381.328125 234.714844 C 378.433594 236.207031 375.539062 237.722656 372.695312 239.328125 C 370.351562 234.40625 368.273438 229.363281 366.539062 224.195312 C 365.652344 221.539062 364.816406 218.859375 364.089844 216.148438 C 363.359375 213.4375 362.671875 210.714844 362.109375 207.964844 C 362.082031 207.84375 361.96875 207.765625 361.847656 207.792969 C 361.730469 207.816406 361.65625 207.925781 361.679688 208.042969 Z M 450.484375 175.15625 C 450.535156 174.996094 450.589844 174.847656 450.640625 174.6875 C 450.671875 174.589844 450.621094 174.488281 450.523438 174.457031 C 450.429688 174.425781 450.332031 174.472656 450.292969 174.558594 C 450.214844 174.742188 450.140625 174.925781 450.058594 175.109375 C 449.222656 177.050781 448.421875 179.007812 447.632812 180.96875 C 446.773438 183.113281 445.957031 185.277344 445.113281 187.425781 L 442.71875 193.9375 C 442.398438 194.832031 442.085938 195.726562 441.769531 196.625 C 441.324219 197.910156 440.882812 199.203125 440.464844 200.5 C 440.425781 200.617188 440.492188 200.738281 440.609375 200.773438 C 440.714844 200.808594 440.832031 200.757812 440.875 200.652344 C 441.457031 199.324219 442.007812 197.980469 442.558594 196.632812 C 442.878906 195.832031 443.199219 195.039062 443.523438 194.242188 L 446.023438 187.769531 C 446.8125 185.597656 447.628906 183.433594 448.402344 181.253906 C 449.117188 179.230469 449.820312 177.203125 450.484375 175.15625 Z M 404.25 178.347656 C 404.316406 178.261719 404.304688 178.148438 404.226562 178.085938 C 404.148438 178.023438 404.042969 178.03125 403.980469 178.097656 C 402.539062 179.464844 400.398438 179.78125 398.507812 179.4375 C 396.574219 179.082031 394.769531 178.167969 392.945312 177.246094 C 391.890625 176.742188 390.839844 176.230469 389.785156 175.722656 C 388.996094 175.347656 388.207031 174.96875 387.410156 174.597656 C 385.558594 173.734375 383.699219 172.882812 381.8125 172.085938 C 381.703125 172.039062 381.574219 172.09375 381.523438 172.203125 C 381.480469 172.308594 381.523438 172.425781 381.617188 172.480469 C 383.402344 173.484375 385.21875 174.425781 387.035156 175.363281 C 388.273438 176.003906 389.523438 176.625 390.769531 177.246094 C 391.351562 177.53125 391.9375 177.820312 392.519531 178.117188 C 394.355469 178.976562 396.253906 179.957031 398.382812 180.242188 C 399.445312 180.382812 400.535156 180.332031 401.570312 180.039062 C 402.59375 179.730469 403.574219 179.179688 404.25 178.347656 Z M 418.5625 193.539062 C 417.722656 191.597656 416.785156 189.691406 415.710938 187.871094 C 414.632812 186.050781 413.445312 184.296875 412.113281 182.660156 C 412.039062 182.566406 411.902344 182.554688 411.808594 182.625 C 411.71875 182.699219 411.703125 182.824219 411.761719 182.917969 C 412.898438 184.675781 413.980469 186.457031 414.96875 188.292969 C 415.953125 190.125 416.878906 191.988281 417.671875 193.914062 C 418.347656 195.453125 418.925781 197.03125 419.460938 198.621094 C 419.589844 199 419.730469 199.378906 419.851562 199.761719 C 420.347656 201.296875 420.765625 202.855469 421.160156 204.425781 C 421.183594 204.527344 421.214844 204.628906 421.238281 204.730469 C 421.324219 205.089844 421.421875 205.445312 421.503906 205.804688 C 421.53125 205.902344 421.628906 205.960938 421.726562 205.941406 C 421.824219 205.917969 421.882812 205.832031 421.871094 205.738281 C 421.828125 205.371094 421.773438 205.003906 421.71875 204.640625 C 421.464844 202.921875 421.097656 201.214844 420.636719 199.53125 C 420.085938 197.488281 419.367188 195.492188 418.5625 193.539062 Z M 407.773438 163.855469 C 407.742188 163.773438 407.65625 163.71875 407.570312 163.734375 C 407.042969 163.808594 406.515625 163.851562 405.984375 163.875 C 405.210938 163.90625 404.441406 163.886719 403.675781 163.789062 C 402.398438 163.632812 401.128906 163.328125 399.945312 162.828125 C 398.742188 162.367188 397.617188 161.722656 396.582031 160.953125 C 395.546875 160.179688 394.617188 159.265625 393.808594 158.234375 C 393.734375 158.136719 393.597656 158.117188 393.5 158.195312 C 393.414062 158.261719 393.394531 158.378906 393.441406 158.476562 C 394.089844 159.675781 394.996094 160.734375 396.050781 161.621094 C 397.105469 162.511719 398.316406 163.203125 399.585938 163.730469 C 400.875 164.210938 402.230469 164.539062 403.609375 164.609375 C 403.859375 164.621094 404.113281 164.617188 404.363281 164.617188 C 405.484375 164.605469 406.601562 164.445312 407.65625 164.09375 C 407.753906 164.058594 407.808594 163.953125 407.773438 163.855469 Z M 418.507812 138.75 C 417.886719 138.160156 416.929688 138 416.09375 138.191406 C 415.679688 138.292969 415.269531 138.46875 414.933594 138.742188 C 414.597656 139.011719 414.308594 139.351562 414.164062 139.753906 C 414.125 139.871094 414.183594 140.003906 414.300781 140.042969 C 414.375 140.070312 414.453125 140.054688 414.511719 140.015625 L 414.523438 140.007812 C 414.820312 139.792969 415.09375 139.605469 415.398438 139.460938 C 415.695312 139.324219 416 139.203125 416.320312 139.132812 C 416.636719 139.050781 416.960938 139.011719 417.292969 138.992188 C 417.628906 138.980469 417.96875 139.015625 418.335938 139.074219 L 418.347656 139.074219 C 418.449219 139.09375 418.546875 139.023438 418.566406 138.917969 C 418.578125 138.851562 418.550781 138.789062 418.507812 138.75 Z M 410.882812 155.25 C 411.574219 155.246094 412.292969 155.035156 412.796875 154.570312 C 412.871094 154.5 412.875 154.378906 412.804688 154.300781 C 412.75 154.246094 412.671875 154.230469 412.601562 154.253906 L 412.59375 154.257812 C 411.496094 154.675781 410.328125 154.425781 409.351562 153.898438 C 409.226562 153.832031 409.105469 153.742188 408.980469 153.660156 C 408.621094 153.433594 408.273438 153.175781 407.925781 152.894531 C 407.878906 152.855469 407.832031 152.8125 407.785156 152.773438 C 407.375 152.425781 406.964844 152.046875 406.519531 151.695312 C 406.417969 151.617188 406.285156 151.632812 406.207031 151.730469 C 406.148438 151.808594 406.144531 151.90625 406.1875 151.984375 C 406.515625 152.527344 406.898438 153.039062 407.335938 153.515625 C 407.769531 154 408.296875 154.425781 408.894531 154.75 C 409.507812 155.070312 410.1875 155.261719 410.882812 155.25 Z M 414.398438 135.082031 C 414.1875 135.40625 414.023438 135.765625 413.972656 136.152344 C 413.957031 136.28125 414.042969 136.394531 414.167969 136.410156 C 414.246094 136.421875 414.316406 136.394531 414.367188 136.339844 L 414.371094 136.332031 C 414.609375 136.082031 414.828125 135.84375 415.0625 135.625 C 415.296875 135.414062 415.527344 135.199219 415.78125 135.015625 C 416.023438 134.820312 416.292969 134.652344 416.558594 134.480469 C 416.832031 134.308594 417.128906 134.164062 417.4375 134.003906 L 417.445312 134 C 417.539062 133.945312 417.574219 133.828125 417.523438 133.734375 C 417.496094 133.679688 417.441406 133.644531 417.382812 133.636719 C 417.003906 133.570312 416.613281 133.621094 416.242188 133.726562 C 415.863281 133.824219 415.515625 134.015625 415.203125 134.242188 C 414.886719 134.476562 414.609375 134.75 414.398438 135.082031 Z M 402.230469 135.035156 C 402.703125 134.617188 403.21875 134.25 403.78125 133.976562 C 404.339844 133.695312 404.945312 133.519531 405.574219 133.402344 C 406.199219 133.292969 406.847656 133.28125 407.511719 133.332031 C 407.621094 133.339844 407.710938 133.265625 407.71875 133.164062 C 407.726562 133.082031 407.679688 133.007812 407.609375 132.972656 C 406.953125 132.683594 406.222656 132.566406 405.492188 132.585938 C 404.757812 132.605469 404.03125 132.792969 403.359375 133.105469 C 402.691406 133.429688 402.085938 133.882812 401.613281 134.441406 C 401.136719 134.996094 400.765625 135.640625 400.585938 136.339844 C 400.554688 136.457031 400.628906 136.578125 400.746094 136.609375 C 400.839844 136.636719 400.9375 136.59375 400.988281 136.519531 C 401.355469 135.964844 401.761719 135.460938 402.230469 135.035156 Z M 415.203125 145.332031 C 415.589844 146.1875 415.785156 147.136719 415.589844 148.003906 C 415.394531 148.835938 414.710938 149.648438 413.789062 149.796875 L 413.78125 149.800781 C 413.679688 149.8125 413.613281 149.910156 413.628906 150.011719 C 413.644531 150.097656 413.714844 150.160156 413.796875 150.164062 C 414.972656 150.246094 416.011719 149.332031 416.375 148.234375 C 416.753906 147.117188 416.515625 145.933594 416.085938 144.941406 C 415.640625 143.941406 415.019531 143.097656 414.457031 142.273438 C 413.894531 141.449219 413.398438 140.605469 413.152344 139.660156 C 413.121094 139.542969 413.003906 139.464844 412.886719 139.496094 C 412.785156 139.519531 412.710938 139.617188 412.714844 139.714844 C 412.746094 140.808594 413.21875 141.824219 413.726562 142.722656 C 414.238281 143.632812 414.820312 144.457031 415.203125 145.332031 Z M 342.226562 494.269531 C 342.441406 495.335938 343.082031 495.453125 343.652344 494.527344 C 344.226562 493.605469 344.515625 491.988281 344.300781 490.917969 C 344.085938 489.855469 343.445312 489.738281 342.871094 490.664062 C 342.300781 491.585938 342.007812 493.203125 342.226562 494.269531 Z M 342.109375 487.933594 L 354.828125 487.933594 C 354.828125 487.933594 355.609375 492.675781 358.726562 495.089844 C 361.632812 497.34375 361.726562 503.941406 361.726562 503.941406 L 339.339844 503.941406 Z M 488.96875 221.234375 C 496.136719 219.167969 499.597656 210.226562 495.238281 210.226562 C 491.597656 210.226562 490.265625 212.40625 490.265625 212.40625 C 490.265625 212.40625 488.90625 210.226562 486.140625 210.226562 C 481.777344 210.226562 482.449219 219.167969 488.96875 221.234375 Z M 465.523438 240.566406 C 465.800781 239.230469 462.695312 239.296875 456.714844 239.296875 C 450.730469 239.296875 444.914062 245.207031 444.914062 245.207031 C 444.914062 245.207031 431.015625 243.355469 418.152344 241.304688 C 413.460938 240.558594 408.914062 239.789062 405.21875 239.066406 C 405.089844 238.503906 405.019531 237.925781 405.019531 237.328125 L 442.359375 237.328125 L 448.835938 196.710938 L 449.570312 192.097656 C 450.109375 188.730469 453.015625 186.253906 456.425781 186.253906 L 518.097656 186.253906 C 522.363281 186.253906 525.617188 190.066406 524.945312 194.28125 L 517.761719 239.359375 C 517.222656 242.726562 514.316406 245.207031 510.90625 245.207031 L 479.980469 245.207031 L 456.882812 245.078125 C 456.882812 245.078125 465.246094 241.902344 465.523438 240.566406 Z M 440.976562 496.285156 C 442.40625 496.285156 443.46875 495.128906 443.351562 493.699219 C 443.234375 492.269531 441.980469 491.109375 440.550781 491.109375 C 439.121094 491.109375 438.054688 492.269531 438.175781 493.699219 C 438.292969 495.128906 439.546875 496.285156 440.976562 496.285156 Z M 444.804688 487.933594 L 444.773438 487.933594 C 444.773438 487.933594 446.578125 492.960938 456.070312 494.21875 C 464.972656 495.402344 471.027344 503.941406 471.027344 503.941406 L 435.582031 503.941406 L 432.058594 487.933594 L 432.085938 487.933594 C 432.085938 487.933594 413.074219 452.488281 409.734375 423.519531 C 406.394531 394.546875 407.972656 381.71875 399.976562 365.457031 C 397.683594 360.792969 394.433594 355.464844 390.933594 349.746094 L 414.71875 258.734375 Z M 392.507812 130.78125 C 392.53125 131.039062 392.554688 131.304688 392.570312 131.566406 C 392.703125 131 392.984375 130.445312 393.304688 129.964844 C 393.070312 130.265625 392.800781 130.535156 392.507812 130.78125 Z M 426.847656 152.84375 C 426.4375 152.648438 426.207031 152.21875 426 151.816406 C 425.300781 150.445312 424.601562 149.074219 423.898438 147.703125 C 424.121094 150.601562 422.722656 153.570312 420.347656 155.25 C 419.792969 155.644531 419.117188 155.964844 418.453125 156.050781 C 421.359375 147.492188 418.800781 131.359375 418.523438 125.226562 C 418.46875 123.914062 418.226562 122.613281 417.824219 121.367188 C 417.078125 120.71875 416.15625 120.257812 415.21875 120.085938 C 416.355469 122.914062 415.273438 126.207031 413.433594 128.636719 C 412.878906 129.371094 412.222656 130.078125 411.371094 130.433594 C 410.519531 130.789062 409.429688 130.707031 408.808594 130.027344 C 408.792969 130.011719 408.785156 129.992188 408.769531 129.972656 C 408.476562 129.621094 408.371094 129.128906 408.453125 128.683594 C 407.636719 129.625 406.597656 130.371094 405.4375 130.820312 C 404.859375 131.039062 404.214844 131.191406 403.628906 130.988281 C 402.929688 130.746094 402.480469 130.03125 402.339844 129.304688 C 402.203125 128.578125 402.320312 127.828125 402.441406 127.09375 C 401.105469 129.515625 399.160156 131.601562 396.832031 133.089844 C 396.101562 133.558594 395.296875 133.980469 394.429688 133.980469 C 393.722656 133.976562 392.992188 133.601562 392.667969 133 C 392.730469 134.21875 392.753906 135.441406 392.738281 136.660156 C 392.066406 135.675781 391.332031 134.699219 390.273438 134.152344 C 389.121094 133.558594 387.480469 133.699219 386.792969 134.804688 C 386.269531 135.65625 386.464844 136.753906 386.746094 137.714844 C 387.230469 139.378906 387.949219 141.027344 389.171875 142.257812 C 389.992188 143.085938 391.082031 143.6875 392.21875 143.886719 C 391.746094 147.445312 390.949219 150.960938 389.828125 154.375 C 388.75 157.671875 387.3125 160.964844 384.835938 163.394531 C 384.652344 163.566406 384.453125 163.738281 384.242188 163.890625 C 383.769531 164.226562 383.238281 164.449219 382.695312 164.3125 C 381.683594 164.0625 381.347656 162.773438 381.449219 161.730469 C 381.550781 160.695312 381.890625 159.605469 381.496094 158.640625 C 380.144531 159.316406 379.636719 161.300781 378.152344 161.558594 C 376.964844 161.765625 375.890625 160.617188 375.722656 159.421875 C 375.558594 158.230469 376.027344 157.050781 376.492188 155.941406 C 374.773438 156.515625 373.011719 157.097656 371.203125 157.054688 C 369.390625 157.015625 367.488281 156.21875 366.605469 154.632812 C 365.441406 152.539062 366.386719 149.9375 367.347656 147.742188 C 365.554688 148.757812 363.136719 148.53125 361.566406 147.195312 C 359.992188 145.859375 359.375 143.511719 360.085938 141.578125 C 360.246094 141.148438 360.46875 140.703125 360.378906 140.253906 C 360.257812 139.679688 359.6875 139.34375 359.242188 138.96875 C 357.550781 137.554688 357.273438 134.90625 358.203125 132.902344 C 359.125 130.898438 361.011719 129.484375 363.03125 128.589844 C 365.042969 127.6875 367.21875 127.226562 369.332031 126.597656 C 371.449219 125.960938 373.5625 125.125 375.179688 123.621094 C 375.828125 123.019531 376.386719 122.320312 376.949219 121.621094 C 378.03125 118.46875 380.5 115.773438 383.636719 114.601562 C 382.660156 114.613281 380.382812 115.109375 379.550781 114.601562 C 378.722656 114.085938 378.195312 112.96875 378.640625 112.101562 C 378.996094 111.410156 379.8125 111.109375 380.570312 110.90625 C 382.660156 110.363281 384.816406 109.996094 386.964844 110.09375 C 386.433594 109.890625 385.988281 109.421875 385.824219 108.863281 C 385.570312 108.003906 385.890625 107.046875 386.46875 106.359375 C 387.734375 104.851562 389.945312 104.574219 391.90625 104.75 C 393.707031 104.914062 395.375 105.394531 397.03125 106.121094 C 396.320312 105.386719 396.554688 104.082031 397.289062 103.375 C 398.023438 102.660156 399.089844 102.421875 400.109375 102.328125 C 402.054688 102.164062 404.070312 102.464844 405.765625 103.425781 C 407.464844 104.382812 408.675781 105.738281 409.03125 107.652344 C 409.433594 106.878906 409.851562 106.089844 410.46875 105.46875 C 411.085938 104.851562 411.941406 104.40625 412.808594 104.5 C 413.613281 104.585938 414.300781 105.097656 414.859375 105.683594 C 415.515625 106.363281 416.058594 107.199219 416.167969 108.140625 C 416.335938 109.707031 415.117188 111.351562 414.117188 112.566406 C 417.15625 112.769531 420.257812 112.980469 423.09375 114.09375 C 423.445312 114.234375 423.800781 114.386719 424.074219 114.652344 C 424.347656 114.914062 424.523438 115.304688 424.441406 115.671875 C 424.355469 116.054688 424.023438 116.320312 423.699219 116.539062 C 422.457031 117.359375 420.972656 117.640625 419.480469 117.605469 C 421.824219 119.59375 423.703125 122.226562 425.089844 124.886719 C 427.277344 129.101562 428.449219 133.769531 429.425781 138.417969 C 430.332031 142.746094 431.046875 147.460938 429.097656 151.4375 C 428.667969 152.324219 427.738281 153.269531 426.847656 152.84375 " fill-opacity="1" fill-rule="nonzero"/></g></svg>