<svg xmlns="http://www.w3.org/2000/svg" xmlns:xlink="http://www.w3.org/1999/xlink" width="1024" zoomAndPan="magnify" viewBox="0 0 768 576" height="768" preserveAspectRatio="xMidYMid meet" version="1.0"><defs><clipPath id="f777ee3648"><path d="M 164 61.429688 L 599 61.429688 L 599 509 L 164 509 Z M 164 61.429688 " clip-rule="nonzero"/></clipPath><clipPath id="a287437aca"><path d="M 135.363281 75.019531 L 622.070312 75.019531 L 622.070312 514.328125 L 135.363281 514.328125 Z M 135.363281 75.019531 " clip-rule="nonzero"/></clipPath><clipPath id="d7c36bb867"><path d="M 171.226562 242.039062 L 632.585938 242.039062 L 632.585938 495 L 171.226562 495 Z M 171.226562 242.039062 " clip-rule="nonzero"/></clipPath></defs><g clip-path="url(#f777ee3648)"><path fill="#d2e2eb" d="M 531.625 458.761719 L 539.511719 494.039062 L 506.253906 494.039062 L 503.242188 480.566406 C 467.292969 502.347656 418.050781 513.4375 350.6875 506.773438 C 240.609375 495.882812 164.480469 425.210938 164.480469 314.597656 C 164.480469 203.980469 263.207031 61.699219 373.820312 61.699219 C 484.441406 61.699219 598.699219 131.492188 598.699219 242.105469 C 598.699219 309.929688 590.160156 402.457031 531.625 458.761719 " fill-opacity="1" fill-rule="nonzero"/></g><g clip-path="url(#a287437aca)"><path fill="#f89345" d="M 217.503906 286.921875 C 217.523438 287.433594 217.558594 287.953125 217.628906 288.460938 C 217.871094 290.664062 218.558594 292.8125 219.550781 294.800781 C 220.246094 296.175781 221.109375 297.464844 222.105469 298.65625 C 222.507812 297.351562 222.910156 296.0625 223.296875 294.804688 C 220.71875 292.742188 218.722656 289.984375 217.503906 286.921875 Z M 279.074219 307.097656 C 278.945312 307.847656 278.78125 308.601562 278.59375 309.34375 C 279.273438 308.242188 279.835938 307.058594 280.246094 305.828125 C 281.714844 301.371094 281.613281 296.5625 281.496094 291.808594 C 281.421875 287.035156 281.453125 282.25 281.6875 277.472656 C 281.84375 274.125 282.097656 270.777344 282.429688 267.4375 C 282.125 267.386719 281.820312 267.332031 281.515625 267.261719 C 278.683594 273.347656 278.574219 280.320312 278.964844 287.015625 C 279.359375 293.714844 280.195312 300.480469 279.074219 307.097656 Z M 283.011719 267.539062 C 282.867188 269.945312 282.753906 272.351562 282.65625 274.753906 C 282.859375 272.34375 283.140625 269.945312 283.503906 267.589844 C 283.339844 267.570312 283.175781 267.5625 283.011719 267.539062 Z M 322.332031 222.550781 C 321.125 224.414062 320.003906 226.363281 319.128906 228.394531 C 328.109375 228.179688 339.109375 230.703125 352.5 236.875 C 352.308594 234.535156 352.304688 232.167969 352.308594 229.820312 C 352.3125 228.15625 352.257812 226.386719 351.953125 224.71875 C 351.492188 224.460938 351.023438 224.21875 350.539062 224.03125 C 349.84375 223.765625 349.128906 223.554688 348.398438 223.4375 C 347.667969 223.308594 346.925781 223.265625 346.179688 223.28125 C 345.433594 223.308594 344.683594 223.421875 343.929688 223.589844 C 343.824219 223.621094 343.71875 223.550781 343.691406 223.445312 C 343.675781 223.359375 343.714844 223.273438 343.78125 223.230469 C 344.484375 222.8125 345.28125 222.554688 346.09375 222.421875 C 346.910156 222.28125 347.75 222.300781 348.566406 222.425781 C 349.382812 222.566406 350.1875 222.816406 350.914062 223.207031 C 351.203125 223.359375 351.472656 223.539062 351.734375 223.726562 C 351.511719 222.871094 351.207031 222.0625 350.792969 221.324219 C 350.640625 221.289062 350.484375 221.253906 350.332031 221.226562 C 349.847656 221.140625 349.367188 221.066406 348.882812 221.039062 C 348.398438 220.996094 347.914062 221.003906 347.421875 221.023438 C 346.929688 221.042969 346.4375 221.105469 345.921875 221.167969 C 345.8125 221.179688 345.707031 221.105469 345.695312 220.996094 C 345.683594 220.917969 345.722656 220.84375 345.78125 220.800781 C 346.238281 220.492188 346.757812 220.292969 347.296875 220.164062 C 347.832031 220.027344 348.394531 219.992188 348.945312 220.015625 C 349.300781 220.039062 349.65625 220.105469 350 220.1875 C 349.761719 219.914062 349.5 219.652344 349.210938 219.414062 C 348.496094 219.324219 347.78125 219.304688 347.085938 219.398438 C 346.347656 219.496094 345.628906 219.671875 344.949219 219.957031 C 344.257812 220.230469 343.617188 220.605469 343.019531 221.046875 C 342.421875 221.492188 341.894531 222.035156 341.421875 222.648438 C 341.355469 222.734375 341.230469 222.75 341.140625 222.6875 C 341.074219 222.632812 341.050781 222.539062 341.078125 222.457031 C 341.648438 220.894531 343.011719 219.65625 344.554688 219.011719 C 345.339844 218.691406 346.175781 218.496094 347.019531 218.492188 C 347.238281 218.488281 347.449219 218.496094 347.660156 218.511719 C 344.398438 217.335938 339.742188 219.304688 338.8125 222.640625 C 338.539062 219.679688 336.1875 217.128906 333.363281 216.3125 C 333.597656 216.496094 333.832031 216.675781 334.050781 216.882812 C 334.675781 217.507812 335.222656 218.214844 335.621094 219 C 336.027344 219.785156 336.308594 220.628906 336.398438 221.492188 C 336.40625 221.601562 336.332031 221.699219 336.21875 221.710938 C 336.128906 221.71875 336.050781 221.664062 336.019531 221.589844 C 335.699219 220.824219 335.324219 220.105469 334.878906 219.441406 C 334.421875 218.785156 333.917969 218.164062 333.335938 217.617188 C 332.769531 217.0625 332.132812 216.582031 331.457031 216.15625 C 331.390625 216.113281 331.324219 216.082031 331.257812 216.046875 C 331.160156 216.050781 331.058594 216.046875 330.960938 216.054688 C 330.082031 216.125 329.253906 216.355469 328.46875 216.699219 C 329.027344 216.746094 329.578125 216.855469 330.109375 217.019531 C 331.816406 217.5625 333.375 218.738281 334.160156 220.332031 C 334.210938 220.429688 334.167969 220.550781 334.074219 220.597656 C 333.992188 220.636719 333.898438 220.613281 333.835938 220.554688 C 333.273438 219.941406 332.65625 219.414062 331.976562 218.988281 C 331.292969 218.566406 330.566406 218.222656 329.800781 217.996094 C 329.046875 217.753906 328.253906 217.628906 327.457031 217.585938 C 327.257812 217.578125 327.0625 217.597656 326.859375 217.605469 C 326.347656 217.960938 325.855469 218.355469 325.390625 218.792969 C 325.671875 218.769531 325.953125 218.761719 326.226562 218.765625 C 326.765625 218.789062 327.300781 218.847656 327.8125 218.992188 C 328.328125 219.125 328.832031 219.308594 329.296875 219.585938 C 329.390625 219.640625 329.421875 219.765625 329.367188 219.859375 C 329.324219 219.929688 329.253906 219.960938 329.179688 219.957031 L 327.675781 219.84375 C 327.179688 219.820312 326.695312 219.789062 326.207031 219.789062 C 325.71875 219.777344 325.230469 219.792969 324.738281 219.800781 L 324.394531 219.816406 C 323.628906 220.671875 322.941406 221.605469 322.332031 222.550781 Z M 216.207031 281.535156 C 215.765625 276.402344 217.515625 271.113281 220.933594 267.253906 C 224.515625 263.210938 229.871094 260.582031 232.050781 255.640625 C 234.496094 250.09375 232.085938 243.761719 231.367188 237.738281 C 231.183594 236.203125 231.132812 234.652344 231.191406 233.113281 C 230.992188 234.117188 230.855469 235.132812 230.800781 236.164062 C 230.511719 239.976562 230.984375 243.894531 230.398438 247.839844 C 230.097656 249.796875 229.527344 251.730469 228.566406 253.480469 C 227.597656 255.21875 226.1875 256.761719 224.40625 257.667969 C 224.3125 257.722656 224.191406 257.679688 224.144531 257.585938 C 224.09375 257.492188 224.132812 257.375 224.21875 257.324219 C 225.871094 256.367188 227.121094 254.851562 227.953125 253.15625 C 228.808594 251.46875 229.3125 249.605469 229.542969 247.71875 C 230.007812 243.929688 229.542969 240.039062 229.777344 236.09375 C 229.957031 233.296875 230.660156 230.519531 231.847656 227.972656 C 233.683594 219.238281 239.1875 211.226562 246.964844 206.789062 C 255.308594 202.027344 265.976562 200.476562 272.308594 193.253906 C 281.179688 183.132812 295.0625 177.640625 308.457031 178.949219 C 316.390625 179.726562 324.019531 182.894531 330.332031 187.753906 C 342.699219 180.191406 359.410156 189.378906 367.003906 198.339844 C 375.191406 207.988281 376.78125 222.710938 370.839844 233.882812 C 369.113281 237.136719 366.773438 240.214844 366.253906 243.859375 C 365.730469 247.507812 368.308594 251.273438 371.988281 251.199219 C 369.058594 254.179688 364.011719 254.34375 360.390625 252.265625 C 358.878906 251.402344 357.613281 250.207031 356.550781 248.835938 C 356.21875 263.9375 356.855469 292.59375 365.523438 306.632812 C 377.621094 326.214844 364.359375 354.726562 364.359375 354.726562 C 364.359375 354.726562 300.109375 353.675781 289.589844 330.386719 C 286.667969 323.914062 283.566406 310.46875 282.554688 295.410156 C 282.546875 299.007812 282.316406 302.644531 281.101562 306.125 C 280.386719 308.121094 279.308594 309.984375 277.921875 311.589844 C 276.214844 316.550781 273.085938 321.019531 268.445312 323.296875 C 263.585938 325.679688 257.84375 325.34375 252.53125 324.335938 C 247.21875 323.328125 241.941406 322.144531 236.554688 321.636719 C 230.800781 321.09375 226.371094 321.054688 220.433594 323.984375 C 218.957031 321.125 218.640625 317.667969 219.09375 311.984375 C 219.425781 307.824219 220.632812 303.472656 221.90625 299.304688 C 220.679688 298.101562 219.632812 296.714844 218.792969 295.203125 C 217.652344 293.171875 216.921875 290.90625 216.609375 288.585938 C 216.441406 287.105469 216.464844 285.613281 216.644531 284.144531 C 216.441406 283.285156 216.28125 282.417969 216.207031 281.535156 Z M 555.507812 141.300781 L 555.507812 144.375 L 568.308594 144.375 L 568.308594 141.300781 Z M 555.507812 167.53125 L 572.582031 167.53125 L 572.582031 164.457031 L 555.507812 164.457031 Z M 568.582031 163.867188 L 580.902344 163.867188 L 580.902344 160.792969 L 568.582031 160.792969 Z M 555.507812 163.867188 L 568.308594 163.867188 L 568.308594 160.792969 L 555.507812 160.792969 Z M 555.507812 160.203125 L 578.566406 160.203125 L 578.566406 157.128906 L 555.507812 157.128906 Z M 555.507812 155.367188 L 572.582031 155.367188 L 572.582031 152.292969 L 555.507812 152.292969 Z M 583.699219 148.632812 L 568.582031 148.632812 L 568.582031 151.707031 L 583.699219 151.707031 Z M 555.507812 151.707031 L 568.308594 151.707031 L 568.308594 148.632812 L 555.507812 148.632812 Z M 555.507812 148.039062 L 578.566406 148.039062 L 578.566406 144.964844 L 555.507812 144.964844 Z M 522.644531 139.035156 L 548.035156 139.035156 L 548.035156 135.960938 L 522.644531 135.960938 Z M 545.703125 108.90625 L 522.644531 108.90625 L 522.644531 111.980469 L 545.703125 111.980469 Z M 522.644531 135.496094 L 539.71875 135.496094 L 539.71875 132.421875 L 522.644531 132.421875 Z M 548.035156 128.753906 L 535.710938 128.753906 L 535.710938 131.828125 L 548.035156 131.828125 Z M 522.644531 131.828125 L 535.441406 131.828125 L 535.441406 128.753906 L 522.644531 128.753906 Z M 522.644531 128.164062 L 545.703125 128.164062 L 545.703125 125.089844 L 522.644531 125.089844 Z M 522.644531 123.332031 L 539.71875 123.332031 L 539.71875 120.257812 L 522.644531 120.257812 Z M 550.835938 116.589844 L 535.710938 116.589844 L 535.710938 119.664062 L 550.835938 119.664062 Z M 522.644531 119.664062 L 535.441406 119.664062 L 535.441406 116.589844 L 522.644531 116.589844 Z M 522.644531 116.003906 L 545.703125 116.003906 L 545.703125 112.929688 L 522.644531 112.929688 Z M 579.265625 104.503906 L 556.207031 104.503906 L 556.207031 107.578125 L 579.265625 107.578125 Z M 573.28125 100.871094 L 556.207031 100.871094 L 556.207031 103.945312 L 573.28125 103.945312 Z M 569.273438 100.277344 L 581.597656 100.277344 L 581.597656 97.203125 L 569.273438 97.203125 Z M 569.003906 97.203125 L 556.207031 97.203125 L 556.207031 100.277344 L 569.003906 100.277344 Z M 579.265625 93.539062 L 556.207031 93.539062 L 556.207031 96.613281 L 579.265625 96.613281 Z M 573.28125 88.707031 L 556.207031 88.707031 L 556.207031 91.78125 L 573.28125 91.78125 Z M 569.273438 88.113281 L 584.394531 88.113281 L 584.394531 85.039062 L 569.273438 85.039062 Z M 569.003906 85.039062 L 556.207031 85.039062 L 556.207031 88.113281 L 569.003906 88.113281 Z M 579.265625 81.378906 L 556.207031 81.378906 L 556.207031 84.449219 L 579.265625 84.449219 Z M 582.53125 111.980469 L 558.070312 111.980469 L 558.070312 136.441406 L 582.53125 136.441406 Z M 585.605469 139.515625 L 554.996094 139.515625 L 554.996094 108.90625 L 585.605469 108.90625 Z M 549.660156 144.375 L 525.207031 144.375 L 525.207031 163.972656 L 549.660156 163.972656 Z M 552.734375 167.046875 L 522.132812 167.046875 L 522.132812 141.300781 L 552.734375 141.300781 Z M 549.660156 84.449219 L 525.207031 84.449219 L 525.207031 104.503906 L 549.660156 104.503906 Z M 552.734375 107.578125 L 522.132812 107.578125 L 522.132812 81.378906 L 552.734375 81.378906 Z M 575.847656 257.683594 L 558.769531 257.683594 L 558.769531 260.757812 L 575.847656 260.757812 Z M 586.960938 254.019531 L 571.839844 254.019531 L 571.839844 257.09375 L 586.960938 257.09375 Z M 558.769531 257.09375 L 571.566406 257.09375 L 571.566406 254.019531 L 558.769531 254.019531 Z M 581.828125 250.355469 L 558.769531 250.355469 L 558.769531 253.429688 L 581.828125 253.429688 Z M 558.769531 239.023438 L 575.847656 239.023438 L 575.847656 235.949219 L 558.769531 235.949219 Z M 586.960938 232.285156 L 571.839844 232.285156 L 571.839844 235.359375 L 586.960938 235.359375 Z M 558.769531 235.359375 L 571.566406 235.359375 L 571.566406 232.285156 L 558.769531 232.285156 Z M 581.828125 228.617188 L 558.769531 228.617188 L 558.769531 231.691406 L 581.828125 231.691406 Z M 558.769531 217.289062 L 575.847656 217.289062 L 575.847656 214.214844 L 558.769531 214.214844 Z M 586.960938 210.550781 L 571.839844 210.550781 L 571.839844 213.625 L 586.960938 213.625 Z M 558.769531 213.625 L 571.566406 213.625 L 571.566406 210.550781 L 558.769531 210.550781 Z M 581.828125 206.882812 L 558.769531 206.882812 L 558.769531 209.957031 L 581.828125 209.957031 Z M 539.46875 261.351562 L 551.050781 261.351562 L 551.050781 249.765625 L 539.46875 249.765625 Z M 536.394531 246.691406 L 554.125 246.691406 L 554.125 264.425781 L 536.394531 264.425781 Z M 551.050781 228.03125 L 539.46875 228.03125 L 539.46875 239.613281 L 551.050781 239.613281 Z M 554.125 242.6875 L 536.394531 242.6875 L 536.394531 224.957031 L 554.125 224.957031 Z M 551.050781 206.296875 L 539.46875 206.296875 L 539.46875 217.878906 L 551.050781 217.878906 Z M 554.125 220.953125 L 536.394531 220.953125 L 536.394531 203.222656 L 554.125 203.222656 Z M 520.109375 257.683594 L 503.039062 257.683594 L 503.039062 260.757812 L 520.109375 260.757812 Z M 516.109375 257.09375 L 531.230469 257.09375 L 531.230469 254.019531 L 516.109375 254.019531 Z M 515.835938 254.019531 L 503.039062 254.019531 L 503.039062 257.09375 L 515.835938 257.09375 Z M 526.097656 250.355469 L 503.039062 250.355469 L 503.039062 253.429688 L 526.097656 253.429688 Z M 520.109375 214.214844 L 503.039062 214.214844 L 503.039062 217.289062 L 520.109375 217.289062 Z M 516.109375 213.625 L 531.230469 213.625 L 531.230469 210.550781 L 516.109375 210.550781 Z M 515.835938 210.550781 L 503.039062 210.550781 L 503.039062 213.625 L 515.835938 213.625 Z M 526.097656 206.882812 L 503.039062 206.882812 L 503.039062 209.957031 L 526.097656 209.957031 Z M 483.734375 261.351562 L 495.320312 261.351562 L 495.320312 249.765625 L 483.734375 249.765625 Z M 480.660156 246.691406 L 498.394531 246.691406 L 498.394531 264.425781 L 480.660156 264.425781 Z M 495.320312 206.296875 L 483.734375 206.296875 L 483.734375 217.878906 L 495.320312 217.878906 Z M 498.394531 220.953125 L 480.660156 220.953125 L 480.660156 203.222656 L 498.394531 203.222656 Z M 492.898438 75.851562 L 416.9375 75.851562 L 416.9375 172.574219 L 492.898438 172.574219 Z M 622.070312 499.871094 C 622.070312 507.855469 513.117188 514.328125 378.71875 514.328125 C 244.316406 514.328125 135.363281 507.855469 135.363281 499.871094 C 135.363281 492.875 218.964844 487.039062 330.035156 485.695312 L 304.832031 423.066406 C 304.300781 421.734375 304.953125 420.222656 306.289062 419.695312 C 307.621094 419.167969 309.128906 419.820312 309.65625 421.152344 L 335.605469 485.632812 C 349.597656 485.484375 364.003906 485.410156 378.71875 485.410156 C 424.871094 485.410156 468.023438 486.171875 504.792969 487.5 L 506.253906 494.039062 L 539.511719 494.039062 L 538.375 488.953125 C 589.652344 491.605469 622.070312 495.511719 622.070312 499.871094 " fill-opacity="1" fill-rule="nonzero"/></g><path fill="#ffffff" d="M 427.050781 163.007812 L 466.324219 163.007812 L 466.324219 161.984375 L 427.050781 161.984375 Z M 482.78125 155.734375 L 427.050781 155.734375 L 427.050781 156.761719 L 482.78125 156.761719 Z M 482.78125 149.484375 L 427.050781 149.484375 L 427.050781 150.507812 L 482.78125 150.507812 Z M 482.78125 143.238281 L 427.050781 143.238281 L 427.050781 144.261719 L 482.78125 144.261719 Z M 482.78125 136.984375 L 427.050781 136.984375 L 427.050781 138.007812 L 482.78125 138.007812 Z M 482.78125 130.734375 L 427.050781 130.734375 L 427.050781 131.757812 L 482.78125 131.757812 Z M 482.269531 88.382812 L 427.5625 88.382812 L 427.5625 123.699219 L 482.269531 123.699219 Z M 483.296875 124.726562 L 426.539062 124.726562 L 426.539062 87.355469 L 483.296875 87.355469 Z M 496.34375 205.273438 L 482.710938 205.273438 L 482.710938 218.902344 L 496.34375 218.902344 Z M 439.25 230.519531 L 438.527344 229.796875 L 431.558594 236.761719 L 429.066406 234.265625 L 428.339844 234.992188 L 431.558594 238.210938 Z M 440.613281 240.636719 L 426.980469 240.636719 L 426.980469 227.003906 L 440.613281 227.003906 Z M 585.9375 211.574219 L 572.863281 211.574219 L 572.863281 212.601562 L 585.9375 212.601562 Z M 585.9375 233.308594 L 572.863281 233.308594 L 572.863281 234.332031 L 585.9375 234.332031 Z M 585.9375 255.042969 L 572.863281 255.042969 L 572.863281 256.066406 L 585.9375 256.066406 Z M 574.820312 258.710938 L 559.796875 258.710938 L 559.796875 259.734375 L 574.820312 259.734375 Z M 553.097656 204.246094 L 537.417969 204.246094 L 537.417969 219.929688 L 553.097656 219.929688 Z M 553.097656 225.980469 L 537.417969 225.980469 L 537.417969 241.664062 L 553.097656 241.664062 Z M 553.097656 247.714844 L 537.417969 247.714844 L 537.417969 263.398438 L 553.097656 263.398438 Z M 530.203125 211.574219 L 517.132812 211.574219 L 517.132812 212.601562 L 530.203125 212.601562 Z M 530.203125 233.308594 L 517.132812 233.308594 L 517.132812 234.332031 L 530.203125 234.332031 Z M 530.203125 255.042969 L 517.132812 255.042969 L 517.132812 256.066406 L 530.203125 256.066406 Z M 519.085938 258.710938 L 504.066406 258.710938 L 504.066406 259.734375 L 519.085938 259.734375 Z M 497.367188 204.246094 L 481.6875 204.246094 L 481.6875 219.929688 L 497.367188 219.929688 Z M 497.367188 225.980469 L 481.6875 225.980469 L 481.6875 241.664062 L 497.367188 241.664062 Z M 497.367188 247.714844 L 481.6875 247.714844 L 481.6875 263.398438 L 497.367188 263.398438 Z M 474.46875 211.574219 L 461.402344 211.574219 L 461.402344 212.601562 L 474.46875 212.601562 Z M 474.46875 233.308594 L 461.402344 233.308594 L 461.402344 234.332031 L 474.46875 234.332031 Z M 474.46875 255.042969 L 461.402344 255.042969 L 461.402344 256.066406 L 474.46875 256.066406 Z M 463.355469 258.710938 L 448.328125 258.710938 L 448.328125 259.734375 L 463.355469 259.734375 Z M 441.636719 204.246094 L 425.957031 204.246094 L 425.957031 219.929688 L 441.636719 219.929688 Z M 441.636719 225.980469 L 425.957031 225.980469 L 425.957031 241.664062 L 441.636719 241.664062 Z M 441.636719 247.714844 L 425.957031 247.714844 L 425.957031 263.398438 L 441.636719 263.398438 Z M 448.328125 256.066406 L 459.082031 256.066406 L 459.082031 255.042969 L 448.328125 255.042969 Z M 448.328125 252.40625 L 469.34375 252.40625 L 469.34375 251.378906 L 448.328125 251.378906 Z M 448.328125 238 L 463.355469 238 L 463.355469 236.976562 L 448.328125 236.976562 Z M 448.328125 234.332031 L 459.082031 234.332031 L 459.082031 233.308594 L 448.328125 233.308594 Z M 448.328125 230.667969 L 469.34375 230.667969 L 469.34375 229.644531 L 448.328125 229.644531 Z M 448.328125 216.261719 L 463.355469 216.261719 L 463.355469 215.238281 L 448.328125 215.238281 Z M 448.328125 212.601562 L 459.082031 212.601562 L 459.082031 211.574219 L 448.328125 211.574219 Z M 448.328125 208.933594 L 469.34375 208.933594 L 469.34375 207.910156 L 448.328125 207.910156 Z M 504.066406 256.066406 L 514.8125 256.066406 L 514.8125 255.042969 L 504.066406 255.042969 Z M 504.066406 252.40625 L 525.074219 252.40625 L 525.074219 251.378906 L 504.066406 251.378906 Z M 504.066406 238 L 519.085938 238 L 519.085938 236.976562 L 504.066406 236.976562 Z M 504.066406 234.332031 L 514.8125 234.332031 L 514.8125 233.308594 L 504.066406 233.308594 Z M 504.066406 230.667969 L 525.074219 230.667969 L 525.074219 229.644531 L 504.066406 229.644531 Z M 504.066406 216.261719 L 519.085938 216.261719 L 519.085938 215.238281 L 504.066406 215.238281 Z M 504.066406 212.601562 L 514.8125 212.601562 L 514.8125 211.574219 L 504.066406 211.574219 Z M 504.066406 208.933594 L 525.074219 208.933594 L 525.074219 207.910156 L 504.066406 207.910156 Z M 559.796875 256.066406 L 570.542969 256.066406 L 570.542969 255.042969 L 559.796875 255.042969 Z M 559.796875 252.40625 L 580.804688 252.40625 L 580.804688 251.378906 L 559.796875 251.378906 Z M 559.796875 238 L 574.820312 238 L 574.820312 236.976562 L 559.796875 236.976562 Z M 559.796875 234.332031 L 570.542969 234.332031 L 570.542969 233.308594 L 559.796875 233.308594 Z M 559.796875 230.667969 L 580.804688 230.667969 L 580.804688 229.644531 L 559.796875 229.644531 Z M 559.796875 216.261719 L 574.820312 216.261719 L 574.820312 215.238281 L 559.796875 215.238281 Z M 559.796875 212.601562 L 570.542969 212.601562 L 570.542969 211.574219 L 559.796875 211.574219 Z M 559.796875 208.933594 L 580.804688 208.933594 L 580.804688 207.910156 L 559.796875 207.910156 Z M 595.460938 273.28125 L 416.9375 273.28125 L 416.9375 191.476562 L 595.460938 191.476562 Z M 439.25 252.253906 L 438.527344 251.527344 L 431.558594 258.496094 L 429.066406 256.003906 L 428.339844 256.726562 L 431.558594 259.945312 Z M 440.613281 262.375 L 426.980469 262.375 L 426.980469 248.738281 L 440.613281 248.738281 Z M 496.34375 248.738281 L 482.710938 248.738281 L 482.710938 262.375 L 496.34375 262.375 Z M 494.984375 230.519531 L 494.257812 229.796875 L 487.289062 236.761719 L 484.796875 234.265625 L 484.070312 234.992188 L 487.289062 238.210938 Z M 496.34375 240.636719 L 482.710938 240.636719 L 482.710938 227.003906 L 496.34375 227.003906 Z M 552.074219 248.738281 L 538.441406 248.738281 L 538.441406 262.375 L 552.074219 262.375 Z M 552.074219 227.003906 L 538.441406 227.003906 L 538.441406 240.636719 L 552.074219 240.636719 Z M 552.074219 205.273438 L 538.441406 205.273438 L 538.441406 218.902344 L 552.074219 218.902344 Z M 439.25 208.785156 L 438.527344 208.0625 L 431.558594 215.027344 L 429.066406 212.53125 L 428.339844 213.257812 L 431.558594 216.476562 Z M 440.613281 218.902344 L 426.980469 218.902344 L 426.980469 205.273438 L 440.613281 205.273438 Z M 626.226562 289.722656 C 626.148438 289.664062 626.074219 289.613281 625.992188 289.5625 L 625.992188 289.558594 C 625.273438 289.0625 624.398438 288.761719 623.441406 288.761719 L 408.964844 288.761719 C 406.777344 288.761719 404.910156 290.320312 404.523438 292.472656 L 375.367188 454.679688 C 375.039062 456.515625 375.863281 458.242188 377.277344 459.207031 L 381.589844 462.253906 L 384.921875 459.992188 L 498.644531 459.992188 L 491.550781 428.25 L 524.804688 428.25 L 531.898438 459.992188 L 594.285156 459.992188 C 596.46875 459.992188 598.339844 458.425781 598.722656 456.277344 L 627.730469 294.898438 L 630.691406 292.882812 Z M 333.445312 424.296875 C 333.816406 424.296875 334.167969 424.132812 334.40625 423.855469 C 334.914062 423.257812 335.378906 422.578125 335.863281 421.714844 C 336.242188 421.046875 336.59375 420.289062 336.933594 419.382812 C 337.265625 418.460938 337.488281 417.683594 337.632812 416.933594 C 337.824219 415.980469 337.917969 415.140625 337.921875 414.359375 C 337.925781 413.828125 337.589844 413.355469 337.078125 413.1875 L 336.863281 413.132812 L 336.703125 413.132812 C 336.171875 413.132812 335.703125 413.472656 335.539062 413.976562 L 334.824219 416.167969 L 334.667969 416.613281 C 334.472656 417.179688 334.277344 417.746094 334.054688 418.316406 C 333.835938 418.894531 333.605469 419.464844 333.367188 420.03125 L 333.214844 420.402344 L 332.289062 422.550781 C 332.070312 423.0625 332.210938 423.644531 332.636719 424 C 332.863281 424.195312 333.148438 424.296875 333.445312 424.296875 Z M 315.917969 436.707031 L 316.300781 436.148438 C 317.957031 433.742188 319.460938 431.304688 320.757812 428.90625 C 322.765625 425.199219 324.550781 421.15625 326.070312 416.886719 C 327.558594 412.570312 328.6875 408.296875 329.417969 404.183594 C 330.199219 399.886719 330.617188 395.488281 330.671875 391.121094 C 330.675781 390.46875 330.175781 389.933594 329.449219 389.886719 C 328.804688 389.886719 328.273438 390.386719 328.234375 391.027344 C 327.96875 395.199219 327.40625 399.441406 326.554688 403.636719 C 325.671875 407.960938 324.535156 412.074219 323.171875 415.875 C 321.835938 419.722656 320.148438 423.640625 318.144531 427.523438 C 317.105469 429.519531 315.945312 431.574219 314.675781 433.628906 L 315.152344 434.808594 C 315.246094 435.015625 315.457031 435.570312 315.457031 435.570312 C 315.757812 436.246094 315.917969 436.707031 315.917969 436.707031 Z M 241.171875 398.277344 C 240.976562 398.160156 240.761719 398.101562 240.539062 398.101562 C 240.113281 398.101562 239.714844 398.324219 239.492188 398.691406 C 238.835938 399.777344 238.242188 400.878906 237.542969 402.1875 C 237.140625 402.949219 236.757812 403.71875 236.375 404.488281 C 236.171875 404.902344 235.96875 405.3125 235.742188 405.753906 L 235.222656 406.867188 C 234.835938 407.691406 234.445312 408.515625 234.078125 409.351562 C 233.570312 410.515625 233.027344 411.757812 232.542969 413.054688 C 232.335938 413.625 232.5625 414.265625 233.078125 414.570312 C 233.273438 414.6875 233.496094 414.753906 233.726562 414.753906 C 234.164062 414.753906 234.578125 414.515625 234.800781 414.144531 C 235.519531 412.945312 236.179688 411.707031 236.742188 410.628906 C 237.160156 409.824219 237.5625 409.007812 237.964844 408.195312 L 238.523438 407.054688 C 238.714844 406.636719 238.914062 406.210938 239.109375 405.789062 C 239.46875 405.015625 239.828125 404.238281 240.167969 403.453125 C 240.761719 402.09375 241.246094 400.9375 241.6875 399.746094 C 241.886719 399.199219 241.671875 398.578125 241.171875 398.277344 Z M 244.976562 334.429688 C 242.835938 332.25 240.402344 330.550781 237.738281 329.375 L 237.464844 329.273438 L 237.246094 329.273438 C 236.785156 329.273438 236.351562 329.542969 236.152344 329.957031 C 236.007812 330.25 235.988281 330.582031 236.09375 330.890625 C 236.203125 331.199219 236.421875 331.449219 236.714844 331.589844 C 241.167969 333.75 244.96875 337.765625 247.417969 342.898438 C 249.691406 347.675781 250.820312 353.0625 250.675781 358.484375 C 250.582031 363.292969 249.613281 368.527344 247.714844 374.492188 C 246.054688 379.703125 243.886719 384.882812 241.796875 389.890625 L 241.742188 390.023438 C 241.484375 390.648438 241.761719 391.359375 242.378906 391.644531 L 242.679688 391.761719 L 242.902344 391.761719 C 243.390625 391.761719 243.835938 391.476562 244.042969 391.03125 C 246.328125 386.105469 248.710938 380.839844 250.523438 375.40625 C 252.554688 369.355469 253.605469 363.839844 253.746094 358.542969 C 253.847656 352.53125 252.566406 346.675781 250.03125 341.617188 C 248.652344 338.871094 246.949219 336.453125 244.976562 334.429688 Z M 312.425781 378.507812 L 312.585938 378.503906 L 312.667969 378.492188 C 313.203125 378.40625 313.660156 378.039062 313.855469 377.53125 C 313.976562 377.226562 325.683594 346.882812 322.167969 317.644531 L 321.128906 317.574219 L 319.078125 317.484375 L 319.066406 317.585938 L 319.085938 317.726562 C 322.027344 341.460938 314.582031 366.054688 311.890625 373.910156 L 269.605469 322.660156 C 269.226562 322.886719 268.839844 323.101562 268.445312 323.296875 C 267.882812 323.570312 267.3125 323.804688 266.730469 324.011719 L 311.242188 377.953125 C 311.535156 378.304688 311.96875 378.507812 312.425781 378.507812 Z M 361.796875 486.761719 L 420.578125 508.699219 L 318.074219 508.699219 L 291.535156 489.660156 C 292.886719 489.726562 294.316406 489.710938 295.828125 489.554688 C 304.878906 488.617188 307.117188 487.144531 307.5625 486.761719 L 308.042969 486.761719 L 316.164062 488.851562 C 318.0625 489.339844 320.039062 488.464844 320.976562 486.761719 L 330.460938 486.761719 L 331.433594 489.171875 C 331.570312 489.511719 331.792969 489.8125 332.074219 490.039062 L 335.097656 492.476562 C 335.382812 492.707031 335.804688 492.539062 335.859375 492.175781 L 336.390625 488.328125 C 336.4375 487.964844 336.394531 487.597656 336.261719 487.257812 L 336.058594 486.761719 L 361.796875 486.761719 " fill-opacity="1" fill-rule="nonzero"/><path fill="#f9d291" d="M 374.441406 349.878906 C 369.78125 344.152344 366.714844 336.742188 362.957031 329.9375 C 365.621094 326.011719 366.390625 320.960938 369.234375 317.132812 C 372.472656 312.789062 378.023438 310.578125 381.097656 306.113281 C 383.535156 302.570312 384.089844 298 383.507812 293.734375 C 383.308594 292.289062 382.984375 290.871094 382.589844 289.46875 C 382.945312 288.179688 382.726562 286.53125 382.0625 285.445312 C 381.8125 285.480469 381.558594 285.523438 381.308594 285.5625 C 380.863281 284.34375 380.386719 283.136719 379.902344 281.9375 C 380.097656 281.761719 380.25 281.570312 380.34375 281.367188 C 380.976562 279.910156 380.300781 277.59375 378.835938 276.976562 C 377.597656 276.457031 376.347656 275.964844 375.085938 275.496094 C 378.511719 275.886719 380.285156 272.058594 377.855469 269.210938 C 375.058594 265.929688 369.992188 263.285156 366.582031 260.589844 C 365.796875 259.964844 364.988281 259.332031 364.027344 259.054688 C 363.066406 258.777344 361.90625 258.933594 361.269531 259.707031 C 360.167969 261.027344 361.195312 262.988281 362.214844 264.367188 C 365.171875 268.375 368.363281 272.53125 372.796875 274.695312 C 369.570312 273.585938 366.296875 272.628906 362.972656 271.867188 C 361.921875 272.65625 361.675781 274.210938 362.097656 275.457031 C 362.519531 276.703125 363.472656 277.699219 364.476562 278.550781 C 365.546875 279.460938 366.710938 280.261719 367.941406 280.945312 C 367.890625 280.96875 367.835938 280.992188 367.78125 281.023438 C 366.953125 281.5 366.183594 282.0625 365.472656 282.695312 C 365.59375 281.9375 365.507812 281.191406 365.117188 280.539062 C 360.886719 281.226562 356.644531 280.820312 352.402344 280.238281 C 346.082031 293.402344 341.988281 307.632812 340.347656 322.140625 C 339.304688 325.070312 338.972656 327.992188 340.285156 330.296875 C 340.28125 330.296875 340.273438 330.296875 340.269531 330.296875 C 348.703125 349.117188 357.132812 367.9375 365.566406 386.757812 C 370.550781 397.902344 375.574219 409.070312 381.667969 419.632812 L 390.902344 368.269531 C 385.132812 362.398438 379.636719 356.257812 374.441406 349.878906 Z M 550.6875 143.347656 L 524.179688 143.347656 L 524.179688 165 L 550.6875 165 Z M 584.578125 109.929688 L 556.019531 109.929688 L 556.019531 138.488281 L 584.578125 138.488281 Z M 582.675781 149.65625 L 569.605469 149.65625 L 569.605469 150.679688 L 582.675781 150.679688 Z M 579.875 161.816406 L 569.605469 161.816406 L 569.605469 162.839844 L 579.875 162.839844 Z M 556.535156 161.816406 L 556.535156 162.839844 L 567.285156 162.839844 L 567.285156 161.816406 Z M 556.535156 158.152344 L 556.535156 159.179688 L 577.542969 159.179688 L 577.542969 158.152344 Z M 556.535156 153.320312 L 556.535156 154.34375 L 571.558594 154.34375 L 571.558594 153.320312 Z M 556.535156 149.65625 L 556.535156 150.679688 L 567.285156 150.679688 L 567.285156 149.65625 Z M 567.285156 143.347656 L 567.285156 142.324219 L 556.535156 142.324219 L 556.535156 143.347656 Z M 556.535156 145.988281 L 556.535156 147.015625 L 577.542969 147.015625 L 577.542969 145.988281 Z M 571.558594 165.480469 L 556.535156 165.480469 L 556.535156 166.507812 L 571.558594 166.507812 Z M 551.710938 82.402344 L 523.15625 82.402344 L 523.15625 106.554688 L 551.710938 106.554688 Z M 523.667969 136.984375 L 523.667969 138.007812 L 547.011719 138.007812 L 547.011719 136.984375 Z M 523.667969 133.445312 L 523.667969 134.472656 L 538.695312 134.472656 L 538.695312 133.445312 Z M 523.667969 129.78125 L 523.667969 130.804688 L 534.414062 130.804688 L 534.414062 129.78125 Z M 536.738281 129.78125 L 536.738281 130.804688 L 547.011719 130.804688 L 547.011719 129.78125 Z M 523.667969 126.113281 L 523.667969 127.136719 L 544.679688 127.136719 L 544.679688 126.113281 Z M 523.667969 121.28125 L 523.667969 122.308594 L 538.695312 122.308594 L 538.695312 121.28125 Z M 523.667969 117.617188 L 523.667969 118.640625 L 534.414062 118.640625 L 534.414062 117.617188 Z M 523.667969 113.953125 L 523.667969 114.976562 L 544.679688 114.976562 L 544.679688 113.953125 Z M 536.738281 117.617188 L 536.738281 118.640625 L 549.808594 118.640625 L 549.808594 117.617188 Z M 544.679688 109.929688 L 523.667969 109.929688 L 523.667969 110.957031 L 544.679688 110.957031 Z M 551.710938 142.324219 L 523.15625 142.324219 L 523.15625 166.023438 L 551.710938 166.023438 Z M 557.230469 106.554688 L 578.238281 106.554688 L 578.238281 105.527344 L 557.230469 105.527344 Z M 557.230469 102.917969 L 572.253906 102.917969 L 572.253906 101.894531 L 557.230469 101.894531 Z M 557.230469 99.253906 L 567.980469 99.253906 L 567.980469 98.226562 L 557.230469 98.226562 Z M 570.296875 98.226562 L 570.296875 99.253906 L 580.574219 99.253906 L 580.574219 98.226562 Z M 557.230469 95.589844 L 578.238281 95.589844 L 578.238281 94.566406 L 557.230469 94.566406 Z M 557.230469 90.753906 L 572.253906 90.753906 L 572.253906 89.730469 L 557.230469 89.730469 Z M 557.230469 87.089844 L 567.980469 87.089844 L 567.980469 86.0625 L 557.230469 86.0625 Z M 570.296875 86.0625 L 570.296875 87.089844 L 583.371094 87.089844 L 583.371094 86.0625 Z M 557.230469 83.425781 L 578.238281 83.425781 L 578.238281 82.402344 L 557.230469 82.402344 Z M 590.714844 75.851562 L 590.714844 172.574219 L 514.753906 172.574219 L 514.753906 75.851562 Z M 583.554688 110.957031 L 557.046875 110.957031 L 557.046875 137.464844 L 583.554688 137.464844 Z M 550.6875 83.425781 L 524.179688 83.425781 L 524.179688 105.527344 L 550.6875 105.527344 Z M 326.285156 462.464844 L 328.804688 468.730469 C 328.628906 468.367188 328.421875 468.015625 328.144531 467.710938 L 319.824219 458.472656 C 318.882812 457.425781 317.683594 456.640625 316.347656 456.207031 L 302.316406 451.613281 C 299.332031 450.636719 296.050781 451.480469 293.910156 453.78125 L 282.886719 465.636719 L 208.792969 463.472656 L 218.835938 443.195312 L 217.152344 439.242188 C 210.460938 423.582031 196.257812 412.402344 179.464844 409.582031 C 179.464844 409.582031 154.835938 466.808594 156.503906 472.929688 C 158.171875 479.046875 162.066406 496.453125 182.09375 496.453125 C 196.519531 496.453125 252.226562 490.765625 282.246094 487.582031 C 285.277344 488.855469 289.988281 490.15625 295.828125 489.554688 C 306.3125 488.46875 307.664062 486.660156 307.664062 486.660156 L 316.164062 488.851562 C 318.109375 489.351562 320.140625 488.429688 321.046875 486.640625 L 321.8125 485.144531 C 322.28125 484.222656 323.199219 483.617188 324.230469 483.546875 L 324.746094 483.511719 C 328.230469 483.285156 330.476562 479.730469 329.191406 476.488281 L 329.21875 470.523438 C 329.222656 470.074219 329.136719 469.640625 329 469.222656 L 329.003906 469.234375 C 332.882812 469.480469 335.90625 467.332031 333.507812 465.125 C 332.039062 463.773438 328.949219 462.949219 326.285156 462.464844 Z M 322.179688 385.375 C 322.179688 379.992188 317.808594 375.621094 312.425781 375.621094 C 307.046875 375.621094 302.667969 379.992188 302.667969 385.375 C 302.667969 390.753906 307.046875 395.128906 312.425781 395.128906 C 317.808594 395.128906 322.179688 390.753906 322.179688 385.375 Z M 282.429688 267.4375 C 282.125 267.386719 281.820312 267.332031 281.515625 267.261719 C 278.683594 273.347656 278.574219 280.320312 278.964844 287.015625 C 279.359375 293.714844 280.195312 300.480469 279.074219 307.097656 C 278.945312 307.847656 278.78125 308.601562 278.59375 309.34375 C 279.273438 308.242188 279.835938 307.058594 280.246094 305.828125 C 281.714844 301.371094 281.613281 296.5625 281.496094 291.808594 C 281.421875 287.035156 281.453125 282.25 281.6875 277.472656 C 281.84375 274.125 282.097656 270.777344 282.429688 267.4375 Z M 305.5625 264.230469 C 307.640625 262.890625 309.210938 260.832031 310.59375 258.71875 C 307.699219 261.265625 303.964844 262.730469 300.105469 262.203125 C 298.691406 263.417969 297.160156 264.449219 295.558594 265.289062 C 296.46875 265.449219 297.382812 265.59375 298.296875 265.667969 C 300.847656 265.914062 303.472656 265.621094 305.5625 264.230469 Z M 355.535156 247.347656 C 354.578125 245.773438 353.855469 244.039062 353.382812 242.265625 C 352.300781 238.234375 352.300781 233.996094 352.308594 229.820312 C 352.3125 228.15625 352.257812 226.386719 351.953125 224.71875 C 351.492188 224.460938 351.023438 224.21875 350.539062 224.03125 C 349.84375 223.765625 349.128906 223.554688 348.398438 223.4375 C 347.667969 223.308594 346.925781 223.265625 346.179688 223.28125 C 345.433594 223.308594 344.683594 223.421875 343.929688 223.589844 C 343.824219 223.621094 343.71875 223.550781 343.691406 223.445312 C 343.675781 223.359375 343.714844 223.273438 343.78125 223.230469 C 344.484375 222.8125 345.28125 222.554688 346.09375 222.421875 C 346.910156 222.28125 347.75 222.300781 348.566406 222.425781 C 349.382812 222.566406 350.1875 222.816406 350.914062 223.207031 C 351.203125 223.359375 351.472656 223.539062 351.734375 223.726562 C 351.511719 222.871094 351.207031 222.0625 350.792969 221.324219 C 350.640625 221.289062 350.484375 221.253906 350.332031 221.226562 C 349.847656 221.140625 349.367188 221.066406 348.882812 221.039062 C 348.398438 220.996094 347.914062 221.003906 347.421875 221.023438 C 346.929688 221.042969 346.4375 221.105469 345.921875 221.167969 C 345.8125 221.179688 345.707031 221.105469 345.695312 220.996094 C 345.683594 220.917969 345.722656 220.84375 345.78125 220.800781 C 346.238281 220.492188 346.757812 220.292969 347.296875 220.164062 C 347.832031 220.027344 348.394531 219.992188 348.945312 220.015625 C 349.300781 220.039062 349.65625 220.105469 350 220.1875 C 349.761719 219.914062 349.5 219.652344 349.210938 219.414062 C 348.496094 219.324219 347.78125 219.304688 347.085938 219.398438 C 346.347656 219.496094 345.628906 219.671875 344.949219 219.957031 C 344.257812 220.230469 343.617188 220.605469 343.019531 221.046875 C 342.421875 221.492188 341.894531 222.035156 341.421875 222.648438 C 341.355469 222.734375 341.230469 222.75 341.140625 222.6875 C 341.074219 222.632812 341.050781 222.539062 341.078125 222.457031 C 341.648438 220.894531 343.011719 219.65625 344.554688 219.011719 C 345.339844 218.691406 346.175781 218.496094 347.019531 218.492188 C 347.238281 218.488281 347.449219 218.496094 347.660156 218.511719 C 344.398438 217.335938 339.742188 219.304688 338.8125 222.640625 C 338.539062 219.679688 336.1875 217.128906 333.363281 216.3125 C 333.597656 216.496094 333.832031 216.675781 334.050781 216.882812 C 334.675781 217.507812 335.222656 218.214844 335.621094 219 C 336.027344 219.785156 336.308594 220.628906 336.398438 221.492188 C 336.40625 221.601562 336.332031 221.699219 336.21875 221.710938 C 336.128906 221.71875 336.050781 221.664062 336.019531 221.589844 C 335.699219 220.824219 335.324219 220.105469 334.878906 219.441406 C 334.421875 218.785156 333.917969 218.164062 333.335938 217.617188 C 332.769531 217.0625 332.132812 216.582031 331.457031 216.15625 C 331.390625 216.113281 331.324219 216.082031 331.257812 216.046875 C 331.160156 216.050781 331.058594 216.046875 330.960938 216.054688 C 330.082031 216.125 329.253906 216.355469 328.46875 216.699219 C 329.027344 216.746094 329.578125 216.855469 330.109375 217.019531 C 331.816406 217.5625 333.375 218.738281 334.160156 220.332031 C 334.210938 220.429688 334.167969 220.550781 334.074219 220.597656 C 333.992188 220.636719 333.898438 220.613281 333.835938 220.554688 C 333.273438 219.941406 332.65625 219.414062 331.976562 218.988281 C 331.292969 218.566406 330.566406 218.222656 329.800781 217.996094 C 329.046875 217.753906 328.253906 217.628906 327.457031 217.585938 C 327.257812 217.578125 327.0625 217.597656 326.859375 217.605469 C 326.347656 217.960938 325.855469 218.355469 325.390625 218.792969 C 325.671875 218.769531 325.953125 218.761719 326.226562 218.765625 C 326.765625 218.789062 327.300781 218.847656 327.8125 218.992188 C 328.328125 219.125 328.832031 219.308594 329.296875 219.585938 C 329.390625 219.640625 329.421875 219.765625 329.367188 219.859375 C 329.324219 219.929688 329.253906 219.960938 329.179688 219.957031 L 327.675781 219.84375 C 327.179688 219.820312 326.695312 219.789062 326.207031 219.789062 C 325.71875 219.777344 325.230469 219.792969 324.738281 219.800781 L 324.394531 219.816406 C 323.628906 220.671875 322.941406 221.605469 322.332031 222.550781 C 319.648438 226.695312 317.3125 231.257812 317.398438 236.199219 C 317.503906 242.203125 317.1875 248.433594 314.445312 253.777344 C 313.976562 254.699219 313.410156 255.566406 312.785156 256.382812 C 312.359375 257.28125 311.910156 258.164062 311.40625 259.027344 C 310.0625 261.316406 308.410156 263.515625 306.117188 265.078125 C 303.773438 266.652344 300.839844 266.902344 298.207031 266.585938 C 296.910156 266.429688 295.644531 266.167969 294.398438 265.855469 C 293.066406 266.457031 291.6875 266.933594 290.273438 267.253906 C 290.738281 268.742188 291.265625 270.207031 291.867188 271.644531 C 293.15625 274.726562 294.730469 277.683594 296.613281 280.441406 C 298.453125 283.226562 300.613281 285.796875 302.976562 288.15625 C 305.351562 290.503906 307.953125 292.636719 310.757812 294.480469 C 310.851562 294.539062 310.875 294.660156 310.8125 294.753906 C 310.757812 294.835938 310.644531 294.863281 310.554688 294.8125 C 307.609375 293.144531 304.855469 291.109375 302.378906 288.777344 C 299.890625 286.449219 297.695312 283.824219 295.765625 281.015625 C 293.875 278.183594 292.257812 275.160156 291.027344 271.984375 C 290.441406 270.488281 289.945312 268.957031 289.53125 267.402344 C 287.402344 267.804688 285.214844 267.863281 283.011719 267.539062 C 282.8125 270.859375 282.648438 274.183594 282.550781 277.503906 C 282.425781 282.269531 282.386719 287.027344 282.515625 291.789062 C 282.59375 296.535156 282.722656 301.476562 281.101562 306.125 C 280.386719 308.121094 279.308594 309.984375 277.921875 311.589844 C 276.625 315.359375 274.5 318.84375 271.515625 321.300781 C 276.285156 329.277344 281.800781 336.851562 288.816406 342.910156 C 296.988281 349.96875 307.425781 354.851562 318.222656 354.726562 C 320.707031 354.695312 323.25 354.386719 325.457031 353.246094 C 327.660156 352.101562 329.480469 350 329.761719 347.53125 C 330.179688 343.816406 327.183594 340.640625 324.1875 338.410156 C 321.1875 336.183594 316.132812 333.988281 316.359375 330.261719 C 316.972656 320.152344 317.453125 309.847656 318.070312 299.734375 C 323.300781 301.710938 329.097656 303.699219 334.335938 301.753906 C 339.078125 299.992188 342.128906 295.4375 344.496094 290.96875 C 351.589844 277.589844 355.355469 262.484375 355.535156 247.347656 Z M 231.359375 230.882812 L 208.894531 230.882812 L 208.894531 173.609375 C 208.550781 174.15625 208.207031 174.695312 207.871094 175.25 L 207.871094 231.910156 L 231.28125 231.910156 C 231.308594 231.5625 231.320312 231.222656 231.359375 230.882812 Z M 286.382812 182.804688 C 286.71875 182.648438 287.0625 182.511719 287.40625 182.367188 L 287.40625 113.242188 L 258.246094 113.242188 C 257.875 113.582031 257.515625 113.925781 257.152344 114.265625 L 286.382812 114.265625 Z M 367.359375 198.792969 C 367.632812 199.128906 367.902344 199.46875 368.160156 199.816406 L 391.460938 199.816406 L 391.460938 81.148438 L 311.921875 81.148438 L 311.921875 179.464844 C 312.265625 179.523438 312.609375 179.601562 312.949219 179.679688 L 312.949219 82.171875 L 390.4375 82.171875 L 390.4375 198.792969 Z M 308.847656 179.007812 L 308.847656 78.074219 L 394.535156 78.074219 L 394.535156 202.890625 L 370.160156 202.890625 C 370.351562 203.230469 370.542969 203.570312 370.722656 203.914062 L 395.558594 203.914062 L 395.558594 77.050781 L 310.300781 77.050781 C 309.472656 77.449219 308.644531 77.851562 307.824219 78.261719 L 307.824219 178.910156 C 308.035156 178.925781 308.246094 178.929688 308.457031 178.949219 C 308.589844 178.96875 308.71875 178.992188 308.847656 179.007812 Z M 290.511719 181.15625 C 290.855469 181.035156 291.199219 180.925781 291.539062 180.8125 L 291.539062 109.144531 L 262.773438 109.144531 C 262.386719 109.484375 262.011719 109.828125 261.632812 110.167969 L 290.511719 110.167969 Z M 231.230469 236.007812 L 203.800781 236.007812 L 203.800781 182.054688 C 204.148438 181.46875 204.484375 180.878906 204.828125 180.296875 L 204.828125 234.980469 L 231.1875 234.980469 C 231.195312 235.324219 231.210938 235.664062 231.230469 236.007812 " fill-opacity="1" fill-rule="nonzero"/><g clip-path="url(#d7c36bb867)"><path fill="#4a7296" d="M 312.050781 486.492188 C 311.625 486.074219 311.210938 485.644531 310.839844 485.183594 C 310.453125 484.730469 310.113281 484.246094 309.777344 483.75 C 309.445312 483.246094 309.152344 482.722656 308.847656 482.175781 C 308.8125 482.105469 308.738281 482.0625 308.652344 482.074219 C 308.542969 482.085938 308.464844 482.183594 308.476562 482.292969 C 308.550781 482.9375 308.75 483.566406 309.015625 484.164062 C 309.128906 484.421875 309.265625 484.664062 309.410156 484.90625 C 309.347656 484.953125 309.285156 484.996094 309.234375 485.046875 C 309.027344 485.261719 308.894531 485.523438 308.796875 485.796875 C 308.71875 486.070312 308.664062 486.351562 308.695312 486.640625 C 308.722656 486.921875 308.789062 487.207031 308.953125 487.445312 C 308.980469 487.480469 309.015625 487.511719 309.0625 487.527344 C 309.171875 487.566406 309.292969 487.511719 309.335938 487.398438 L 309.339844 487.382812 C 309.429688 487.140625 309.484375 486.925781 309.558594 486.722656 C 309.632812 486.515625 309.691406 486.320312 309.765625 486.128906 C 309.816406 485.976562 309.878906 485.832031 309.9375 485.679688 C 309.972656 485.730469 310.003906 485.785156 310.046875 485.832031 C 310.464844 486.339844 310.933594 486.804688 311.472656 487.191406 C 312 487.570312 312.570312 487.898438 313.195312 488.097656 C 313.285156 488.125 313.386719 488.097656 313.453125 488.023438 C 313.53125 487.921875 313.519531 487.773438 313.414062 487.691406 C 312.945312 487.292969 312.480469 486.910156 312.050781 486.492188 Z M 323.875 470.164062 C 324.851562 471.214844 325.75 472.339844 326.640625 473.472656 C 327.523438 474.609375 328.367188 475.78125 329.199219 476.972656 C 329.253906 477.046875 329.355469 477.074219 329.441406 477.035156 C 329.542969 476.988281 329.582031 476.871094 329.539062 476.773438 C 328.914062 475.445312 328.160156 474.183594 327.339844 472.964844 C 326.519531 471.742188 325.59375 470.597656 324.640625 469.484375 C 323.644531 468.398438 322.613281 467.34375 321.5 466.382812 C 320.386719 465.425781 319.21875 464.527344 317.976562 463.75 C 317.882812 463.691406 317.753906 463.707031 317.679688 463.796875 C 317.59375 463.890625 317.601562 464.039062 317.699219 464.125 C 318.785156 465.082031 319.859375 466.042969 320.890625 467.054688 C 321.921875 468.054688 322.929688 469.078125 323.875 470.164062 Z M 307.851562 485.71875 C 307.804688 485.582031 307.757812 485.445312 307.671875 485.316406 C 307.597656 485.183594 307.511719 485.046875 307.367188 484.917969 L 307.355469 484.910156 C 307.339844 484.890625 307.320312 484.875 307.296875 484.863281 C 307.15625 484.792969 306.980469 484.847656 306.910156 484.988281 C 306.816406 485.171875 306.796875 485.355469 306.796875 485.53125 C 306.789062 485.714844 306.832031 485.886719 306.886719 486.054688 C 306.957031 486.214844 307.027344 486.375 307.152344 486.503906 C 307.269531 486.644531 307.398438 486.769531 307.59375 486.855469 C 307.609375 486.863281 307.628906 486.871094 307.648438 486.871094 C 307.78125 486.894531 307.910156 486.804688 307.933594 486.671875 L 307.933594 486.664062 C 307.96875 486.46875 307.957031 486.308594 307.941406 486.152344 C 307.9375 485.996094 307.890625 485.855469 307.851562 485.71875 Z M 210.863281 463.546875 C 207.992188 463.027344 205.074219 462.773438 202.148438 462.734375 C 199.222656 462.699219 196.296875 462.910156 193.398438 463.304688 C 190.507812 463.738281 187.636719 464.34375 184.839844 465.195312 C 182.039062 466.042969 179.3125 467.101562 176.699219 468.398438 C 176.609375 468.441406 176.566406 468.550781 176.601562 468.644531 C 176.640625 468.746094 176.757812 468.792969 176.859375 468.753906 C 179.550781 467.695312 182.289062 466.769531 185.078125 466.027344 C 187.863281 465.289062 190.6875 464.6875 193.542969 464.316406 C 196.394531 463.894531 199.273438 463.691406 202.152344 463.644531 C 205.035156 463.589844 207.921875 463.726562 210.800781 464.007812 C 210.917969 464.019531 211.03125 463.933594 211.050781 463.816406 C 211.074219 463.691406 210.992188 463.570312 210.863281 463.546875 Z M 281.71875 487.222656 C 279.972656 486.21875 278.902344 484.0625 279.152344 481.933594 C 279.167969 481.828125 279.101562 481.71875 278.996094 481.683594 C 278.871094 481.640625 278.742188 481.710938 278.703125 481.835938 C 278.128906 483.605469 278.664062 485.644531 279.941406 487.058594 C 279.25 486.949219 278.566406 486.761719 277.925781 486.480469 C 276.824219 486 275.820312 485.230469 275.332031 484.105469 C 275.296875 484.019531 275.203125 483.96875 275.113281 483.988281 C 275.007812 484.007812 274.9375 484.113281 274.957031 484.21875 C 275.082031 484.890625 275.453125 485.511719 275.902344 486.03125 C 276.371094 486.542969 276.933594 486.953125 277.535156 487.28125 C 278.742188 487.917969 280.105469 488.238281 281.492188 488.175781 C 281.660156 488.164062 281.824219 488.070312 281.910156 487.917969 C 282.050781 487.671875 281.964844 487.363281 281.71875 487.222656 Z M 362.609375 330.921875 C 362.113281 331.21875 361.640625 331.519531 361.15625 331.785156 C 360.664062 332.042969 360.179688 332.304688 359.679688 332.523438 C 359.183594 332.757812 358.671875 332.953125 358.15625 333.148438 C 357.636719 333.339844 357.105469 333.5 356.558594 333.679688 C 356.472656 333.707031 356.402344 333.789062 356.394531 333.886719 C 356.382812 334.011719 356.480469 334.128906 356.605469 334.140625 C 357.207031 334.199219 357.808594 334.140625 358.402344 334.019531 C 358.988281 333.910156 359.5625 333.703125 360.109375 333.453125 C 360.652344 333.191406 361.175781 332.882812 361.640625 332.503906 C 362.105469 332.128906 362.539062 331.703125 362.878906 331.207031 C 362.921875 331.148438 362.925781 331.058594 362.886719 330.992188 C 362.828125 330.898438 362.703125 330.867188 362.609375 330.921875 Z M 331.035156 289.574219 C 330.667969 289.558594 330.304688 289.570312 329.941406 289.570312 C 329.582031 289.578125 329.222656 289.574219 328.855469 289.59375 C 328.484375 289.609375 328.113281 289.617188 327.730469 289.667969 C 327.664062 289.675781 327.605469 289.71875 327.574219 289.777344 C 327.515625 289.875 327.554688 290 327.652344 290.054688 C 328.003906 290.253906 328.386719 290.371094 328.769531 290.457031 C 329.152344 290.550781 329.550781 290.582031 329.941406 290.589844 C 330.339844 290.589844 330.734375 290.566406 331.121094 290.476562 C 331.507812 290.394531 331.886719 290.285156 332.242188 290.089844 C 332.308594 290.054688 332.359375 289.984375 332.367188 289.90625 C 332.382812 289.773438 332.289062 289.648438 332.15625 289.632812 C 331.765625 289.585938 331.398438 289.585938 331.035156 289.574219 Z M 332.039062 281.207031 L 326.140625 280.855469 L 321.328125 280.503906 C 322.390625 281.730469 323.757812 282.738281 325.214844 283.53125 C 326.109375 284.015625 327.042969 284.425781 328.011719 284.746094 C 328.957031 285.0625 330.027344 285.28125 330.9375 285.355469 L 331.007812 285.359375 C 332.691406 284.597656 334.316406 283.445312 335.621094 282.09375 C 335.78125 281.933594 335.972656 281.726562 336.089844 281.582031 C 336.132812 281.527344 336.15625 281.480469 336.167969 281.453125 C 336.121094 281.433594 335.945312 281.398438 335.726562 281.398438 L 334.984375 281.363281 C 334.003906 281.320312 333.019531 281.269531 332.039062 281.207031 Z M 326.207031 279.839844 L 332.101562 280.269531 C 333.085938 280.339844 334.066406 280.417969 335.046875 280.507812 L 335.78125 280.570312 C 336.007812 280.609375 336.339844 280.554688 336.726562 280.867188 C 336.921875 281.035156 337.007812 281.34375 336.949219 281.574219 C 336.898438 281.804688 336.792969 281.945312 336.699219 282.0625 C 336.496094 282.292969 336.339844 282.441406 336.144531 282.625 C 334.671875 284.03125 332.964844 285.0625 331.015625 285.773438 L 330.9375 285.800781 C 329.808594 285.78125 328.855469 285.597656 327.835938 285.328125 C 326.820312 285.042969 325.828125 284.660156 324.875 284.199219 C 323.925781 283.726562 323.015625 283.171875 322.164062 282.519531 C 321.316406 281.867188 320.523438 281.125 319.886719 280.21875 C 319.734375 280.007812 319.789062 279.710938 320 279.5625 C 320.09375 279.5 320.195312 279.46875 320.300781 279.476562 L 320.3125 279.476562 Z M 336.691406 275.101562 C 337.351562 275.238281 338.054688 275.0625 338.640625 274.742188 C 339.222656 274.402344 339.707031 273.910156 340.0625 273.328125 C 340.757812 272.148438 340.832031 270.78125 340.757812 269.539062 C 340.660156 268.296875 340.441406 267.0625 340.054688 265.882812 C 339.675781 264.699219 339.167969 263.558594 338.5 262.527344 C 338.449219 262.453125 338.351562 262.414062 338.261719 262.453125 C 338.160156 262.492188 338.113281 262.605469 338.152344 262.703125 C 338.582031 263.828125 338.957031 264.957031 339.21875 266.113281 C 339.480469 267.265625 339.667969 268.433594 339.738281 269.605469 C 339.816406 270.765625 339.738281 271.921875 339.265625 272.890625 C 338.796875 273.832031 337.84375 274.632812 336.738281 274.640625 C 336.628906 274.640625 336.53125 274.714844 336.511719 274.824219 C 336.484375 274.949219 336.5625 275.070312 336.691406 275.101562 Z M 313.226562 245.609375 C 314.691406 245.117188 316.1875 244.746094 317.699219 244.53125 C 319.210938 244.324219 320.742188 244.230469 322.261719 244.335938 C 323.78125 244.394531 325.296875 244.644531 326.777344 245.011719 C 328.257812 245.375 329.699219 245.90625 331.105469 246.542969 C 331.207031 246.589844 331.335938 246.558594 331.394531 246.457031 C 331.46875 246.355469 331.4375 246.210938 331.332031 246.136719 C 330.007812 245.265625 328.542969 244.609375 327.019531 244.140625 C 325.496094 243.667969 323.90625 243.414062 322.3125 243.316406 C 320.714844 243.261719 319.113281 243.355469 317.554688 243.683594 C 315.992188 244.003906 314.472656 244.511719 313.070312 245.25 C 312.988281 245.292969 312.949219 245.394531 312.976562 245.484375 C 313.011719 245.589844 313.125 245.644531 313.226562 245.609375 Z M 345.007812 248.617188 C 345.769531 247.992188 346.5625 247.441406 347.414062 246.996094 C 348.261719 246.5625 349.152344 246.207031 350.070312 245.964844 C 350.988281 245.714844 351.933594 245.574219 352.886719 245.523438 C 353.839844 245.476562 354.800781 245.554688 355.765625 245.710938 C 355.871094 245.726562 355.980469 245.671875 356.023438 245.570312 C 356.074219 245.453125 356.019531 245.3125 355.898438 245.265625 C 354.953125 244.859375 353.921875 244.660156 352.886719 244.617188 C 351.847656 244.570312 350.804688 244.703125 349.800781 244.976562 C 348.800781 245.261719 347.832031 245.675781 346.972656 246.253906 C 346.109375 246.820312 345.324219 247.523438 344.722656 248.351562 C 344.671875 248.421875 344.671875 248.523438 344.730469 248.59375 C 344.800781 248.679688 344.929688 248.6875 345.007812 248.617188 Z M 628.070312 292.039062 L 413.59375 292.039062 C 411.410156 292.039062 409.539062 293.597656 409.152344 295.753906 L 380.003906 457.960938 C 379.5 460.730469 381.628906 463.269531 384.441406 463.269531 L 498.859375 463.269531 L 502.136719 477.6875 C 502.5625 479.542969 503.019531 481.386719 503.453125 483.234375 L 449.691406 483.234375 L 430.199219 494.039062 L 506.019531 494.039062 C 506.023438 494.054688 506.027344 494.074219 506.03125 494.089844 C 506.058594 494.210938 506.179688 494.285156 506.300781 494.261719 C 506.425781 494.238281 506.507812 494.113281 506.480469 493.988281 C 505.363281 488.484375 504.210938 482.984375 503.019531 477.492188 L 499.402344 461.035156 L 495.652344 444.597656 C 494.386719 439.140625 493.082031 433.691406 491.753906 428.25 L 524.621094 428.25 C 524.621094 428.261719 524.613281 428.273438 524.613281 428.289062 C 525.730469 433.796875 526.875 439.300781 528.058594 444.792969 L 531.65625 461.253906 L 535.390625 477.6875 C 536.652344 483.164062 537.953125 488.628906 539.28125 494.089844 C 539.3125 494.210938 539.429688 494.285156 539.554688 494.261719 C 539.664062 494.242188 539.722656 494.140625 539.726562 494.039062 L 567.152344 494.039062 L 548.171875 483.234375 L 537.480469 483.234375 C 537.078125 481.320312 536.6875 479.40625 536.277344 477.492188 L 533.152344 463.269531 L 598.917969 463.269531 C 601.097656 463.269531 602.972656 461.707031 603.355469 459.554688 L 632.511719 297.347656 C 633.011719 294.578125 630.878906 292.039062 628.070312 292.039062 Z M 365.183594 334.140625 C 368.03125 339.683594 370.726562 345.316406 374.441406 349.878906 C 379.636719 356.257812 385.132812 362.398438 390.902344 368.269531 L 392.167969 361.214844 C 385.226562 354.621094 378.5625 347.832031 374.414062 342.488281 C 372.035156 339.421875 368.816406 336.632812 365.183594 334.140625 Z M 336.898438 414.355469 C 336.898438 414.273438 336.847656 414.191406 336.761719 414.164062 C 336.660156 414.132812 336.546875 414.1875 336.515625 414.292969 L 335.792969 416.503906 C 335.539062 417.234375 335.292969 417.960938 335.011719 418.675781 C 334.746094 419.394531 334.449219 420.097656 334.15625 420.8125 L 333.226562 422.945312 C 333.191406 423.039062 333.210938 423.148438 333.296875 423.21875 C 333.394531 423.300781 333.539062 423.289062 333.625 423.1875 C 334.144531 422.582031 334.578125 421.910156 334.96875 421.210938 C 335.367188 420.515625 335.691406 419.785156 335.96875 419.035156 C 336.242188 418.28125 336.480469 417.519531 336.625 416.730469 C 336.785156 415.949219 336.894531 415.15625 336.898438 414.355469 Z M 252.722656 358.527344 C 252.816406 352.863281 251.65625 347.152344 249.121094 342.078125 C 247.84375 339.546875 246.226562 337.179688 244.246094 335.144531 C 242.257812 333.128906 239.910156 331.457031 237.328125 330.316406 C 237.230469 330.269531 237.117188 330.3125 237.070312 330.40625 C 237.023438 330.503906 237.0625 330.617188 237.164062 330.667969 C 242.179688 333.101562 245.976562 337.507812 248.34375 342.457031 C 250.710938 347.4375 251.84375 352.996094 251.699219 358.503906 C 251.589844 364.039062 250.375 369.507812 248.691406 374.796875 C 247 380.101562 244.84375 385.257812 242.6875 390.417969 C 242.640625 390.527344 242.691406 390.664062 242.808594 390.71875 C 242.921875 390.769531 243.058594 390.71875 243.113281 390.601562 C 245.464844 385.53125 247.769531 380.414062 249.550781 375.082031 C 251.335938 369.757812 252.574219 364.191406 252.722656 358.527344 Z M 240.640625 399.152344 C 240.546875 399.097656 240.425781 399.125 240.371094 399.21875 C 239.6875 400.351562 239.066406 401.507812 238.449219 402.667969 C 237.832031 403.828125 237.269531 405.019531 236.671875 406.1875 C 236.117188 407.378906 235.546875 408.5625 235.015625 409.765625 C 234.484375 410.96875 233.964844 412.179688 233.503906 413.414062 C 233.46875 413.515625 233.507812 413.636719 233.605469 413.695312 C 233.71875 413.757812 233.863281 413.722656 233.925781 413.617188 C 234.605469 412.484375 235.222656 411.320312 235.832031 410.15625 C 236.4375 408.992188 237.007812 407.808594 237.59375 406.632812 C 238.136719 405.433594 238.707031 404.253906 239.230469 403.042969 C 239.753906 401.839844 240.269531 400.628906 240.722656 399.390625 C 240.753906 399.300781 240.722656 399.203125 240.640625 399.152344 Z M 380.722656 417.957031 L 376.445312 421.574219 C 371.601562 436.457031 359.503906 460.136719 359.503906 460.136719 L 359.503906 485.613281 L 335.597656 485.613281 L 329.003906 469.234375 C 332.882812 469.480469 335.90625 467.332031 333.507812 465.125 C 332.039062 463.773438 328.949219 462.949219 326.28125 462.460938 L 315.457031 435.570312 C 317.046875 433.265625 318.523438 430.882812 319.855469 428.417969 C 321.917969 424.609375 323.652344 420.632812 325.101562 416.550781 C 326.511719 412.457031 327.648438 408.265625 328.410156 404.003906 C 329.183594 399.746094 329.597656 395.429688 329.644531 391.109375 C 329.644531 391.003906 329.566406 390.917969 329.460938 390.914062 C 329.355469 390.90625 329.261719 390.984375 329.253906 391.097656 C 328.980469 395.382812 328.410156 399.640625 327.5625 403.839844 C 326.703125 408.039062 325.582031 412.183594 324.140625 416.214844 C 322.738281 420.253906 321.015625 424.191406 319.050781 427.992188 C 317.851562 430.316406 316.542969 432.585938 315.152344 434.808594 L 309.65625 421.152344 C 309.128906 419.820312 307.621094 419.167969 306.289062 419.695312 C 304.953125 420.222656 304.300781 421.734375 304.832031 423.066406 L 318.660156 457.429688 C 317.957031 456.902344 317.1875 456.484375 316.347656 456.207031 L 302.316406 451.613281 C 299.332031 450.636719 296.050781 451.480469 293.910156 453.78125 L 293.511719 454.214844 C 293.511719 454.214844 293.515625 454.214844 293.515625 454.214844 C 293.585938 454.285156 293.589844 454.398438 293.53125 454.472656 C 292.332031 456.042969 291.03125 457.53125 289.699219 458.992188 C 288.375 460.453125 286.992188 461.859375 285.617188 463.269531 C 284.214844 464.652344 282.8125 466.039062 281.375 467.386719 C 279.933594 468.730469 278.484375 470.0625 276.988281 471.347656 C 276.890625 471.433594 276.746094 471.417969 276.660156 471.324219 C 276.585938 471.230469 276.585938 471.101562 276.664062 471.015625 C 277.988281 469.554688 279.367188 468.144531 280.742188 466.738281 L 281.863281 465.605469 L 246.335938 464.566406 L 233.683594 414.242188 L 218.835938 443.195312 L 217.152344 439.242188 C 210.460938 423.582031 196.257812 412.402344 179.464844 409.582031 C 179.464844 409.582031 178.472656 411.882812 176.90625 415.609375 C 174.585938 411.289062 172.820312 406.542969 171.941406 401.332031 C 171.941406 401.332031 192.4375 341.539062 220.449219 323.980469 C 226.375 321.058594 230.804688 321.09375 236.554688 321.636719 C 241.941406 322.144531 247.21875 323.328125 252.53125 324.335938 C 257.59375 325.296875 263.03125 325.640625 267.734375 323.613281 L 311.527344 376.6875 C 307.128906 377.140625 303.695312 380.855469 303.695312 385.375 C 303.695312 390.195312 307.605469 394.105469 312.425781 394.105469 C 317.25 394.105469 321.15625 390.195312 321.15625 385.375 C 321.15625 380.773438 317.597656 377.015625 313.082031 376.675781 C 314.546875 372.71875 324.445312 344.640625 321.128906 317.574219 C 323.988281 317.734375 326.746094 318.082031 329.230469 318.707031 L 329.226562 318.699219 C 329.226562 318.699219 333.886719 319.871094 340.34375 322.148438 C 339.839844 323.566406 339.507812 324.984375 339.445312 326.328125 C 339.441406 326.402344 339.4375 326.476562 339.4375 326.550781 C 339.429688 326.847656 339.433594 327.140625 339.453125 327.429688 C 339.457031 327.480469 339.464844 327.53125 339.46875 327.585938 C 339.492188 327.84375 339.53125 328.101562 339.582031 328.359375 C 339.59375 328.40625 339.601562 328.460938 339.613281 328.511719 C 339.671875 328.789062 339.753906 329.0625 339.847656 329.324219 C 339.867188 329.386719 339.894531 329.445312 339.917969 329.503906 C 340.023438 329.773438 340.140625 330.042969 340.289062 330.300781 C 340.285156 330.296875 340.277344 330.296875 340.269531 330.296875 C 348.703125 349.117188 357.132812 367.9375 365.566406 386.757812 C 366.457031 388.757812 367.359375 390.761719 368.261719 392.757812 C 368.417969 393.101562 368.574219 393.449219 368.734375 393.792969 C 369.640625 395.792969 370.554688 397.78125 371.484375 399.769531 C 371.644531 400.109375 371.804688 400.449219 371.964844 400.792969 C 372.914062 402.804688 373.878906 404.808594 374.863281 406.804688 C 374.972656 407.023438 375.082031 407.238281 375.191406 407.460938 C 376.113281 409.308594 377.050781 411.144531 378.015625 412.972656 C 378.898438 414.644531 379.792969 416.308594 380.722656 417.957031 Z M 315.457031 435.570312 L 315.402344 435.425781 Z M 281.507812 297.957031 C 280.28125 297.488281 279.589844 297.203125 279.589844 297.203125 C 279.589844 297.226562 279.589844 297.25 279.589844 297.269531 C 279.617188 298.074219 279.632812 298.875 279.632812 299.675781 C 279.632812 299.824219 279.625 299.972656 279.621094 300.121094 C 279.617188 300.800781 279.609375 301.476562 279.578125 302.152344 C 279.566406 302.488281 279.53125 302.824219 279.511719 303.160156 C 279.476562 303.648438 279.449219 304.136719 279.402344 304.625 C 279.320312 305.449219 279.210938 306.277344 279.074219 307.097656 C 278.945312 307.847656 278.78125 308.601562 278.59375 309.34375 C 279.273438 308.242188 279.835938 307.058594 280.246094 305.828125 C 281.082031 303.292969 281.398438 300.644531 281.507812 297.957031 Z M 320.105469 317.597656 C 320.101562 317.570312 320.109375 317.546875 320.109375 317.519531 C 319.175781 317.484375 318.234375 317.457031 317.285156 317.457031 C 317.179688 316.308594 317.183594 315.601562 317.183594 315.601562 C 317.183594 315.601562 321.503906 312.238281 321.503906 309.527344 C 321.503906 306.816406 317.671875 306.632812 317.671875 306.632812 C 304.199219 306.007812 288.761719 300.695312 282.476562 298.332031 C 282.34375 300.960938 281.988281 303.585938 281.101562 306.125 C 280.386719 308.121094 279.308594 309.984375 277.921875 311.589844 C 277.921875 311.59375 277.921875 311.597656 277.917969 311.601562 C 277.710938 312.207031 277.480469 312.804688 277.230469 313.386719 C 277.214844 313.425781 277.199219 313.457031 277.183594 313.488281 C 276.945312 314.042969 276.6875 314.589844 276.410156 315.117188 C 276.390625 315.152344 276.375 315.1875 276.355469 315.222656 C 276.085938 315.738281 275.792969 316.234375 275.484375 316.726562 C 275.414062 316.839844 275.339844 316.945312 275.269531 317.058594 C 274.992188 317.484375 274.699219 317.894531 274.394531 318.296875 C 274.332031 318.375 274.269531 318.460938 274.210938 318.539062 C 273.898438 318.925781 273.574219 319.304688 273.234375 319.667969 C 273.101562 319.8125 272.964844 319.953125 272.828125 320.09375 C 272.488281 320.4375 272.140625 320.769531 271.777344 321.082031 C 271.625 321.207031 271.46875 321.324219 271.316406 321.445312 C 271.03125 321.675781 270.738281 321.894531 270.4375 322.105469 C 270.257812 322.230469 270.078125 322.355469 269.886719 322.472656 C 269.5 322.71875 269.105469 322.949219 268.6875 323.164062 L 312.253906 375.964844 C 314.085938 370.929688 323.339844 343.746094 320.105469 317.597656 Z M 322.988281 257.542969 C 323.480469 255.878906 323.058594 254.285156 322.050781 253.992188 C 321.039062 253.691406 319.824219 254.804688 319.332031 256.46875 C 318.84375 258.132812 319.261719 259.722656 320.277344 260.023438 C 321.285156 260.320312 322.5 259.210938 322.988281 257.542969 Z M 348.226562 253.992188 C 347.21875 253.691406 346 254.804688 345.511719 256.46875 C 345.019531 258.132812 345.445312 259.722656 346.453125 260.023438 C 347.460938 260.320312 348.679688 259.210938 349.171875 257.542969 C 349.660156 255.878906 349.238281 254.285156 348.226562 253.992188 Z M 366.53125 242.519531 C 366.410156 242.960938 366.316406 243.402344 366.253906 243.859375 C 365.953125 245.953125 366.675781 248.082031 368.042969 249.503906 Z M 347.664062 284.355469 L 348.640625 288.863281 C 349.796875 285.945312 351.042969 283.070312 352.402344 280.238281 C 356.644531 280.820312 360.886719 281.226562 365.117188 280.539062 C 366.339844 282.574219 364.601562 285.519531 362.746094 286.996094 C 360.890625 288.46875 358.460938 288.964844 356.132812 289.417969 C 356.480469 290.402344 356.785156 291.394531 357.078125 292.390625 C 356.871094 292.011719 356.660156 291.632812 356.425781 291.273438 C 356.375 291.191406 356.265625 291.15625 356.179688 291.199219 C 356.078125 291.246094 356.035156 291.363281 356.082031 291.457031 C 356.90625 293.222656 357.582031 295.042969 358.066406 296.910156 C 358.546875 298.777344 358.878906 300.683594 358.980469 302.605469 C 359.128906 304.527344 359.054688 306.457031 358.8125 308.367188 C 358.582031 310.28125 358.144531 312.171875 357.558594 314.023438 C 357.523438 314.136719 357.574219 314.257812 357.683594 314.304688 C 357.800781 314.359375 357.941406 314.308594 357.992188 314.191406 C 358.820312 312.390625 359.378906 310.460938 359.710938 308.5 C 359.96875 306.96875 360.070312 305.410156 360.046875 303.855469 L 373.355469 298.953125 C 372.828125 299.625 372.335938 300.3125 371.917969 301.042969 C 371.382812 301.96875 370.921875 302.929688 370.589844 303.9375 C 370.554688 304.042969 370.597656 304.152344 370.6875 304.214844 C 370.800781 304.277344 370.945312 304.246094 371.011719 304.132812 C 371.550781 303.246094 372.09375 302.371094 372.679688 301.53125 C 373.273438 300.695312 373.882812 299.871094 374.539062 299.089844 C 374.773438 298.804688 375.023438 298.527344 375.269531 298.25 L 378.355469 297.113281 L 378.003906 295.476562 C 378.289062 295.214844 378.574219 294.957031 378.867188 294.695312 C 378.929688 294.640625 378.949219 294.539062 378.90625 294.457031 C 378.851562 294.359375 378.738281 294.324219 378.640625 294.375 C 378.371094 294.519531 378.125 294.691406 377.867188 294.851562 L 377.675781 293.972656 C 377.199219 294.257812 376.78125 294.476562 376.484375 294.597656 C 373.371094 295.859375 369.675781 295.585938 366.78125 293.875 C 365.285156 292.988281 363.882812 291.277344 364.515625 289.65625 C 365.085938 288.210938 366.878906 287.777344 368.414062 287.539062 C 370.78125 287.179688 373.140625 286.816406 375.507812 286.449219 C 375.679688 286.4375 375.855469 286.433594 376.027344 286.414062 C 376.867188 286.332031 377.707031 286.21875 378.539062 286.023438 C 378.632812 286 378.710938 285.914062 378.714844 285.804688 C 378.722656 285.679688 378.621094 285.566406 378.492188 285.5625 C 377.652344 285.515625 376.820312 285.519531 375.988281 285.511719 L 375.84375 285.511719 L 375.371094 283.324219 C 375.0625 283.324219 374.78125 283.308594 374.550781 283.269531 C 370.851562 282.628906 367.335938 280.984375 364.476562 278.550781 C 363.472656 277.699219 362.519531 276.703125 362.097656 275.457031 C 361.675781 274.210938 361.921875 272.65625 362.972656 271.867188 C 366.296875 272.628906 369.570312 273.585938 372.796875 274.695312 C 372.460938 274.53125 372.140625 274.335938 371.816406 274.148438 L 374.863281 275.773438 C 374.941406 275.816406 375.050781 275.796875 375.105469 275.71875 C 375.175781 275.636719 375.160156 275.511719 375.074219 275.449219 C 374.078125 274.648438 373.027344 273.921875 371.953125 273.230469 C 370.878906 272.535156 369.773438 271.902344 368.652344 271.292969 C 368.230469 271.074219 367.804688 270.859375 367.386719 270.648438 C 365.488281 268.734375 363.8125 266.535156 362.214844 264.367188 C 361.195312 262.988281 360.167969 261.027344 361.269531 259.707031 C 361.90625 258.933594 363.066406 258.777344 364.027344 259.054688 C 364.988281 259.332031 365.796875 259.964844 366.582031 260.589844 C 367.921875 261.652344 369.523438 262.703125 371.136719 263.792969 L 368.832031 253.148438 C 366.125 254.070312 362.910156 253.714844 360.390625 252.265625 C 358.355469 251.101562 356.75 249.355469 355.535156 247.347656 C 355.382812 260.039062 352.707031 272.707031 347.664062 284.355469 Z M 324.746094 483.511719 L 324.230469 483.546875 C 323.652344 483.585938 323.113281 483.8125 322.660156 484.152344 C 322.265625 483.484375 321.847656 482.828125 321.410156 482.191406 C 320.820312 481.328125 320.175781 480.503906 319.519531 479.695312 C 318.851562 478.898438 318.164062 478.113281 317.429688 477.371094 C 316.703125 476.628906 315.949219 475.902344 315.140625 475.242188 C 315.058594 475.175781 314.9375 475.171875 314.847656 475.238281 C 314.75 475.3125 314.730469 475.460938 314.808594 475.5625 C 315.4375 476.390625 316.101562 477.179688 316.757812 477.976562 L 318.730469 480.347656 L 320.71875 482.714844 C 321.230469 483.3125 321.742188 483.90625 322.257812 484.5 C 322.085938 484.691406 321.933594 484.90625 321.8125 485.144531 L 321.574219 485.613281 L 330.003906 485.613281 L 328.398438 481.625 C 327.539062 482.683594 326.261719 483.410156 324.746094 483.511719 Z M 218.835938 443.199219 L 218.835938 443.195312 Z M 218.835938 443.199219 " fill-opacity="1" fill-rule="nonzero"/></g></svg>