<svg xmlns="http://www.w3.org/2000/svg" xmlns:xlink="http://www.w3.org/1999/xlink" width="500" zoomAndPan="magnify" viewBox="0 0 375 374.999991" height="500" preserveAspectRatio="xMidYMid meet" version="1.0"><defs><g/><clipPath id="343366f59b"><path d="M 43.5 140 L 331.5 140 L 331.5 214 L 43.5 214 Z M 43.5 140 " clip-rule="nonzero"/></clipPath><clipPath id="998794d622"><path d="M 267 82.25 L 317 82.25 L 317 132 L 267 132 Z M 267 82.25 " clip-rule="nonzero"/></clipPath><clipPath id="dc6ba5e4bc"><path d="M 246 12 L 375 12 L 375 164 L 246 164 Z M 246 12 " clip-rule="nonzero"/></clipPath><clipPath id="d169bb40bd"><path d="M 246.824219 61.496094 L 348.328125 12.992188 L 396.832031 114.5 L 295.328125 163.003906 Z M 246.824219 61.496094 " clip-rule="nonzero"/></clipPath><clipPath id="034e2f855c"><path d="M 246.824219 61.496094 L 348.328125 12.992188 L 396.832031 114.5 L 295.328125 163.003906 Z M 246.824219 61.496094 " clip-rule="nonzero"/></clipPath></defs><path fill="#004aad" d="M 84.726562 168.84375 C 84.636719 170.851562 84.582031 172.875 84.609375 174.894531 C 84.175781 175.71875 83.773438 176.558594 83.410156 177.394531 C 83.726562 174.507812 84.175781 171.648438 84.726562 168.84375 Z M 125.984375 105.535156 C 124.148438 107.582031 122.488281 109.867188 120.972656 112.351562 C 117.523438 114.082031 114.34375 115.960938 111.457031 117.980469 C 115.890625 113.402344 120.757812 109.214844 125.984375 105.535156 Z M 258.023438 117.96875 C 255.136719 115.945312 251.945312 114.054688 248.492188 112.335938 C 246.976562 109.824219 245.285156 107.527344 243.4375 105.460938 C 248.175781 108.796875 252.667969 112.550781 256.839844 116.726562 C 257.242188 117.117188 257.632812 117.546875 258.023438 117.96875 Z M 284.871094 174.882812 C 284.914062 172.832031 284.855469 170.808594 284.753906 168.789062 C 285.304688 171.589844 285.722656 174.40625 286.039062 177.265625 C 285.695312 176.46875 285.304688 175.660156 284.871094 174.882812 Z M 284.464844 210.148438 C 284.25 206.292969 283.167969 202.539062 281.261719 198.882812 C 283.167969 192.167969 284.335938 185.335938 284.726562 178.507812 C 285.75 180.960938 286.371094 183.460938 286.648438 185.988281 C 286.660156 186.925781 286.703125 187.878906 286.703125 188.832031 C 286.703125 196.082031 285.9375 203.214844 284.464844 210.148438 Z M 254.542969 263.121094 C 254.789062 262.757812 255.003906 262.382812 255.222656 262.007812 C 256.03125 261.402344 256.8125 260.765625 257.605469 260.128906 C 257.34375 260.390625 257.097656 260.679688 256.839844 260.9375 C 256.089844 261.691406 255.308594 262.398438 254.542969 263.121094 Z M 111.816406 260.074219 C 112.613281 260.722656 113.40625 261.371094 114.214844 261.980469 C 114.429688 262.355469 114.664062 262.730469 114.90625 263.105469 C 114.140625 262.382812 113.375 261.675781 112.625 260.9375 C 112.351562 260.648438 112.089844 260.363281 111.816406 260.074219 Z M 94.847656 164.800781 C 94.933594 171.445312 95.773438 178.261719 97.417969 185.222656 C 97.550781 185.742188 97.679688 186.261719 97.808594 186.78125 C 96.882812 187.589844 96.003906 188.414062 95.167969 189.25 C 92.625 191.792969 90.53125 194.421875 88.914062 197.09375 C 87.078125 190.234375 86.039062 183.273438 85.808594 176.296875 C 87.871094 172.253906 90.921875 168.398438 94.847656 164.800781 Z M 89.214844 153.132812 C 91.195312 149.320312 94.070312 145.710938 97.722656 142.359375 C 95.886719 148.828125 94.921875 155.601562 94.832031 162.578125 C 93.835938 163.445312 92.882812 164.324219 91.988281 165.207031 C 89.476562 167.734375 87.410156 170.304688 85.75 172.945312 C 85.765625 168.960938 86.054688 164.988281 86.601562 161.046875 C 87.367188 158.359375 88.25 155.71875 89.214844 153.132812 Z M 104.769531 125.636719 C 104.078125 126.835938 103.414062 128.0625 102.792969 129.304688 C 102.011719 129.984375 101.261719 130.648438 100.554688 131.355469 C 101.894531 129.390625 103.296875 127.46875 104.769531 125.636719 Z M 117.160156 119.902344 C 112.582031 122.226562 108.511719 124.769531 105 127.5 C 106.113281 125.460938 107.339844 123.46875 108.65625 121.519531 C 111.917969 118.847656 115.703125 116.378906 119.90625 114.167969 C 118.90625 115.988281 117.984375 117.894531 117.160156 119.902344 Z M 139.011719 106.542969 C 138.144531 108.347656 137.363281 110.285156 136.671875 112.320312 C 133.753906 113.171875 130.921875 114.113281 128.179688 115.121094 C 124.828125 116.378906 121.695312 117.707031 118.75 119.136719 C 119.660156 117.042969 120.667969 115.066406 121.78125 113.203125 C 126.964844 110.632812 132.757812 108.394531 139.011719 106.542969 Z M 131.082031 102.140625 C 132.570312 101.214844 134.070312 100.335938 135.601562 99.496094 C 139.023438 97.921875 142.738281 96.523438 146.664062 95.324219 C 143.949219 98.097656 141.625 101.375 139.675781 105.171875 C 133.636719 106.917969 127.992188 109.011719 122.894531 111.410156 C 125.246094 107.828125 127.992188 104.722656 131.082031 102.140625 Z M 148.441406 93.617188 C 148.179688 93.675781 147.921875 93.75 147.660156 93.835938 C 147.980469 93.707031 148.296875 93.589844 148.613281 93.472656 C 148.554688 93.519531 148.5 93.5625 148.441406 93.617188 Z M 165.902344 90.039062 C 160.671875 90.714844 155.632812 91.699219 150.851562 92.953125 C 150.882812 92.851562 150.894531 92.738281 150.882812 92.636719 C 156.167969 90.773438 161.640625 89.328125 167.289062 88.363281 C 166.796875 88.867188 166.335938 89.429688 165.902344 90.039062 Z M 218.628906 92.925781 C 213.847656 91.667969 208.808594 90.6875 203.566406 90.007812 C 203.144531 89.417969 202.699219 88.867188 202.222656 88.363281 C 207.808594 89.328125 213.296875 90.730469 218.613281 92.59375 C 218.582031 92.710938 218.582031 92.808594 218.628906 92.925781 Z M 220.980469 93.5625 C 220.9375 93.519531 220.878906 93.472656 220.824219 93.417969 C 221.140625 93.546875 221.472656 93.664062 221.789062 93.792969 C 221.53125 93.71875 221.253906 93.632812 220.980469 93.5625 Z M 250.730469 119.109375 C 247.785156 117.691406 244.652344 116.351562 241.316406 115.109375 C 238.554688 114.097656 235.726562 113.160156 232.824219 112.304688 C 232.128906 110.269531 231.335938 108.347656 230.46875 106.515625 C 236.722656 108.378906 242.511719 110.601562 247.683594 113.1875 C 248.808594 115.050781 249.820312 117.027344 250.730469 119.109375 Z M 260.796875 121.476562 C 262.125 123.425781 263.351562 125.417969 264.464844 127.457031 C 260.957031 124.742188 256.898438 122.199219 252.320312 119.886719 C 251.496094 117.878906 250.570312 115.960938 249.5625 114.140625 C 253.761719 116.363281 257.53125 118.804688 260.796875 121.476562 Z M 266.660156 129.261719 C 266.039062 127.988281 265.359375 126.746094 264.652344 125.507812 C 266.167969 127.425781 267.628906 129.375 269 131.371094 C 268.25 130.660156 267.46875 129.941406 266.660156 129.261719 Z M 277.519531 165.207031 C 276.609375 164.308594 275.65625 163.445312 274.660156 162.5625 C 274.558594 155.515625 273.578125 148.683594 271.714844 142.15625 C 275.367188 145.535156 278.242188 149.175781 280.25 153.03125 C 281.246094 155.6875 282.125 158.390625 282.890625 161.132812 C 283.441406 165.046875 283.714844 168.976562 283.730469 172.933594 C 282.082031 170.289062 280.019531 167.71875 277.519531 165.207031 Z M 273.996094 189.25 C 273.246094 188.484375 272.4375 187.75 271.613281 187.027344 C 271.773438 186.421875 271.929688 185.8125 272.0625 185.222656 C 273.722656 178.261719 274.558594 171.445312 274.632812 164.816406 C 275.210938 165.335938 275.773438 165.871094 276.308594 166.417969 C 279.5 169.597656 281.953125 172.902344 283.6875 176.28125 C 283.457031 183.375 282.371094 190.480469 280.464844 197.46875 C 278.820312 194.652344 276.652344 191.910156 273.996094 189.25 Z M 276.261719 209.6875 C 274.703125 207.058594 272.667969 204.515625 270.199219 202.03125 C 269.359375 201.207031 268.492188 200.414062 267.585938 199.605469 C 269.027344 195.835938 270.285156 192.054688 271.308594 188.253906 C 271.945312 188.847656 272.582031 189.4375 273.203125 190.046875 C 276.105469 192.949219 278.386719 195.953125 280.046875 199.011719 C 279.007812 202.609375 277.738281 206.175781 276.261719 209.6875 Z M 283.296875 213.644531 C 282.328125 216.242188 281.273438 218.726562 280.132812 221.125 C 279.800781 217.644531 278.746094 214.234375 276.957031 210.914062 C 278.445312 207.476562 279.730469 204.011719 280.796875 200.488281 C 282.515625 204.113281 283.382812 207.835938 283.382812 211.636719 C 283.382812 212.300781 283.355469 212.980469 283.296875 213.644531 Z M 280.234375 223.476562 C 280.753906 222.464844 281.246094 221.425781 281.738281 220.371094 C 281.246094 221.859375 280.742188 223.320312 280.191406 224.792969 C 280.21875 224.34375 280.234375 223.925781 280.234375 223.476562 Z M 235.8125 271.367188 C 236.507812 269.71875 236.867188 268.042969 236.925781 266.3125 C 243.554688 262.859375 250.441406 258.425781 256.984375 252.835938 C 256.796875 255.683594 255.902344 258.5 254.371094 261.226562 C 248.621094 265.460938 242.269531 268.808594 235.8125 271.367188 Z M 225.921875 282.140625 C 225.832031 282.167969 225.746094 282.210938 225.660156 282.226562 C 227.148438 281.273438 228.519531 280.289062 229.746094 279.238281 C 231.839844 278.617188 233.921875 277.863281 235.941406 277.042969 C 232.691406 278.917969 229.355469 280.625 225.921875 282.140625 Z M 139.617188 279.191406 C 140.800781 280.234375 142.128906 281.214844 143.574219 282.140625 C 143.546875 282.140625 143.515625 282.125 143.488281 282.109375 C 140.078125 280.609375 136.730469 278.90625 133.492188 277.011719 C 135.488281 277.835938 137.539062 278.574219 139.617188 279.191406 Z M 112.496094 252.835938 C 119.039062 258.410156 125.925781 262.84375 132.554688 266.296875 C 132.597656 268.015625 132.960938 269.707031 133.636719 271.351562 C 127.199219 268.78125 120.84375 265.445312 115.09375 261.214844 C 113.566406 258.484375 112.667969 255.667969 112.496094 252.835938 Z M 89.230469 223.433594 C 89.230469 223.882812 89.257812 224.316406 89.273438 224.777344 C 88.710938 223.277344 88.191406 221.773438 87.699219 220.257812 C 88.191406 221.339844 88.695312 222.410156 89.230469 223.433594 Z M 101.894531 199.589844 C 100.984375 200.398438 100.105469 201.195312 99.28125 202.03125 C 96.796875 204.5 94.789062 207.058594 93.230469 209.65625 C 91.699219 206.03125 90.398438 202.351562 89.332031 198.625 C 91.425781 194.882812 94.402344 191.332031 98.125 188.007812 C 99.152344 191.878906 100.421875 195.75 101.894531 199.589844 Z M 114.199219 177.378906 C 115.007812 181.4375 115.992188 185.523438 117.144531 189.597656 C 111.703125 192.328125 106.878906 195.417969 102.820312 198.8125 C 101.347656 194.941406 100.089844 191.054688 99.078125 187.1875 C 103.28125 183.589844 108.367188 180.3125 114.199219 177.378906 Z M 113.59375 131.585938 C 112.410156 137.042969 111.703125 142.9375 111.570312 149.246094 C 111.542969 150.042969 111.558594 150.835938 111.558594 151.628906 C 105.652344 154.578125 100.410156 157.914062 96.003906 161.582031 C 96.191406 154.417969 97.304688 147.5 99.355469 140.902344 C 103.355469 137.507812 108.148438 134.386719 113.59375 131.585938 Z M 113.925781 130.054688 C 108.625 132.742188 103.945312 135.703125 99.988281 138.878906 C 101.042969 135.832031 102.285156 132.855469 103.730469 129.953125 C 107.371094 126.835938 111.703125 123.976562 116.597656 121.40625 C 115.558594 124.132812 114.648438 127.023438 113.925781 130.054688 Z M 134.085938 122.226562 C 129.941406 123.441406 125.957031 124.8125 122.199219 126.316406 C 119.789062 127.296875 117.476562 128.320312 115.269531 129.390625 C 116.046875 126.316406 116.988281 123.367188 118.097656 120.625 C 123.53125 117.894531 129.636719 115.527344 136.238281 113.5625 C 135.386719 116.261719 134.648438 119.152344 134.085938 122.226562 Z M 159.429688 108.609375 C 158.984375 111.324219 158.609375 114.167969 158.332031 117.101562 C 150.289062 118.214844 142.550781 119.800781 135.300781 121.867188 C 135.90625 118.761719 136.65625 115.875 137.566406 113.171875 C 144.382812 111.207031 151.71875 109.679688 159.429688 108.609375 Z M 160.816406 101.910156 C 160.371094 103.671875 159.980469 105.519531 159.617188 107.46875 C 152.09375 108.492188 144.832031 109.980469 138 111.917969 C 138.734375 109.867188 139.546875 107.929688 140.453125 106.109375 C 146.824219 104.304688 153.667969 102.890625 160.816406 101.910156 Z M 184.167969 99.179688 C 176.675781 99.191406 169.324219 99.671875 162.289062 100.566406 C 163.402344 96.738281 164.804688 93.519531 166.480469 91.105469 C 172.210938 90.355469 178.132812 89.964844 184.167969 89.9375 Z M 207.203125 100.566406 C 200.15625 99.671875 192.804688 99.191406 185.296875 99.179688 L 185.296875 89.9375 C 191.363281 89.949219 197.28125 90.339844 202.972656 91.0625 C 204.675781 93.488281 206.0625 96.710938 207.203125 100.566406 Z M 209.859375 107.453125 C 209.515625 105.519531 209.125 103.65625 208.664062 101.894531 C 215.824219 102.875 222.65625 104.292969 229.023438 106.097656 C 229.933594 107.917969 230.757812 109.867188 231.496094 111.917969 C 224.648438 109.964844 217.398438 108.480469 209.859375 107.453125 Z M 234.179688 121.824219 C 226.988281 119.785156 219.261719 118.183594 211.160156 117.070312 C 210.871094 114.140625 210.511719 111.308594 210.050781 108.609375 C 217.773438 109.664062 225.113281 111.207031 231.929688 113.160156 C 232.824219 115.859375 233.574219 118.734375 234.179688 121.824219 Z M 254.210938 129.320312 C 248.535156 126.574219 242.226562 124.175781 235.394531 122.183594 C 234.816406 119.109375 234.109375 116.25 233.242188 113.546875 C 239.855469 115.527344 245.949219 117.878906 251.378906 120.597656 C 252.492188 123.339844 253.429688 126.257812 254.210938 129.320312 Z M 255.554688 129.96875 C 254.816406 126.949219 253.921875 124.089844 252.882812 121.390625 C 257.777344 123.945312 262.097656 126.804688 265.734375 129.925781 C 267.164062 132.785156 268.421875 135.746094 269.460938 138.761719 C 265.476562 135.570312 260.796875 132.609375 255.554688 129.96875 Z M 257.9375 151.617188 C 257.9375 150.835938 257.9375 150.042969 257.921875 149.246094 C 257.777344 142.863281 257.070312 136.886719 255.859375 131.371094 C 261.289062 134.15625 266.082031 137.289062 270.066406 140.699219 C 272.148438 147.371094 273.304688 154.347656 273.492188 161.566406 C 269.070312 157.914062 263.84375 154.578125 257.9375 151.617188 Z M 252.332031 189.597656 C 253.488281 185.570312 254.457031 181.539062 255.25 177.539062 C 261.101562 180.5 266.167969 183.804688 270.34375 187.417969 C 269.347656 191.214844 268.117188 195.042969 266.675781 198.824219 C 262.601562 195.417969 257.777344 192.339844 252.332031 189.597656 Z M 261.765625 210.03125 C 257.980469 206.871094 253.503906 203.996094 248.449219 201.453125 C 249.777344 197.886719 250.960938 194.304688 252.015625 190.695312 C 257.445312 193.4375 262.226562 196.53125 266.242188 199.9375 C 264.914062 203.332031 263.425781 206.695312 261.765625 210.03125 Z M 270.933594 220.503906 C 269.445312 217.960938 267.496094 215.476562 265.085938 213.050781 C 264.320312 212.285156 263.484375 211.535156 262.644531 210.796875 C 264.320312 207.476562 265.808594 204.113281 267.152344 200.730469 C 267.917969 201.425781 268.683594 202.117188 269.390625 202.828125 C 272.03125 205.484375 274.125 208.199219 275.699219 211 C 274.285156 214.207031 272.710938 217.382812 270.933594 220.503906 Z M 212.144531 274.167969 C 212.054688 273.316406 211.824219 272.464844 211.449219 271.625 C 219.652344 268.464844 227.320312 264.605469 234.382812 260.101562 C 235.277344 261.890625 235.742188 263.742188 235.785156 265.632812 C 226.917969 270.183594 218.539062 272.925781 212.144531 274.167969 Z M 211.722656 277.53125 C 211.984375 276.824219 212.128906 276.074219 212.171875 275.324219 C 218.539062 274.082031 226.875 271.394531 235.753906 266.902344 C 235.625 268.609375 235.148438 270.296875 234.339844 271.929688 C 226.554688 274.859375 218.726562 276.695312 211.722656 277.53125 Z M 205.976562 283.945312 C 206.972656 283.324219 207.867188 282.644531 208.648438 281.9375 C 214.484375 282.328125 220.808594 281.621094 227.046875 280.003906 C 225.34375 281.242188 223.40625 282.414062 221.3125 283.46875 C 216.488281 284.636719 212.605469 284.667969 205.976562 283.945312 Z M 171.011719 287.164062 C 175.101562 288.347656 179.808594 289.027344 184.734375 289.027344 C 187.171875 289.027344 189.527344 288.871094 191.765625 288.582031 C 192.515625 289.316406 193.296875 289.921875 194.089844 290.371094 C 191 290.644531 187.882812 290.804688 184.734375 290.804688 C 177.828125 290.804688 171.027344 290.109375 164.398438 288.78125 C 166.710938 288.582031 168.847656 288.046875 171.011719 287.164062 Z M 160.875 281.9375 C 161.65625 282.644531 162.550781 283.324219 163.546875 283.945312 C 156.875 284.667969 152.988281 284.636719 148.136719 283.453125 C 146.042969 282.398438 144.121094 281.242188 142.417969 279.988281 C 148.671875 281.621094 155.027344 282.328125 160.875 281.9375 Z M 157.308594 275.324219 C 157.351562 276.058594 157.496094 276.808594 157.757812 277.53125 C 150.75 276.679688 142.910156 274.859375 135.125 271.914062 C 134.316406 270.28125 133.839844 268.609375 133.726562 266.902344 C 142.59375 271.378906 150.925781 274.082031 157.308594 275.324219 Z M 135.082031 260.074219 C 142.160156 264.605469 149.828125 268.464844 158.03125 271.613281 C 157.640625 272.449219 157.410156 273.300781 157.324219 274.167969 C 150.925781 272.910156 142.5625 270.167969 133.683594 265.617188 C 133.726562 263.710938 134.214844 261.863281 135.082031 260.074219 Z M 97.910156 221.628906 C 96.25 224.75 95.28125 227.953125 95.023438 231.246094 C 93.359375 228.675781 91.800781 226.019531 90.371094 223.1875 C 90.414062 219.433594 91.351562 215.78125 93.101562 212.269531 C 94.53125 215.449219 96.132812 218.566406 97.910156 221.628906 Z M 106.847656 210.785156 C 105.984375 211.535156 105.160156 212.285156 104.378906 213.050781 C 101.984375 215.460938 100.03125 217.945312 98.546875 220.488281 C 96.785156 217.367188 95.195312 214.207031 93.792969 211 C 95.816406 207.375 98.703125 203.9375 102.328125 200.730469 C 103.671875 204.097656 105.175781 207.460938 106.847656 210.785156 Z M 121.046875 201.441406 C 115.976562 203.980469 111.5 206.855469 107.714844 210.019531 C 106.054688 206.695312 104.566406 203.316406 103.238281 199.9375 C 107.210938 196.585938 112.003906 193.496094 117.476562 190.738281 C 118.53125 194.320312 119.714844 197.902344 121.046875 201.441406 Z M 137.132812 183.15625 C 137.914062 186.808594 138.792969 190.507812 139.777344 194.21875 C 133.335938 196.082031 127.398438 198.335938 122.054688 200.933594 C 120.742188 197.382812 119.558594 193.816406 118.503906 190.234375 C 124.078125 187.519531 130.347656 185.136719 137.132812 183.15625 Z M 134.589844 169.496094 C 135.226562 173.597656 135.976562 177.769531 136.875 182 C 130.101562 183.964844 123.816406 186.332031 118.1875 189.09375 C 117.03125 185.003906 116.046875 180.917969 115.238281 176.859375 C 121.046875 174.03125 127.542969 171.546875 134.589844 169.496094 Z M 132.410156 145.390625 C 132.554688 152.613281 133.234375 160.308594 134.417969 168.324219 C 127.386719 170.363281 120.871094 172.816406 115.007812 175.675781 C 113.535156 167.933594 112.757812 160.308594 112.667969 152.988281 C 118.574219 150.070312 125.203125 147.53125 132.410156 145.390625 Z M 132.800781 131.746094 C 132.46875 135.515625 132.339844 139.484375 132.367188 143.601562 C 125.261719 145.679688 118.648438 148.195312 112.683594 151.066406 C 112.683594 150.476562 112.683594 149.867188 112.699219 149.277344 C 112.84375 142.707031 113.59375 136.554688 114.894531 130.921875 C 120.597656 128.105469 126.953125 125.621094 133.855469 123.542969 C 133.40625 126.15625 133.046875 128.871094 132.800781 131.746094 Z M 157.480469 138.34375 C 149.046875 139.484375 141.003906 141.144531 133.492188 143.269531 C 133.464844 139.355469 133.609375 135.527344 133.925781 131.832031 C 134.1875 128.8125 134.578125 125.925781 135.054688 123.210938 C 142.289062 121.085938 150.074219 119.425781 158.21875 118.285156 C 157.65625 124.753906 157.4375 131.628906 157.480469 138.34375 Z M 184.167969 116.4375 L 184.167969 136.554688 C 175.332031 136.582031 166.695312 137.160156 158.40625 138.230469 C 158.390625 131.066406 158.652344 124.292969 159.214844 118.140625 C 167.242188 117.070312 175.605469 116.480469 184.167969 116.4375 Z M 184.167969 106.917969 L 184.167969 115.308594 C 175.75 115.339844 167.402344 115.902344 159.328125 116.957031 C 159.632812 113.980469 160.007812 111.121094 160.484375 108.480469 C 168.066406 107.484375 176.011719 106.949219 184.167969 106.917969 Z M 184.167969 105.777344 C 176.140625 105.808594 168.285156 106.328125 160.6875 107.308594 C 161.0625 105.359375 161.480469 103.496094 161.945312 101.765625 C 169.09375 100.824219 176.542969 100.335938 184.167969 100.304688 Z M 185.296875 105.777344 L 185.296875 100.304688 C 192.9375 100.335938 200.386719 100.824219 207.535156 101.75 C 208.011719 103.484375 208.417969 105.34375 208.792969 107.308594 C 201.195312 106.328125 193.324219 105.808594 185.296875 105.777344 Z M 185.296875 115.308594 L 185.296875 106.917969 C 193.46875 106.933594 201.414062 107.46875 209.007812 108.464844 C 209.472656 111.121094 209.847656 113.953125 210.148438 116.925781 C 202.191406 115.886719 193.84375 115.339844 185.296875 115.308594 Z M 211.074219 138.230469 C 202.800781 137.144531 194.148438 136.566406 185.296875 136.554688 L 185.296875 116.4375 C 193.902344 116.464844 202.265625 117.042969 210.265625 118.082031 C 210.84375 124.25 211.101562 131.050781 211.074219 138.230469 Z M 235.566406 131.832031 C 235.886719 135.527344 236.015625 139.355469 235.984375 143.269531 C 228.492188 141.144531 220.445312 139.484375 212.011719 138.34375 C 212.042969 131.601562 211.839844 124.710938 211.261719 118.214844 C 219.4375 119.339844 227.191406 120.972656 234.398438 123.035156 C 234.902344 125.824219 235.292969 128.753906 235.566406 131.832031 Z M 237.113281 143.601562 C 237.15625 139.484375 237.011719 135.515625 236.695312 131.746094 C 236.433594 128.828125 236.074219 126.054688 235.609375 123.382812 C 242.511719 125.433594 248.867188 127.890625 254.558594 130.703125 C 255.871094 136.410156 256.636719 142.621094 256.796875 149.277344 C 256.8125 149.867188 256.796875 150.476562 256.8125 151.066406 C 250.847656 148.179688 244.230469 145.679688 237.113281 143.601562 Z M 235.046875 168.425781 C 236.261719 160.351562 236.9375 152.613281 237.082031 145.335938 C 244.246094 147.457031 250.875 150.011719 256.8125 152.960938 C 256.738281 160.324219 255.929688 168.023438 254.457031 175.820312 C 248.609375 172.945312 242.082031 170.476562 235.046875 168.425781 Z M 232.605469 182.015625 C 233.503906 177.8125 234.238281 173.683594 234.875 169.625 C 235.726562 169.871094 236.59375 170.101562 237.445312 170.363281 C 243.539062 172.28125 249.140625 174.507812 254.210938 177.003906 C 253.417969 181.019531 252.449219 185.0625 251.308594 189.09375 C 245.660156 186.347656 239.394531 183.964844 232.605469 182.015625 Z M 229.71875 194.21875 C 230.699219 190.492188 231.582031 186.78125 232.359375 183.113281 C 239.132812 185.0625 245.386719 187.445312 250.992188 190.191406 C 249.9375 193.785156 248.753906 197.382812 247.4375 200.949219 C 242.09375 198.347656 236.144531 196.082031 229.71875 194.21875 Z M 243.597656 210.421875 C 241.316406 215.5625 238.800781 220.53125 236.058594 225.3125 C 231.726562 223.1875 226.902344 221.355469 221.6875 219.839844 C 223.234375 215.664062 224.707031 211.359375 226.078125 206.972656 C 227.292969 203.058594 228.417969 199.171875 229.445312 195.332031 C 235.828125 197.164062 241.734375 199.402344 247.046875 202.003906 C 245.964844 204.832031 244.839844 207.648438 243.597656 210.421875 Z M 247.582031 232.621094 C 244.578125 230.121094 241.039062 227.839844 237.070312 225.816406 C 239.8125 221.023438 242.339844 216.039062 244.636719 210.882812 C 245.863281 208.113281 247.003906 205.324219 248.058594 202.507812 C 253.070312 205.050781 257.503906 207.910156 261.230469 211.058594 C 257.460938 218.464844 252.882812 225.703125 247.582031 232.621094 Z M 250.398438 235.175781 C 249.777344 234.554688 249.113281 233.949219 248.433594 233.355469 C 253.734375 226.453125 258.328125 219.230469 262.109375 211.824219 C 262.863281 212.503906 263.597656 213.167969 264.277344 213.859375 C 266.804688 216.386719 268.796875 218.972656 270.269531 221.628906 C 269.878906 222.308594 269.492188 222.988281 269.085938 223.652344 C 265.113281 230.078125 260.492188 236.042969 255.308594 241.5 C 254.066406 239.320312 252.433594 237.226562 250.398438 235.175781 Z M 231.394531 254.121094 C 231.003906 253.746094 230.585938 253.371094 230.167969 253.011719 C 236.363281 247.507812 242.226562 241.285156 247.523438 234.554688 C 247.597656 234.453125 247.667969 234.335938 247.742188 234.25 C 248.390625 234.8125 249.011719 235.390625 249.589844 235.96875 C 251.65625 238.035156 253.273438 240.171875 254.484375 242.351562 C 248.636719 248.375 242.035156 253.761719 234.800781 258.46875 C 233.933594 256.980469 232.792969 255.539062 231.394531 254.121094 Z M 209.167969 268.40625 C 209.082031 268.320312 209.007812 268.261719 208.921875 268.1875 C 215.867188 264.390625 222.757812 259.480469 229.3125 253.761719 C 229.761719 254.136719 230.195312 254.527344 230.597656 254.929688 C 231.941406 256.289062 233.027344 257.675781 233.863281 259.089844 C 226.785156 263.609375 219.117188 267.464844 210.914062 270.613281 C 210.453125 269.851562 209.875 269.113281 209.167969 268.40625 Z M 140.136719 253.734375 C 146.707031 259.464844 153.609375 264.375 160.558594 268.175781 C 160.472656 268.261719 160.382812 268.320312 160.3125 268.40625 C 159.605469 269.113281 159.027344 269.851562 158.550781 270.613281 C 150.347656 267.464844 142.691406 263.597656 135.617188 259.089844 C 136.714844 257.199219 138.246094 255.40625 140.136719 253.734375 Z M 121.722656 234.238281 C 121.8125 234.335938 121.882812 234.453125 121.96875 234.554688 C 127.253906 241.285156 133.117188 247.507812 139.3125 252.996094 C 138.894531 253.371094 138.476562 253.746094 138.070312 254.121094 C 136.671875 255.523438 135.53125 256.980469 134.664062 258.46875 C 127.441406 253.761719 120.84375 248.359375 114.996094 242.351562 C 116.570312 239.492188 118.851562 236.765625 121.722656 234.238281 Z M 121.046875 233.339844 C 120.367188 233.933594 119.703125 234.554688 119.082031 235.175781 C 117.03125 237.210938 115.414062 239.320312 114.171875 241.472656 C 108.972656 236.027344 104.367188 230.078125 100.410156 223.652344 C 99.988281 222.988281 99.613281 222.308594 99.210938 221.628906 C 101.128906 218.164062 103.890625 214.886719 107.371094 211.824219 C 111.167969 219.21875 115.746094 226.4375 121.046875 233.339844 Z M 124.859375 210.882812 C 127.140625 216.027344 129.667969 221.007812 132.410156 225.804688 C 128.4375 227.839844 124.902344 230.121094 121.910156 232.605469 C 116.613281 225.703125 112.019531 218.464844 108.25 211.058594 C 111.945312 207.953125 116.378906 205.09375 121.433594 202.550781 C 122.503906 205.351562 123.644531 208.125 124.859375 210.882812 Z M 143.414062 206.972656 C 144.789062 211.359375 146.261719 215.664062 147.792969 219.839844 C 142.578125 221.339844 137.753906 223.1875 133.421875 225.3125 C 130.691406 220.53125 128.164062 215.5625 125.882812 210.421875 C 124.65625 207.664062 123.53125 204.863281 122.460938 202.03125 C 127.730469 199.476562 133.636719 197.222656 140.066406 195.375 C 141.089844 199.203125 142.1875 203.085938 143.414062 206.972656 Z M 161.308594 190.941406 C 162.449219 199.679688 163.777344 208.199219 165.25 216.183594 C 159.546875 216.964844 154.101562 218.078125 149.003906 219.492188 C 146.128906 211.75 143.488281 203.503906 141.234375 195.042969 C 147.488281 193.28125 154.21875 191.910156 161.308594 190.941406 Z M 159.835938 178.433594 C 160.226562 182.234375 160.671875 186.046875 161.148438 189.800781 C 154.058594 190.753906 147.269531 192.125 140.929688 193.902344 C 139.964844 190.246094 139.082031 186.550781 138.289062 182.839844 C 144.988281 180.960938 152.226562 179.460938 159.835938 178.433594 Z M 158.566406 164.484375 C 158.765625 167.125 158.96875 169.554688 159.171875 171.691406 C 159.328125 173.554688 159.519531 175.429688 159.71875 177.292969 C 152.09375 178.304688 144.816406 179.792969 138.027344 181.683594 C 137.148438 177.511719 136.367188 173.335938 135.734375 169.164062 C 142.835938 167.15625 150.507812 165.582031 158.566406 164.484375 Z M 158.492188 163.355469 C 150.433594 164.425781 142.738281 165.984375 135.558594 168.007812 C 134.375 160.210938 133.652344 152.484375 133.523438 145.058594 C 140.960938 142.921875 149.003906 141.234375 157.496094 140.078125 C 157.566406 148.46875 158 156.585938 158.492188 163.355469 Z M 184.167969 161.640625 C 175.679688 161.652344 167.375 162.203125 159.402344 163.226562 C 158.824219 155.242188 158.476562 147.398438 158.421875 139.949219 C 166.636719 138.851562 175.273438 138.285156 184.167969 138.257812 Z M 210.078125 163.269531 C 202.121094 162.230469 193.800781 161.667969 185.296875 161.640625 L 185.296875 138.257812 C 194.148438 138.273438 202.800781 138.851562 211.074219 139.933594 C 211.015625 147.398438 210.667969 155.253906 210.078125 163.269531 Z M 211.003906 163.386719 C 211.492188 156.597656 211.910156 148.484375 212 140.046875 C 220.433594 141.191406 228.476562 142.863281 235.972656 145.015625 C 235.828125 152.46875 235.105469 160.253906 233.921875 168.09375 C 226.757812 166.058594 219.058594 164.46875 211.003906 163.386719 Z M 209.773438 177.292969 C 209.960938 175.429688 210.148438 173.554688 210.324219 171.691406 C 210.511719 169.566406 210.714844 167.167969 210.914062 164.542969 C 218.871094 165.625 226.542969 167.226562 233.746094 169.292969 C 233.097656 173.421875 232.332031 177.554688 231.453125 181.683594 C 224.664062 179.792969 217.386719 178.304688 209.773438 177.292969 Z M 208.332031 189.800781 C 208.808594 186.03125 209.253906 182.234375 209.660156 178.40625 C 217.226562 179.429688 224.476562 180.890625 231.21875 182.78125 C 230.410156 186.523438 229.53125 190.234375 228.5625 193.902344 C 222.207031 192.125 215.4375 190.753906 208.332031 189.800781 Z M 204.230469 216.183594 C 205.703125 208.183594 207.046875 199.664062 208.1875 190.925781 C 215.234375 191.878906 221.976562 193.238281 228.273438 195 C 226.007812 203.476562 223.347656 211.75 220.488281 219.507812 C 215.390625 218.078125 209.933594 216.964844 204.230469 216.183594 Z M 210.324219 243.03125 C 206.726562 242.035156 202.886719 241.226562 198.871094 240.664062 C 200.691406 233.789062 202.4375 225.859375 204.042969 217.296875 C 209.671875 218.0625 215.058594 219.160156 220.101562 220.558594 C 217.023438 228.792969 213.6875 236.402344 210.324219 243.03125 Z M 221.054688 247.0625 C 218.152344 245.644531 214.960938 244.417969 211.507812 243.378906 C 214.914062 236.675781 218.238281 229.066406 221.300781 220.894531 C 226.453125 222.378906 231.234375 224.199219 235.507812 226.292969 C 231.207031 233.714844 226.351562 240.664062 221.054688 247.0625 Z M 222.078125 247.582031 C 227.363281 241.183594 232.214844 234.222656 236.519531 226.800781 C 240.449219 228.792969 243.929688 231.058594 246.890625 233.515625 C 246.800781 233.628906 246.714844 233.730469 246.628906 233.847656 C 241.34375 240.578125 235.480469 246.785156 229.3125 252.261719 C 227.234375 250.542969 224.808594 248.96875 222.078125 247.582031 Z M 210.988281 244.402344 C 214.351562 245.398438 217.484375 246.570312 220.300781 247.925781 C 215.148438 254.050781 209.558594 259.652344 203.609375 264.605469 C 202.25 263.957031 200.761719 263.367188 199.175781 262.875 C 203.03125 258.339844 207.058594 251.984375 210.988281 244.402344 Z M 198.582031 241.773438 C 202.511719 242.308594 206.28125 243.089844 209.804688 244.070312 C 205.804688 251.828125 201.757812 258.167969 197.988281 262.527344 C 196.011719 261.980469 193.902344 261.546875 191.707031 261.257812 C 193.976562 256.882812 196.316406 250.136719 198.582031 241.773438 Z M 185.296875 240.851562 C 189.5 240.867188 193.601562 241.140625 197.542969 241.628906 C 195.246094 250.007812 192.847656 256.75 190.496094 261.113281 C 188.820312 260.925781 187.074219 260.824219 185.296875 260.808594 Z M 178.984375 261.113281 C 176.632812 256.75 174.234375 250.007812 171.953125 241.628906 C 175.851562 241.125 179.953125 240.867188 184.167969 240.835938 L 184.167969 260.808594 C 182.40625 260.824219 180.660156 260.925781 178.984375 261.113281 Z M 171.503906 262.527344 C 167.734375 258.167969 163.691406 251.828125 159.691406 244.070312 C 163.199219 243.105469 166.957031 242.324219 170.914062 241.773438 C 173.164062 250.152344 175.503906 256.882812 177.785156 261.257812 C 175.578125 261.53125 173.46875 261.964844 171.503906 262.527344 Z M 165.886719 264.605469 C 159.9375 259.652344 154.347656 254.050781 149.175781 247.941406 C 152.007812 246.597656 155.128906 245.414062 158.507812 244.402344 C 162.433594 251.984375 166.464844 258.339844 170.304688 262.859375 C 168.71875 263.367188 167.230469 263.941406 165.886719 264.605469 Z M 147.402344 247.566406 C 144.6875 248.96875 142.246094 250.542969 140.167969 252.246094 C 134 246.773438 128.136719 240.578125 122.863281 233.847656 C 122.765625 233.730469 122.675781 233.617188 122.589844 233.5 C 125.523438 231.074219 129.015625 228.835938 132.972656 226.828125 C 137.277344 234.238281 142.117188 241.183594 147.402344 247.566406 Z M 157.972656 243.378906 C 154.535156 244.402344 151.328125 245.632812 148.441406 247.046875 C 143.140625 240.664062 138.304688 233.730469 134 226.324219 C 138.246094 224.242188 143.027344 222.4375 148.195312 220.9375 C 151.257812 229.082031 154.578125 236.691406 157.972656 243.378906 Z M 170.609375 240.664062 C 166.59375 241.226562 162.765625 242.035156 159.171875 243.03125 C 155.804688 236.402344 152.484375 228.792969 149.410156 220.574219 C 154.417969 219.1875 159.792969 218.089844 165.453125 217.3125 C 167.054688 225.859375 168.804688 233.789062 170.609375 240.664062 Z M 184.167969 216.027344 L 184.167969 239.710938 C 179.867188 239.738281 175.679688 240.027344 171.648438 240.53125 C 169.816406 233.660156 168.039062 225.730469 166.421875 217.179688 C 172.097656 216.445312 178.046875 216.054688 184.167969 216.027344 Z M 184.167969 189.382812 L 184.167969 214.898438 C 178.003906 214.914062 171.980469 215.316406 166.21875 216.054688 C 164.714844 208.054688 163.375 199.519531 162.234375 190.8125 C 169.25 189.902344 176.601562 189.410156 184.167969 189.382812 Z M 184.167969 176.773438 L 184.167969 188.253906 C 176.585938 188.269531 169.195312 188.761719 162.089844 189.667969 C 161.597656 185.914062 161.148438 182.117188 160.746094 178.289062 C 168.242188 177.335938 176.082031 176.800781 184.167969 176.773438 Z M 184.167969 175.648438 C 176.097656 175.660156 168.195312 176.179688 160.628906 177.164062 C 160.195312 172.890625 159.804688 168.601562 159.488281 164.367188 C 167.375 163.34375 175.648438 162.792969 184.167969 162.765625 Z M 185.296875 175.648438 L 185.296875 162.78125 C 193.699219 162.808594 201.992188 163.386719 209.992188 164.425781 C 209.6875 168.644531 209.296875 172.902344 208.851562 177.164062 C 201.28125 176.179688 193.382812 175.660156 185.296875 175.648438 Z M 185.296875 188.253906 L 185.296875 176.773438 C 193.355469 176.800781 201.210938 177.308594 208.75 178.277344 C 208.34375 182.101562 207.898438 185.914062 207.40625 189.683594 C 200.300781 188.761719 192.890625 188.269531 185.296875 188.253906 Z M 185.296875 214.898438 L 185.296875 189.382812 C 192.835938 189.394531 200.199219 189.886719 207.261719 190.796875 C 206.121094 199.519531 204.761719 208.054688 203.277344 216.070312 C 197.5 215.316406 191.460938 214.914062 185.296875 214.898438 Z M 185.296875 216.027344 C 191.40625 216.054688 197.355469 216.429688 203.074219 217.167969 C 201.457031 225.730469 199.679688 233.660156 197.832031 240.546875 C 193.800781 240.027344 189.597656 239.738281 185.296875 239.710938 Z M 161.4375 267.378906 C 154.507812 263.609375 147.574219 258.730469 141.003906 252.980469 C 143.027344 251.351562 145.421875 249.832031 148.136719 248.460938 C 153.292969 254.585938 158.867188 260.171875 164.789062 265.171875 C 163.546875 265.835938 162.421875 266.570312 161.4375 267.378906 Z M 204.691406 265.171875 C 210.625 260.1875 216.199219 254.585938 221.34375 248.460938 C 224.027344 249.832031 226.410156 251.351562 228.449219 253.023438 C 221.875 258.742188 214.972656 263.625 208.042969 267.394531 C 207.058594 266.585938 205.949219 265.847656 204.691406 265.171875 Z M 196.503906 290.109375 C 195.363281 289.851562 194.265625 289.257812 193.210938 288.363281 C 195.074219 288.058594 196.835938 287.65625 198.496094 287.179688 C 200.660156 288.046875 202.785156 288.582031 205.066406 288.78125 C 202.25 289.347656 199.375 289.777344 196.503906 290.109375 Z M 207.953125 280.21875 C 203.652344 284.535156 194.523438 287.324219 184.734375 287.324219 C 174.941406 287.324219 165.828125 284.535156 161.511719 280.21875 C 159.835938 278.542969 158.984375 276.753906 158.984375 274.917969 C 158.984375 268.058594 170.535156 262.484375 184.734375 262.484375 C 194.523438 262.484375 203.652344 265.285156 207.953125 269.605469 C 209.644531 271.28125 210.496094 273.070312 210.496094 274.917969 C 210.496094 276.753906 209.644531 278.542969 207.953125 280.21875 Z M 96.0625 232.878906 C 96.121094 229.414062 97 226.046875 98.601562 222.800781 C 98.878906 223.289062 99.152344 223.765625 99.457031 224.257812 C 103.511719 230.84375 108.265625 236.953125 113.609375 242.539062 C 112.324219 245.082031 111.585938 247.695312 111.398438 250.367188 C 105.867188 245.414062 100.625 239.625 96.0625 232.878906 Z M 112.46875 251.320312 C 112.539062 248.589844 113.21875 245.949219 114.445312 243.40625 C 120.324219 249.386719 126.910156 254.773438 134.128906 259.464844 C 133.21875 261.285156 132.714844 263.148438 132.585938 265.054688 C 125.914062 261.53125 119.007812 257.011719 112.46875 251.320312 Z M 138.878906 276.984375 C 137.726562 275.84375 136.785156 274.660156 136.019531 273.460938 C 143.71875 276.246094 151.429688 277.964844 158.304688 278.746094 C 158.695312 279.480469 159.1875 280.175781 159.792969 280.867188 C 153.554688 281.144531 146.765625 280.175781 140.195312 278.210938 C 139.746094 277.808594 139.285156 277.402344 138.878906 276.984375 Z M 155.488281 286.558594 C 154.390625 286.183594 153.308594 285.777344 152.269531 285.359375 C 155.894531 285.765625 159.632812 285.53125 165.238281 284.882812 C 166.480469 285.53125 167.820312 286.109375 169.28125 286.601562 C 166.203125 287.640625 163.128906 287.960938 159.375 287.613281 C 159.359375 287.613281 159.328125 287.613281 159.328125 287.613281 C 158.042969 287.296875 156.757812 286.933594 155.488281 286.558594 Z M 213.976562 286.558594 C 212.707031 286.933594 211.433594 287.28125 210.148438 287.613281 C 210.136719 287.613281 210.136719 287.613281 210.121094 287.613281 C 206.367188 287.960938 203.320312 287.640625 200.257812 286.617188 C 201.714844 286.109375 203.074219 285.53125 204.300781 284.898438 C 209.859375 285.53125 213.585938 285.765625 217.199219 285.359375 C 216.15625 285.777344 215.074219 286.183594 213.976562 286.558594 Z M 229.269531 278.210938 C 222.699219 280.175781 215.925781 281.144531 209.714844 280.867188 C 210.308594 280.175781 210.800781 279.480469 211.203125 278.746094 C 218.050781 277.964844 225.761719 276.261719 233.457031 273.472656 C 232.679688 274.660156 231.738281 275.84375 230.597656 276.984375 C 230.179688 277.402344 229.71875 277.808594 229.269531 278.210938 Z M 236.882812 265.070312 C 236.765625 263.148438 236.246094 261.300781 235.335938 259.464844 C 242.570312 254.773438 249.15625 249.398438 255.035156 243.40625 C 256.289062 245.976562 256.941406 248.636719 257 251.335938 C 250.457031 257.011719 243.554688 261.546875 236.882812 265.070312 Z M 258.082031 250.382812 C 257.894531 247.710938 257.15625 245.097656 255.859375 242.554688 C 261.230469 236.953125 265.980469 230.84375 270.039062 224.257812 C 270.328125 223.765625 270.601562 223.289062 270.890625 222.800781 C 272.507812 226.078125 273.359375 229.457031 273.402344 232.90625 C 268.839844 239.636719 263.613281 245.429688 258.082031 250.382812 Z M 274.457031 231.277344 C 274.183594 227.984375 273.214844 224.777344 271.585938 221.644531 C 273.347656 218.566406 274.964844 215.449219 276.378906 212.269531 C 278.15625 215.839844 279.066406 219.476562 279.109375 223.21875 C 277.664062 226.035156 276.105469 228.71875 274.457031 231.277344 Z M 270.660156 186.175781 C 266.386719 182.550781 261.273438 179.257812 255.511719 176.339844 C 257 168.570312 257.820312 160.886719 257.921875 153.507812 C 263.914062 156.554688 269.160156 160.019531 273.519531 163.820312 C 273.519531 170.679688 272.683594 177.742188 270.964844 184.960938 C 270.875 185.367188 270.761719 185.769531 270.660156 186.175781 Z M 220.433594 94.585938 C 223.507812 97.34375 226.121094 100.738281 228.304688 104.738281 C 222.035156 103.007812 215.335938 101.664062 208.34375 100.722656 C 207.320312 97.042969 206.035156 93.820312 204.445312 91.265625 C 210.035156 92.042969 215.390625 93.15625 220.433594 94.585938 Z M 149.003906 94.628906 C 154.042969 93.199219 159.429688 92.074219 165.035156 91.28125 C 163.445312 93.835938 162.175781 97.054688 161.148438 100.722656 C 154.160156 101.675781 147.460938 103.019531 141.191406 104.738281 C 143.34375 100.78125 145.941406 97.386719 149.003906 94.628906 Z M 98.515625 184.960938 C 96.8125 177.742188 95.976562 170.664062 95.960938 163.804688 C 100.277344 160.066406 105.519531 156.613281 111.558594 153.550781 C 111.671875 160.875 112.480469 168.46875 113.953125 176.179688 C 108.179688 179.085938 103.066406 182.347656 98.777344 185.957031 C 98.691406 185.625 98.601562 185.292969 98.515625 184.960938 Z M 85.777344 211.636719 C 85.777344 207.664062 86.746094 203.792969 88.582031 200.097656 C 89.664062 203.734375 90.992188 207.347656 92.523438 210.898438 C 90.734375 214.207031 89.679688 217.613281 89.347656 221.082031 C 88.046875 218.367188 86.863281 215.535156 85.808594 212.574219 C 85.792969 212.269531 85.777344 211.953125 85.777344 211.636719 Z M 91.121094 229.328125 C 90.820312 228.171875 90.617188 227.015625 90.5 225.847656 C 91.886719 228.402344 93.359375 230.855469 94.921875 233.183594 C 94.921875 233.195312 94.921875 233.210938 94.921875 233.226562 C 94.921875 234.886719 95.109375 236.53125 95.46875 238.164062 C 93.867188 235.289062 92.421875 232.34375 91.121094 229.328125 Z M 102.761719 249.355469 C 102.691406 249.285156 102.617188 249.226562 102.53125 249.199219 C 101 247.117188 99.570312 244.980469 98.214844 242.800781 C 97.027344 240.214844 96.320312 237.574219 96.121094 234.902344 C 100.683594 241.398438 105.867188 247.003906 111.324219 251.796875 C 111.339844 254.441406 111.917969 257.054688 113.03125 259.597656 C 109.246094 256.59375 105.75 253.199219 102.761719 249.355469 Z M 120.554688 268.074219 C 119.066406 266.65625 117.765625 265.199219 116.683594 263.699219 C 122.242188 267.464844 128.25 270.484375 134.332031 272.824219 C 135.167969 274.398438 136.296875 275.914062 137.726562 277.402344 C 133.074219 275.800781 128.613281 273.707031 124.582031 271.191406 C 123.226562 270.183594 121.882812 269.15625 120.554688 268.074219 Z M 248.925781 268.074219 C 247.566406 269.171875 246.183594 270.238281 244.78125 271.265625 C 240.765625 273.777344 236.304688 275.84375 231.683594 277.429688 C 233.097656 275.972656 234.238281 274.425781 235.105469 272.839844 C 241.183594 270.515625 247.191406 267.496094 252.753906 263.726562 C 251.683594 265.214844 250.398438 266.671875 248.925781 268.074219 Z M 266.933594 249.199219 C 266.863281 249.226562 266.789062 249.285156 266.730469 249.355469 C 263.726562 253.214844 260.21875 256.605469 256.433594 259.625 C 257.546875 257.070312 258.125 254.453125 258.140625 251.8125 C 263.597656 247.015625 268.78125 241.414062 273.347656 234.945312 C 273.144531 237.617188 272.421875 240.246094 271.253906 242.828125 C 269.894531 244.996094 268.464844 247.117188 266.933594 249.199219 Z M 273.996094 238.164062 C 274.355469 236.546875 274.546875 234.886719 274.546875 233.226562 C 276.105469 230.886719 277.578125 228.460938 278.964844 225.890625 C 278.847656 227.042969 278.644531 228.1875 278.359375 229.339844 C 277.042969 232.34375 275.597656 235.304688 273.996094 238.164062 Z M 277.835938 147.152344 C 275.945312 144.699219 273.664062 142.34375 271.078125 140.09375 C 270.183594 137.304688 269.128906 134.5625 267.917969 131.890625 C 269.78125 133.679688 271.441406 135.527344 272.855469 137.464844 C 274.703125 140.597656 276.351562 143.847656 277.835938 147.152344 Z M 246.585938 111.398438 C 241.472656 108.984375 235.839844 106.890625 229.804688 105.15625 C 227.839844 101.34375 225.5 98.050781 222.773438 95.25 C 226.785156 96.492188 230.585938 97.953125 234.109375 99.582031 C 235.480469 100.347656 236.839844 101.128906 238.179688 101.964844 C 241.359375 104.566406 244.175781 107.726562 246.585938 111.398438 Z M 200.171875 88.015625 C 200.820312 88.535156 201.425781 89.128906 202.019531 89.820312 C 196.605469 89.171875 191.015625 88.824219 185.296875 88.796875 L 185.296875 86.875 C 190.320312 86.890625 195.289062 87.277344 200.171875 88.015625 Z M 184.167969 86.859375 L 184.167969 88.796875 C 178.480469 88.824219 172.875 89.183594 167.460938 89.835938 C 168.039062 89.140625 168.660156 88.535156 169.308594 88.015625 C 174.160156 87.277344 179.128906 86.890625 184.167969 86.859375 Z M 96.695312 137.40625 C 98.097656 135.515625 99.714844 133.679688 101.550781 131.933594 C 100.320312 134.632812 99.265625 137.40625 98.371094 140.238281 C 95.742188 142.503906 93.476562 144.902344 91.585938 147.355469 C 93.117188 143.933594 94.820312 140.613281 96.695312 137.40625 Z M 82.789062 186.898438 C 82.976562 184.050781 83.640625 181.265625 84.769531 178.550781 C 85.144531 185.238281 86.285156 191.910156 88.117188 198.480469 C 86.242188 201.929688 85.128906 205.484375 84.78125 209.136719 C 83.453125 202.523438 82.761719 195.722656 82.761719 188.832031 C 82.761719 188.183594 82.773438 187.53125 82.789062 186.898438 Z M 81.027344 188.585938 C 81.027344 188.660156 81.042969 188.714844 81.070312 188.789062 C 81.070312 188.804688 81.054688 188.816406 81.054688 188.832031 C 81.054688 216.515625 91.84375 242.554688 111.425781 262.136719 C 131.011719 281.71875 157.035156 292.492188 184.734375 292.492188 C 241.863281 292.492188 288.351562 246.035156 288.410156 188.917969 C 288.453125 188.816406 288.480469 188.703125 288.480469 188.585938 C 288.480469 187.675781 288.421875 186.78125 288.335938 185.886719 C 287.601562 159.300781 276.929688 134.402344 258.039062 115.527344 C 238.457031 95.945312 212.433594 85.15625 184.734375 85.15625 C 157.046875 85.15625 131.011719 95.945312 111.425781 115.527344 C 92.421875 134.53125 81.734375 159.601562 81.128906 186.390625 C 81.054688 187.128906 81.027344 187.851562 81.027344 188.585938 " fill-opacity="1" fill-rule="nonzero"/><g clip-path="url(#343366f59b)"><path fill="#004aad" d="M 294.488281 209.023438 C 292.914062 209.152344 291.902344 210.207031 292.222656 211.359375 C 292.539062 212.53125 294.070312 213.367188 295.644531 213.238281 C 306.648438 212.3125 315.488281 210.652344 321.566406 208.285156 C 328.023438 205.773438 331.558594 202.421875 331.558594 198.25 C 331.558594 189.582031 315.039062 179.53125 288.351562 170.304688 C 262.585938 161.394531 227.046875 152.960938 187.835938 147.140625 C 168.023438 144.207031 149.191406 142.214844 132.078125 141.117188 C 107.296875 139.527344 86.066406 139.847656 70.746094 141.925781 C 54.484375 144.136719 44.5625 148.484375 43.539062 154.867188 C 43.480469 155.242188 43.449219 155.617188 43.449219 155.976562 C 43.449219 159.574219 46.136719 163.328125 51.105469 167.125 C 55.886719 170.75 62.847656 174.492188 71.597656 178.1875 C 73.042969 178.796875 74.789062 178.492188 75.496094 177.480469 C 76.203125 176.484375 75.613281 175.183594 74.167969 174.5625 C 65.949219 171.097656 59.464844 167.632812 55.148438 164.339844 C 51.335938 161.4375 49.269531 158.734375 49.269531 156.351562 C 49.269531 156.121094 49.300781 155.90625 49.328125 155.71875 C 50.050781 151.226562 58.414062 147.976562 72.261719 146.101562 C 87.050781 144.078125 107.757812 143.804688 132.078125 145.347656 C 149.003906 146.433594 167.632812 148.410156 187.171875 151.3125 C 225.90625 157.046875 260.941406 165.351562 286.257812 174.101562 C 310.632812 182.535156 325.726562 191.128906 325.726562 197.871094 C 325.726562 200.457031 323.167969 202.683594 318.492188 204.5 C 312.988281 206.640625 304.800781 208.15625 294.488281 209.023438 " fill-opacity="1" fill-rule="nonzero"/></g><g clip-path="url(#998794d622)"><path fill="#004aad" d="M 291.789062 82.789062 L 291.933594 82.789062 C 292.914062 95.714844 303.226562 106.039062 316.152344 107.007812 L 316.152344 107.164062 C 303.226562 108.132812 292.914062 118.457031 291.933594 131.382812 L 291.789062 131.382812 C 290.804688 118.457031 280.496094 108.132812 267.570312 107.164062 L 267.570312 107.007812 C 280.496094 106.039062 290.804688 95.714844 291.789062 82.789062 " fill-opacity="1" fill-rule="evenodd"/></g><path fill="#004aad" d="M 316.542969 127.382812 L 316.613281 127.382812 C 317.019531 132.886719 321.40625 137.277344 326.894531 137.679688 L 326.894531 137.753906 C 321.40625 138.15625 317.019531 142.546875 316.613281 148.035156 L 316.542969 148.035156 C 316.136719 142.546875 311.746094 138.15625 306.246094 137.753906 L 306.246094 137.679688 C 311.746094 137.277344 316.136719 132.886719 316.542969 127.382812 " fill-opacity="1" fill-rule="evenodd"/><g clip-path="url(#dc6ba5e4bc)"><g clip-path="url(#d169bb40bd)"><g clip-path="url(#034e2f855c)"><path fill="#231f20" d="M 246.824219 61.496094 L 348.328125 12.992188 L 396.832031 114.5 L 295.328125 163.003906 Z M 246.824219 61.496094 " fill-opacity="1" fill-rule="nonzero"/></g></g></g><path stroke-linecap="butt" transform="matrix(0.748478, -0.0477584, 0.0477584, 0.748478, 118.908827, 148.691767)" fill="none" stroke-linejoin="miter" d="M 2.802181 54.997911 L 34.773357 54.99731 C 41.37506 55.001034 46.191282 50.188579 46.190803 43.570951 L 46.188231 37.313295 C 46.187752 30.695667 41.374965 25.884643 34.77293 25.886117 L 19.601676 25.883579 C 18.808299 25.885145 18.195393 25.266736 18.192832 24.488953 C 18.196463 23.695908 18.809674 23.08267 19.603051 23.081104 L 44.794805 23.081096 C 45.572257 23.083733 46.190997 22.465628 46.188436 21.687845 L 46.189207 11.615368 C 46.187641 10.821991 45.574735 10.203583 44.796951 10.206144 L 12.820578 10.206413 C 6.218874 10.202689 1.392257 15.014481 1.392736 21.632109 L 1.394313 27.905358 C 1.395787 34.507393 6.21897 39.319081 12.820673 39.322805 L 27.997457 39.320476 C 28.774908 39.323113 29.388147 39.936324 29.389713 40.7297 C 29.387076 41.507152 28.773533 42.125588 27.996081 42.122951 L 2.804328 42.122959 C 2.010951 42.124525 1.392542 42.737432 1.395103 43.515215 L 1.393337 53.603285 C 1.395566 54.386266 2.008805 54.999477 2.802181 54.997911 Z M 2.802181 54.997911 " stroke="#231f20" stroke-width="11.269819" stroke-opacity="1" stroke-miterlimit="4"/><path stroke-linecap="butt" transform="matrix(0.749883, -0.0132474, 0.0132474, 0.749883, 155.692012, 146.371529)" fill="none" stroke-linejoin="miter" d="M 12.82138 55.000098 L 44.795081 55.002357 C 45.576485 55.000534 46.187402 54.328928 46.190694 53.552824 L 46.188813 41.274832 C 46.186898 40.498636 45.572667 39.883524 44.796562 39.880231 L 19.59987 39.883093 C 18.808143 39.879525 18.193912 39.264413 18.191997 38.488216 L 18.196539 26.731253 C 18.1949 25.939433 18.810012 25.325202 19.601831 25.323563 L 44.793223 25.325817 C 45.574628 25.323994 46.190752 24.65248 46.188836 23.876284 L 46.186679 11.613915 C 46.190248 10.822187 45.576017 10.207075 44.794705 10.203691 L 12.820911 10.206639 C 6.220958 10.204645 1.395637 15.015999 1.393368 21.631575 L 1.396444 43.572554 C 1.394175 50.18813 6.221427 54.998104 12.82138 55.000098 Z M 12.82138 55.000098 " stroke="#231f20" stroke-width="11.269819" stroke-opacity="1" stroke-miterlimit="4"/><path stroke-linecap="butt" transform="matrix(0.749698, 0.0212917, -0.0212917, 0.749698, 192.543009, 145.747255)" fill="none" stroke-linejoin="miter" d="M 2.802003 54.998369 L 16.797334 55.0021 C 17.578861 55.000746 18.195539 54.331928 18.194185 53.550402 L 18.191815 40.441017 C 18.195815 39.664549 18.808766 39.047941 19.600705 39.046292 L 27.99475 39.047578 C 28.776277 39.046224 29.387826 39.664529 29.389032 40.440849 L 29.387823 53.60765 C 29.389029 54.38397 30.005785 55.002127 30.797724 55.000477 L 44.792907 54.999002 C 45.574434 54.997648 46.191112 54.32883 46.189906 53.55251 L 46.187808 39.718868 C 46.18763 36.410247 43.785004 34.003527 40.476384 34.003705 L 39.981348 34.002133 C 39.189409 34.003782 38.572801 33.390832 38.576653 32.609157 C 38.575004 31.817218 39.187954 31.20061 39.985247 31.204019 L 40.474929 31.200533 C 43.78355 31.200354 46.19027 28.797728 46.190092 25.489108 L 46.187276 19.335665 C 46.18892 14.073081 42.332821 10.207034 37.070236 10.205391 L 2.801181 10.204293 C 2.009242 10.205942 1.396292 10.82255 1.392735 11.614637 L 1.392102 53.605542 C 1.393456 54.387068 2.010064 55.000019 2.802003 54.998369 Z M 19.599782 26.171336 C 18.807843 26.172985 18.196293 25.554681 18.194644 24.762742 C 18.193438 23.986421 18.811594 23.369665 19.603534 23.368016 L 27.997579 23.369302 C 28.773899 23.368096 29.390655 23.986253 29.391861 24.762573 C 29.388305 25.55466 28.775354 26.171268 27.993827 26.172622 Z M 19.599782 26.171336 " stroke="#231f20" stroke-width="11.269819" stroke-opacity="1" stroke-miterlimit="4"/><path stroke-linecap="butt" transform="matrix(0.748211, 0.0517728, -0.0517728, 0.748211, 229.242791, 146.894815)" fill="none" stroke-linejoin="miter" d="M 11.307305 55.00132 L 25.246897 55.002609 C 26.04027 54.999919 26.657007 54.330749 26.655396 53.552964 L 26.653021 26.733943 C 26.655527 25.94021 27.322982 25.324959 28.105963 25.322989 L 33.70778 25.321707 C 34.485925 25.325291 35.101061 24.70844 35.104645 23.930295 L 35.10344 11.614541 C 35.104345 10.873126 34.489094 10.205672 33.711309 10.207283 L 2.800162 10.148242 C 2.011984 10.150572 1.396848 10.767424 1.393983 11.555961 L 1.393948 23.929229 C 1.395559 24.707015 2.007214 25.322511 2.800947 25.325017 L 8.392372 25.324454 C 9.185745 25.321764 9.854915 25.9385 9.857605 26.731874 L 9.853183 53.603572 C 9.855154 54.386554 10.523964 54.998095 11.307305 55.00132 Z M 11.307305 55.00132 " stroke="#231f20" stroke-width="11.269819" stroke-opacity="1" stroke-miterlimit="4"/><g fill="#ffffff" fill-opacity="1"><g transform="translate(121.535542, 189.858047)"><g><path d="M 2.09375 -0.132812 L 26.023438 -1.660156 C 30.96875 -1.976562 34.34375 -5.808594 34.027344 -10.753906 L 33.730469 -15.449219 C 33.414062 -20.394531 29.578125 -23.769531 24.632812 -23.453125 L 13.277344 -22.726562 C 12.691406 -22.691406 12.199219 -23.121094 12.164062 -23.707031 C 12.125 -24.296875 12.558594 -24.785156 13.144531 -24.824219 L 32 -26.027344 C 32.589844 -26.0625 33.019531 -26.554688 32.984375 -27.140625 L 32.5 -34.683594 C 32.464844 -35.269531 31.972656 -35.703125 31.386719 -35.664062 L 7.457031 -34.136719 C 2.511719 -33.824219 -0.863281 -29.988281 -0.546875 -25.042969 L -0.246094 -20.351562 C 0.0703125 -15.40625 3.902344 -12.03125 8.847656 -12.347656 L 20.203125 -13.070312 C 20.792969 -13.109375 21.28125 -12.675781 21.320312 -12.089844 C 21.355469 -11.503906 20.925781 -11.011719 20.339844 -10.976562 L 1.480469 -9.773438 C 0.894531 -9.734375 0.460938 -9.246094 0.5 -8.65625 L 0.980469 -1.113281 C 1.019531 -0.527344 1.507812 -0.0976562 2.09375 -0.132812 Z M 2.09375 -0.132812 "/></g></g></g><g fill="#ffffff" fill-opacity="1"><g transform="translate(156.420621, 187.61509)"><g><path d="M 9.613281 -0.167969 L 33.589844 -0.59375 C 34.175781 -0.605469 34.628906 -1.117188 34.617188 -1.703125 L 34.457031 -10.898438 C 34.445312 -11.484375 33.976562 -11.941406 33.386719 -11.929688 L 14.496094 -11.597656 C 13.90625 -11.585938 13.4375 -12.039062 13.425781 -12.625 L 13.269531 -21.445312 C 13.261719 -22.03125 13.714844 -22.5 14.300781 -22.511719 L 33.195312 -22.847656 C 33.785156 -22.855469 34.238281 -23.367188 34.226562 -23.957031 L 34.0625 -33.152344 C 34.054688 -33.738281 33.582031 -34.191406 32.996094 -34.183594 L 9.019531 -33.757812 C 4.066406 -33.671875 0.519531 -29.996094 0.609375 -25.042969 L 0.898438 -8.582031 C 0.984375 -3.628906 4.660156 -0.0820312 9.613281 -0.167969 Z M 9.613281 -0.167969 "/></g></g></g><g fill="#ffffff" fill-opacity="1"><g transform="translate(191.371967, 186.980626)"><g><path d="M 2.097656 0.0585938 L 12.59375 0.359375 C 13.179688 0.375 13.65625 -0.117188 13.671875 -0.703125 L 13.953125 -10.527344 C 13.96875 -11.113281 14.445312 -11.5625 15.03125 -11.546875 L 21.328125 -11.367188 C 21.914062 -11.351562 22.363281 -10.875 22.347656 -10.289062 L 22.066406 -0.421875 C 22.050781 0.164062 22.5 0.640625 23.085938 0.65625 L 33.582031 0.953125 C 34.167969 0.96875 34.644531 0.480469 34.660156 -0.109375 L 34.957031 -10.476562 C 35.027344 -12.953125 33.273438 -14.808594 30.796875 -14.878906 L 30.417969 -14.890625 C 29.828125 -14.90625 29.382812 -15.382812 29.398438 -15.96875 C 29.414062 -16.554688 29.890625 -17.003906 30.476562 -16.988281 L 30.855469 -16.976562 C 33.332031 -16.90625 35.1875 -18.660156 35.257812 -21.136719 L 35.390625 -25.753906 C 35.5 -29.699219 32.6875 -32.679688 28.742188 -32.792969 L 3.050781 -33.519531 C 2.464844 -33.539062 1.988281 -33.089844 1.972656 -32.5 L 1.078125 -1.019531 C 1.0625 -0.433594 1.511719 0.0429688 2.097656 0.0585938 Z M 15.304688 -21.199219 C 14.71875 -21.21875 14.269531 -21.691406 14.285156 -22.28125 C 14.300781 -22.867188 14.777344 -23.316406 15.363281 -23.300781 L 21.660156 -23.121094 C 22.25 -23.101562 22.699219 -22.628906 22.679688 -22.039062 C 22.664062 -21.453125 22.1875 -21.003906 21.601562 -21.019531 Z M 15.304688 -21.199219 "/></g></g></g><g fill="#ffffff" fill-opacity="1"><g transform="translate(226.395288, 188.046414)"><g><path d="M 8.460938 0.585938 L 18.894531 1.308594 C 19.480469 1.347656 19.976562 0.878906 20.015625 0.289062 L 21.40625 -19.777344 C 21.445312 -20.363281 21.980469 -20.789062 22.566406 -20.746094 L 26.753906 -20.457031 C 27.34375 -20.417969 27.835938 -20.847656 27.875 -21.433594 L 28.511719 -30.648438 C 28.550781 -31.195312 28.125 -31.726562 27.539062 -31.769531 L 4.417969 -33.410156 C 3.828125 -33.453125 3.335938 -33.023438 3.296875 -32.4375 L 2.65625 -23.179688 C 2.617188 -22.589844 3.042969 -22.097656 3.632812 -22.058594 L 7.820312 -21.769531 C 8.40625 -21.726562 8.878906 -21.230469 8.835938 -20.644531 L 7.445312 -0.539062 C 7.40625 0.0507812 7.875 0.546875 8.460938 0.585938 Z M 8.460938 0.585938 "/></g></g></g><path stroke-linecap="butt" transform="matrix(1.070802, -0.128381, 0.128381, 1.070802, 96.803523, 194.228922)" fill="none" stroke-linejoin="miter" d="M 9.56148 13.00004 L 4.859053 13.001688 L 4.860175 4.564075 L 0.468174 4.562814 L 0.4686 1.79041 L 13.951863 1.787258 L 13.954602 4.563689 L 9.562602 4.562427 Z M 9.56148 13.00004 " stroke="#231f20" stroke-width="1.9" stroke-opacity="1" stroke-miterlimit="4"/><path stroke-linecap="butt" transform="matrix(1.073514, -0.103278, 0.103278, 1.073514, 112.487421, 192.345369)" fill="none" stroke-linejoin="miter" d="M 14.749751 12.999643 L 1.249959 12.999923 L 1.251434 1.789073 L 14.132762 1.787514 L 14.131303 4.563741 L 5.951484 4.562767 L 5.953405 6.320469 L 12.867104 6.319713 L 12.866925 8.477475 L 5.953225 8.478231 L 5.952581 10.224769 L 14.750864 10.227022 Z M 14.749751 12.999643 " stroke="#231f20" stroke-width="1.9" stroke-opacity="1" stroke-miterlimit="4"/><path stroke-linecap="butt" transform="matrix(1.07578, -0.0761237, 0.0761237, 1.07578, 129.253326, 190.726087)" fill="none" stroke-linejoin="miter" d="M 8.475176 13.243594 C 5.704656 13.243627 3.668191 12.671056 2.358045 11.532596 C 1.202047 10.524869 0.623857 9.151348 0.623988 7.404805 C 0.623863 5.661876 1.204355 4.283198 2.357981 3.271874 C 3.665586 2.137095 5.706455 1.569817 8.476975 1.569784 C 10.100164 1.568449 11.444777 1.758004 12.507966 2.127354 C 13.5709 2.500318 14.395478 3.008921 14.985056 3.657031 C 15.571278 4.301273 15.961953 5.040611 16.157084 5.875043 L 11.211643 5.873681 C 10.717657 5.003577 9.804356 4.56858 8.475353 4.568946 C 7.342474 4.568665 6.505808 4.897988 5.969223 5.553555 C 5.540159 6.075119 5.329476 6.69202 5.329693 7.407359 C 5.326553 8.118829 5.540635 8.736738 5.968585 9.257217 C 6.506814 9.912587 7.340306 10.243897 8.477053 10.24082 C 9.805801 10.244067 10.715682 9.803731 11.209543 8.930906 L 16.15524 8.928655 C 15.965092 9.768505 15.57127 10.510427 14.984615 11.15519 C 14.39409 11.80331 13.570187 12.311458 12.509038 12.682993 C 11.444275 13.054273 10.101978 13.242514 8.475176 13.243594 Z M 8.475176 13.243594 " stroke="#231f20" stroke-width="1.9" stroke-opacity="1" stroke-miterlimit="4"/><path stroke-linecap="butt" transform="matrix(1.077452, -0.0468574, 0.0468574, 1.077452, 147.587764, 189.424996)" fill="none" stroke-linejoin="miter" d="M 16.563185 13.00045 L 11.861038 12.998983 L 11.858255 8.477924 L 5.952527 8.474871 L 5.951535 12.999392 L 1.249231 13.001544 L 1.251082 1.788103 L 5.953229 1.789569 L 5.951921 6.321327 L 11.857806 6.320761 L 11.859114 1.789004 L 16.561261 1.790471 Z M 16.563185 13.00045 " stroke="#231f20" stroke-width="1.9" stroke-opacity="1" stroke-miterlimit="4"/><path stroke-linecap="butt" transform="matrix(1.078358, -0.0155639, 0.0155639, 1.078358, 167.081199, 188.571345)" fill="none" stroke-linejoin="miter" d="M 17.881688 13.000749 L 12.28871 12.999719 L 5.953943 5.413533 L 5.953136 12.998838 L 1.251241 12.999801 L 1.250046 1.78844 L 6.843024 1.789471 L 13.178366 9.335818 L 13.178598 1.790352 L 17.884115 1.789441 Z M 17.881688 13.000749 " stroke="#231f20" stroke-width="1.9" stroke-opacity="1" stroke-miterlimit="4"/><path stroke-linecap="butt" transform="matrix(1.078366, 0.0150145, -0.0150145, 1.078366, 188.007897, 188.290094)" fill="none" stroke-linejoin="miter" d="M 8.475948 13.243985 C 5.70481 13.242723 3.668351 12.673385 2.359276 11.53245 C 1.204127 10.519778 0.623504 9.144114 0.624551 7.398112 C 0.625698 5.659355 1.204214 4.28204 2.360199 3.273413 C 3.666479 2.132288 5.705213 1.564168 8.4763 1.561809 C 11.247437 1.563071 13.287518 2.132359 14.592971 3.273344 C 15.751692 4.282344 16.328693 5.658059 16.327545 7.396816 C 16.326499 9.142818 15.751605 10.520081 14.592049 11.53238 C 13.285769 12.673506 11.247035 13.241626 8.475948 13.243985 Z M 8.477504 10.233767 C 9.611341 10.236092 10.443561 9.909358 10.977837 9.257135 C 11.405227 8.733184 11.617527 8.110802 11.618458 7.39718 C 11.615767 6.683609 11.404331 6.067126 10.976904 5.547832 C 10.446155 4.892327 9.612051 4.563437 8.478214 4.561112 C 7.340806 4.562459 6.504964 4.889243 5.967117 5.545138 C 5.543348 6.069038 5.327326 6.684228 5.326395 7.39785 C 5.329086 8.111421 5.540573 8.731525 5.9681 9.258062 C 6.506042 9.909845 7.340096 10.235114 8.477504 10.233767 Z M 8.477504 10.233767 " stroke="#231f20" stroke-width="1.9" stroke-opacity="1" stroke-miterlimit="4"/><path stroke-linecap="butt" transform="matrix(1.077661, 0.0417839, -0.0417839, 1.077661, 206.546857, 188.566687)" fill="none" stroke-linejoin="miter" d="M 14.336124 13.000451 L 1.250774 13.000341 L 1.251049 1.788981 L 5.952308 1.787938 L 5.95326 10.226317 L 14.33735 10.22747 Z M 14.336124 13.000451 " stroke="#231f20" stroke-width="1.9" stroke-opacity="1" stroke-miterlimit="4"/><path stroke-linecap="butt" transform="matrix(1.076291, 0.0685275, -0.0685275, 1.076291, 222.591127, 189.176678)" fill="none" stroke-linejoin="miter" d="M 8.47821 13.243675 C 5.705296 13.242388 3.665558 12.671791 2.358998 11.531885 C 1.202156 10.520362 0.624412 9.141696 0.625997 7.399501 C 0.623967 5.657537 1.204379 4.284977 2.359542 3.275052 C 3.665928 2.132101 5.705693 1.563076 8.474763 1.560979 C 11.247677 1.562266 13.287415 2.132863 14.593976 3.272769 C 15.750817 4.284292 16.328331 5.659344 16.326516 7.397924 C 16.328776 9.143503 15.748595 10.519677 14.593431 11.529602 C 13.287045 12.672553 11.24728 13.241578 8.47821 13.243675 Z M 8.475382 10.235114 C 9.611389 10.235372 10.443584 9.910184 10.975583 9.25932 C 11.40289 8.731262 11.617485 8.111495 11.615752 7.40025 C 11.617404 6.685161 11.403852 6.067249 10.975097 5.546514 C 10.446998 4.890559 9.613137 4.562568 8.477131 4.56231 C 7.341124 4.562053 6.505544 4.891086 5.970161 5.545794 C 5.542393 6.066624 5.327798 6.68639 5.329531 7.397635 C 5.327879 8.112724 5.541431 8.730637 5.967032 9.258831 C 6.505745 9.91048 7.339375 10.234857 8.475382 10.235114 Z M 8.475382 10.235114 " stroke="#231f20" stroke-width="1.9" stroke-opacity="1" stroke-miterlimit="4"/><path stroke-linecap="butt" transform="matrix(1.074077, 0.0972466, -0.0972466, 1.074077, 241.114294, 190.358762)" fill="none" stroke-linejoin="miter" d="M 8.475336 13.242336 C 5.704059 13.242304 3.666555 12.670316 2.359544 11.530305 C 1.202673 10.522173 0.62341 9.14534 0.626014 7.406694 C 0.624358 5.661159 1.201679 4.285078 2.361257 3.274516 C 3.665497 2.134478 5.705059 1.564311 8.476009 1.560735 C 10.05463 1.563281 11.368881 1.738874 12.415808 2.095054 C 13.462409 2.447627 14.280729 2.929973 14.87798 3.54144 C 15.475558 4.156515 15.880942 4.858091 16.102326 5.656337 L 11.069035 5.657444 C 10.545279 4.933854 9.679369 4.568558 8.47589 4.572052 C 7.340949 4.569341 6.504954 4.895974 5.967577 5.548344 C 5.542396 6.074176 5.329347 6.693545 5.32843 7.406449 C 5.327513 8.119353 5.543388 8.736256 5.968841 9.257809 C 6.504101 9.907621 7.341169 10.235522 8.475783 10.234626 C 9.392327 10.23529 10.08329 10.154546 10.541785 9.996655 C 11.003886 9.838438 11.341395 9.629675 11.554639 9.373973 L 9.718269 9.376579 L 9.718008 7.405434 L 16.100701 7.405805 L 16.102256 13.006403 L 14.149474 13.008638 L 13.74915 11.921099 C 12.505016 12.801116 10.748498 13.243825 8.475336 13.242336 Z M 8.475336 13.242336 " stroke="#231f20" stroke-width="1.9" stroke-opacity="1" stroke-miterlimit="4"/><path stroke-linecap="butt" transform="matrix(1.071076, 0.126074, -0.126074, 1.071076, 259.693346, 192.043655)" fill="none" stroke-linejoin="miter" d="M 10.937848 13.000967 L 6.233109 13.000402 L 6.234907 7.686462 L 0.117801 1.790774 L 5.329325 1.79004 L 8.586702 5.141183 L 11.835637 1.790074 L 17.047161 1.789339 L 10.936049 7.687451 Z M 10.937848 13.000967 " stroke="#231f20" stroke-width="1.9" stroke-opacity="1" stroke-miterlimit="4"/><g fill="#ffffff" fill-opacity="1"><g transform="translate(98.472481, 208.149348)"><g><path d="M 10.234375 -1.234375 L 5.203125 -0.625 L 4.125 -9.65625 L -0.578125 -9.09375 L -0.9375 -12.0625 L 13.5 -13.796875 L 13.859375 -10.828125 L 9.15625 -10.265625 Z M 10.234375 -1.234375 "/></g></g></g><g fill="#ffffff" fill-opacity="1"><g transform="translate(113.830035, 206.301051)"><g><path d="M 15.828125 -1.515625 L 1.34375 -0.125 L 0.1875 -12.15625 L 14.015625 -13.484375 L 14.296875 -10.5 L 5.515625 -9.65625 L 5.703125 -7.78125 L 13.125 -8.5 L 13.34375 -6.1875 L 5.921875 -5.46875 L 6.109375 -3.578125 L 15.546875 -4.484375 Z M 15.828125 -1.515625 "/></g></g></g><g fill="#ffffff" fill-opacity="1"><g transform="translate(130.242934, 204.711233)"><g><path d="M 9.140625 -0.375 C 6.148438 -0.164062 3.914062 -0.628906 2.4375 -1.765625 C 1.113281 -2.742188 0.382812 -4.175781 0.25 -6.0625 C 0.113281 -7.945312 0.632812 -9.472656 1.8125 -10.640625 C 3.113281 -11.960938 5.257812 -12.726562 8.25 -12.9375 C 9.988281 -13.0625 11.445312 -12.960938 12.625 -12.640625 C 13.800781 -12.328125 14.726562 -11.84375 15.40625 -11.1875 C 16.082031 -10.539062 16.554688 -9.78125 16.828125 -8.90625 L 11.515625 -8.53125 C 10.910156 -9.425781 9.898438 -9.820312 8.484375 -9.71875 C 7.253906 -9.632812 6.378906 -9.21875 5.859375 -8.46875 C 5.441406 -7.875 5.257812 -7.191406 5.3125 -6.421875 C 5.363281 -5.648438 5.640625 -5 6.140625 -4.46875 C 6.765625 -3.8125 7.691406 -3.523438 8.921875 -3.609375 C 10.335938 -3.710938 11.28125 -4.253906 11.75 -5.234375 L 17.0625 -5.609375 C 16.914062 -4.691406 16.550781 -3.863281 15.96875 -3.125 C 15.394531 -2.382812 14.546875 -1.769531 13.421875 -1.28125 C 12.304688 -0.800781 10.878906 -0.5 9.140625 -0.375 Z M 9.140625 -0.375 "/></g></g></g><g fill="#ffffff" fill-opacity="1"><g transform="translate(148.19691, 203.431873)"><g><path d="M 17.84375 -0.78125 L 12.765625 -0.5625 L 12.546875 -5.4375 L 6.203125 -5.15625 L 6.421875 -0.28125 L 1.34375 -0.0625 L 0.8125 -12.140625 L 5.890625 -12.359375 L 6.109375 -7.484375 L 12.453125 -7.765625 L 12.234375 -12.640625 L 17.3125 -12.859375 Z M 17.84375 -0.78125 "/></g></g></g><g fill="#ffffff" fill-opacity="1"><g transform="translate(167.28353, 202.590001)"><g><path d="M 19.28125 -0.28125 L 13.25 -0.1875 L 6.296875 -8.265625 L 6.421875 -0.09375 L 1.34375 -0.015625 L 1.171875 -12.109375 L 7.203125 -12.203125 L 14.140625 -4.15625 L 14.03125 -12.296875 L 19.109375 -12.375 Z M 19.28125 -0.28125 "/></g></g></g><g fill="#ffffff" fill-opacity="1"><g transform="translate(187.812709, 202.308851)"><g><path d="M 9.140625 0.390625 C 6.148438 0.347656 3.957031 -0.296875 2.5625 -1.546875 C 1.332031 -2.648438 0.726562 -4.144531 0.75 -6.03125 C 0.78125 -7.90625 1.425781 -9.378906 2.6875 -10.453125 C 4.113281 -11.660156 6.320312 -12.242188 9.3125 -12.203125 C 12.300781 -12.160156 14.488281 -11.515625 15.875 -10.265625 C 17.113281 -9.160156 17.71875 -7.671875 17.6875 -5.796875 C 17.664062 -3.910156 17.019531 -2.429688 15.75 -1.359375 C 14.332031 -0.148438 12.128906 0.429688 9.140625 0.390625 Z M 9.1875 -2.859375 C 10.40625 -2.835938 11.304688 -3.171875 11.890625 -3.859375 C 12.359375 -4.429688 12.597656 -5.101562 12.609375 -5.875 C 12.617188 -6.632812 12.394531 -7.296875 11.9375 -7.859375 C 11.375 -8.578125 10.484375 -8.945312 9.265625 -8.96875 C 8.035156 -8.988281 7.128906 -8.644531 6.546875 -7.9375 C 6.078125 -7.382812 5.835938 -6.726562 5.828125 -5.96875 C 5.816406 -5.195312 6.039062 -4.519531 6.5 -3.9375 C 7.0625 -3.238281 7.957031 -2.878906 9.1875 -2.859375 Z M 9.1875 -2.859375 "/></g></g></g><g fill="#ffffff" fill-opacity="1"><g transform="translate(206.003666, 202.576277)"><g><path d="M 15.4375 0.59375 L 1.34375 0.046875 L 1.8125 -12.03125 L 6.890625 -11.828125 L 6.53125 -2.734375 L 15.546875 -2.390625 Z M 15.4375 0.59375 "/></g></g></g><g fill="#ffffff" fill-opacity="1"><g transform="translate(221.700269, 203.168463)"><g><path d="M 9.109375 0.84375 C 6.117188 0.65625 3.960938 -0.0976562 2.640625 -1.421875 C 1.460938 -2.585938 0.9375 -4.109375 1.0625 -5.984375 C 1.175781 -7.859375 1.894531 -9.300781 3.21875 -10.3125 C 4.6875 -11.4375 6.914062 -11.90625 9.90625 -11.71875 C 12.882812 -11.53125 15.039062 -10.78125 16.375 -9.46875 C 17.550781 -8.300781 18.082031 -6.78125 17.96875 -4.90625 C 17.84375 -3.03125 17.117188 -1.585938 15.796875 -0.578125 C 14.316406 0.554688 12.085938 1.03125 9.109375 0.84375 Z M 9.3125 -2.40625 C 10.53125 -2.320312 11.441406 -2.609375 12.046875 -3.265625 C 12.554688 -3.804688 12.835938 -4.460938 12.890625 -5.234375 C 12.929688 -5.992188 12.738281 -6.671875 12.3125 -7.265625 C 11.789062 -8.003906 10.921875 -8.414062 9.703125 -8.5 C 8.472656 -8.570312 7.550781 -8.273438 6.9375 -7.609375 C 6.4375 -7.078125 6.164062 -6.429688 6.125 -5.671875 C 6.070312 -4.898438 6.253906 -4.210938 6.671875 -3.609375 C 7.203125 -2.878906 8.082031 -2.476562 9.3125 -2.40625 Z M 9.3125 -2.40625 "/></g></g></g><g fill="#ffffff" fill-opacity="1"><g transform="translate(239.850089, 204.321765)"><g><path d="M 9.078125 1.09375 C 6.097656 0.820312 3.960938 0.0078125 2.671875 -1.34375 C 1.535156 -2.539062 1.050781 -4.070312 1.21875 -5.9375 C 1.382812 -7.820312 2.140625 -9.242188 3.484375 -10.203125 C 4.992188 -11.304688 7.238281 -11.722656 10.21875 -11.453125 C 11.90625 -11.304688 13.296875 -10.988281 14.390625 -10.5 C 15.484375 -10.019531 16.316406 -9.421875 16.890625 -8.703125 C 17.472656 -7.992188 17.84375 -7.203125 18 -6.328125 L 12.609375 -6.8125 C 12.097656 -7.644531 11.203125 -8.117188 9.921875 -8.234375 C 8.691406 -8.347656 7.757812 -8.078125 7.125 -7.421875 C 6.625 -6.898438 6.34375 -6.253906 6.28125 -5.484375 C 6.207031 -4.722656 6.367188 -4.039062 6.765625 -3.4375 C 7.273438 -2.6875 8.144531 -2.253906 9.375 -2.140625 C 10.351562 -2.054688 11.097656 -2.078125 11.609375 -2.203125 C 12.117188 -2.328125 12.503906 -2.515625 12.765625 -2.765625 L 10.796875 -2.9375 L 10.984375 -5.046875 L 17.828125 -4.4375 L 17.28125 1.578125 L 15.1875 1.390625 L 14.875 0.1875 C 13.445312 1.007812 11.515625 1.3125 9.078125 1.09375 Z M 9.078125 1.09375 "/></g></g></g><g fill="#ffffff" fill-opacity="1"><g transform="translate(258.054386, 205.967644)"><g><path d="M 11.71875 1.375 L 6.671875 0.78125 L 7.34375 -4.90625 L 1.53125 -12 L 7.109375 -11.34375 L 10.171875 -7.328125 L 14.078125 -10.515625 L 19.65625 -9.875 L 12.390625 -4.3125 Z M 11.71875 1.375 "/></g></g></g></svg>