<svg xmlns="http://www.w3.org/2000/svg" xmlns:xlink="http://www.w3.org/1999/xlink" width="500" zoomAndPan="magnify" viewBox="0 0 375 374.999991" height="500" preserveAspectRatio="xMidYMid meet" version="1.0"><defs><g/><clipPath id="3089ffb339"><path d="M 115 142 L 280 142 L 280 306.820312 L 115 306.820312 Z M 115 142 " clip-rule="nonzero"/></clipPath><clipPath id="d076ab3203"><path d="M 86.316406 186 L 313.566406 186 L 313.566406 244 L 86.316406 244 Z M 86.316406 186 " clip-rule="nonzero"/></clipPath><clipPath id="640f06a691"><path d="M 263 140.320312 L 302 140.320312 L 302 180 L 263 180 Z M 263 140.320312 " clip-rule="nonzero"/></clipPath><clipPath id="fac41058f4"><path d="M 256 117 L 342 117 L 342 203 L 256 203 Z M 256 117 " clip-rule="nonzero"/></clipPath><clipPath id="8be9dbb8d3"><path d="M 256.613281 145.011719 L 314.078125 117.550781 L 341.648438 175.246094 L 284.179688 202.707031 Z M 256.613281 145.011719 " clip-rule="nonzero"/></clipPath><clipPath id="0a3bfaa709"><path d="M 256.613281 145.011719 L 314.078125 117.550781 L 341.605469 175.152344 L 284.136719 202.613281 Z M 256.613281 145.011719 " clip-rule="nonzero"/></clipPath></defs><g clip-path="url(#3089ffb339)"><path fill="#004aad" d="M 118.878906 208.726562 C 118.8125 210.3125 118.765625 211.910156 118.789062 213.503906 C 118.449219 214.15625 118.128906 214.816406 117.84375 215.480469 C 118.09375 213.199219 118.449219 210.9375 118.878906 208.726562 Z M 151.472656 158.714844 C 150.023438 160.335938 148.710938 162.136719 147.515625 164.097656 C 144.789062 165.46875 142.277344 166.949219 139.996094 168.546875 C 143.5 164.933594 147.34375 161.625 151.472656 158.714844 Z M 255.773438 168.535156 C 253.492188 166.9375 250.96875 165.445312 248.242188 164.085938 C 247.046875 162.101562 245.710938 160.289062 244.25 158.65625 C 247.992188 161.292969 251.539062 164.257812 254.835938 167.554688 C 255.15625 167.863281 255.464844 168.207031 255.773438 168.535156 Z M 276.980469 213.492188 C 277.015625 211.875 276.96875 210.277344 276.886719 208.679688 C 277.320312 210.894531 277.652344 213.117188 277.902344 215.375 C 277.628906 214.75 277.320312 214.109375 276.980469 213.492188 Z M 276.660156 241.351562 C 276.488281 238.304688 275.632812 235.339844 274.128906 232.453125 C 275.632812 227.148438 276.558594 221.753906 276.867188 216.359375 C 277.675781 218.296875 278.164062 220.269531 278.382812 222.265625 C 278.394531 223.007812 278.429688 223.761719 278.429688 224.515625 C 278.429688 230.242188 277.824219 235.875 276.660156 241.351562 Z M 253.023438 283.195312 C 253.21875 282.910156 253.386719 282.613281 253.558594 282.316406 C 254.199219 281.835938 254.8125 281.335938 255.441406 280.832031 C 255.238281 281.039062 255.042969 281.265625 254.835938 281.472656 C 254.242188 282.066406 253.628906 282.625 253.023438 283.195312 Z M 140.28125 280.789062 C 140.910156 281.300781 141.535156 281.816406 142.175781 282.292969 C 142.347656 282.589844 142.527344 282.886719 142.722656 283.183594 C 142.117188 282.613281 141.511719 282.054688 140.921875 281.472656 C 140.703125 281.246094 140.5 281.015625 140.28125 280.789062 Z M 126.878906 205.53125 C 126.945312 210.777344 127.609375 216.164062 128.90625 221.660156 C 129.011719 222.074219 129.113281 222.484375 129.214844 222.894531 C 128.484375 223.53125 127.789062 224.183594 127.128906 224.84375 C 125.121094 226.851562 123.464844 228.929688 122.1875 231.039062 C 120.742188 225.621094 119.917969 220.121094 119.738281 214.613281 C 121.367188 211.417969 123.773438 208.371094 126.878906 205.53125 Z M 122.429688 196.3125 C 123.992188 193.300781 126.261719 190.449219 129.148438 187.804688 C 127.699219 192.914062 126.933594 198.265625 126.867188 203.773438 C 126.078125 204.460938 125.324219 205.15625 124.617188 205.851562 C 122.632812 207.847656 121.003906 209.878906 119.691406 211.964844 C 119.703125 208.816406 119.929688 205.679688 120.363281 202.566406 C 120.96875 200.445312 121.664062 198.355469 122.429688 196.3125 Z M 134.714844 174.59375 C 134.167969 175.539062 133.640625 176.511719 133.152344 177.492188 C 132.535156 178.027344 131.941406 178.550781 131.382812 179.113281 C 132.445312 177.558594 133.550781 176.042969 134.714844 174.59375 Z M 144.503906 170.066406 C 140.886719 171.902344 137.667969 173.910156 134.898438 176.066406 C 135.777344 174.457031 136.746094 172.882812 137.785156 171.34375 C 140.363281 169.230469 143.351562 167.28125 146.667969 165.535156 C 145.882812 166.972656 145.152344 168.480469 144.503906 170.066406 Z M 161.761719 159.511719 C 161.078125 160.9375 160.460938 162.46875 159.914062 164.074219 C 157.609375 164.75 155.375 165.492188 153.207031 166.289062 C 150.558594 167.28125 148.085938 168.332031 145.757812 169.460938 C 146.476562 167.804688 147.273438 166.242188 148.152344 164.773438 C 152.25 162.742188 156.824219 160.972656 161.761719 159.511719 Z M 155.5 156.035156 C 156.675781 155.304688 157.859375 154.609375 159.070312 153.945312 C 161.773438 152.703125 164.707031 151.597656 167.808594 150.648438 C 165.664062 152.839844 163.828125 155.429688 162.285156 158.429688 C 157.519531 159.808594 153.058594 161.464844 149.03125 163.359375 C 150.890625 160.527344 153.058594 158.074219 155.5 156.035156 Z M 169.210938 149.304688 C 169.007812 149.347656 168.800781 149.40625 168.59375 149.472656 C 168.847656 149.371094 169.097656 149.28125 169.347656 149.1875 C 169.300781 149.222656 169.257812 149.257812 169.210938 149.304688 Z M 183.003906 146.472656 C 178.875 147.011719 174.890625 147.785156 171.117188 148.777344 C 171.140625 148.699219 171.152344 148.605469 171.140625 148.527344 C 175.316406 147.054688 179.636719 145.914062 184.097656 145.152344 C 183.710938 145.550781 183.34375 145.996094 183.003906 146.472656 Z M 224.652344 148.753906 C 220.875 147.761719 216.894531 146.988281 212.753906 146.453125 C 212.421875 145.984375 212.070312 145.550781 211.695312 145.152344 C 216.109375 145.914062 220.441406 147.023438 224.640625 148.492188 C 224.617188 148.585938 224.617188 148.664062 224.652344 148.753906 Z M 226.511719 149.257812 C 226.476562 149.222656 226.433594 149.1875 226.386719 149.144531 C 226.636719 149.246094 226.898438 149.335938 227.152344 149.441406 C 226.945312 149.382812 226.730469 149.316406 226.511719 149.257812 Z M 250.011719 169.4375 C 247.683594 168.320312 245.210938 167.257812 242.574219 166.277344 C 240.394531 165.480469 238.160156 164.738281 235.867188 164.066406 C 235.320312 162.457031 234.691406 160.9375 234.007812 159.492188 C 238.945312 160.960938 243.519531 162.71875 247.605469 164.761719 C 248.496094 166.230469 249.292969 167.796875 250.011719 169.4375 Z M 257.964844 171.308594 C 259.011719 172.847656 259.980469 174.421875 260.859375 176.03125 C 258.089844 173.886719 254.882812 171.878906 251.265625 170.054688 C 250.617188 168.46875 249.886719 166.949219 249.085938 165.511719 C 252.40625 167.269531 255.386719 169.199219 257.964844 171.308594 Z M 262.59375 177.457031 C 262.105469 176.453125 261.566406 175.472656 261.007812 174.492188 C 262.207031 176.007812 263.359375 177.546875 264.441406 179.121094 C 263.847656 178.5625 263.234375 177.992188 262.59375 177.457031 Z M 271.171875 205.851562 C 270.453125 205.144531 269.703125 204.460938 268.914062 203.761719 C 268.835938 198.195312 268.058594 192.800781 266.585938 187.644531 C 269.472656 190.3125 271.742188 193.1875 273.328125 196.234375 C 274.117188 198.332031 274.8125 200.464844 275.417969 202.632812 C 275.851562 205.726562 276.066406 208.828125 276.078125 211.953125 C 274.777344 209.867188 273.148438 207.835938 271.171875 205.851562 Z M 268.390625 224.84375 C 267.796875 224.238281 267.15625 223.660156 266.507812 223.089844 C 266.632812 222.609375 266.757812 222.128906 266.859375 221.660156 C 268.171875 216.164062 268.835938 210.777344 268.890625 205.542969 C 269.347656 205.953125 269.792969 206.375 270.214844 206.808594 C 272.734375 209.320312 274.675781 211.929688 276.042969 214.601562 C 275.863281 220.203125 275.007812 225.8125 273.5 231.335938 C 272.199219 229.109375 270.488281 226.945312 268.390625 224.84375 Z M 270.179688 240.988281 C 268.949219 238.910156 267.339844 236.902344 265.390625 234.941406 C 264.726562 234.289062 264.042969 233.664062 263.324219 233.023438 C 264.464844 230.046875 265.457031 227.058594 266.269531 224.058594 C 266.769531 224.523438 267.273438 224.992188 267.761719 225.472656 C 270.054688 227.765625 271.859375 230.136719 273.167969 232.554688 C 272.347656 235.398438 271.34375 238.214844 270.179688 240.988281 Z M 275.734375 244.113281 C 274.972656 246.164062 274.140625 248.128906 273.238281 250.019531 C 272.976562 247.273438 272.144531 244.578125 270.726562 241.957031 C 271.902344 239.242188 272.917969 236.503906 273.761719 233.71875 C 275.121094 236.582031 275.804688 239.527344 275.804688 242.527344 C 275.804688 243.050781 275.78125 243.585938 275.734375 244.113281 Z M 273.316406 251.882812 C 273.726562 251.082031 274.117188 250.261719 274.503906 249.429688 C 274.117188 250.601562 273.71875 251.753906 273.285156 252.917969 C 273.304688 252.566406 273.316406 252.234375 273.316406 251.882812 Z M 238.226562 289.707031 C 238.773438 288.40625 239.058594 287.085938 239.105469 285.714844 C 244.34375 282.988281 249.785156 279.488281 254.953125 275.074219 C 254.804688 277.320312 254.097656 279.542969 252.886719 281.699219 C 248.347656 285.042969 243.328125 287.691406 238.226562 289.707031 Z M 230.414062 298.21875 C 230.34375 298.242188 230.277344 298.277344 230.207031 298.289062 C 231.382812 297.535156 232.46875 296.757812 233.4375 295.925781 C 235.089844 295.433594 236.734375 294.84375 238.332031 294.191406 C 235.761719 295.675781 233.128906 297.019531 230.414062 298.21875 Z M 162.242188 295.890625 C 163.175781 296.714844 164.226562 297.488281 165.367188 298.21875 C 165.34375 298.21875 165.320312 298.207031 165.296875 298.195312 C 162.605469 297.007812 159.960938 295.664062 157.40625 294.167969 C 158.980469 294.820312 160.597656 295.402344 162.242188 295.890625 Z M 140.816406 275.074219 C 145.984375 279.476562 151.425781 282.976562 156.664062 285.703125 C 156.695312 287.0625 156.980469 288.398438 157.519531 289.695312 C 152.429688 287.667969 147.410156 285.03125 142.871094 281.6875 C 141.660156 279.53125 140.953125 277.308594 140.816406 275.074219 Z M 122.441406 251.847656 C 122.441406 252.199219 122.460938 252.542969 122.472656 252.90625 C 122.03125 251.722656 121.617188 250.535156 121.230469 249.335938 C 121.617188 250.191406 122.019531 251.035156 122.441406 251.847656 Z M 132.445312 233.011719 C 131.726562 233.652344 131.03125 234.277344 130.378906 234.941406 C 128.417969 236.890625 126.832031 238.910156 125.601562 240.964844 C 124.390625 238.101562 123.363281 235.191406 122.519531 232.25 C 124.175781 229.292969 126.523438 226.488281 129.46875 223.863281 C 130.277344 226.921875 131.28125 229.976562 132.445312 233.011719 Z M 142.164062 215.46875 C 142.800781 218.671875 143.578125 221.902344 144.492188 225.117188 C 140.191406 227.273438 136.378906 229.714844 133.175781 232.398438 C 132.011719 229.339844 131.019531 226.269531 130.21875 223.214844 C 133.539062 220.371094 137.554688 217.785156 142.164062 215.46875 Z M 141.683594 179.292969 C 140.75 183.605469 140.191406 188.261719 140.085938 193.246094 C 140.066406 193.871094 140.078125 194.5 140.078125 195.128906 C 135.410156 197.453125 131.269531 200.089844 127.789062 202.988281 C 127.9375 197.328125 128.816406 191.863281 130.4375 186.652344 C 133.597656 183.972656 137.382812 181.507812 141.683594 179.292969 Z M 141.945312 178.085938 C 137.761719 180.207031 134.0625 182.546875 130.9375 185.054688 C 131.769531 182.648438 132.753906 180.296875 133.894531 178.003906 C 136.769531 175.539062 140.191406 173.28125 144.058594 171.25 C 143.234375 173.40625 142.515625 175.6875 141.945312 178.085938 Z M 157.871094 171.902344 C 154.597656 172.859375 151.449219 173.945312 148.484375 175.128906 C 146.578125 175.90625 144.753906 176.714844 143.007812 177.558594 C 143.625 175.128906 144.367188 172.804688 145.242188 170.636719 C 149.53125 168.480469 154.359375 166.609375 159.570312 165.058594 C 158.898438 167.191406 158.316406 169.472656 157.871094 171.902344 Z M 177.894531 161.144531 C 177.539062 163.289062 177.242188 165.535156 177.027344 167.851562 C 170.671875 168.730469 164.558594 169.984375 158.832031 171.617188 C 159.308594 169.164062 159.902344 166.882812 160.621094 164.75 C 166.003906 163.199219 171.800781 161.988281 177.894531 161.144531 Z M 178.988281 155.851562 C 178.632812 157.242188 178.324219 158.703125 178.039062 160.242188 C 172.097656 161.054688 166.359375 162.226562 160.964844 163.757812 C 161.546875 162.136719 162.183594 160.609375 162.902344 159.171875 C 167.933594 157.746094 173.339844 156.625 178.988281 155.851562 Z M 197.433594 153.695312 C 191.511719 153.707031 185.707031 154.082031 180.152344 154.789062 C 181.03125 151.765625 182.136719 149.222656 183.460938 147.316406 C 187.988281 146.726562 192.664062 146.417969 197.433594 146.394531 Z M 215.628906 154.789062 C 210.0625 154.082031 204.253906 153.707031 198.324219 153.695312 L 198.324219 146.394531 C 203.113281 146.40625 207.792969 146.714844 212.285156 147.285156 C 213.632812 149.199219 214.726562 151.746094 215.628906 154.789062 Z M 217.726562 160.230469 C 217.453125 158.703125 217.144531 157.230469 216.78125 155.839844 C 222.441406 156.617188 227.835938 157.734375 232.867188 159.160156 C 233.585938 160.597656 234.234375 162.136719 234.816406 163.757812 C 229.410156 162.214844 223.683594 161.042969 217.726562 160.230469 Z M 236.9375 171.582031 C 231.257812 169.972656 225.15625 168.707031 218.753906 167.828125 C 218.527344 165.511719 218.242188 163.277344 217.875 161.144531 C 223.980469 161.976562 229.773438 163.199219 235.160156 164.738281 C 235.867188 166.871094 236.460938 169.140625 236.9375 171.582031 Z M 252.761719 177.503906 C 248.277344 175.335938 243.292969 173.441406 237.898438 171.867188 C 237.441406 169.4375 236.882812 167.179688 236.195312 165.046875 C 241.421875 166.609375 246.234375 168.46875 250.523438 170.613281 C 251.402344 172.78125 252.144531 175.085938 252.761719 177.503906 Z M 253.820312 178.015625 C 253.238281 175.632812 252.53125 173.375 251.710938 171.238281 C 255.578125 173.257812 258.988281 175.519531 261.863281 177.980469 C 262.992188 180.242188 263.984375 182.578125 264.808594 184.964844 C 261.660156 182.441406 257.964844 180.105469 253.820312 178.015625 Z M 255.703125 195.117188 C 255.703125 194.5 255.703125 193.871094 255.691406 193.246094 C 255.578125 188.203125 255.019531 183.480469 254.0625 179.121094 C 258.351562 181.324219 262.136719 183.800781 265.285156 186.492188 C 266.929688 191.761719 267.84375 197.273438 267.992188 202.976562 C 264.5 200.089844 260.371094 197.453125 255.703125 195.117188 Z M 251.277344 225.117188 C 252.191406 221.9375 252.953125 218.753906 253.582031 215.59375 C 258.203125 217.933594 262.207031 220.542969 265.503906 223.394531 C 264.714844 226.394531 263.746094 229.417969 262.605469 232.40625 C 259.390625 229.714844 255.578125 227.285156 251.277344 225.117188 Z M 258.726562 241.261719 C 255.738281 238.761719 252.203125 236.492188 248.210938 234.484375 C 249.257812 231.667969 250.195312 228.835938 251.027344 225.984375 C 255.316406 228.152344 259.09375 230.59375 262.261719 233.285156 C 261.214844 235.96875 260.039062 238.625 258.726562 241.261719 Z M 265.972656 249.53125 C 264.796875 247.523438 263.257812 245.5625 261.351562 243.644531 C 260.746094 243.039062 260.085938 242.445312 259.421875 241.863281 C 260.746094 239.242188 261.921875 236.582031 262.980469 233.914062 C 263.585938 234.460938 264.191406 235.007812 264.75 235.566406 C 266.839844 237.667969 268.492188 239.8125 269.734375 242.023438 C 268.617188 244.558594 267.375 247.066406 265.972656 249.53125 Z M 219.53125 291.921875 C 219.460938 291.25 219.28125 290.574219 218.984375 289.914062 C 225.460938 287.414062 231.519531 284.371094 237.097656 280.8125 C 237.804688 282.226562 238.171875 283.683594 238.203125 285.179688 C 231.199219 288.773438 224.585938 290.941406 219.53125 291.921875 Z M 219.199219 294.578125 C 219.40625 294.019531 219.519531 293.425781 219.554688 292.835938 C 224.585938 291.851562 231.167969 289.730469 238.183594 286.183594 C 238.078125 287.53125 237.703125 288.863281 237.0625 290.152344 C 230.914062 292.46875 224.734375 293.917969 219.199219 294.578125 Z M 214.660156 299.644531 C 215.445312 299.152344 216.152344 298.617188 216.769531 298.058594 C 221.378906 298.367188 226.375 297.808594 231.304688 296.53125 C 229.957031 297.511719 228.429688 298.433594 226.773438 299.269531 C 222.964844 300.191406 219.894531 300.214844 214.660156 299.644531 Z M 187.042969 302.1875 C 190.269531 303.125 193.988281 303.660156 197.878906 303.660156 C 199.808594 303.660156 201.667969 303.535156 203.433594 303.304688 C 204.027344 303.886719 204.644531 304.367188 205.269531 304.722656 C 202.828125 304.9375 200.367188 305.0625 197.878906 305.0625 C 192.425781 305.0625 187.054688 304.515625 181.816406 303.464844 C 183.640625 303.304688 185.332031 302.882812 187.042969 302.1875 Z M 179.035156 298.058594 C 179.648438 298.617188 180.355469 299.152344 181.144531 299.644531 C 175.875 300.214844 172.804688 300.191406 168.972656 299.257812 C 167.316406 298.425781 165.800781 297.511719 164.453125 296.519531 C 169.394531 297.808594 174.414062 298.367188 179.035156 298.058594 Z M 176.214844 292.835938 C 176.25 293.417969 176.363281 294.007812 176.570312 294.578125 C 171.035156 293.90625 164.84375 292.46875 158.695312 290.140625 C 158.054688 288.851562 157.679688 287.53125 157.585938 286.183594 C 164.589844 289.71875 171.171875 291.851562 176.214844 292.835938 Z M 158.660156 280.789062 C 164.25 284.371094 170.304688 287.414062 176.785156 289.902344 C 176.476562 290.5625 176.296875 291.238281 176.226562 291.921875 C 171.171875 290.929688 164.570312 288.761719 157.554688 285.167969 C 157.585938 283.664062 157.976562 282.203125 158.660156 280.789062 Z M 129.296875 250.421875 C 127.984375 252.882812 127.21875 255.417969 127.015625 258.019531 C 125.703125 255.988281 124.46875 253.886719 123.339844 251.652344 C 123.375 248.6875 124.117188 245.800781 125.496094 243.027344 C 126.625 245.539062 127.894531 248.003906 129.296875 250.421875 Z M 136.355469 241.855469 C 135.671875 242.445312 135.023438 243.039062 134.40625 243.644531 C 132.511719 245.550781 130.972656 247.511719 129.796875 249.519531 C 128.40625 247.054688 127.152344 244.558594 126.042969 242.023438 C 127.640625 239.160156 129.921875 236.445312 132.785156 233.914062 C 133.847656 236.570312 135.035156 239.230469 136.355469 241.855469 Z M 147.570312 234.472656 C 143.566406 236.480469 140.03125 238.75 137.042969 241.25 C 135.730469 238.625 134.554688 235.957031 133.503906 233.285156 C 136.640625 230.640625 140.429688 228.199219 144.753906 226.019531 C 145.585938 228.847656 146.523438 231.679688 147.570312 234.472656 Z M 160.277344 220.03125 C 160.894531 222.917969 161.589844 225.835938 162.367188 228.769531 C 157.277344 230.242188 152.589844 232.019531 148.371094 234.074219 C 147.332031 231.265625 146.394531 228.449219 145.5625 225.621094 C 149.964844 223.476562 154.917969 221.59375 160.277344 220.03125 Z M 158.269531 209.238281 C 158.773438 212.480469 159.367188 215.777344 160.074219 219.117188 C 154.722656 220.667969 149.761719 222.539062 145.3125 224.71875 C 144.398438 221.492188 143.625 218.261719 142.984375 215.058594 C 147.570312 212.820312 152.703125 210.859375 158.269531 209.238281 Z M 156.550781 190.199219 C 156.664062 195.902344 157.199219 201.984375 158.132812 208.316406 C 152.578125 209.921875 147.433594 211.863281 142.800781 214.121094 C 141.640625 208.007812 141.023438 201.984375 140.953125 196.199219 C 145.621094 193.894531 150.855469 191.886719 156.550781 190.199219 Z M 156.855469 179.417969 C 156.59375 182.398438 156.492188 185.535156 156.515625 188.785156 C 150.902344 190.429688 145.675781 192.414062 140.964844 194.683594 C 140.964844 194.214844 140.964844 193.734375 140.976562 193.269531 C 141.089844 188.078125 141.683594 183.21875 142.710938 178.769531 C 147.21875 176.542969 152.238281 174.582031 157.691406 172.941406 C 157.335938 175.003906 157.050781 177.148438 156.855469 179.417969 Z M 176.351562 184.632812 C 169.691406 185.535156 163.335938 186.847656 157.40625 188.523438 C 157.382812 185.429688 157.496094 182.410156 157.746094 179.488281 C 157.953125 177.105469 158.261719 174.820312 158.636719 172.675781 C 164.351562 171 170.5 169.6875 176.933594 168.789062 C 176.488281 173.898438 176.316406 179.328125 176.351562 184.632812 Z M 197.433594 167.328125 L 197.433594 183.21875 C 190.453125 183.242188 183.628906 183.699219 177.082031 184.542969 C 177.070312 178.882812 177.277344 173.53125 177.722656 168.671875 C 184.0625 167.828125 190.667969 167.363281 197.433594 167.328125 Z M 197.433594 159.808594 L 197.433594 166.4375 C 190.785156 166.460938 184.191406 166.90625 177.8125 167.738281 C 178.050781 165.386719 178.347656 163.128906 178.726562 161.042969 C 184.714844 160.253906 190.988281 159.832031 197.433594 159.808594 Z M 197.433594 158.910156 C 191.089844 158.929688 184.886719 159.34375 178.886719 160.117188 C 179.183594 158.578125 179.511719 157.105469 179.878906 155.738281 C 185.523438 154.996094 191.410156 154.609375 197.433594 154.585938 Z M 198.324219 158.910156 L 198.324219 154.585938 C 204.359375 154.609375 210.246094 154.996094 215.890625 155.726562 C 216.269531 157.09375 216.585938 158.566406 216.882812 160.117188 C 210.882812 159.34375 204.667969 158.929688 198.324219 158.910156 Z M 198.324219 166.4375 L 198.324219 159.808594 C 204.78125 159.820312 211.054688 160.242188 217.054688 161.03125 C 217.421875 163.128906 217.714844 165.363281 217.957031 167.714844 C 211.671875 166.894531 205.078125 166.460938 198.324219 166.4375 Z M 218.6875 184.542969 C 212.148438 183.6875 205.316406 183.230469 198.324219 183.21875 L 198.324219 167.328125 C 205.121094 167.351562 211.726562 167.804688 218.046875 168.628906 C 218.503906 173.5 218.710938 178.871094 218.6875 184.542969 Z M 238.035156 179.488281 C 238.285156 182.410156 238.386719 185.429688 238.363281 188.523438 C 232.445312 186.847656 226.089844 185.535156 219.429688 184.632812 C 219.449219 179.304688 219.289062 173.863281 218.835938 168.730469 C 225.292969 169.621094 231.417969 170.910156 237.109375 172.539062 C 237.507812 174.742188 237.816406 177.058594 238.035156 179.488281 Z M 239.253906 188.785156 C 239.289062 185.535156 239.175781 182.398438 238.921875 179.417969 C 238.71875 177.113281 238.433594 174.925781 238.066406 172.8125 C 243.519531 174.433594 248.539062 176.375 253.035156 178.597656 C 254.074219 183.105469 254.675781 188.007812 254.804688 193.269531 C 254.8125 193.734375 254.804688 194.214844 254.8125 194.683594 C 250.101562 192.402344 244.878906 190.429688 239.253906 188.785156 Z M 237.625 208.394531 C 238.582031 202.019531 239.117188 195.902344 239.230469 190.152344 C 244.890625 191.832031 250.125 193.851562 254.8125 196.175781 C 254.757812 201.996094 254.117188 208.074219 252.953125 214.234375 C 248.335938 211.964844 243.179688 210.015625 237.625 208.394531 Z M 235.695312 219.128906 C 236.402344 215.808594 236.984375 212.546875 237.484375 209.339844 C 238.160156 209.535156 238.84375 209.71875 239.515625 209.921875 C 244.332031 211.441406 248.757812 213.199219 252.761719 215.171875 C 252.132812 218.34375 251.371094 221.535156 250.46875 224.71875 C 246.007812 222.550781 241.058594 220.667969 235.695312 219.128906 Z M 233.414062 228.769531 C 234.1875 225.824219 234.886719 222.894531 235.5 219.996094 C 240.851562 221.535156 245.789062 223.417969 250.21875 225.585938 C 249.382812 228.425781 248.449219 231.265625 247.410156 234.085938 C 243.191406 232.03125 238.488281 230.242188 233.414062 228.769531 Z M 244.375 241.566406 C 242.574219 245.628906 240.589844 249.554688 238.421875 253.328125 C 235 251.652344 231.1875 250.203125 227.070312 249.007812 C 228.292969 245.710938 229.457031 242.308594 230.539062 238.84375 C 231.496094 235.75 232.386719 232.683594 233.195312 229.648438 C 238.238281 231.097656 242.90625 232.863281 247.101562 234.917969 C 246.246094 237.152344 245.359375 239.378906 244.375 241.566406 Z M 247.523438 259.101562 C 245.152344 257.128906 242.355469 255.324219 239.21875 253.730469 C 241.386719 249.941406 243.382812 246.007812 245.199219 241.933594 C 246.167969 239.742188 247.070312 237.542969 247.902344 235.316406 C 251.859375 237.324219 255.363281 239.582031 258.304688 242.070312 C 255.328125 247.921875 251.710938 253.636719 247.523438 259.101562 Z M 249.75 261.121094 C 249.257812 260.628906 248.734375 260.152344 248.199219 259.683594 C 252.382812 254.230469 256.011719 248.527344 259 242.675781 C 259.59375 243.210938 260.175781 243.734375 260.710938 244.285156 C 262.707031 246.28125 264.28125 248.320312 265.445312 250.421875 C 265.136719 250.957031 264.832031 251.492188 264.511719 252.019531 C 261.375 257.09375 257.722656 261.804688 253.628906 266.117188 C 252.648438 264.394531 251.359375 262.742188 249.75 261.121094 Z M 234.738281 276.089844 C 234.429688 275.792969 234.097656 275.496094 233.765625 275.210938 C 238.660156 270.863281 243.292969 265.945312 247.480469 260.628906 C 247.535156 260.550781 247.59375 260.460938 247.652344 260.390625 C 248.164062 260.835938 248.65625 261.292969 249.109375 261.75 C 250.742188 263.378906 252.019531 265.066406 252.976562 266.789062 C 248.359375 271.546875 243.144531 275.800781 237.429688 279.523438 C 236.746094 278.347656 235.84375 277.207031 234.738281 276.089844 Z M 217.179688 287.371094 C 217.113281 287.300781 217.054688 287.257812 216.988281 287.199219 C 222.472656 284.199219 227.914062 280.320312 233.09375 275.800781 C 233.449219 276.097656 233.789062 276.40625 234.109375 276.726562 C 235.171875 277.800781 236.027344 278.894531 236.6875 280.011719 C 231.097656 283.582031 225.039062 286.628906 218.5625 289.117188 C 218.195312 288.511719 217.738281 287.929688 217.179688 287.371094 Z M 162.652344 275.78125 C 167.84375 280.308594 173.296875 284.1875 178.78125 287.1875 C 178.714844 287.257812 178.644531 287.300781 178.589844 287.371094 C 178.03125 287.929688 177.574219 288.511719 177.195312 289.117188 C 170.71875 286.628906 164.671875 283.570312 159.082031 280.011719 C 159.949219 278.519531 161.15625 277.101562 162.652344 275.78125 Z M 148.105469 260.378906 C 148.175781 260.460938 148.234375 260.550781 148.300781 260.628906 C 152.476562 265.945312 157.109375 270.863281 162 275.199219 C 161.671875 275.496094 161.339844 275.792969 161.019531 276.089844 C 159.914062 277.195312 159.011719 278.347656 158.328125 279.523438 C 152.625 275.800781 147.410156 271.535156 142.792969 266.789062 C 144.035156 264.53125 145.835938 262.375 148.105469 260.378906 Z M 147.570312 259.671875 C 147.035156 260.140625 146.511719 260.628906 146.019531 261.121094 C 144.398438 262.730469 143.121094 264.394531 142.140625 266.09375 C 138.035156 261.792969 134.394531 257.09375 131.269531 252.019531 C 130.9375 251.492188 130.640625 250.957031 130.324219 250.421875 C 131.839844 247.683594 134.019531 245.09375 136.769531 242.675781 C 139.769531 248.515625 143.382812 254.21875 147.570312 259.671875 Z M 150.582031 241.933594 C 152.386719 245.996094 154.382812 249.929688 156.550781 253.71875 C 153.410156 255.324219 150.617188 257.128906 148.253906 259.089844 C 144.070312 253.636719 140.441406 247.921875 137.464844 242.070312 C 140.382812 239.617188 143.886719 237.359375 147.878906 235.351562 C 148.722656 237.5625 149.625 239.753906 150.582031 241.933594 Z M 165.242188 238.84375 C 166.324219 242.308594 167.488281 245.710938 168.699219 249.007812 C 164.578125 250.191406 160.769531 251.652344 157.347656 253.328125 C 155.191406 249.554688 153.195312 245.628906 151.394531 241.566406 C 150.421875 239.390625 149.53125 237.175781 148.6875 234.941406 C 152.851562 232.921875 157.519531 231.140625 162.59375 229.679688 C 163.40625 232.703125 164.273438 235.773438 165.242188 238.84375 Z M 179.375 226.179688 C 180.277344 233.082031 181.328125 239.8125 182.488281 246.121094 C 177.984375 246.734375 173.683594 247.613281 169.65625 248.730469 C 167.386719 242.617188 165.296875 236.105469 163.519531 229.417969 C 168.457031 228.027344 173.773438 226.945312 179.375 226.179688 Z M 178.210938 216.300781 C 178.519531 219.300781 178.875 222.3125 179.25 225.277344 C 173.648438 226.03125 168.289062 227.113281 163.28125 228.519531 C 162.515625 225.632812 161.820312 222.710938 161.191406 219.78125 C 166.484375 218.296875 172.199219 217.109375 178.210938 216.300781 Z M 177.207031 205.28125 C 177.367188 207.367188 177.527344 209.285156 177.6875 210.972656 C 177.8125 212.445312 177.960938 213.925781 178.121094 215.398438 C 172.097656 216.199219 166.347656 217.371094 160.988281 218.867188 C 160.289062 215.570312 159.675781 212.273438 159.171875 208.976562 C 164.785156 207.390625 170.84375 206.148438 177.207031 205.28125 Z M 177.152344 204.390625 C 170.785156 205.234375 164.707031 206.46875 159.035156 208.0625 C 158.101562 201.902344 157.53125 195.800781 157.425781 189.9375 C 163.300781 188.25 169.65625 186.914062 176.363281 186 C 176.421875 192.628906 176.761719 199.039062 177.152344 204.390625 Z M 197.433594 203.035156 C 190.726562 203.042969 184.167969 203.476562 177.871094 204.289062 C 177.414062 197.980469 177.140625 191.785156 177.09375 185.898438 C 183.585938 185.03125 190.40625 184.585938 197.433594 184.5625 Z M 217.898438 204.324219 C 211.613281 203.5 205.042969 203.054688 198.324219 203.035156 L 198.324219 184.5625 C 205.316406 184.574219 212.148438 185.03125 218.6875 185.886719 C 218.640625 191.785156 218.367188 197.992188 217.898438 204.324219 Z M 218.628906 204.414062 C 219.015625 199.050781 219.347656 192.640625 219.417969 185.980469 C 226.078125 186.878906 232.433594 188.203125 238.351562 189.902344 C 238.238281 195.789062 237.667969 201.9375 236.734375 208.132812 C 231.074219 206.523438 224.996094 205.269531 218.628906 204.414062 Z M 217.660156 215.398438 C 217.808594 213.925781 217.957031 212.445312 218.09375 210.972656 C 218.242188 209.296875 218.402344 207.402344 218.5625 205.328125 C 224.847656 206.183594 230.902344 207.449219 236.597656 209.078125 C 236.082031 212.34375 235.476562 215.605469 234.78125 218.867188 C 229.421875 217.371094 223.671875 216.199219 217.660156 215.398438 Z M 216.519531 225.277344 C 216.894531 222.300781 217.25 219.300781 217.570312 216.277344 C 223.546875 217.085938 229.273438 218.238281 234.601562 219.734375 C 233.960938 222.6875 233.265625 225.621094 232.5 228.519531 C 227.480469 227.113281 222.132812 226.03125 216.519531 225.277344 Z M 213.277344 246.121094 C 214.441406 239.800781 215.503906 233.070312 216.40625 226.167969 C 221.972656 226.921875 227.300781 227.992188 232.273438 229.386719 C 230.480469 236.082031 228.382812 242.617188 226.125 248.742188 C 222.097656 247.613281 217.785156 246.734375 213.277344 246.121094 Z M 218.09375 267.328125 C 215.253906 266.539062 212.21875 265.902344 209.046875 265.457031 C 210.484375 260.027344 211.863281 253.761719 213.132812 247 C 217.578125 247.601562 221.835938 248.46875 225.816406 249.578125 C 223.386719 256.078125 220.75 262.089844 218.09375 267.328125 Z M 226.570312 270.507812 C 224.277344 269.390625 221.753906 268.421875 219.027344 267.601562 C 221.722656 262.308594 224.34375 256.296875 226.761719 249.839844 C 230.835938 251.015625 234.613281 252.453125 237.988281 254.105469 C 234.589844 259.96875 230.753906 265.457031 226.570312 270.507812 Z M 227.378906 270.921875 C 231.554688 265.867188 235.386719 260.367188 238.785156 254.503906 C 241.890625 256.078125 244.640625 257.871094 246.976562 259.808594 C 246.910156 259.902344 246.839844 259.980469 246.773438 260.070312 C 242.597656 265.386719 237.964844 270.292969 233.09375 274.617188 C 231.453125 273.257812 229.535156 272.015625 227.378906 270.921875 Z M 218.617188 268.410156 C 221.277344 269.199219 223.75 270.121094 225.976562 271.195312 C 221.902344 276.03125 217.488281 280.457031 212.789062 284.371094 C 211.714844 283.855469 210.542969 283.390625 209.285156 283 C 212.332031 279.417969 215.515625 274.398438 218.617188 268.410156 Z M 208.820312 266.335938 C 211.921875 266.757812 214.898438 267.371094 217.683594 268.148438 C 214.523438 274.273438 211.328125 279.28125 208.351562 282.726562 C 206.789062 282.292969 205.121094 281.953125 203.390625 281.722656 C 205.179688 278.265625 207.027344 272.9375 208.820312 266.335938 Z M 198.324219 265.605469 C 201.644531 265.617188 204.882812 265.832031 207.996094 266.21875 C 206.183594 272.835938 204.289062 278.164062 202.429688 281.609375 C 201.105469 281.460938 199.726562 281.382812 198.324219 281.371094 Z M 193.339844 281.609375 C 191.480469 278.164062 189.585938 272.835938 187.78125 266.21875 C 190.863281 265.820312 194.101562 265.617188 197.433594 265.59375 L 197.433594 281.371094 C 196.042969 281.382812 194.660156 281.460938 193.339844 281.609375 Z M 187.429688 282.726562 C 184.453125 279.28125 181.257812 274.273438 178.097656 268.148438 C 180.871094 267.382812 183.835938 266.769531 186.960938 266.335938 C 188.742188 272.949219 190.589844 278.265625 192.390625 281.722656 C 190.644531 281.941406 188.980469 282.28125 187.429688 282.726562 Z M 182.992188 284.371094 C 178.292969 280.457031 173.878906 276.03125 169.792969 271.207031 C 172.027344 270.144531 174.492188 269.210938 177.164062 268.410156 C 180.265625 274.398438 183.449219 279.417969 186.484375 282.988281 C 185.226562 283.390625 184.054688 283.84375 182.992188 284.371094 Z M 168.390625 270.910156 C 166.246094 272.015625 164.316406 273.257812 162.675781 274.605469 C 157.804688 270.28125 153.171875 265.386719 149.007812 260.070312 C 148.929688 259.980469 148.859375 259.890625 148.792969 259.796875 C 151.109375 257.882812 153.867188 256.113281 156.992188 254.527344 C 160.394531 260.378906 164.214844 265.867188 168.390625 270.910156 Z M 176.742188 267.601562 C 174.027344 268.410156 171.492188 269.378906 169.210938 270.5 C 165.023438 265.457031 161.203125 259.980469 157.804688 254.128906 C 161.15625 252.484375 164.933594 251.058594 169.015625 249.875 C 171.4375 256.308594 174.058594 262.320312 176.742188 267.601562 Z M 186.722656 265.457031 C 183.550781 265.902344 180.527344 266.539062 177.6875 267.328125 C 175.027344 262.089844 172.40625 256.078125 169.976562 249.589844 C 173.933594 248.492188 178.179688 247.625 182.648438 247.011719 C 183.914062 253.761719 185.296875 260.027344 186.722656 265.457031 Z M 197.433594 245.996094 L 197.433594 264.703125 C 194.035156 264.726562 190.726562 264.953125 187.542969 265.351562 C 186.09375 259.921875 184.691406 253.660156 183.414062 246.90625 C 187.898438 246.324219 192.597656 246.015625 197.433594 245.996094 Z M 197.433594 224.949219 L 197.433594 245.105469 C 192.5625 245.117188 187.804688 245.433594 183.253906 246.015625 C 182.066406 239.699219 181.007812 232.957031 180.105469 226.078125 C 185.648438 225.359375 191.457031 224.96875 197.433594 224.949219 Z M 197.433594 214.988281 L 197.433594 224.058594 C 191.445312 224.070312 185.605469 224.457031 179.992188 225.175781 C 179.605469 222.210938 179.25 219.210938 178.929688 216.1875 C 184.851562 215.433594 191.046875 215.011719 197.433594 214.988281 Z M 197.433594 214.097656 C 191.058594 214.109375 184.816406 214.519531 178.839844 215.296875 C 178.496094 211.917969 178.1875 208.53125 177.9375 205.1875 C 184.167969 204.378906 190.703125 203.945312 197.433594 203.921875 Z M 198.324219 214.097656 L 198.324219 203.933594 C 204.964844 203.957031 211.511719 204.414062 217.832031 205.234375 C 217.589844 208.566406 217.285156 211.929688 216.929688 215.296875 C 210.953125 214.519531 204.710938 214.109375 198.324219 214.097656 Z M 198.324219 224.058594 L 198.324219 214.988281 C 204.6875 215.011719 210.894531 215.410156 216.851562 216.175781 C 216.53125 219.199219 216.175781 222.210938 215.789062 225.1875 C 210.175781 224.457031 204.324219 224.070312 198.324219 224.058594 Z M 198.324219 245.105469 L 198.324219 224.949219 C 204.277344 224.957031 210.097656 225.347656 215.675781 226.066406 C 214.773438 232.957031 213.703125 239.699219 212.527344 246.027344 C 207.964844 245.433594 203.195312 245.117188 198.324219 245.105469 Z M 198.324219 245.996094 C 203.148438 246.015625 207.847656 246.3125 212.367188 246.894531 C 211.089844 253.660156 209.6875 259.921875 208.226562 265.363281 C 205.042969 264.953125 201.722656 264.726562 198.324219 264.703125 Z M 179.476562 286.558594 C 174.003906 283.582031 168.527344 279.726562 163.335938 275.1875 C 164.933594 273.898438 166.828125 272.699219 168.972656 271.617188 C 173.042969 276.453125 177.449219 280.867188 182.125 284.816406 C 181.144531 285.339844 180.253906 285.921875 179.476562 286.558594 Z M 213.644531 284.816406 C 218.332031 280.878906 222.734375 276.453125 226.796875 271.617188 C 228.917969 272.699219 230.800781 273.898438 232.410156 275.222656 C 227.21875 279.738281 221.765625 283.59375 216.289062 286.570312 C 215.515625 285.933594 214.636719 285.351562 213.644531 284.816406 Z M 207.175781 304.515625 C 206.273438 304.308594 205.40625 303.84375 204.574219 303.136719 C 206.046875 302.894531 207.4375 302.578125 208.75 302.199219 C 210.460938 302.882812 212.136719 303.304688 213.941406 303.464844 C 211.714844 303.910156 209.445312 304.253906 207.175781 304.515625 Z M 216.222656 296.703125 C 212.824219 300.113281 205.613281 302.3125 197.878906 302.3125 C 190.144531 302.3125 182.945312 300.113281 179.535156 296.703125 C 178.210938 295.378906 177.539062 293.964844 177.539062 292.515625 C 177.539062 287.097656 186.664062 282.691406 197.878906 282.691406 C 205.613281 282.691406 212.824219 284.90625 216.222656 288.316406 C 217.558594 289.640625 218.230469 291.054688 218.230469 292.515625 C 218.230469 293.964844 217.558594 295.378906 216.222656 296.703125 Z M 127.835938 259.308594 C 127.882812 256.570312 128.578125 253.910156 129.84375 251.34375 C 130.058594 251.734375 130.277344 252.109375 130.515625 252.496094 C 133.722656 257.699219 137.476562 262.523438 141.695312 266.9375 C 140.679688 268.945312 140.097656 271.011719 139.949219 273.121094 C 135.582031 269.210938 131.441406 264.632812 127.835938 259.308594 Z M 140.792969 273.875 C 140.851562 271.71875 141.386719 269.632812 142.359375 267.625 C 147 272.347656 152.203125 276.601562 157.90625 280.308594 C 157.1875 281.746094 156.789062 283.21875 156.6875 284.722656 C 151.414062 281.941406 145.960938 278.371094 140.792969 273.875 Z M 161.660156 294.144531 C 160.746094 293.246094 160.003906 292.308594 159.402344 291.363281 C 165.480469 293.5625 171.574219 294.921875 177.003906 295.539062 C 177.3125 296.121094 177.699219 296.667969 178.179688 297.214844 C 173.25 297.433594 167.886719 296.667969 162.699219 295.117188 C 162.34375 294.796875 161.980469 294.476562 161.660156 294.144531 Z M 174.777344 301.710938 C 173.910156 301.414062 173.054688 301.09375 172.234375 300.761719 C 175.097656 301.082031 178.050781 300.898438 182.476562 300.386719 C 183.460938 300.898438 184.519531 301.355469 185.671875 301.742188 C 183.242188 302.566406 180.8125 302.816406 177.847656 302.542969 C 177.835938 302.542969 177.8125 302.542969 177.8125 302.542969 C 176.796875 302.292969 175.78125 302.007812 174.777344 301.710938 Z M 220.980469 301.710938 C 219.976562 302.007812 218.972656 302.28125 217.957031 302.542969 C 217.945312 302.542969 217.945312 302.542969 217.933594 302.542969 C 214.96875 302.816406 212.558594 302.566406 210.140625 301.753906 C 211.292969 301.355469 212.367188 300.898438 213.335938 300.398438 C 217.726562 300.898438 220.671875 301.082031 223.523438 300.761719 C 222.703125 301.09375 221.847656 301.414062 220.980469 301.710938 Z M 233.058594 295.117188 C 227.871094 296.667969 222.519531 297.433594 217.613281 297.214844 C 218.082031 296.667969 218.46875 296.121094 218.789062 295.539062 C 224.195312 294.921875 230.289062 293.574219 236.367188 291.375 C 235.753906 292.308594 235.011719 293.246094 234.109375 294.144531 C 233.777344 294.476562 233.414062 294.796875 233.058594 295.117188 Z M 239.070312 284.734375 C 238.980469 283.21875 238.570312 281.757812 237.851562 280.308594 C 243.566406 276.601562 248.769531 272.359375 253.410156 267.625 C 254.402344 269.652344 254.917969 271.753906 254.960938 273.886719 C 249.796875 278.371094 244.34375 281.953125 239.070312 284.734375 Z M 255.816406 273.132812 C 255.671875 271.023438 255.089844 268.957031 254.0625 266.949219 C 258.304688 262.523438 262.058594 257.699219 265.265625 252.496094 C 265.492188 252.109375 265.707031 251.734375 265.9375 251.34375 C 267.214844 253.933594 267.886719 256.605469 267.921875 259.328125 C 264.316406 264.644531 260.1875 269.21875 255.816406 273.132812 Z M 268.753906 258.039062 C 268.539062 255.441406 267.773438 252.90625 266.484375 250.433594 C 267.875 248.003906 269.152344 245.539062 270.273438 243.027344 C 271.675781 245.847656 272.394531 248.722656 272.429688 251.675781 C 271.285156 253.898438 270.054688 256.023438 268.753906 258.039062 Z M 265.753906 222.414062 C 262.378906 219.550781 258.339844 216.949219 253.789062 214.644531 C 254.960938 208.507812 255.613281 202.441406 255.691406 196.609375 C 260.425781 199.019531 264.566406 201.753906 268.011719 204.753906 C 268.011719 210.175781 267.351562 215.753906 265.992188 221.457031 C 265.925781 221.777344 265.835938 222.09375 265.753906 222.414062 Z M 226.078125 150.066406 C 228.507812 152.246094 230.574219 154.925781 232.296875 158.085938 C 227.34375 156.71875 222.050781 155.65625 216.53125 154.914062 C 215.71875 152.007812 214.707031 149.464844 213.449219 147.445312 C 217.863281 148.058594 222.097656 148.9375 226.078125 150.066406 Z M 169.65625 150.101562 C 173.636719 148.972656 177.894531 148.082031 182.320312 147.457031 C 181.0625 149.472656 180.058594 152.019531 179.25 154.914062 C 173.730469 155.667969 168.4375 156.730469 163.484375 158.085938 C 165.183594 154.960938 167.238281 152.28125 169.65625 150.101562 Z M 129.773438 221.457031 C 128.429688 215.753906 127.765625 210.164062 127.757812 204.746094 C 131.167969 201.789062 135.308594 199.0625 140.078125 196.644531 C 140.167969 202.429688 140.804688 208.429688 141.96875 214.519531 C 137.40625 216.8125 133.367188 219.390625 129.980469 222.242188 C 129.910156 221.980469 129.84375 221.71875 129.773438 221.457031 Z M 119.714844 242.527344 C 119.714844 239.390625 120.476562 236.332031 121.925781 233.410156 C 122.78125 236.285156 123.832031 239.136719 125.039062 241.945312 C 123.625 244.558594 122.792969 247.25 122.53125 249.988281 C 121.503906 247.84375 120.570312 245.605469 119.738281 243.269531 C 119.726562 243.027344 119.714844 242.777344 119.714844 242.527344 Z M 123.933594 256.5 C 123.695312 255.589844 123.535156 254.675781 123.445312 253.75 C 124.539062 255.769531 125.703125 257.710938 126.933594 259.546875 C 126.933594 259.558594 126.933594 259.570312 126.933594 259.582031 C 126.933594 260.894531 127.082031 262.195312 127.367188 263.484375 C 126.101562 261.210938 124.960938 258.886719 123.933594 256.5 Z M 133.128906 272.324219 C 133.070312 272.265625 133.015625 272.222656 132.945312 272.199219 C 131.738281 270.554688 130.609375 268.867188 129.535156 267.144531 C 128.601562 265.101562 128.042969 263.015625 127.882812 260.90625 C 131.484375 266.039062 135.582031 270.464844 139.894531 274.25 C 139.90625 276.339844 140.363281 278.402344 141.238281 280.410156 C 138.25 278.039062 135.492188 275.359375 133.128906 272.324219 Z M 147.183594 287.109375 C 146.007812 285.988281 144.980469 284.835938 144.125 283.652344 C 148.519531 286.628906 153.261719 289.011719 158.066406 290.859375 C 158.726562 292.105469 159.617188 293.300781 160.746094 294.476562 C 157.074219 293.210938 153.546875 291.558594 150.367188 289.570312 C 149.292969 288.773438 148.234375 287.964844 147.183594 287.109375 Z M 248.585938 287.109375 C 247.511719 287.976562 246.417969 288.820312 245.3125 289.628906 C 242.140625 291.613281 238.617188 293.246094 234.964844 294.5 C 236.082031 293.347656 236.984375 292.128906 237.667969 290.871094 C 242.472656 289.035156 247.21875 286.652344 251.609375 283.675781 C 250.765625 284.847656 249.75 286 248.585938 287.109375 Z M 262.8125 272.199219 C 262.753906 272.222656 262.695312 272.265625 262.652344 272.324219 C 260.277344 275.371094 257.507812 278.050781 254.519531 280.433594 C 255.394531 278.414062 255.851562 276.351562 255.863281 274.261719 C 260.175781 270.476562 264.269531 266.050781 267.875 260.9375 C 267.714844 263.050781 267.144531 265.125 266.222656 267.167969 C 265.148438 268.878906 264.019531 270.554688 262.8125 272.199219 Z M 268.390625 263.484375 C 268.675781 262.203125 268.824219 260.894531 268.824219 259.582031 C 270.054688 257.734375 271.21875 255.816406 272.3125 253.785156 C 272.222656 254.699219 272.0625 255.601562 271.835938 256.511719 C 270.796875 258.886719 269.65625 261.222656 268.390625 263.484375 Z M 271.425781 191.589844 C 269.929688 189.652344 268.128906 187.792969 266.085938 186.011719 C 265.378906 183.8125 264.546875 181.644531 263.585938 179.535156 C 265.058594 180.949219 266.371094 182.410156 267.488281 183.9375 C 268.949219 186.414062 270.25 188.980469 271.425781 191.589844 Z M 246.738281 163.347656 C 242.699219 161.441406 238.25 159.785156 233.480469 158.417969 C 231.929688 155.40625 230.082031 152.804688 227.925781 150.59375 C 231.097656 151.574219 234.097656 152.726562 236.882812 154.015625 C 237.964844 154.621094 239.039062 155.234375 240.097656 155.898438 C 242.609375 157.949219 244.832031 160.449219 246.738281 163.347656 Z M 210.074219 144.878906 C 210.585938 145.289062 211.066406 145.753906 211.535156 146.304688 C 207.257812 145.789062 202.839844 145.515625 198.324219 145.492188 L 198.324219 143.976562 C 202.292969 143.988281 206.21875 144.296875 210.074219 144.878906 Z M 197.433594 143.964844 L 197.433594 145.492188 C 192.9375 145.515625 188.511719 145.800781 184.234375 146.3125 C 184.691406 145.765625 185.183594 145.289062 185.695312 144.878906 C 189.527344 144.296875 193.453125 143.988281 197.433594 143.964844 Z M 128.335938 183.890625 C 129.445312 182.398438 130.722656 180.949219 132.171875 179.566406 C 131.199219 181.699219 130.367188 183.890625 129.660156 186.128906 C 127.585938 187.917969 125.792969 189.8125 124.300781 191.75 C 125.507812 189.046875 126.855469 186.421875 128.335938 183.890625 Z M 117.351562 222.984375 C 117.5 220.738281 118.023438 218.535156 118.914062 216.390625 C 119.210938 221.671875 120.113281 226.945312 121.5625 232.132812 C 120.078125 234.859375 119.199219 237.667969 118.925781 240.554688 C 117.875 235.328125 117.328125 229.957031 117.328125 224.515625 C 117.328125 224 117.339844 223.488281 117.351562 222.984375 Z M 115.960938 224.320312 C 115.960938 224.378906 115.972656 224.421875 115.996094 224.480469 C 115.996094 224.492188 115.984375 224.503906 115.984375 224.515625 C 115.984375 246.382812 124.503906 266.949219 139.972656 282.417969 C 155.441406 297.886719 176 306.398438 197.878906 306.398438 C 243.007812 306.398438 279.730469 269.699219 279.773438 224.582031 C 279.808594 224.503906 279.832031 224.410156 279.832031 224.320312 C 279.832031 223.601562 279.785156 222.894531 279.71875 222.1875 C 279.136719 201.183594 270.707031 181.519531 255.785156 166.609375 C 240.316406 151.140625 219.757812 142.617188 197.878906 142.617188 C 176.011719 142.617188 155.441406 151.140625 139.972656 166.609375 C 124.960938 181.621094 116.519531 201.425781 116.039062 222.585938 C 115.984375 223.167969 115.960938 223.738281 115.960938 224.320312 " fill-opacity="1" fill-rule="nonzero"/></g><g clip-path="url(#d076ab3203)"><path fill="#004aad" d="M 284.578125 240.460938 C 283.332031 240.566406 282.535156 241.398438 282.785156 242.308594 C 283.035156 243.234375 284.246094 243.894531 285.488281 243.792969 C 294.183594 243.0625 301.164062 241.75 305.964844 239.878906 C 311.066406 237.894531 313.859375 235.25 313.859375 231.953125 C 313.859375 225.105469 300.808594 217.167969 279.730469 209.878906 C 259.378906 202.839844 231.304688 196.175781 200.332031 191.578125 C 184.679688 189.265625 169.804688 187.691406 156.285156 186.824219 C 136.710938 185.566406 119.941406 185.820312 107.839844 187.460938 C 94.992188 189.207031 87.15625 192.640625 86.347656 197.683594 C 86.300781 197.980469 86.277344 198.277344 86.277344 198.5625 C 86.277344 201.402344 88.398438 204.367188 92.324219 207.367188 C 96.101562 210.230469 101.597656 213.1875 108.511719 216.105469 C 109.652344 216.585938 111.03125 216.347656 111.589844 215.546875 C 112.148438 214.761719 111.683594 213.734375 110.542969 213.242188 C 104.050781 210.503906 98.929688 207.765625 95.519531 205.167969 C 92.507812 202.875 90.875 200.742188 90.875 198.859375 C 90.875 198.675781 90.898438 198.503906 90.921875 198.355469 C 91.492188 194.808594 98.097656 192.242188 109.035156 190.757812 C 120.71875 189.160156 137.074219 188.945312 156.285156 190.164062 C 169.65625 191.019531 184.371094 192.582031 199.808594 194.875 C 230.402344 199.40625 258.078125 205.964844 278.074219 212.878906 C 297.332031 219.539062 309.25 226.328125 309.25 231.65625 C 309.25 233.695312 307.234375 235.453125 303.535156 236.890625 C 299.191406 238.578125 292.722656 239.777344 284.578125 240.460938 " fill-opacity="1" fill-rule="nonzero"/></g><g clip-path="url(#640f06a691)"><path fill="#004aad" d="M 282.445312 140.746094 L 282.558594 140.746094 C 283.332031 150.957031 291.480469 159.113281 301.6875 159.878906 L 301.6875 160.003906 C 291.480469 160.769531 283.332031 168.925781 282.558594 179.132812 L 282.445312 179.132812 C 281.667969 168.925781 273.523438 160.769531 263.3125 160.003906 L 263.3125 159.878906 C 273.523438 159.113281 281.667969 150.957031 282.445312 140.746094 " fill-opacity="1" fill-rule="evenodd"/></g><path fill="#004aad" d="M 301.996094 175.972656 L 302.054688 175.972656 C 302.371094 180.320312 305.839844 183.789062 310.175781 184.109375 L 310.175781 184.164062 C 305.839844 184.484375 302.371094 187.953125 302.054688 192.289062 L 301.996094 192.289062 C 301.675781 187.953125 298.210938 184.484375 293.863281 184.164062 L 293.863281 184.109375 C 298.210938 183.789062 301.675781 180.320312 301.996094 175.972656 " fill-opacity="1" fill-rule="evenodd"/><g clip-path="url(#fac41058f4)"><g clip-path="url(#8be9dbb8d3)"><g clip-path="url(#0a3bfaa709)"><path fill="#231f20" d="M 256.613281 145.011719 L 314.078125 117.550781 L 341.648438 175.246094 L 284.179688 202.707031 Z M 256.613281 145.011719 " fill-opacity="1" fill-rule="nonzero"/></g></g></g><path stroke-linecap="butt" transform="matrix(1.594667, -0.101691, 0.101691, 1.594667, 132.937774, 199.858787)" fill="none" stroke-linejoin="miter" d="M 1.298519 25.000214 L 16.118456 24.99974 C 19.178025 24.998882 21.407204 22.769851 21.406813 19.702962 L 21.40804 16.802748 C 21.407649 13.73586 19.176178 11.506525 16.116764 11.504944 L 9.084058 11.504743 C 8.716554 11.505803 8.433435 11.220746 8.432064 10.858122 C 8.433443 10.490774 8.718501 10.207655 9.086004 10.206594 L 20.760672 10.206413 C 21.123141 10.207481 21.408354 9.921922 21.406983 9.559298 L 21.408312 4.8905 C 21.407252 4.522997 21.121693 4.237784 20.761508 4.239311 L 5.941572 4.239785 C 2.882158 4.238203 0.645504 6.469207 0.645896 9.536096 L 0.646641 12.443784 C 0.64506 15.503198 2.88385 17.732999 5.943419 17.732141 L 12.976126 17.732342 C 13.336154 17.733255 13.621713 18.018468 13.620334 18.385816 C 13.621861 18.746 13.336648 19.031559 12.974024 19.03293 L 1.299355 19.033112 C 0.932008 19.031732 0.646794 19.317291 0.645882 19.67732 L 0.646525 24.353593 C 0.645457 24.716061 0.931172 24.998835 1.298519 25.000214 Z M 1.298519 25.000214 " stroke="#231f20" stroke-width="5.22441" stroke-opacity="1" stroke-miterlimit="4"/><path stroke-linecap="butt" transform="matrix(1.597657, -0.0282075, 0.0282075, 1.597657, 169.245608, 197.56941)" fill="none" stroke-linejoin="miter" d="M 5.94277 25.000341 L 20.761833 25.000366 C 21.121263 24.999377 21.407916 24.689035 21.406927 24.329604 L 21.407133 18.640124 C 21.408632 18.278293 21.122732 17.992071 20.760857 17.993017 L 9.086059 17.992271 C 8.716852 17.993088 8.433396 17.70691 8.432407 17.347479 L 8.433273 11.897619 C 8.432413 11.530856 8.718634 11.244956 9.085354 11.246541 L 20.760195 11.244843 C 21.122027 11.246341 21.40868 10.935999 21.407734 10.574124 L 21.407811 4.891977 C 21.406994 4.522769 21.123495 4.239035 20.761664 4.237537 L 5.942601 4.237512 C 2.881439 4.2397 0.646478 6.469188 0.646136 9.535195 L 0.645086 19.703876 C 0.647188 22.769926 2.881651 25.000085 5.94277 25.000341 Z M 5.94277 25.000341 " stroke="#231f20" stroke-width="5.22441" stroke-opacity="1" stroke-miterlimit="4"/><path stroke-linecap="butt" transform="matrix(1.597263, 0.0453359, -0.0453359, 1.597263, 205.620341, 196.953121)" fill="none" stroke-linejoin="miter" d="M 1.299477 25.001072 L 7.785163 25.000404 C 8.147097 24.999914 8.431731 24.688582 8.431309 24.329092 L 8.432451 18.251768 C 8.432029 17.892278 8.717357 17.605382 9.084247 17.607196 L 12.97517 17.60681 C 13.337104 17.606319 13.621556 17.891716 13.622046 18.25365 L 13.62153 24.352966 C 13.62202 24.7149 13.906472 25.000297 14.273293 24.999668 L 20.761423 24.998931 C 21.123426 25.000884 21.40806 24.689552 21.40757 24.327618 L 21.406609 17.917754 C 21.407106 16.384354 20.292053 15.269022 18.758653 15.268524 L 18.531188 15.267644 C 18.164368 15.268273 17.877472 14.982945 17.879494 14.623386 C 17.878796 14.254122 18.164193 13.96967 18.531013 13.96904 L 18.758478 13.969921 C 20.291877 13.970418 21.40721 12.855365 21.407708 11.321965 L 21.407475 8.470414 C 21.406746 6.032181 19.621922 4.238866 17.181245 4.239664 L 1.299535 4.238009 C 0.930271 4.238707 0.647317 4.52309 0.645572 4.892424 L 0.64527 24.35444 C 0.645691 24.71393 0.930143 24.999327 1.299477 25.001072 Z M 9.085996 11.637461 C 8.716732 11.638159 8.43228 11.352762 8.43165 10.985942 C 8.433603 10.623939 8.716557 10.339556 9.085821 10.338857 L 12.97437 10.340984 C 13.336303 10.340493 13.620756 10.62589 13.621177 10.98538 C 13.621876 11.354644 13.336479 11.639097 12.974545 11.639587 Z M 9.085996 11.637461 " stroke="#231f20" stroke-width="5.22441" stroke-opacity="1" stroke-miterlimit="4"/><path stroke-linecap="butt" transform="matrix(1.594099, 0.110239, -0.110239, 1.594099, 241.845853, 198.085225)" fill="none" stroke-linejoin="miter" d="M 5.239043 25.000242 L 11.700803 24.999364 C 12.068476 25.000893 12.353254 24.689596 12.355289 24.32924 L 12.353289 11.898275 C 12.354818 11.530603 12.6634 11.244615 13.026195 11.246481 L 15.623614 11.245741 C 15.983802 11.245336 16.270435 10.960867 16.270031 10.600679 L 16.269715 4.891166 C 16.270491 4.54805 15.984503 4.239468 15.624316 4.239872 L 1.299649 4.21355 C 0.932146 4.21446 0.645512 4.49893 0.646422 4.866434 L 0.645986 10.600504 C 0.64639 10.960691 0.930692 11.244886 1.298364 11.246414 L 3.890906 11.246011 C 4.25841 11.245101 4.567267 11.530048 4.568178 11.897552 L 4.566986 24.353242 C 4.567559 24.715868 4.878855 25.000646 5.239043 25.000242 Z M 5.239043 25.000242 " stroke="#231f20" stroke-width="5.22441" stroke-opacity="1" stroke-miterlimit="4"/><g fill="#ffffff" fill-opacity="1"><g transform="translate(135.480054, 239.725457)"><g><path d="M 2.070312 -0.132812 L 25.699219 -1.640625 C 30.582031 -1.949219 33.914062 -5.734375 33.601562 -10.617188 L 33.304688 -15.253906 C 32.996094 -20.136719 29.207031 -23.46875 24.324219 -23.15625 L 13.113281 -22.441406 C 12.53125 -22.40625 12.046875 -22.832031 12.011719 -23.410156 C 11.972656 -23.988281 12.398438 -24.472656 12.980469 -24.511719 L 31.601562 -25.699219 C 32.179688 -25.734375 32.605469 -26.21875 32.570312 -26.800781 L 32.09375 -34.246094 C 32.058594 -34.828125 31.574219 -35.253906 30.996094 -35.214844 L 7.367188 -33.710938 C 2.480469 -33.398438 -0.851562 -29.613281 -0.539062 -24.730469 L -0.242188 -20.09375 C 0.0703125 -15.210938 3.855469 -11.878906 8.738281 -12.191406 L 19.953125 -12.90625 C 20.53125 -12.941406 21.015625 -12.515625 21.050781 -11.9375 C 21.089844 -11.359375 20.664062 -10.875 20.082031 -10.835938 L 1.460938 -9.648438 C 0.882812 -9.613281 0.457031 -9.128906 0.492188 -8.550781 L 0.96875 -1.101562 C 1.003906 -0.519531 1.488281 -0.09375 2.070312 -0.132812 Z M 2.070312 -0.132812 "/></g></g></g><g fill="#ffffff" fill-opacity="1"><g transform="translate(169.950795, 237.510836)"><g><path d="M 9.496094 -0.167969 L 33.167969 -0.585938 C 33.746094 -0.597656 34.195312 -1.101562 34.183594 -1.683594 L 34.023438 -10.761719 C 34.015625 -11.34375 33.550781 -11.789062 32.96875 -11.78125 L 14.3125 -11.449219 C 13.734375 -11.441406 13.269531 -11.886719 13.257812 -12.46875 L 13.105469 -21.175781 C 13.09375 -21.753906 13.542969 -22.21875 14.121094 -22.230469 L 32.78125 -22.558594 C 33.359375 -22.570312 33.808594 -23.074219 33.796875 -23.65625 L 33.636719 -32.734375 C 33.625 -33.316406 33.164062 -33.761719 32.582031 -33.753906 L 8.910156 -33.335938 C 4.015625 -33.25 0.515625 -29.621094 0.601562 -24.726562 L 0.886719 -8.476562 C 0.972656 -3.582031 4.601562 -0.0820312 9.496094 -0.167969 Z M 9.496094 -0.167969 "/></g></g></g><g fill="#ffffff" fill-opacity="1"><g transform="translate(204.486943, 236.884688)"><g><path d="M 2.074219 0.0585938 L 12.433594 0.351562 C 13.015625 0.371094 13.484375 -0.113281 13.5 -0.695312 L 13.777344 -10.394531 C 13.792969 -10.976562 14.261719 -11.417969 14.84375 -11.402344 L 21.058594 -11.226562 C 21.640625 -11.207031 22.082031 -10.738281 22.066406 -10.160156 L 21.789062 -0.417969 C 21.773438 0.160156 22.214844 0.628906 22.796875 0.648438 L 33.160156 0.941406 C 33.738281 0.957031 34.210938 0.472656 34.226562 -0.105469 L 34.515625 -10.34375 C 34.585938 -12.789062 32.855469 -14.625 30.410156 -14.691406 L 30.035156 -14.703125 C 29.457031 -14.71875 29.011719 -15.1875 29.027344 -15.769531 C 29.046875 -16.347656 29.515625 -16.792969 30.09375 -16.777344 L 30.46875 -16.765625 C 32.914062 -16.695312 34.746094 -18.425781 34.816406 -20.871094 L 34.945312 -25.433594 C 35.054688 -29.328125 32.277344 -32.269531 28.378906 -32.378906 L 3.011719 -33.101562 C 2.433594 -33.117188 1.964844 -32.671875 1.949219 -32.09375 L 1.066406 -1.007812 C 1.050781 -0.425781 1.492188 0.0429688 2.074219 0.0585938 Z M 15.113281 -20.933594 C 14.53125 -20.949219 14.089844 -21.417969 14.105469 -22 C 14.121094 -22.582031 14.589844 -23.023438 15.171875 -23.007812 L 21.390625 -22.832031 C 21.96875 -22.8125 22.414062 -22.34375 22.394531 -21.765625 C 22.378906 -21.183594 21.910156 -20.742188 21.332031 -20.757812 Z M 15.113281 -20.933594 "/></g></g></g><g fill="#ffffff" fill-opacity="1"><g transform="translate(239.089882, 237.937693)"><g><path d="M 8.355469 0.578125 L 18.65625 1.289062 C 19.234375 1.332031 19.726562 0.867188 19.765625 0.285156 L 21.136719 -19.527344 C 21.175781 -20.109375 21.703125 -20.527344 22.28125 -20.488281 L 26.417969 -20.203125 C 27 -20.164062 27.484375 -20.585938 27.523438 -21.164062 L 28.152344 -30.265625 C 28.191406 -30.804688 27.769531 -31.332031 27.191406 -31.371094 L 4.359375 -32.992188 C 3.78125 -33.03125 3.292969 -32.609375 3.253906 -32.027344 L 2.621094 -22.886719 C 2.582031 -22.308594 3.003906 -21.820312 3.585938 -21.78125 L 7.722656 -21.496094 C 8.300781 -21.457031 8.765625 -20.964844 8.726562 -20.386719 L 7.351562 -0.53125 C 7.3125 0.046875 7.777344 0.539062 8.355469 0.578125 Z M 8.355469 0.578125 "/></g></g></g></svg>