<svg xmlns="http://www.w3.org/2000/svg" xmlns:xlink="http://www.w3.org/1999/xlink" width="70" zoomAndPan="magnify" viewBox="0 0 52.5 37.5" height="50" preserveAspectRatio="xMidYMid meet" version="1.0"><defs><g/><clipPath id="d4268c2038"><path d="M 8 13.722656 L 19 13.722656 L 19 23.34375 L 8 23.34375 Z M 8 13.722656 " clip-rule="nonzero"/></clipPath><clipPath id="68430f2e29"><path d="M 7.136719 16 L 20.457031 16 L 20.457031 20 L 7.136719 20 Z M 7.136719 16 " clip-rule="nonzero"/></clipPath><clipPath id="6a00aca58d"><path d="M 17 13.722656 L 20 13.722656 L 20 16 L 17 16 Z M 17 13.722656 " clip-rule="nonzero"/></clipPath><clipPath id="87127fcac6"><path d="M 19 15 L 20.457031 15 L 20.457031 17 L 19 17 Z M 19 15 " clip-rule="nonzero"/></clipPath></defs><g fill="#fffce9" fill-opacity="1"><g transform="translate(21.446874, 20.749958)"><g><path d="M 0.015625 -0.828125 L 0.640625 -1.609375 C 0.953125 -1.347656 1.25 -1.15625 1.53125 -1.03125 C 1.8125 -0.90625 2.109375 -0.84375 2.421875 -0.84375 C 2.753906 -0.84375 3.015625 -0.898438 3.203125 -1.015625 C 3.398438 -1.140625 3.5 -1.304688 3.5 -1.515625 C 3.5 -1.691406 3.429688 -1.828125 3.296875 -1.921875 C 3.171875 -2.023438 2.953125 -2.101562 2.640625 -2.15625 L 1.59375 -2.34375 C 1.144531 -2.414062 0.800781 -2.570312 0.5625 -2.8125 C 0.332031 -3.050781 0.21875 -3.363281 0.21875 -3.75 C 0.21875 -4.238281 0.40625 -4.625 0.78125 -4.90625 C 1.15625 -5.195312 1.660156 -5.34375 2.296875 -5.34375 C 2.671875 -5.34375 3.050781 -5.273438 3.4375 -5.140625 C 3.832031 -5.003906 4.175781 -4.820312 4.46875 -4.59375 L 3.875 -3.78125 C 3.59375 -4 3.316406 -4.160156 3.046875 -4.265625 C 2.773438 -4.367188 2.5 -4.421875 2.21875 -4.421875 C 1.925781 -4.421875 1.691406 -4.363281 1.515625 -4.25 C 1.335938 -4.144531 1.25 -4.003906 1.25 -3.828125 C 1.25 -3.660156 1.304688 -3.53125 1.421875 -3.4375 C 1.535156 -3.351562 1.726562 -3.289062 2 -3.25 L 3 -3.09375 C 3.519531 -3.007812 3.910156 -2.84375 4.171875 -2.59375 C 4.429688 -2.34375 4.5625 -2.015625 4.5625 -1.609375 C 4.5625 -1.097656 4.359375 -0.6875 3.953125 -0.375 C 3.554688 -0.0703125 3.023438 0.078125 2.359375 0.078125 C 1.929688 0.078125 1.515625 0 1.109375 -0.15625 C 0.703125 -0.320312 0.335938 -0.546875 0.015625 -0.828125 Z M 0.015625 -0.828125 "/></g></g></g><g fill="#fffce9" fill-opacity="1"><g transform="translate(25.971058, 20.749958)"><g><path d="M 3.109375 -0.9375 C 3.378906 -0.9375 3.632812 -0.992188 3.875 -1.109375 C 4.113281 -1.222656 4.328125 -1.382812 4.515625 -1.59375 L 5.234375 -0.890625 C 4.984375 -0.597656 4.660156 -0.363281 4.265625 -0.1875 C 3.878906 -0.0078125 3.484375 0.078125 3.078125 0.078125 C 2.679688 0.078125 2.3125 0.0078125 1.96875 -0.125 C 1.625 -0.269531 1.328125 -0.460938 1.078125 -0.703125 C 0.828125 -0.941406 0.628906 -1.226562 0.484375 -1.5625 C 0.335938 -1.894531 0.265625 -2.25 0.265625 -2.625 C 0.265625 -3.007812 0.335938 -3.367188 0.484375 -3.703125 C 0.628906 -4.035156 0.828125 -4.320312 1.078125 -4.5625 C 1.328125 -4.800781 1.625 -4.988281 1.96875 -5.125 C 2.3125 -5.269531 2.679688 -5.34375 3.078125 -5.34375 C 3.492188 -5.34375 3.898438 -5.253906 4.296875 -5.078125 C 4.691406 -4.898438 5.015625 -4.660156 5.265625 -4.359375 L 4.53125 -3.625 C 4.34375 -3.851562 4.125 -4.03125 3.875 -4.15625 C 3.625 -4.28125 3.359375 -4.34375 3.078125 -4.34375 C 2.835938 -4.34375 2.613281 -4.296875 2.40625 -4.203125 C 2.195312 -4.117188 2.015625 -4 1.859375 -3.84375 C 1.710938 -3.695312 1.597656 -3.519531 1.515625 -3.3125 C 1.429688 -3.101562 1.390625 -2.875 1.390625 -2.625 C 1.390625 -2.382812 1.429688 -2.160156 1.515625 -1.953125 C 1.609375 -1.742188 1.726562 -1.5625 1.875 -1.40625 C 2.03125 -1.257812 2.210938 -1.144531 2.421875 -1.0625 C 2.628906 -0.976562 2.859375 -0.9375 3.109375 -0.9375 Z M 3.109375 -0.9375 "/></g></g></g><g fill="#fffce9" fill-opacity="1"><g transform="translate(31.141559, 20.749958)"><g><path d="M 0.46875 0 L 0.46875 -5.265625 L 3.046875 -5.265625 C 3.304688 -5.265625 3.546875 -5.222656 3.765625 -5.140625 C 3.992188 -5.054688 4.1875 -4.941406 4.34375 -4.796875 C 4.507812 -4.660156 4.632812 -4.488281 4.71875 -4.28125 C 4.8125 -4.082031 4.859375 -3.863281 4.859375 -3.625 C 4.859375 -3.300781 4.765625 -3.007812 4.578125 -2.75 C 4.390625 -2.488281 4.140625 -2.296875 3.828125 -2.171875 L 5 0 L 3.78125 0 L 2.75 -2.015625 L 1.5625 -2.015625 L 1.5625 0 Z M 2.953125 -4.328125 L 1.5625 -4.328125 L 1.5625 -2.90625 L 2.953125 -2.90625 C 3.191406 -2.90625 3.382812 -2.96875 3.53125 -3.09375 C 3.6875 -3.226562 3.765625 -3.398438 3.765625 -3.609375 C 3.765625 -3.828125 3.6875 -4 3.53125 -4.125 C 3.382812 -4.257812 3.191406 -4.328125 2.953125 -4.328125 Z M 2.953125 -4.328125 "/></g></g></g><g fill="#fffce9" fill-opacity="1"><g transform="translate(36.018963, 20.749958)"><g><path d="M 0.140625 -4.296875 L 0.140625 -5.265625 L 4.765625 -5.265625 L 4.765625 -4.296875 L 3 -4.296875 L 3 0 L 1.90625 0 L 1.90625 -4.296875 Z M 0.140625 -4.296875 "/></g></g></g><g clip-path="url(#d4268c2038)"><path fill="#004aad" d="M 9.007812 17.652344 C 9.003906 17.742188 9 17.835938 9.003906 17.925781 C 8.980469 17.964844 8.964844 18 8.949219 18.039062 C 8.960938 17.910156 8.980469 17.777344 9.007812 17.652344 Z M 10.882812 14.777344 C 10.796875 14.867188 10.722656 14.972656 10.652344 15.085938 C 10.496094 15.164062 10.351562 15.25 10.222656 15.339844 C 10.421875 15.132812 10.644531 14.941406 10.882812 14.777344 Z M 16.878906 15.339844 C 16.746094 15.25 16.601562 15.164062 16.445312 15.085938 C 16.375 14.972656 16.300781 14.867188 16.214844 14.773438 C 16.429688 14.925781 16.632812 15.09375 16.824219 15.285156 C 16.84375 15.300781 16.859375 15.320312 16.878906 15.339844 Z M 18.097656 17.925781 C 18.097656 17.832031 18.097656 17.742188 18.089844 17.648438 C 18.117188 17.777344 18.136719 17.902344 18.148438 18.035156 C 18.132812 17.996094 18.117188 17.960938 18.097656 17.925781 Z M 18.078125 19.527344 C 18.070312 19.351562 18.019531 19.179688 17.933594 19.015625 C 18.019531 18.710938 18.074219 18.398438 18.089844 18.089844 C 18.136719 18.203125 18.164062 18.316406 18.175781 18.429688 C 18.179688 18.472656 18.179688 18.515625 18.179688 18.558594 C 18.179688 18.886719 18.144531 19.210938 18.078125 19.527344 Z M 16.71875 21.933594 C 16.730469 21.917969 16.742188 21.898438 16.75 21.882812 C 16.785156 21.855469 16.824219 21.824219 16.859375 21.796875 C 16.847656 21.808594 16.835938 21.820312 16.824219 21.832031 C 16.789062 21.867188 16.753906 21.898438 16.71875 21.933594 Z M 10.238281 21.792969 C 10.273438 21.824219 10.308594 21.851562 10.347656 21.882812 C 10.355469 21.898438 10.367188 21.914062 10.378906 21.933594 C 10.34375 21.898438 10.308594 21.867188 10.273438 21.832031 C 10.261719 21.820312 10.25 21.808594 10.238281 21.792969 Z M 9.46875 17.46875 C 9.472656 17.769531 9.507812 18.078125 9.582031 18.394531 C 9.589844 18.417969 9.59375 18.441406 9.601562 18.464844 C 9.558594 18.503906 9.519531 18.539062 9.480469 18.578125 C 9.367188 18.695312 9.269531 18.8125 9.199219 18.933594 C 9.113281 18.621094 9.066406 18.304688 9.054688 17.988281 C 9.148438 17.804688 9.289062 17.632812 9.46875 17.46875 Z M 9.210938 16.9375 C 9.300781 16.765625 9.429688 16.601562 9.597656 16.449219 C 9.515625 16.742188 9.46875 17.050781 9.464844 17.367188 C 9.421875 17.40625 9.378906 17.445312 9.335938 17.484375 C 9.222656 17.601562 9.128906 17.71875 9.054688 17.835938 C 9.054688 17.65625 9.066406 17.476562 9.09375 17.296875 C 9.128906 17.175781 9.167969 17.054688 9.210938 16.9375 Z M 9.917969 15.6875 C 9.886719 15.742188 9.855469 15.800781 9.828125 15.855469 C 9.792969 15.886719 9.757812 15.917969 9.726562 15.949219 C 9.785156 15.859375 9.851562 15.773438 9.917969 15.6875 Z M 10.480469 15.429688 C 10.273438 15.535156 10.085938 15.648438 9.929688 15.773438 C 9.980469 15.679688 10.035156 15.589844 10.09375 15.503906 C 10.242188 15.378906 10.414062 15.269531 10.605469 15.167969 C 10.558594 15.25 10.519531 15.335938 10.480469 15.429688 Z M 11.472656 14.820312 C 11.433594 14.902344 11.398438 14.992188 11.367188 15.085938 C 11.234375 15.121094 11.105469 15.164062 10.980469 15.210938 C 10.828125 15.269531 10.6875 15.328125 10.550781 15.394531 C 10.59375 15.296875 10.640625 15.207031 10.691406 15.125 C 10.925781 15.007812 11.1875 14.90625 11.472656 14.820312 Z M 11.113281 14.621094 C 11.179688 14.578125 11.25 14.539062 11.316406 14.5 C 11.472656 14.429688 11.640625 14.367188 11.820312 14.3125 C 11.695312 14.4375 11.589844 14.585938 11.503906 14.757812 C 11.230469 14.839844 10.972656 14.933594 10.742188 15.042969 C 10.847656 14.878906 10.972656 14.738281 11.113281 14.621094 Z M 11.902344 14.234375 C 11.890625 14.238281 11.878906 14.242188 11.867188 14.246094 C 11.878906 14.238281 11.894531 14.234375 11.910156 14.226562 C 11.90625 14.230469 11.902344 14.230469 11.902344 14.234375 Z M 12.695312 14.070312 C 12.457031 14.101562 12.226562 14.148438 12.011719 14.203125 C 12.011719 14.199219 12.011719 14.195312 12.011719 14.191406 C 12.25 14.105469 12.5 14.039062 12.757812 13.996094 C 12.734375 14.019531 12.714844 14.042969 12.695312 14.070312 Z M 15.089844 14.203125 C 14.871094 14.144531 14.640625 14.101562 14.40625 14.070312 C 14.386719 14.042969 14.363281 14.019531 14.34375 13.996094 C 14.597656 14.039062 14.847656 14.105469 15.085938 14.1875 C 15.085938 14.195312 15.085938 14.199219 15.089844 14.203125 Z M 15.195312 14.230469 C 15.191406 14.230469 15.191406 14.226562 15.1875 14.226562 C 15.203125 14.230469 15.21875 14.238281 15.230469 14.242188 C 15.21875 14.238281 15.207031 14.234375 15.195312 14.230469 Z M 16.546875 15.390625 C 16.414062 15.328125 16.269531 15.265625 16.117188 15.210938 C 15.992188 15.164062 15.863281 15.121094 15.734375 15.082031 C 15.703125 14.992188 15.664062 14.902344 15.625 14.820312 C 15.910156 14.90625 16.171875 15.007812 16.40625 15.125 C 16.460938 15.207031 16.503906 15.296875 16.546875 15.390625 Z M 17.003906 15.5 C 17.0625 15.589844 17.121094 15.679688 17.171875 15.773438 C 17.011719 15.648438 16.828125 15.53125 16.617188 15.429688 C 16.582031 15.335938 16.539062 15.25 16.492188 15.167969 C 16.683594 15.269531 16.855469 15.378906 17.003906 15.5 Z M 17.269531 15.851562 C 17.242188 15.796875 17.210938 15.738281 17.179688 15.683594 C 17.246094 15.769531 17.3125 15.859375 17.375 15.949219 C 17.34375 15.917969 17.304688 15.882812 17.269531 15.851562 Z M 17.761719 17.484375 C 17.722656 17.445312 17.679688 17.40625 17.632812 17.367188 C 17.628906 17.046875 17.582031 16.734375 17.5 16.4375 C 17.664062 16.59375 17.796875 16.757812 17.886719 16.933594 C 17.933594 17.054688 17.972656 17.175781 18.007812 17.300781 C 18.03125 17.480469 18.042969 17.65625 18.046875 17.835938 C 17.96875 17.71875 17.875 17.601562 17.761719 17.484375 Z M 17.601562 18.578125 C 17.570312 18.542969 17.53125 18.507812 17.496094 18.476562 C 17.503906 18.449219 17.507812 18.421875 17.515625 18.394531 C 17.589844 18.078125 17.628906 17.769531 17.632812 17.46875 C 17.65625 17.492188 17.683594 17.515625 17.707031 17.542969 C 17.851562 17.683594 17.964844 17.835938 18.042969 17.988281 C 18.03125 18.3125 17.984375 18.632812 17.898438 18.949219 C 17.820312 18.824219 17.722656 18.699219 17.601562 18.578125 Z M 17.707031 19.507812 C 17.636719 19.386719 17.542969 19.269531 17.429688 19.160156 C 17.390625 19.121094 17.351562 19.085938 17.3125 19.046875 C 17.378906 18.878906 17.433594 18.707031 17.480469 18.53125 C 17.511719 18.558594 17.539062 18.585938 17.566406 18.613281 C 17.699219 18.746094 17.800781 18.882812 17.878906 19.019531 C 17.832031 19.183594 17.773438 19.347656 17.707031 19.507812 Z M 18.023438 19.6875 C 17.980469 19.804688 17.933594 19.917969 17.882812 20.027344 C 17.867188 19.867188 17.820312 19.710938 17.738281 19.5625 C 17.804688 19.40625 17.863281 19.25 17.910156 19.089844 C 17.988281 19.253906 18.027344 19.421875 18.027344 19.59375 C 18.027344 19.625 18.027344 19.65625 18.023438 19.6875 Z M 17.886719 20.132812 C 17.910156 20.085938 17.933594 20.039062 17.953125 19.992188 C 17.933594 20.058594 17.910156 20.125 17.882812 20.191406 C 17.886719 20.171875 17.886719 20.152344 17.886719 20.132812 Z M 15.867188 22.308594 C 15.898438 22.234375 15.917969 22.15625 15.917969 22.078125 C 16.21875 21.921875 16.535156 21.71875 16.832031 21.464844 C 16.820312 21.59375 16.78125 21.722656 16.710938 21.847656 C 16.449219 22.039062 16.160156 22.191406 15.867188 22.308594 Z M 15.417969 22.796875 C 15.414062 22.796875 15.410156 22.800781 15.40625 22.800781 C 15.476562 22.757812 15.539062 22.710938 15.59375 22.664062 C 15.6875 22.636719 15.78125 22.601562 15.875 22.566406 C 15.726562 22.648438 15.574219 22.726562 15.417969 22.796875 Z M 11.5 22.664062 C 11.554688 22.710938 11.613281 22.753906 11.679688 22.796875 C 11.679688 22.796875 11.675781 22.796875 11.675781 22.796875 C 11.519531 22.726562 11.367188 22.648438 11.222656 22.5625 C 11.3125 22.601562 11.40625 22.632812 11.5 22.664062 Z M 10.269531 21.464844 C 10.566406 21.71875 10.878906 21.921875 11.179688 22.078125 C 11.179688 22.15625 11.199219 22.230469 11.230469 22.304688 C 10.9375 22.191406 10.648438 22.039062 10.386719 21.847656 C 10.316406 21.722656 10.277344 21.59375 10.269531 21.464844 Z M 9.210938 20.128906 C 9.210938 20.152344 9.214844 20.171875 9.214844 20.191406 C 9.1875 20.125 9.164062 20.054688 9.140625 19.984375 C 9.164062 20.035156 9.1875 20.082031 9.210938 20.128906 Z M 9.785156 19.046875 C 9.746094 19.085938 9.707031 19.121094 9.667969 19.160156 C 9.554688 19.269531 9.464844 19.386719 9.394531 19.503906 C 9.324219 19.339844 9.265625 19.171875 9.214844 19.003906 C 9.3125 18.832031 9.445312 18.671875 9.617188 18.523438 C 9.664062 18.699219 9.71875 18.875 9.785156 19.046875 Z M 10.347656 18.039062 C 10.382812 18.222656 10.425781 18.410156 10.480469 18.59375 C 10.230469 18.71875 10.011719 18.859375 9.828125 19.011719 C 9.761719 18.835938 9.703125 18.660156 9.660156 18.484375 C 9.851562 18.320312 10.082031 18.171875 10.347656 18.039062 Z M 10.316406 15.960938 C 10.265625 16.207031 10.230469 16.472656 10.226562 16.761719 C 10.226562 16.796875 10.226562 16.832031 10.226562 16.871094 C 9.957031 17.003906 9.71875 17.15625 9.519531 17.320312 C 9.527344 16.996094 9.578125 16.683594 9.671875 16.382812 C 9.851562 16.226562 10.070312 16.085938 10.316406 15.960938 Z M 10.332031 15.890625 C 10.09375 16.011719 9.878906 16.144531 9.699219 16.289062 C 9.75 16.152344 9.804688 16.015625 9.871094 15.886719 C 10.035156 15.742188 10.230469 15.613281 10.453125 15.496094 C 10.40625 15.621094 10.367188 15.75 10.332031 15.890625 Z M 11.25 15.535156 C 11.0625 15.589844 10.878906 15.652344 10.710938 15.71875 C 10.601562 15.765625 10.496094 15.8125 10.394531 15.859375 C 10.429688 15.71875 10.472656 15.585938 10.523438 15.460938 C 10.769531 15.335938 11.046875 15.230469 11.347656 15.140625 C 11.308594 15.261719 11.273438 15.394531 11.25 15.535156 Z M 12.398438 14.914062 C 12.378906 15.039062 12.363281 15.167969 12.351562 15.300781 C 11.984375 15.351562 11.632812 15.425781 11.304688 15.519531 C 11.332031 15.375 11.367188 15.246094 11.40625 15.121094 C 11.714844 15.035156 12.050781 14.964844 12.398438 14.914062 Z M 12.464844 14.609375 C 12.441406 14.691406 12.425781 14.773438 12.410156 14.863281 C 12.066406 14.910156 11.738281 14.976562 11.425781 15.066406 C 11.460938 14.972656 11.496094 14.886719 11.539062 14.800781 C 11.828125 14.71875 12.136719 14.65625 12.464844 14.609375 Z M 13.523438 14.488281 C 13.183594 14.488281 12.847656 14.507812 12.53125 14.550781 C 12.582031 14.375 12.644531 14.230469 12.71875 14.121094 C 12.980469 14.085938 13.25 14.070312 13.523438 14.066406 Z M 14.570312 14.550781 C 14.25 14.507812 13.914062 14.488281 13.574219 14.488281 L 13.574219 14.066406 C 13.851562 14.066406 14.117188 14.085938 14.378906 14.117188 C 14.453125 14.230469 14.519531 14.375 14.570312 14.550781 Z M 14.691406 14.863281 C 14.675781 14.773438 14.65625 14.691406 14.636719 14.609375 C 14.960938 14.65625 15.269531 14.71875 15.5625 14.800781 C 15.601562 14.882812 15.640625 14.972656 15.671875 15.066406 C 15.363281 14.976562 15.03125 14.910156 14.691406 14.863281 Z M 15.792969 15.515625 C 15.46875 15.421875 15.117188 15.351562 14.75 15.300781 C 14.734375 15.167969 14.71875 15.039062 14.699219 14.914062 C 15.050781 14.964844 15.382812 15.035156 15.691406 15.121094 C 15.734375 15.246094 15.765625 15.375 15.792969 15.515625 Z M 16.703125 15.855469 C 16.445312 15.730469 16.160156 15.621094 15.851562 15.53125 C 15.824219 15.390625 15.792969 15.261719 15.753906 15.140625 C 16.050781 15.230469 16.328125 15.335938 16.574219 15.460938 C 16.625 15.585938 16.667969 15.71875 16.703125 15.855469 Z M 16.765625 15.886719 C 16.730469 15.75 16.691406 15.617188 16.644531 15.496094 C 16.867188 15.613281 17.0625 15.742188 17.226562 15.882812 C 17.292969 16.011719 17.351562 16.148438 17.398438 16.285156 C 17.214844 16.140625 17.003906 16.003906 16.765625 15.886719 Z M 16.875 16.867188 C 16.875 16.832031 16.875 16.796875 16.871094 16.761719 C 16.867188 16.472656 16.835938 16.199219 16.777344 15.949219 C 17.027344 16.074219 17.242188 16.21875 17.425781 16.371094 C 17.519531 16.675781 17.570312 16.992188 17.578125 17.320312 C 17.378906 17.15625 17.140625 17.003906 16.875 16.867188 Z M 16.621094 18.59375 C 16.671875 18.410156 16.714844 18.226562 16.75 18.046875 C 17.015625 18.179688 17.246094 18.332031 17.4375 18.496094 C 17.390625 18.667969 17.335938 18.839844 17.269531 19.011719 C 17.085938 18.859375 16.867188 18.71875 16.621094 18.59375 Z M 17.046875 19.523438 C 16.875 19.378906 16.671875 19.246094 16.441406 19.132812 C 16.503906 18.96875 16.558594 18.808594 16.605469 18.644531 C 16.851562 18.769531 17.070312 18.910156 17.25 19.0625 C 17.191406 19.21875 17.121094 19.371094 17.046875 19.523438 Z M 17.464844 19.996094 C 17.394531 19.882812 17.308594 19.769531 17.199219 19.660156 C 17.164062 19.625 17.125 19.589844 17.085938 19.554688 C 17.164062 19.40625 17.230469 19.253906 17.292969 19.097656 C 17.328125 19.132812 17.363281 19.164062 17.394531 19.195312 C 17.515625 19.316406 17.609375 19.4375 17.679688 19.566406 C 17.617188 19.710938 17.542969 19.855469 17.464844 19.996094 Z M 14.792969 22.433594 C 14.789062 22.394531 14.78125 22.355469 14.761719 22.320312 C 15.136719 22.175781 15.484375 22 15.804688 21.796875 C 15.84375 21.878906 15.867188 21.960938 15.867188 22.046875 C 15.464844 22.253906 15.085938 22.378906 14.792969 22.433594 Z M 14.773438 22.585938 C 14.785156 22.554688 14.792969 22.519531 14.796875 22.488281 C 15.085938 22.429688 15.460938 22.308594 15.867188 22.105469 C 15.859375 22.183594 15.839844 22.257812 15.800781 22.332031 C 15.449219 22.464844 15.09375 22.550781 14.773438 22.585938 Z M 14.515625 22.878906 C 14.558594 22.851562 14.601562 22.820312 14.636719 22.789062 C 14.898438 22.804688 15.1875 22.773438 15.472656 22.699219 C 15.394531 22.753906 15.304688 22.808594 15.210938 22.855469 C 14.992188 22.910156 14.816406 22.910156 14.515625 22.878906 Z M 12.925781 23.023438 C 13.113281 23.078125 13.324219 23.109375 13.550781 23.109375 C 13.660156 23.109375 13.765625 23.101562 13.867188 23.089844 C 13.902344 23.121094 13.9375 23.148438 13.972656 23.171875 C 13.832031 23.183594 13.691406 23.191406 13.550781 23.191406 C 13.234375 23.191406 12.925781 23.160156 12.625 23.097656 C 12.730469 23.089844 12.828125 23.066406 12.925781 23.023438 Z M 12.464844 22.789062 C 12.5 22.820312 12.542969 22.851562 12.585938 22.878906 C 12.285156 22.910156 12.109375 22.910156 11.886719 22.855469 C 11.792969 22.808594 11.703125 22.753906 11.628906 22.699219 C 11.910156 22.773438 12.199219 22.804688 12.464844 22.789062 Z M 12.304688 22.488281 C 12.304688 22.519531 12.3125 22.554688 12.324219 22.585938 C 12.003906 22.546875 11.648438 22.464844 11.296875 22.332031 C 11.257812 22.257812 11.238281 22.183594 11.234375 22.105469 C 11.636719 22.308594 12.015625 22.429688 12.304688 22.488281 Z M 11.292969 21.792969 C 11.617188 22 11.964844 22.175781 12.335938 22.320312 C 12.320312 22.355469 12.308594 22.394531 12.304688 22.433594 C 12.015625 22.378906 11.632812 22.253906 11.230469 22.046875 C 11.234375 21.960938 11.253906 21.875 11.292969 21.792969 Z M 9.605469 20.046875 C 9.53125 20.191406 9.488281 20.335938 9.476562 20.484375 C 9.398438 20.367188 9.328125 20.246094 9.261719 20.121094 C 9.265625 19.949219 9.308594 19.78125 9.386719 19.625 C 9.453125 19.769531 9.523438 19.910156 9.605469 20.046875 Z M 10.011719 19.554688 C 9.972656 19.589844 9.933594 19.625 9.898438 19.660156 C 9.789062 19.769531 9.703125 19.882812 9.636719 19.996094 C 9.554688 19.855469 9.484375 19.710938 9.417969 19.566406 C 9.511719 19.402344 9.640625 19.246094 9.808594 19.097656 C 9.867188 19.253906 9.9375 19.40625 10.011719 19.554688 Z M 10.65625 19.132812 C 10.425781 19.246094 10.222656 19.378906 10.050781 19.519531 C 9.976562 19.371094 9.910156 19.214844 9.847656 19.0625 C 10.027344 18.910156 10.246094 18.769531 10.496094 18.644531 C 10.542969 18.808594 10.597656 18.972656 10.65625 19.132812 Z M 11.386719 18.300781 C 11.421875 18.46875 11.460938 18.636719 11.507812 18.804688 C 11.214844 18.886719 10.945312 18.992188 10.703125 19.109375 C 10.644531 18.945312 10.589844 18.785156 10.542969 18.621094 C 10.792969 18.5 11.078125 18.390625 11.386719 18.300781 Z M 11.273438 17.679688 C 11.300781 17.867188 11.335938 18.054688 11.375 18.25 C 11.066406 18.339844 10.78125 18.445312 10.527344 18.570312 C 10.472656 18.386719 10.429688 18.199219 10.394531 18.015625 C 10.65625 17.886719 10.953125 17.773438 11.273438 17.679688 Z M 11.171875 16.585938 C 11.179688 16.914062 11.210938 17.261719 11.265625 17.628906 C 10.945312 17.71875 10.648438 17.832031 10.382812 17.960938 C 10.316406 17.609375 10.28125 17.261719 10.277344 16.929688 C 10.542969 16.796875 10.84375 16.683594 11.171875 16.585938 Z M 11.191406 15.964844 C 11.175781 16.136719 11.167969 16.316406 11.171875 16.503906 C 10.847656 16.597656 10.546875 16.714844 10.277344 16.84375 C 10.277344 16.816406 10.277344 16.789062 10.277344 16.761719 C 10.285156 16.464844 10.316406 16.183594 10.378906 15.929688 C 10.636719 15.800781 10.925781 15.6875 11.238281 15.59375 C 11.21875 15.710938 11.203125 15.835938 11.191406 15.964844 Z M 12.3125 16.265625 C 11.929688 16.316406 11.5625 16.394531 11.222656 16.488281 C 11.222656 16.3125 11.226562 16.136719 11.242188 15.96875 C 11.253906 15.832031 11.269531 15.703125 11.292969 15.578125 C 11.621094 15.480469 11.976562 15.40625 12.34375 15.355469 C 12.320312 15.648438 12.308594 15.960938 12.3125 16.265625 Z M 13.523438 15.269531 L 13.523438 16.183594 C 13.121094 16.1875 12.730469 16.210938 12.351562 16.261719 C 12.351562 15.933594 12.363281 15.628906 12.390625 15.347656 C 12.753906 15.300781 13.132812 15.273438 13.523438 15.269531 Z M 13.523438 14.839844 L 13.523438 15.21875 C 13.140625 15.222656 12.761719 15.246094 12.394531 15.292969 C 12.410156 15.160156 12.425781 15.03125 12.449219 14.910156 C 12.792969 14.863281 13.152344 14.839844 13.523438 14.839844 Z M 13.523438 14.785156 C 13.160156 14.789062 12.800781 14.8125 12.457031 14.855469 C 12.472656 14.769531 12.492188 14.683594 12.515625 14.605469 C 12.839844 14.5625 13.175781 14.539062 13.523438 14.539062 Z M 13.574219 14.785156 L 13.574219 14.539062 C 13.921875 14.539062 14.261719 14.5625 14.585938 14.605469 C 14.605469 14.683594 14.625 14.765625 14.640625 14.855469 C 14.296875 14.8125 13.9375 14.789062 13.574219 14.785156 Z M 13.574219 15.21875 L 13.574219 14.839844 C 13.945312 14.839844 14.304688 14.863281 14.652344 14.910156 C 14.671875 15.03125 14.691406 15.160156 14.703125 15.292969 C 14.34375 15.246094 13.964844 15.222656 13.574219 15.21875 Z M 14.746094 16.261719 C 14.371094 16.210938 13.976562 16.183594 13.574219 16.183594 L 13.574219 15.269531 C 13.964844 15.273438 14.34375 15.296875 14.707031 15.347656 C 14.734375 15.625 14.746094 15.933594 14.746094 16.261719 Z M 15.859375 15.96875 C 15.871094 16.136719 15.878906 16.3125 15.875 16.488281 C 15.535156 16.394531 15.171875 16.316406 14.789062 16.265625 C 14.789062 15.960938 14.78125 15.648438 14.753906 15.351562 C 15.125 15.402344 15.476562 15.476562 15.804688 15.570312 C 15.828125 15.699219 15.84375 15.832031 15.859375 15.96875 Z M 15.929688 16.503906 C 15.929688 16.316406 15.921875 16.136719 15.910156 15.964844 C 15.898438 15.832031 15.878906 15.707031 15.859375 15.585938 C 16.171875 15.679688 16.460938 15.792969 16.71875 15.917969 C 16.78125 16.179688 16.816406 16.460938 16.820312 16.761719 C 16.824219 16.789062 16.820312 16.816406 16.824219 16.84375 C 16.550781 16.710938 16.25 16.597656 15.929688 16.503906 Z M 15.835938 17.632812 C 15.890625 17.265625 15.921875 16.914062 15.925781 16.582031 C 16.25 16.679688 16.554688 16.796875 16.824219 16.929688 C 16.820312 17.265625 16.78125 17.613281 16.714844 17.96875 C 16.449219 17.835938 16.152344 17.726562 15.835938 17.632812 Z M 15.722656 18.25 C 15.765625 18.058594 15.796875 17.871094 15.828125 17.6875 C 15.863281 17.699219 15.902344 17.707031 15.941406 17.71875 C 16.21875 17.808594 16.472656 17.910156 16.703125 18.023438 C 16.667969 18.203125 16.625 18.386719 16.574219 18.570312 C 16.316406 18.445312 16.03125 18.339844 15.722656 18.25 Z M 15.59375 18.804688 C 15.636719 18.632812 15.675781 18.464844 15.710938 18.300781 C 16.019531 18.386719 16.304688 18.496094 16.558594 18.621094 C 16.511719 18.785156 16.457031 18.945312 16.398438 19.109375 C 16.152344 18.992188 15.882812 18.886719 15.59375 18.804688 Z M 16.222656 19.539062 C 16.117188 19.773438 16.003906 20 15.878906 20.214844 C 15.683594 20.121094 15.464844 20.035156 15.226562 19.96875 C 15.296875 19.777344 15.363281 19.582031 15.425781 19.382812 C 15.480469 19.203125 15.53125 19.027344 15.578125 18.855469 C 15.871094 18.9375 16.136719 19.039062 16.378906 19.15625 C 16.328125 19.285156 16.277344 19.414062 16.222656 19.539062 Z M 16.402344 20.546875 C 16.265625 20.433594 16.105469 20.332031 15.925781 20.238281 C 16.050781 20.019531 16.164062 19.792969 16.269531 19.558594 C 16.324219 19.433594 16.378906 19.308594 16.425781 19.179688 C 16.652344 19.296875 16.855469 19.425781 17.023438 19.566406 C 16.851562 19.90625 16.644531 20.234375 16.402344 20.546875 Z M 16.53125 20.664062 C 16.503906 20.636719 16.472656 20.609375 16.441406 20.582031 C 16.683594 20.265625 16.890625 19.941406 17.0625 19.601562 C 17.097656 19.632812 17.128906 19.664062 17.160156 19.695312 C 17.277344 19.808594 17.367188 19.929688 17.433594 20.046875 C 17.417969 20.078125 17.398438 20.109375 17.378906 20.140625 C 17.199219 20.433594 16.988281 20.703125 16.753906 20.949219 C 16.699219 20.851562 16.625 20.757812 16.53125 20.664062 Z M 15.667969 21.523438 C 15.652344 21.507812 15.632812 21.488281 15.613281 21.472656 C 15.894531 21.222656 16.160156 20.941406 16.402344 20.636719 C 16.402344 20.628906 16.40625 20.625 16.410156 20.621094 C 16.441406 20.648438 16.46875 20.671875 16.496094 20.699219 C 16.589844 20.792969 16.660156 20.890625 16.71875 20.988281 C 16.453125 21.261719 16.152344 21.507812 15.824219 21.722656 C 15.785156 21.652344 15.730469 21.589844 15.667969 21.523438 Z M 14.660156 22.171875 C 14.65625 22.167969 14.652344 22.167969 14.648438 22.164062 C 14.964844 21.992188 15.277344 21.765625 15.574219 21.507812 C 15.59375 21.523438 15.613281 21.542969 15.632812 21.5625 C 15.691406 21.621094 15.742188 21.683594 15.78125 21.75 C 15.457031 21.953125 15.109375 22.128906 14.738281 22.273438 C 14.71875 22.238281 14.691406 22.203125 14.660156 22.171875 Z M 11.523438 21.507812 C 11.820312 21.765625 12.136719 21.988281 12.449219 22.164062 C 12.445312 22.167969 12.441406 22.167969 12.441406 22.171875 C 12.40625 22.203125 12.382812 22.238281 12.359375 22.273438 C 11.988281 22.128906 11.640625 21.953125 11.320312 21.75 C 11.367188 21.664062 11.4375 21.582031 11.523438 21.507812 Z M 10.6875 20.621094 C 10.691406 20.625 10.695312 20.628906 10.699219 20.636719 C 10.9375 20.941406 11.203125 21.222656 11.488281 21.472656 C 11.46875 21.488281 11.449219 21.507812 11.429688 21.523438 C 11.367188 21.585938 11.316406 21.652344 11.273438 21.722656 C 10.945312 21.507812 10.648438 21.261719 10.382812 20.988281 C 10.453125 20.859375 10.558594 20.734375 10.6875 20.621094 Z M 10.65625 20.582031 C 10.625 20.605469 10.597656 20.636719 10.566406 20.664062 C 10.472656 20.757812 10.402344 20.851562 10.34375 20.949219 C 10.109375 20.703125 9.898438 20.433594 9.71875 20.140625 C 9.699219 20.109375 9.683594 20.078125 9.664062 20.046875 C 9.753906 19.890625 9.878906 19.742188 10.035156 19.601562 C 10.207031 19.9375 10.414062 20.265625 10.65625 20.582031 Z M 10.828125 19.558594 C 10.933594 19.792969 11.046875 20.019531 11.171875 20.238281 C 10.992188 20.332031 10.832031 20.433594 10.695312 20.546875 C 10.457031 20.234375 10.246094 19.90625 10.074219 19.566406 C 10.242188 19.425781 10.445312 19.296875 10.675781 19.183594 C 10.722656 19.308594 10.773438 19.433594 10.828125 19.558594 Z M 11.671875 19.382812 C 11.734375 19.582031 11.800781 19.777344 11.871094 19.96875 C 11.632812 20.035156 11.414062 20.121094 11.21875 20.214844 C 11.09375 20 10.980469 19.773438 10.875 19.539062 C 10.820312 19.414062 10.769531 19.285156 10.722656 19.160156 C 10.960938 19.042969 11.230469 18.941406 11.519531 18.855469 C 11.566406 19.03125 11.617188 19.207031 11.671875 19.382812 Z M 12.484375 18.65625 C 12.535156 19.050781 12.597656 19.4375 12.664062 19.800781 C 12.40625 19.835938 12.15625 19.886719 11.925781 19.953125 C 11.796875 19.601562 11.675781 19.226562 11.574219 18.839844 C 11.859375 18.761719 12.164062 18.699219 12.484375 18.65625 Z M 12.417969 18.085938 C 12.4375 18.257812 12.457031 18.433594 12.476562 18.601562 C 12.15625 18.644531 11.847656 18.707031 11.558594 18.789062 C 11.515625 18.625 11.476562 18.457031 11.441406 18.285156 C 11.742188 18.203125 12.074219 18.132812 12.417969 18.085938 Z M 12.359375 17.453125 C 12.371094 17.574219 12.378906 17.683594 12.386719 17.78125 C 12.394531 17.863281 12.402344 17.949219 12.414062 18.035156 C 12.066406 18.082031 11.734375 18.148438 11.429688 18.234375 C 11.386719 18.042969 11.351562 17.855469 11.324219 17.664062 C 11.644531 17.574219 11.996094 17.503906 12.359375 17.453125 Z M 12.355469 17.402344 C 11.992188 17.449219 11.640625 17.519531 11.316406 17.613281 C 11.261719 17.257812 11.230469 16.90625 11.222656 16.570312 C 11.5625 16.472656 11.925781 16.398438 12.3125 16.34375 C 12.316406 16.726562 12.335938 17.09375 12.355469 17.402344 Z M 13.523438 17.324219 C 13.136719 17.324219 12.761719 17.347656 12.398438 17.394531 C 12.371094 17.035156 12.355469 16.675781 12.355469 16.339844 C 12.726562 16.289062 13.121094 16.261719 13.523438 16.261719 Z M 14.699219 17.398438 C 14.339844 17.351562 13.960938 17.324219 13.574219 17.324219 L 13.574219 16.261719 C 13.976562 16.261719 14.371094 16.289062 14.746094 16.339844 C 14.742188 16.675781 14.726562 17.035156 14.699219 17.398438 Z M 14.742188 17.402344 C 14.765625 17.09375 14.785156 16.726562 14.789062 16.34375 C 15.171875 16.394531 15.535156 16.472656 15.875 16.570312 C 15.871094 16.90625 15.835938 17.261719 15.78125 17.617188 C 15.457031 17.523438 15.109375 17.453125 14.742188 17.402344 Z M 14.6875 18.035156 C 14.695312 17.949219 14.703125 17.863281 14.710938 17.78125 C 14.71875 17.683594 14.730469 17.574219 14.738281 17.457031 C 15.097656 17.503906 15.449219 17.578125 15.773438 17.671875 C 15.746094 17.859375 15.710938 18.046875 15.671875 18.234375 C 15.363281 18.148438 15.03125 18.082031 14.6875 18.035156 Z M 14.621094 18.601562 C 14.640625 18.433594 14.664062 18.257812 14.679688 18.085938 C 15.023438 18.132812 15.355469 18.199219 15.660156 18.285156 C 15.625 18.453125 15.582031 18.621094 15.539062 18.789062 C 15.25 18.707031 14.945312 18.644531 14.621094 18.601562 Z M 14.433594 19.800781 C 14.5 19.4375 14.5625 19.050781 14.613281 18.652344 C 14.933594 18.699219 15.242188 18.757812 15.527344 18.839844 C 15.421875 19.222656 15.304688 19.601562 15.171875 19.953125 C 14.941406 19.886719 14.695312 19.835938 14.433594 19.800781 Z M 14.710938 21.019531 C 14.546875 20.976562 14.375 20.9375 14.191406 20.914062 C 14.273438 20.601562 14.351562 20.242188 14.425781 19.851562 C 14.683594 19.886719 14.925781 19.9375 15.15625 20 C 15.015625 20.375 14.863281 20.71875 14.710938 21.019531 Z M 15.199219 21.203125 C 15.066406 21.140625 14.921875 21.082031 14.765625 21.035156 C 14.917969 20.730469 15.070312 20.386719 15.210938 20.015625 C 15.445312 20.082031 15.660156 20.164062 15.855469 20.261719 C 15.660156 20.597656 15.4375 20.914062 15.199219 21.203125 Z M 15.246094 21.226562 C 15.484375 20.9375 15.707031 20.621094 15.902344 20.285156 C 16.078125 20.375 16.238281 20.476562 16.371094 20.589844 C 16.367188 20.59375 16.363281 20.597656 16.359375 20.601562 C 16.121094 20.910156 15.855469 21.191406 15.574219 21.441406 C 15.480469 21.363281 15.367188 21.289062 15.246094 21.226562 Z M 14.742188 21.082031 C 14.894531 21.128906 15.035156 21.179688 15.164062 21.242188 C 14.929688 21.519531 14.675781 21.773438 14.40625 22 C 14.34375 21.972656 14.277344 21.945312 14.203125 21.921875 C 14.378906 21.714844 14.5625 21.425781 14.742188 21.082031 Z M 14.179688 20.964844 C 14.355469 20.988281 14.527344 21.023438 14.6875 21.066406 C 14.507812 21.417969 14.324219 21.707031 14.152344 21.90625 C 14.0625 21.882812 13.964844 21.859375 13.867188 21.847656 C 13.96875 21.648438 14.074219 21.34375 14.179688 20.964844 Z M 13.574219 20.921875 C 13.765625 20.921875 13.953125 20.933594 14.128906 20.957031 C 14.027344 21.335938 13.917969 21.644531 13.8125 21.839844 C 13.734375 21.832031 13.65625 21.828125 13.574219 21.828125 Z M 13.289062 21.839844 C 13.179688 21.644531 13.070312 21.335938 12.96875 20.957031 C 13.144531 20.933594 13.332031 20.921875 13.523438 20.921875 L 13.523438 21.828125 C 13.445312 21.828125 13.363281 21.832031 13.289062 21.839844 Z M 12.949219 21.90625 C 12.777344 21.707031 12.59375 21.417969 12.410156 21.066406 C 12.570312 21.023438 12.742188 20.988281 12.921875 20.964844 C 13.023438 21.34375 13.128906 21.648438 13.234375 21.847656 C 13.132812 21.859375 13.039062 21.878906 12.949219 21.90625 Z M 12.691406 22 C 12.421875 21.773438 12.167969 21.519531 11.933594 21.242188 C 12.0625 21.183594 12.203125 21.128906 12.359375 21.082031 C 12.535156 21.425781 12.71875 21.714844 12.894531 21.921875 C 12.820312 21.945312 12.753906 21.96875 12.691406 22 Z M 11.855469 21.226562 C 11.730469 21.289062 11.621094 21.363281 11.523438 21.4375 C 11.246094 21.191406 10.980469 20.910156 10.738281 20.601562 C 10.734375 20.597656 10.730469 20.59375 10.726562 20.585938 C 10.859375 20.476562 11.019531 20.375 11.199219 20.285156 C 11.394531 20.621094 11.613281 20.9375 11.855469 21.226562 Z M 12.332031 21.035156 C 12.175781 21.082031 12.03125 21.136719 11.902344 21.203125 C 11.660156 20.914062 11.441406 20.597656 11.246094 20.261719 C 11.4375 20.167969 11.65625 20.085938 11.890625 20.015625 C 12.027344 20.386719 12.179688 20.734375 12.332031 21.035156 Z M 12.90625 20.914062 C 12.726562 20.9375 12.550781 20.976562 12.386719 21.019531 C 12.234375 20.71875 12.085938 20.375 11.945312 20 C 12.171875 19.9375 12.417969 19.886719 12.671875 19.851562 C 12.746094 20.242188 12.824219 20.601562 12.90625 20.914062 Z M 13.523438 19.792969 L 13.523438 20.871094 C 13.328125 20.871094 13.136719 20.882812 12.953125 20.90625 C 12.871094 20.59375 12.789062 20.234375 12.71875 19.847656 C 12.976562 19.8125 13.246094 19.796875 13.523438 19.792969 Z M 13.523438 18.582031 L 13.523438 19.742188 C 13.242188 19.742188 12.96875 19.761719 12.707031 19.796875 C 12.640625 19.433594 12.578125 19.042969 12.527344 18.648438 C 12.847656 18.609375 13.179688 18.585938 13.523438 18.582031 Z M 13.523438 18.011719 L 13.523438 18.53125 C 13.179688 18.535156 12.84375 18.554688 12.519531 18.597656 C 12.5 18.425781 12.476562 18.253906 12.460938 18.082031 C 12.800781 18.035156 13.15625 18.011719 13.523438 18.011719 Z M 13.523438 17.960938 C 13.15625 17.960938 12.796875 17.984375 12.453125 18.027344 C 12.433594 17.835938 12.417969 17.640625 12.402344 17.449219 C 12.761719 17.402344 13.136719 17.375 13.523438 17.375 Z M 13.574219 17.960938 L 13.574219 17.375 C 13.957031 17.378906 14.332031 17.402344 14.695312 17.449219 C 14.683594 17.640625 14.664062 17.835938 14.644531 18.027344 C 14.300781 17.984375 13.941406 17.960938 13.574219 17.960938 Z M 13.574219 18.53125 L 13.574219 18.011719 C 13.941406 18.011719 14.296875 18.035156 14.640625 18.078125 C 14.621094 18.253906 14.601562 18.425781 14.578125 18.597656 C 14.257812 18.554688 13.917969 18.535156 13.574219 18.53125 Z M 13.574219 19.742188 L 13.574219 18.582031 C 13.917969 18.585938 14.25 18.605469 14.570312 18.648438 C 14.519531 19.042969 14.457031 19.433594 14.390625 19.796875 C 14.128906 19.761719 13.855469 19.742188 13.574219 19.742188 Z M 13.574219 19.792969 C 13.851562 19.796875 14.121094 19.8125 14.382812 19.847656 C 14.308594 20.234375 14.226562 20.59375 14.144531 20.90625 C 13.960938 20.882812 13.769531 20.871094 13.574219 20.871094 Z M 12.492188 22.125 C 12.175781 21.953125 11.863281 21.734375 11.5625 21.472656 C 11.65625 21.398438 11.765625 21.328125 11.886719 21.265625 C 12.121094 21.546875 12.375 21.800781 12.644531 22.027344 C 12.585938 22.054688 12.535156 22.089844 12.492188 22.125 Z M 14.457031 22.027344 C 14.726562 21.800781 14.976562 21.546875 15.210938 21.265625 C 15.332031 21.328125 15.441406 21.398438 15.535156 21.472656 C 15.234375 21.734375 14.921875 21.957031 14.609375 22.125 C 14.5625 22.089844 14.511719 22.058594 14.457031 22.027344 Z M 14.082031 23.160156 C 14.03125 23.148438 13.980469 23.121094 13.933594 23.078125 C 14.019531 23.066406 14.097656 23.046875 14.175781 23.023438 C 14.273438 23.066406 14.367188 23.089844 14.472656 23.097656 C 14.34375 23.125 14.214844 23.144531 14.082031 23.160156 Z M 14.605469 22.710938 C 14.410156 22.90625 13.992188 23.03125 13.550781 23.03125 C 13.105469 23.03125 12.691406 22.90625 12.496094 22.710938 C 12.417969 22.632812 12.378906 22.550781 12.378906 22.46875 C 12.378906 22.15625 12.90625 21.902344 13.550781 21.902344 C 13.992188 21.902344 14.410156 22.03125 14.605469 22.226562 C 14.679688 22.304688 14.71875 22.382812 14.71875 22.46875 C 14.71875 22.550781 14.679688 22.632812 14.605469 22.710938 Z M 9.523438 20.558594 C 9.523438 20.402344 9.566406 20.25 9.636719 20.101562 C 9.648438 20.125 9.664062 20.144531 9.675781 20.167969 C 9.859375 20.46875 10.078125 20.746094 10.320312 21 C 10.261719 21.113281 10.226562 21.230469 10.21875 21.355469 C 9.96875 21.128906 9.730469 20.867188 9.523438 20.558594 Z M 10.265625 21.398438 C 10.269531 21.273438 10.300781 21.152344 10.355469 21.039062 C 10.625 21.308594 10.921875 21.554688 11.25 21.765625 C 11.210938 21.847656 11.1875 21.933594 11.179688 22.019531 C 10.878906 21.859375 10.5625 21.65625 10.265625 21.398438 Z M 11.464844 22.5625 C 11.414062 22.511719 11.371094 22.457031 11.335938 22.402344 C 11.6875 22.527344 12.035156 22.605469 12.347656 22.640625 C 12.367188 22.675781 12.390625 22.707031 12.417969 22.738281 C 12.132812 22.75 11.824219 22.707031 11.527344 22.617188 C 11.507812 22.601562 11.484375 22.582031 11.464844 22.5625 Z M 12.222656 22.996094 C 12.171875 22.980469 12.121094 22.960938 12.074219 22.941406 C 12.238281 22.960938 12.410156 22.949219 12.664062 22.921875 C 12.71875 22.949219 12.78125 22.976562 12.847656 23 C 12.707031 23.046875 12.566406 23.0625 12.398438 23.046875 C 12.398438 23.046875 12.394531 23.046875 12.394531 23.046875 C 12.335938 23.03125 12.277344 23.015625 12.222656 22.996094 Z M 14.878906 22.996094 C 14.820312 23.015625 14.761719 23.03125 14.703125 23.046875 C 14.53125 23.0625 14.394531 23.046875 14.253906 23 C 14.320312 22.976562 14.382812 22.949219 14.4375 22.921875 C 14.691406 22.949219 14.859375 22.960938 15.023438 22.941406 C 14.976562 22.960938 14.925781 22.980469 14.878906 22.996094 Z M 15.570312 22.617188 C 15.273438 22.707031 14.964844 22.75 14.683594 22.738281 C 14.710938 22.707031 14.734375 22.675781 14.75 22.640625 C 15.0625 22.605469 15.414062 22.53125 15.761719 22.402344 C 15.726562 22.457031 15.683594 22.511719 15.632812 22.5625 C 15.613281 22.582031 15.59375 22.601562 15.570312 22.617188 Z M 15.917969 22.019531 C 15.914062 21.933594 15.886719 21.851562 15.847656 21.765625 C 16.175781 21.554688 16.476562 21.308594 16.742188 21.039062 C 16.800781 21.152344 16.828125 21.273438 16.832031 21.398438 C 16.535156 21.65625 16.21875 21.859375 15.917969 22.019531 Z M 16.878906 21.355469 C 16.871094 21.234375 16.839844 21.113281 16.777344 21 C 17.023438 20.746094 17.238281 20.46875 17.421875 20.167969 C 17.4375 20.144531 17.449219 20.125 17.460938 20.101562 C 17.535156 20.25 17.574219 20.402344 17.574219 20.5625 C 17.367188 20.867188 17.132812 21.128906 16.878906 21.355469 Z M 17.625 20.488281 C 17.613281 20.335938 17.566406 20.191406 17.492188 20.050781 C 17.574219 19.910156 17.648438 19.769531 17.710938 19.625 C 17.792969 19.785156 17.832031 19.949219 17.835938 20.121094 C 17.769531 20.25 17.699219 20.371094 17.625 20.488281 Z M 17.453125 18.4375 C 17.257812 18.273438 17.023438 18.125 16.761719 17.992188 C 16.832031 17.640625 16.867188 17.289062 16.871094 16.953125 C 17.144531 17.09375 17.382812 17.25 17.582031 17.421875 C 17.582031 17.734375 17.542969 18.054688 17.464844 18.382812 C 17.460938 18.402344 17.457031 18.417969 17.453125 18.4375 Z M 15.171875 14.277344 C 15.308594 14.402344 15.429688 14.558594 15.527344 14.738281 C 15.242188 14.660156 14.9375 14.601562 14.621094 14.558594 C 14.574219 14.390625 14.515625 14.242188 14.445312 14.128906 C 14.699219 14.164062 14.941406 14.214844 15.171875 14.277344 Z M 11.925781 14.28125 C 12.15625 14.214844 12.398438 14.164062 12.65625 14.128906 C 12.582031 14.246094 12.523438 14.390625 12.476562 14.558594 C 12.160156 14.601562 11.855469 14.660156 11.570312 14.738281 C 11.667969 14.558594 11.789062 14.40625 11.925781 14.28125 Z M 9.632812 18.382812 C 9.554688 18.054688 9.519531 17.734375 9.515625 17.421875 C 9.714844 17.253906 9.953125 17.097656 10.226562 16.957031 C 10.230469 17.289062 10.269531 17.632812 10.335938 17.984375 C 10.074219 18.117188 9.839844 18.265625 9.644531 18.429688 C 9.640625 18.414062 9.636719 18.398438 9.632812 18.382812 Z M 9.054688 19.59375 C 9.054688 19.414062 9.097656 19.238281 9.183594 19.070312 C 9.230469 19.234375 9.292969 19.398438 9.363281 19.5625 C 9.28125 19.710938 9.230469 19.867188 9.21875 20.023438 C 9.15625 19.898438 9.105469 19.773438 9.054688 19.636719 C 9.054688 19.625 9.054688 19.609375 9.054688 19.59375 Z M 9.296875 20.398438 C 9.285156 20.34375 9.273438 20.292969 9.269531 20.238281 C 9.332031 20.355469 9.398438 20.46875 9.46875 20.574219 C 9.46875 20.652344 9.480469 20.726562 9.496094 20.800781 C 9.421875 20.667969 9.355469 20.535156 9.296875 20.398438 Z M 9.828125 21.308594 C 9.824219 21.304688 9.820312 21.300781 9.816406 21.300781 C 9.746094 21.207031 9.679688 21.109375 9.621094 21.011719 C 9.566406 20.890625 9.535156 20.773438 9.523438 20.652344 C 9.730469 20.945312 9.96875 21.199219 10.214844 21.417969 C 10.214844 21.539062 10.242188 21.65625 10.292969 21.773438 C 10.121094 21.636719 9.960938 21.480469 9.828125 21.308594 Z M 10.632812 22.15625 C 10.566406 22.09375 10.507812 22.027344 10.457031 21.957031 C 10.710938 22.128906 10.984375 22.265625 11.261719 22.375 C 11.296875 22.445312 11.347656 22.515625 11.414062 22.582031 C 11.203125 22.507812 11 22.414062 10.816406 22.300781 C 10.753906 22.253906 10.695312 22.207031 10.632812 22.15625 Z M 16.464844 22.15625 C 16.402344 22.207031 16.339844 22.257812 16.277344 22.300781 C 16.09375 22.417969 15.890625 22.511719 15.679688 22.582031 C 15.746094 22.515625 15.796875 22.445312 15.835938 22.375 C 16.113281 22.269531 16.386719 22.132812 16.636719 21.960938 C 16.589844 22.027344 16.53125 22.09375 16.464844 22.15625 Z M 17.28125 21.300781 C 17.277344 21.300781 17.277344 21.304688 17.273438 21.308594 C 17.136719 21.484375 16.976562 21.636719 16.804688 21.773438 C 16.855469 21.65625 16.882812 21.539062 16.882812 21.417969 C 17.128906 21.203125 17.367188 20.945312 17.574219 20.652344 C 17.5625 20.773438 17.53125 20.894531 17.476562 21.011719 C 17.417969 21.109375 17.351562 21.207031 17.28125 21.300781 Z M 17.601562 20.800781 C 17.621094 20.726562 17.628906 20.652344 17.628906 20.574219 C 17.699219 20.46875 17.765625 20.359375 17.828125 20.242188 C 17.824219 20.292969 17.8125 20.347656 17.800781 20.398438 C 17.742188 20.535156 17.675781 20.667969 17.601562 20.800781 Z M 17.777344 16.667969 C 17.691406 16.554688 17.585938 16.449219 17.46875 16.34375 C 17.429688 16.21875 17.382812 16.09375 17.328125 15.972656 C 17.410156 16.054688 17.488281 16.136719 17.550781 16.226562 C 17.636719 16.367188 17.710938 16.515625 17.777344 16.667969 Z M 16.359375 15.042969 C 16.125 14.933594 15.871094 14.835938 15.597656 14.757812 C 15.507812 14.585938 15.402344 14.4375 15.277344 14.308594 C 15.457031 14.367188 15.632812 14.429688 15.792969 14.503906 C 15.855469 14.539062 15.914062 14.574219 15.976562 14.613281 C 16.121094 14.730469 16.25 14.875 16.359375 15.042969 Z M 14.25 13.980469 C 14.28125 14.003906 14.308594 14.03125 14.335938 14.0625 C 14.089844 14.03125 13.835938 14.015625 13.574219 14.015625 L 13.574219 13.929688 C 13.804688 13.929688 14.027344 13.945312 14.25 13.980469 Z M 13.523438 13.929688 L 13.523438 14.015625 C 13.265625 14.015625 13.011719 14.035156 12.765625 14.0625 C 12.789062 14.03125 12.820312 14.003906 12.847656 13.980469 C 13.070312 13.945312 13.292969 13.929688 13.523438 13.929688 Z M 9.550781 16.222656 C 9.613281 16.136719 9.6875 16.054688 9.769531 15.976562 C 9.714844 16.097656 9.667969 16.222656 9.628906 16.351562 C 9.507812 16.453125 9.40625 16.5625 9.320312 16.675781 C 9.386719 16.519531 9.464844 16.367188 9.550781 16.222656 Z M 8.917969 18.472656 C 8.929688 18.34375 8.957031 18.214844 9.007812 18.09375 C 9.027344 18.394531 9.078125 18.699219 9.160156 18.996094 C 9.074219 19.152344 9.027344 19.316406 9.011719 19.480469 C 8.949219 19.179688 8.917969 18.871094 8.917969 18.558594 C 8.917969 18.53125 8.917969 18.5 8.917969 18.472656 Z M 8.839844 18.546875 C 8.839844 18.550781 8.839844 18.554688 8.839844 18.558594 C 8.839844 19.816406 9.332031 21 10.21875 21.886719 C 11.109375 22.777344 12.292969 23.265625 13.550781 23.265625 C 16.144531 23.265625 18.253906 21.15625 18.257812 18.5625 C 18.257812 18.558594 18.261719 18.554688 18.261719 18.546875 C 18.261719 18.507812 18.257812 18.464844 18.253906 18.425781 C 18.222656 17.21875 17.734375 16.085938 16.878906 15.230469 C 15.988281 14.339844 14.808594 13.851562 13.550781 13.851562 C 12.292969 13.851562 11.109375 14.339844 10.21875 15.230469 C 9.355469 16.09375 8.871094 17.230469 8.84375 18.449219 C 8.839844 18.480469 8.839844 18.515625 8.839844 18.546875 " fill-opacity="1" fill-rule="nonzero"/></g><g clip-path="url(#68430f2e29)"><path fill="#004aad" d="M 18.535156 19.476562 C 18.460938 19.480469 18.417969 19.53125 18.429688 19.582031 C 18.445312 19.636719 18.515625 19.671875 18.585938 19.667969 C 19.085938 19.625 19.488281 19.550781 19.761719 19.441406 C 20.054688 19.328125 20.21875 19.175781 20.21875 18.988281 C 20.21875 18.59375 19.46875 18.136719 18.253906 17.71875 C 17.085938 17.3125 15.472656 16.929688 13.691406 16.664062 C 12.789062 16.53125 11.933594 16.441406 11.15625 16.390625 C 10.03125 16.320312 9.066406 16.335938 8.371094 16.429688 C 7.632812 16.527344 7.183594 16.726562 7.136719 17.015625 C 7.132812 17.035156 7.132812 17.050781 7.132812 17.066406 C 7.132812 17.230469 7.253906 17.402344 7.480469 17.574219 C 7.699219 17.738281 8.011719 17.90625 8.410156 18.074219 C 8.476562 18.101562 8.554688 18.089844 8.589844 18.042969 C 8.621094 18 8.59375 17.9375 8.527344 17.910156 C 8.15625 17.753906 7.859375 17.597656 7.664062 17.445312 C 7.492188 17.316406 7.398438 17.191406 7.398438 17.082031 C 7.398438 17.074219 7.398438 17.0625 7.398438 17.054688 C 7.433594 16.851562 7.8125 16.703125 8.441406 16.617188 C 9.113281 16.527344 10.054688 16.515625 11.15625 16.585938 C 11.925781 16.632812 12.773438 16.722656 13.660156 16.855469 C 15.417969 17.117188 17.011719 17.492188 18.160156 17.890625 C 19.265625 18.273438 19.953125 18.664062 19.953125 18.96875 C 19.953125 19.085938 19.835938 19.1875 19.625 19.269531 C 19.375 19.367188 19 19.4375 18.535156 19.476562 " fill-opacity="1" fill-rule="nonzero"/></g><g clip-path="url(#6a00aca58d)"><path fill="#004aad" d="M 18.410156 13.742188 L 18.417969 13.742188 C 18.460938 14.328125 18.929688 14.800781 19.515625 14.84375 L 19.515625 14.851562 C 18.929688 14.894531 18.460938 15.363281 18.417969 15.949219 L 18.410156 15.949219 C 18.367188 15.363281 17.898438 14.894531 17.3125 14.851562 L 17.3125 14.84375 C 17.898438 14.800781 18.367188 14.328125 18.410156 13.742188 " fill-opacity="1" fill-rule="evenodd"/></g><g clip-path="url(#87127fcac6)"><path fill="#004aad" d="M 19.535156 15.769531 L 19.539062 15.769531 C 19.558594 16.019531 19.757812 16.21875 20.003906 16.234375 L 20.003906 16.238281 C 19.757812 16.257812 19.558594 16.457031 19.539062 16.707031 L 19.535156 16.707031 C 19.515625 16.457031 19.316406 16.257812 19.066406 16.238281 L 19.066406 16.234375 C 19.316406 16.21875 19.515625 16.019531 19.535156 15.769531 " fill-opacity="1" fill-rule="evenodd"/></g></svg>